<?xml version="1.0" encoding="utf-8"?>
<!-- Generator: Adobe Illustrator 15.0.0, SVG Export Plug-In . SVG Version: 6.00 Build 0)  -->
<!DOCTYPE svg PUBLIC "-//W3C//DTD SVG 1.1//EN" "http://www.w3.org/Graphics/SVG/1.1/DTD/svg11.dtd">
<svg version="1.1" id="Ebene_5" xmlns="http://www.w3.org/2000/svg" xmlns:xlink="http://www.w3.org/1999/xlink" x="0px" y="0px"
	 width="1275.59px" height="171.018px" viewBox="0 0 1275.59 171.018" enable-background="new 0 0 1275.59 171.018"
	 xml:space="preserve">
<g>
	<path fill="#308064" d="M99.177,49.602c0,0,7.599-1.228,11.88-4.473c4.283-3.245-7.555,7.239-9.229,7.237
		C100.146,52.368,99.177,49.602,99.177,49.602z"/>
	<g>
		<path d="M99.519,49.967c2.146-0.354,4.26-0.949,6.312-1.657c1.594-0.549,3.122-1.262,4.563-2.127
			c0.514-0.307,1.298-1.209,1.928-1.312c-0.229-0.242-0.458-0.484-0.688-0.729c0.043,0.361-1.351,1.336-1.582,1.541
			c-1.204,1.069-2.442,2.102-3.702,3.105C104.351,50.396,101.016,54.007,99.519,49.967c-0.107-0.297-0.584-0.453-0.687-0.729
			c0.365,0.982,0.949,1.828,1.687,2.563c1.34,1.333,2.27,0.812,3.663-0.136c1.805-1.223,3.486-2.632,5.148-4.035
			c0.405-0.342,3.062-2.157,2.992-2.761c-0.015-0.104-0.597-0.742-0.688-0.729c-0.442,0.07-1.084,0.737-1.412,0.978
			c-1.522,1.099-3.327,1.819-5.08,2.463c-2.029,0.742-4.176,1.303-6.312,1.654C98.991,49.214,99.312,50.001,99.519,49.967z"/>
	</g>
</g>
<g>
	<path fill="#308064" d="M97.733,52.64c0,0,1.307-7.188,0.629-13.137c0,0,3.401,8.214,1.974,14.595
		C99.759,56.664,97.733,52.64,97.733,52.64z"/>
	<g>
		<path d="M98.053,53.022c0.769-4.308,1.061-8.778,0.629-13.136c-0.212-0.249-0.425-0.499-0.637-0.748
			c1.037,2.539,1.691,5.25,2.091,7.957c0.326,2.205,0.302,4.437-0.124,6.619c-0.345,1.771-1.521,0.146-1.966-0.711
			c-0.136-0.263-0.534-0.542-0.631-0.729c0.736,1.43,2.75,4.729,3.38,1.49c0.875-4.493-0.413-9.717-2.12-13.896
			c-0.096-0.234-0.616-0.533-0.637-0.748c0.428,4.354,0.137,8.829-0.629,13.136C97.367,52.495,98.085,52.844,98.053,53.022z"/>
	</g>
</g>
<g>
	<g>
		<path fill="none" stroke="#333333" stroke-miterlimit="10" stroke-dasharray="8.14,8.14" d="M30.262,54.904
			c48.888,57.593,216.422,29.436,218.02,7.213c1.898-26.369-33.421-30.174-30.764-13.373c2.309,14.603,19.935,37.028,39.506,32.31"
			/>
		<path fill="none" stroke="#333333" stroke-miterlimit="10" d="M259.753,80.226c0.853-0.316,1.712-0.686,2.571-1.114"/>
		<g>
			<path fill="#333333" d="M265.969,76.953c-1.362,1.645-2.881,3.988-3.552,5.924l-0.59-3.521l-2.679-2.312
				C261.128,77.444,263.884,77.307,265.969,76.953z"/>
		</g>
	</g>
</g>
<g>
	<path fill="#679D46" d="M244.348,150.665c0,0,0.999-13.307,17.272-17.884c9.541-2.688,10.002-4.449,10.002-4.449
		s-1.331,8.379-8.851,10.059C250.053,141.23,244.348,150.665,244.348,150.665z"/>
	<g>
		<path d="M244.577,151.109c0.4-4.959,3.604-9.657,7.271-12.801c4.271-3.658,9.557-4.74,14.705-6.577
			c1.216-0.434,4.809-1.41,5.299-2.955c-0.153-0.296-0.307-0.593-0.459-0.889c-0.338,2.012-1.241,3.948-2.37,5.629
			c-2.761,4.107-7.36,4.353-11.602,6.043c-5.121,2.045-10.374,5.881-13.304,10.661C244.014,150.39,244.65,150.987,244.577,151.109
			c2.971-4.85,8.18-8.475,13.304-10.658c4.147-1.772,8.312-1.868,11.304-5.639c1.337-1.685,2.312-3.908,2.667-6.036
			c0.042-0.254-0.521-0.688-0.459-0.889c-0.449,1.413-3.583,2.294-4.697,2.729c-5.366,2.104-10.718,3.062-15.307,6.803
			c-3.705,3.018-6.874,7.918-7.271,12.801C244.095,150.517,244.598,150.847,244.577,151.109z"/>
	</g>
</g>
<g>
	<path fill="#EBBB25" d="M251.689,105.663c0,0,1-5.125,2.75-4.75s5.483,3.375,4.867,4.75
		C258.689,107.038,252.814,110.038,251.689,105.663z"/>
	<g>
		<path d="M252.186,105.602c0.271-1.35,0.674-2.732,1.398-3.911c0.542-0.88,0.814-0.626,1.65-0.181
			c1.039,0.554,1.975,1.342,2.768,2.204c1.316,1.436,0.849,2.393-0.646,3.302C255.314,108.257,252.942,108.134,252.186,105.602
			c-0.023-0.088-0.984,0.143-0.992,0.121c0.688,2.302,2.731,2.541,4.788,2.084c1.725-0.384,4.826-1.558,3.408-3.719
			c-1.151-1.754-3.507-3.521-5.681-3.146c-1.682,0.288-2.244,3.416-2.52,4.781C251.207,105.656,252.159,105.737,252.186,105.602z"/>
	</g>
</g>
<g>
	<g>
		<path fill="#EBBB25" d="M147.393,64.243c0,0,3.333-6.385,5-6.108s2.833,3.978,2.167,5.292c-0.666,1.315-10.5,14.538-12.167,14.538
			s-0.667-9.178,0-10.616C143.06,65.909,147.393,64.243,147.393,64.243z"/>
		<g>
			<path d="M147.79,64.546c0.88-1.67,1.876-3.299,3.062-4.771c0.479-0.588,1.123-1.328,1.938-1.34
				c1.168-0.014,1.559,3.11,1.554,3.933c-0.008,1.293-1.557,2.797-2.257,3.755c-1.491,2.038-3.038,4.036-4.625,6
				c-1.354,1.676-2.739,3.375-4.334,4.83c-0.312,0.281-0.698,0.646-1.133,0.709c0.358-0.055,0.091-0.324-0.002-0.853
				c-0.104-0.58-0.104-1.182-0.115-1.769c-0.045-2.299,0.182-4.744,0.765-6.975C143.138,66.179,146.163,65.184,147.79,64.546
				c-0.137,0.055-0.612-0.678-0.795-0.605c-2.077,0.812-4.76,1.771-5.297,4.146c-0.61,2.7-1.034,6.078-0.357,8.794
				c1.01,4.057,5.845-2.846,6.587-3.747c1.975-2.395,3.854-4.867,5.668-7.385c1.54-2.14,2.061-3.726,0.555-6.252
				c-2.604-4.374-5.941,2.145-7.152,4.441C146.956,64.014,147.802,64.523,147.79,64.546z"/>
		</g>
	</g>
	<g>
		<path fill="#EBBB25" d="M128.559,65.754c0,0-7.333-7.164-8.5-5.337s2,11.502,13.167,15.164s1.868-5.433,0.687-7.801
			C132.726,65.409,128.559,65.754,128.559,65.754z"/>
		<g>
			<path d="M128.841,65.968c-1.033-1.005-8.375-8.034-9.29-5.589c-0.729,1.951,0.998,4.854,1.962,6.417
				c1.438,2.325,3.493,4.229,5.666,5.854c2.854,2.138,7.005,4.195,10.658,4.107c2.6-0.062,0.188-3.477-0.42-4.354
				c-2.428-3.487-4.396-7.312-9.236-6.977c0.197-0.015,0.492,0.672,0.757,0.652c1.79-0.124,3.812,0.105,4.812,1.754
				c0.846,1.395,1.979,2.627,2.928,3.953c0.655,0.917,2.113,2.682,1.447,3.875c-0.905,1.621-5.733-0.562-6.698-0.929
				c-5.024-1.91-10.961-6.947-11.214-12.877c-0.173-4.056,7.165,2.808,8.066,3.684C128.366,65.627,129.117,66.236,128.841,65.968z"
				/>
		</g>
	</g>
	<g>
		<path fill="#EBBB25" d="M139.059,77.81c0,0-8.68-19.921-3.5-22.068c4.333-1.801,6,5.882,6,7.042
			C141.559,63.941,139.059,77.81,139.059,77.81z"/>
		<g>
			<path d="M139.414,78.137c-1.44-3.317-2.666-6.743-3.688-10.211c-0.799-2.716-3.223-9.678-0.03-11.731
				c3.112-2.005,4.813,2.805,5.322,5.027c0.322,1.405-0.005,2.75-0.229,4.152c-0.646,4.038-1.368,8.062-2.093,12.089
				c-0.039,0.22,0.747,0.557,0.723,0.688c0.831-4.612,1.69-9.23,2.367-13.871c0.43-2.945-1.044-7.067-3.72-8.649
				c-1.892-1.116-3.825-0.215-4.351,1.83c-0.636,2.489,0.169,5.444,0.769,7.856c1.022,4.147,2.518,8.242,4.219,12.16
				C138.819,77.744,139.343,77.974,139.414,78.137z"/>
		</g>
	</g>
	<g>
		<path fill="#EBBB25" d="M139.393,75.581c0,0-1.656-19.662,2.42-19.833c4.079-0.171,7.58,2.176,6.247,4.669
			s-7.333,17.548-7.333,17.548L139.393,75.581z"/>
		<g>
			<path d="M139.711,75.967c-0.266-3.191-0.365-6.406-0.324-9.608c0.028-2.217-0.382-9.349,2.548-10.197
				c1.375-0.399,3.301,0.278,4.541,0.825c1.875,0.825,1.682,2.167,0.974,3.642c-0.927,1.919-1.72,3.906-2.535,5.871
				c-1.532,3.683-3.026,7.38-4.503,11.084c0.209,0.251,0.419,0.503,0.629,0.754c-0.445-0.795-0.889-1.59-1.333-2.384
				c-0.146-0.263-0.518-0.545-0.622-0.737c0.445,0.795,0.889,1.591,1.333,2.385c0.062,0.109,0.651,0.699,0.629,0.754
				c1.669-4.187,3.361-8.36,5.104-12.521c0.784-1.872,2.18-4.007,2.518-6.015c0.212-1.259-1.364-2.645-2.251-3.279
				c-1.679-1.209-5.178-2.155-6.371,0.048c-1.034,1.908-1.082,4.479-1.207,6.587c-0.238,3.99-0.09,8.041,0.241,12.021
				C139.099,75.484,139.691,75.715,139.711,75.967z"/>
		</g>
	</g>
	<g>
		<path fill="#EBBB25" d="M131.726,58.743c0,0-3.333-4.415-4.833-2.874s-4.167,7.56,8.943,19.712
			C139.503,78.98,131.726,58.743,131.726,58.743z"/>
		<g>
			<path d="M132.123,59.018c-0.957-1.247-2.146-2.483-3.525-3.272c-1.643-0.938-2.551-0.025-3.098,1.543
				c-2.021,5.793,4.377,12.458,7.898,16.051c0.501,0.513,2.44,3.05,3.572,2.909c0.856-0.105-0.44-4.293-0.55-4.682
				c-1.178-4.248-2.712-8.419-4.291-12.53c-0.104-0.278-0.724-0.354-0.812-0.583c1.122,2.923,2.174,5.875,3.153,8.848
				c0.63,1.906,1.229,3.83,1.671,5.79c0.081,0.364,0.154,2.822,0.052,2.729c-4.349-3.783-9.888-9.574-10.183-15.73
				c-0.057-1.178,0.219-2.382,0.852-3.382c1.32-2.091,3.446,0.438,4.464,1.763C131.507,58.7,132.002,58.861,132.123,59.018z"/>
		</g>
	</g>
	<g>
		<path fill="#EBBB25" d="M135.726,59.077c0,0-1.813-4.559-4.833-3.208c-1.748,0.778-3.167,6.604,5.667,20.901
			c3.646,5.898,2.021-5.979,1.178-9.921C136.892,62.91,135.726,59.077,135.726,59.077z"/>
		<g>
			<path d="M136.055,59.43c-0.765-1.847-4.116-6.221-6.172-3.317c-2.469,3.488,1.104,10.42,2.575,13.513
				c1.323,2.776,2.769,5.938,4.847,8.248c0.923,1.023,1.607,1.138,1.814-0.472c0.733-5.729-1.438-12.582-3.061-17.951
				c-0.091-0.305-0.589-0.479-0.669-0.743c1.394,4.604,2.479,9.287,2.956,14.078c0.152,1.514,0.451,3.438-0.136,4.896
				c-0.492,1.222-1.662-1.106-1.831-1.386c-1.051-1.72-2.018-3.488-2.931-5.285c-1.879-3.7-4.077-8.396-3.428-12.684
				c0.53-3.517,4.233-2.353,5.375,0.396C135.508,58.991,135.983,59.254,136.055,59.43z"/>
		</g>
	</g>
	<g>
		<path fill="#EBBB25" d="M141.559,74.45c0,0,6.667-20.455,8-18.581s-1.833,11.432-2.833,13.067c-1,1.641-5.167,7.834-5.167,7.834
			V74.45z"/>
		<g>
			<path d="M141.899,74.817c0.869-2.671,1.796-5.323,2.752-7.967c1.216-3.356,2.304-7.511,4.533-10.371
				c0.094-0.117,0.198-0.211,0.315-0.298c0.207-0.154-0.254-1.036-0.015,0.066c0.201,0.938-0.015,2.012-0.157,2.939
				c-0.407,2.607-1.235,5.189-2.167,7.653c-1.306,3.451-3.897,6.521-5.942,9.562c0.229,0.245,0.453,0.49,0.682,0.734
				C141.899,76.366,141.899,75.591,141.899,74.817c0-0.271-0.682-0.521-0.682-0.731c0,0.771,0,1.549,0,2.323
				c0,0.139,0.695,0.709,0.682,0.731c2.352-3.498,5.018-6.877,6.423-10.882c0.92-2.624,3.503-8.479,0.89-10.787
				c-0.893-0.789-4.152,7.721-4.407,8.396c-1.276,3.375-2.465,6.785-3.584,10.218C141.158,74.272,141.936,74.703,141.899,74.817z"/>
		</g>
	</g>
	<g>
		<path fill="#679D46" d="M173.13,102.098c4.369-2.069,13.748,7.139,13.721,13.004c-0.016,3.438-0.64,17.028-1.22,22.267
			c-0.416,3.748-0.391,11.985-6.062,11.985c-6.601,0-6.135-15.819-6.438-25.812C172.766,111.624,173.13,102.098,173.13,102.098z"/>
		<g>
			<path d="M173.597,101.978c1.59-0.635,4.108,1.08,5.318,1.909c1.96,1.344,3.604,3.155,4.993,5.068
				c2.529,3.493,2.482,6.786,2.325,10.879c-0.188,4.965-0.444,9.932-0.833,14.884c-0.292,3.745-0.347,7.831-1.732,11.357
				c-0.831,2.106-2.671,3.714-5.021,2.876c-1.508-0.539-2.349-2.224-2.913-3.596c-1.809-4.399-1.781-9.688-1.938-14.363
				c-0.324-9.663-0.546-19.361-0.187-29.026c-0.002,0.062-0.96,0.13-0.965,0.263c-0.378,10.105-0.146,20.256,0.231,30.357
				c0.188,5.011,0.106,19.189,8.525,16.472c3.677-1.188,4.149-5.981,4.473-9.231c0.438-4.465,0.764-8.933,1.006-13.407
				c0.221-4.08,1.015-8.758,0.303-12.814c-0.783-4.463-4.921-8.652-8.679-10.847c-1.912-1.113-3.825-1.343-5.845-0.537
				C172.87,102.135,173.317,102.089,173.597,101.978z"/>
		</g>
	</g>
	<g>
		<path fill="#679D46" d="M179.23,166.017c0,0,3.169-17.928,2.419-27.266c-0.75-9.34-1.3-21.938-1.8-24.688s-0.032,25.828,0,28.5
			c0.062,4.875-1.979,17.104-3.219,23.454H179.23z"/>
		<g>
			<path d="M179.73,165.987c1.354-7.683,2.399-15.527,2.53-23.336c0.096-5.729-0.654-11.527-1.011-17.247
				c-0.165-2.646-0.328-5.288-0.534-7.934c-0.043-0.549,0.073-3.271-0.429-3.623c-0.117-0.082-0.896-0.037-0.998,0.062
				c-0.338,0.312-0.137,1.931-0.145,2.334c-0.035,1.914-0.024,3.826-0.021,5.74c0.015,4.812,0.075,9.621,0.139,14.434
				c0.045,3.379,0.177,6.741-0.128,10.108c-0.591,6.549-1.755,13.073-3.004,19.521c-0.003,0.014,0.158,0.013,0.146,0.013
				c0.865,0,1.732,0,2.602,0c0.124,0,1.086-0.084,0.703-0.084c-0.829,0-1.659,0-2.488,0c0.22,0,0.83-4.271,0.898-4.658
				c0.647-3.675,1.229-7.36,1.713-11.062c0.54-4.126,0.637-8.137,0.58-12.277c-0.07-5.041-0.135-10.083-0.158-15.125
				c-0.011-2.124-0.018-4.248,0.013-6.372c0.006-0.443-0.228-2.286,0.146-2.631c-0.333,0.021-0.666,0.04-0.998,0.062
				c0.439,0.309,0.346,2.629,0.387,3.107c0.22,2.562,0.368,5.127,0.529,7.69c0.36,5.78,1.042,11.608,1.062,17.399
				c0.027,7.981-1.15,16.088-2.534,23.938C178.736,166.014,179.71,166.104,179.73,165.987z"/>
		</g>
	</g>
	<g>
		<path fill="#679D46" d="M158.644,154.189c0,0-16.16-21.911-18.755-24.129c-2.592-2.217-1.011,12.135,3.364,15.316
			c4.375,3.184,17.068,14.898,17.942,13.71C162.071,157.895,159.901,155.886,158.644,154.189z"/>
		<g>
			<path d="M159.117,154.351c-3.716-5.037-7.476-10.045-11.288-15.009c-2.118-2.756-4.229-5.541-6.525-8.147
				c-0.443-0.505-1.866-2.067-2.689-1.38c-0.747,0.624-0.453,2.625-0.404,3.433c0.127,2.122,0.606,4.229,1.231,6.257
				c0.548,1.771,1.321,3.521,2.521,4.956c1.096,1.312,2.814,2.305,4.124,3.39c3.447,2.854,6.809,5.814,10.332,8.576
				c1.465,1.147,3.074,2.551,4.968,2.908c0.503,0.095,0.465-0.696,0.46-0.984C161.82,156.983,159.891,155.347,159.117,154.351
				c-0.185-0.23-0.791-0.123-0.946-0.324c0.248,0.319,4.052,4.979,2.305,4.979c0.447,0-0.482-0.354-0.771-0.543
				c-0.688-0.447-1.341-0.949-1.993-1.446c-3.536-2.698-6.87-5.662-10.282-8.515c-2.52-2.105-4.97-3.688-6.342-6.783
				c-1.37-3.093-2.229-6.947-1.925-10.342c0.035-0.392,0.124-0.771,0.303-1.112c0.279-0.54-0.315-0.627,0.166-0.17
				c0.7,0.664,1.309,1.438,1.924,2.178c2.281,2.74,4.442,5.582,6.607,8.414c3.376,4.416,6.709,8.866,10.01,13.341
				C158.345,154.262,158.969,154.151,159.117,154.351z"/>
		</g>
	</g>
	<g>
		<path fill="#679D46" d="M156.516,128.692c0,0,13.484-26.842,13.021-37.228c-0.192-4.297-13.342,30.013-13.342,30.013
			L156.516,128.692z"/>
		<g>
			<path d="M156.967,128.908c2.803-5.591,5.342-11.325,7.662-17.128c1.738-4.352,3.333-8.779,4.458-13.33
				c0.267-1.081,1.89-6.582,0.581-7.242c-1.21-0.609-1.451,0.399-2.021,1.469c-1.437,2.69-2.604,5.539-3.793,8.346
				c-2.629,6.2-5.103,12.472-7.533,18.749c-1.065,2.75-0.386,5.791-0.253,8.706C156.073,128.656,156.961,128.776,156.967,128.908
				c-0.082-1.83-0.163-3.659-0.245-5.488c-0.041-0.906-0.146-1.547,0.168-2.363c1.254-3.252,2.529-6.494,3.821-9.729
				c1.795-4.494,3.619-8.979,5.57-13.408c0.714-1.622,1.443-3.237,2.268-4.812c0.248-0.475,1.3-1.779,0.997-1.922
				c-0.188-0.097-0.375-0.189-0.562-0.289c0.484,0.522,0.044,2.394-0.025,3.021c-0.21,1.894-0.667,3.758-1.156,5.595
				c-1.174,4.404-2.804,8.69-4.507,12.913c-2.193,5.438-4.601,10.812-7.229,16.051C156.055,128.496,156.952,128.938,156.967,128.908
				z"/>
		</g>
	</g>
	<g>
		<path fill="#679D46" d="M163.809,166.017c-2.411-40.438-18.302-74.089-22.109-86.459c-0.57-1.853,4.229-3.462,3.693-4.627
			c-0.88-1.922-5.825-2.322-7.006-2.218c-3.119,0.279-4.176,3.727-4.176,3.727s2.661,0.6,4.849,4.932
			c3.657,7.235,12.117,29.428,17.471,48.906c3.812,13.874,4.71,31.662,4.176,35.74L163.809,166.017L163.809,166.017z"/>
		<g>
			<path d="M164.282,166.179c-1.527-24.549-8.08-48.235-16.568-71.212c-1.303-3.526-2.647-7.037-3.938-10.569
				c-0.496-1.354-0.979-2.722-1.424-4.097c-0.603-1.864,1.091-2.734,2.431-3.721c2.799-2.062-1.411-3.246-3.185-3.675
				c-3.303-0.803-6.666-0.268-7.858,3.368c-0.021,0.059,0.729,0.283,0.799,0.303c2.662,0.679,4.219,4.894,5.245,7.146
				c1.354,2.973,2.573,6.009,3.77,9.049c3.339,8.483,6.337,17.106,9.087,25.799c2.852,9.007,5.235,18.012,6.49,27.385
				c0.857,6.405,1.863,13.426,1.104,19.897c-0.013,0.086,0.818,0.327,0.926,0.327c1.035,0,2.068,0,3.104,0
				c-0.188,0-0.615-0.33-0.903-0.33c-1.035,0-2.07,0-3.106,0c0.31,0.108,0.617,0.219,0.926,0.327
				c0.854-7.247-0.396-15.118-1.432-22.273c-1.523-10.528-4.69-20.688-8.023-30.766c-2.938-8.886-6.133-17.713-9.783-26.331
				c-1.658-3.915-3.442-9.332-8.055-10.509c0.27,0.101,0.533,0.2,0.799,0.301c1.308-3.967,5.991-4.685,9.381-2.747
				c1.936,1.105,0.033,2.213-1.004,2.969c-1.403,1.024-2.104,1.749-1.555,3.455c2.117,6.543,4.772,12.92,7.097,19.395
				c7.665,21.354,13.322,43.475,14.735,66.186C163.347,166.026,164.278,166.102,164.282,166.179z"/>
		</g>
	</g>
</g>
<g>
	<path fill="#679D46" d="M231.373,165.992c6.834-10.028,12.568-19.479,14.249-22.494c4.733-8.503,13.19-18.21,10.815-30.335
		c-0.218-1.109-0.363-0.531-4.375-2.125c-4.314-1.716-0.625-9.875-0.625-9.875s2.875,7.375,2.75,6.625s0.36-4.847,0.485-4.222
		s3.301,2.099,3.051,0.849s-0.286-3.252-0.286-3.252s2.625,1.5,4.125,5.75s-2.25,3-3,4.375s-0.25,4.25-0.75,10.875
		c-0.445,5.925-14.521,30.677-21.793,43.828L231.373,165.992z"/>
	<g>
		<path d="M231.864,165.907c4.479-6.591,8.811-13.285,12.884-20.135c3.361-5.653,7.152-11.193,9.914-17.179
			c1.569-3.409,2.529-7.04,2.679-10.795c0.062-1.64,0.002-3.562-0.52-5.131c-0.197-0.604-1.578-0.763-2.058-0.915
			c-3.013-0.958-4.475-2.111-4.267-5.409c0.11-1.788,0.708-3.638,1.434-5.27c-0.329,0.057-0.657,0.11-0.985,0.17
			c0.411,1.054,0.827,2.104,1.246,3.152c0.366,0.918,0.747,2.847,1.504,3.521c0.07,0.062,0.986-0.133,0.985-0.17
			c-0.011-1.239-0.166-3.221,0.45-4.335c-0.328,0.057-0.656,0.109-0.985,0.169c0.539,0.991,2.063,1.523,3.153,1.339
			c1.699-0.292,0.663-2.479,0.631-3.852c-0.329,0.058-0.657,0.111-0.985,0.171c2.334,1.399,3.925,4.397,4.442,6.975
			c0.525,2.607-2.831,1.751-3.499,3.587c-0.913,2.504-0.316,6.036-0.45,8.646c-0.127,2.479-0.729,4.558-1.648,6.855
			c-5.396,13.478-13.25,26.091-20.263,38.765c0.322-0.06,0.646-0.115,0.97-0.176c-1.553,0.001-3.103,0.001-4.649,0.001
			c-0.298,0-0.732,0.181-0.948,0.181c1.55-0.001,3.103-0.001,4.649-0.001c0.157,0,0.89-0.034,0.967-0.177
			c7.023-12.691,14.753-25.309,20.26-38.762c0.805-1.958,1.449-3.872,1.601-5.987c0.214-3.043-0.312-6.554,0.503-9.519
			c0.512-1.861,3.315-0.82,3.533-3.106c0.236-2.533-2.35-6.175-4.479-7.452c-0.087-0.054-0.986,0.128-0.984,0.171
			c0.027,1.166,0.323,2.378,0.272,3.525c0.002-0.021-1.875-0.967-2.087-1.354c-0.028-0.056-0.941,0.091-0.985,0.169
			c-0.614,1.115-0.461,3.096-0.449,4.336c0.327-0.058,0.655-0.112,0.983-0.17c-0.669-0.603-1.003-2.274-1.329-3.084
			c-0.479-1.193-0.954-2.396-1.422-3.595c-0.016-0.037-0.949,0.09-0.985,0.171c-0.675,1.519-1.132,3.14-1.38,4.776
			c-0.476,3.146,0.736,4.658,3.599,5.689c0.795,0.287,1.766,0.416,2.486,0.872c0.807,0.51,0.629,3.037,0.685,3.835
			c0.267,4.017-0.83,7.993-2.36,11.663c-2.562,6.146-6.604,11.72-9.967,17.441c-4.116,7.005-8.562,13.827-13.125,20.545
			C230.992,165.912,231.721,166.12,231.864,165.907z"/>
	</g>
</g>
<g>
	<path fill="#EBBB25" d="M209.105,32.347c0,0,8.308-5.746,7.495-9.459c-0.809-3.714-2.847,0.188-5.579,1.381
		c-2.729,1.192-10.982,9.121-9.838,9.509C202.332,34.166,203.88,33.412,209.105,32.347z"/>
	<g>
		<path d="M209.556,32.561c2.803-1.955,7.517-5.312,7.546-9.094c0.01-1.286-0.723-1.934-1.786-2.318
			c-0.657-0.235-1.386,0.479-1.836,0.835c-1.125,0.889-2.175,1.649-3.431,2.342c-2.098,1.149-3.937,2.971-5.659,4.602
			c-1.229,1.165-3.2,2.707-3.757,4.383c-0.131,0.396,0.938,0.672,1.203,0.743c0.704,0.19,1.55-0.077,2.229-0.229
			C205.899,33.413,207.718,32.945,209.556,32.561c-0.229,0.048-0.623-0.483-0.903-0.429c-2.211,0.461-4.397,1.118-6.628,1.485
			c-0.191,0.026-0.389,0.045-0.584,0.049c-1.146,0.057,0.097,0.091,0.099,0.065c0.039-0.447,0.562-0.967,0.82-1.295
			c2.253-2.848,5.259-5.531,8.297-7.511c1.542-1.003,2.997-2.053,4.516-3.101c0.979-0.68,1.028,0.864,1.022,1.587
			c-0.007,0.854-0.514,1.7-0.939,2.402c-1.544,2.539-4.188,4.629-6.603,6.312C208.757,32.061,209.393,32.675,209.556,32.561z"/>
	</g>
</g>
<g>
	<path fill="#EBBB25" d="M200.68,33.735c0,0,20.47-7.9,22.619-7.04c2.146,0.863,0.492,4.479-5.647,7.403
		c-6.14,2.927-21.976,8.63-21.447,5.354C196.73,36.169,200.68,33.735,200.68,33.735z"/>
	<g>
		<path d="M201.161,33.694c3.64-1.4,7.307-2.736,10.991-4.013c2.568-0.889,5.153-1.742,7.776-2.453
			c1.906-0.518,4.78-0.804,3.378,2.076c-1.516,3.112-5.698,4.694-8.666,5.964c-3.041,1.3-6.157,2.438-9.306,3.445
			c-1.547,0.497-7.822,2.957-8.626,1.03c-0.843-2.02,3.049-5.163,4.466-6.062c-0.233,0.147-0.732-0.064-0.995,0.103
			c-1.127,0.713-6.303,5.271-4.027,6.517c1.232,0.676,3.623-0.002,4.892-0.25c3.926-0.771,7.757-2.189,11.479-3.62
			c3.958-1.521,8.494-3.128,11.279-6.477c1.312-1.579,1.04-3.539-1.165-3.354c-2.114,0.183-4.169,0.818-6.188,1.436
			c-5.492,1.669-10.898,3.673-16.255,5.736C200.391,33.702,200.887,33.8,201.161,33.694z"/>
	</g>
</g>
<g>
	<path fill="#EBBB25" d="M191.624,24.469c0,0-3.25-9.148-5.387-9.719c-2.134-0.569-1.714,6.438,2.603,11.838
		C193.154,31.99,191.624,24.469,191.624,24.469z"/>
	<g>
		<path d="M191.535,24.126c-0.98-2.742-2.107-5.501-3.635-7.987c-0.456-0.742-1.569-2.52-2.588-1.647
			c-1.001,0.854-0.386,3.313-0.178,4.345c0.725,3.581,2.551,7.455,5.365,9.812c2.044,1.718,1.43-2.931,1.263-3.771
			c-0.039-0.194-0.293-0.876-0.281-0.815c0.187,0.931,0.8,3.547-0.354,3.992c-1.104,0.426-3-2.688-3.323-3.146
			c-1.562-2.233-2.631-4.939-2.669-7.68c-0.011-0.801,0.178-2.151,1.251-2c1.038,0.149,1.807,1.846,2.256,2.62
			c1.266,2.187,2.22,4.592,3.068,6.965C191.842,25.171,191.577,24.242,191.535,24.126z"/>
	</g>
</g>
<g>
	<path fill="#EBBB25" d="M193.124,41.412c0,0-23.389,7.718-23.194,5.204c0.195-2.518,5.688-7.495,9.078-8.211
		c3.39-0.719,13.803-2.304,14.824-1.548C194.853,37.615,194.229,40.7,193.124,41.412z"/>
	<g>
		<path d="M192.667,41.209c-3.089,1.019-6.2,1.97-9.323,2.878c-3.981,1.159-8.926,3.173-13.146,2.807
			c-0.394-0.034,0.21,0.309,0.188-0.075c-0.023-0.509,0.318-1.069,0.543-1.5c0.712-1.354,1.918-2.479,3.037-3.49
			c2.405-2.18,4.913-3.151,8.037-3.691c3.005-0.52,6.036-0.948,9.077-1.192c0.583-0.047,1.167-0.067,1.751-0.076
			c0.307-0.009,0.609,0.009,0.916,0.045c0.336,0.044,0.298,0.058-0.115,0.041C194.571,38.01,193.525,40.448,192.667,41.209
			c0.07-0.064,0.782,0.521,0.914,0.405c1.488-1.321,1.896-4.192-0.188-4.981c-2.187-0.827-5.523,0.106-7.732,0.398
			c-3.394,0.446-7.07,0.696-10.062,2.479c-0.838,0.5-7.649,5.832-6.021,7.17c0.653,0.539,1.562,0.658,2.376,0.627
			c2.712-0.104,5.472-0.957,8.076-1.642c4.561-1.197,9.075-2.581,13.553-4.058C193.377,41.682,192.925,41.124,192.667,41.209z"/>
	</g>
</g>
<g>
	<path fill="#EBBB25" d="M193.817,31.043c0,0-11.146-11.396-14.167-11.771c-3.018-0.375,2.305,12.116,13.554,16.271
		C204.452,39.703,194.969,32.425,193.817,31.043z"/>
	<g>
		<path d="M194.315,31.094c-3.808-3.886-7.794-8.02-12.387-10.972c-0.881-0.565-1.992-1.042-3.073-0.891
			c-1.642,0.234,0.567,4.447,0.854,4.983c3.391,6.344,10.439,11.711,17.672,12.574c1.105,0.132,2.278,0.104,1.353-1.266
			C197.561,33.793,195.69,32.647,194.315,31.094c-0.173-0.195-0.846,0.067-0.995-0.102c1.046,1.179,2.323,2.153,3.429,3.279
			c1.068,1.096,2.487,2.969-0.337,2.225c-6.751-1.777-12.625-6.417-15.916-12.571c-0.562-1.053-1.698-3.146-0.994-4.359
			c0.217-0.375-0.425-0.431,0.311-0.146c0.396,0.148,0.765,0.386,1.123,0.604c1.006,0.608,1.934,1.359,2.844,2.101
			c3.371,2.724,6.514,5.777,9.543,8.874C193.512,31.187,194.148,30.924,194.315,31.094z"/>
	</g>
</g>
<g>
	<path fill="#EBBB25" d="M183.908,26.451c0,0-8.178-4.275-11.321-4.176c-3.146,0.104-2.999,3.676,3.448,6.288
		c6.444,2.614,12.813,4.873,17.377,4.729C197.973,33.145,184.665,26.836,183.908,26.451z"/>
	<g>
		<path d="M184.306,26.617c-3.354-1.747-7.239-3.851-11.01-4.435c-2.144-0.332-4.062,0.691-2.575,2.938
			c1.206,1.816,3.672,2.809,5.631,3.598c4.296,1.73,8.639,3.41,13.188,4.354c0.694,0.146,6.513,1.159,4.917-0.618
			C192.012,29.732,187.526,28.223,184.306,26.617c-0.179-0.092-0.846-0.354-0.798-0.331c2.574,1.281,5.156,2.545,7.623,4.027
			c0.855,0.52,2.461,1.263,2.768,2.308c0.315,1.067-5.888-0.076-6.024-0.104c-4.562-0.947-9.52-2.605-13.604-4.821
			c-1.324-0.717-3.764-2.423-3.099-4.279c1.217-3.398,10.896,2.125,12.337,2.874C183.686,26.378,184.355,26.642,184.306,26.617z"/>
	</g>
</g>
<g>
	<path fill="#EBBB25" d="M193.765,38.546c0,0-30.064-1.794-30.833-4.158c-0.766-2.365,17.938-4.419,23.177-4.026
		C191.349,30.754,196.026,37.615,193.765,38.546z"/>
	<g>
		<path d="M193.399,38.203c-4.298-0.261-8.592-0.596-12.88-0.979c-5.494-0.496-11.678-0.617-16.922-2.495
			c-0.756-0.271-0.62-0.688-0.302,0.002c-0.104-0.229,0.085-0.46,0.227-0.611c0.604-0.661,1.803-0.91,2.613-1.15
			c3.457-1.021,7.138-1.424,10.71-1.807c3.085-0.331,6.233-0.613,9.339-0.477c2.614,0.116,4.977,1.649,6.551,3.672
			C193.376,35.18,194.801,37.395,193.399,38.203c0.062-0.034,0.623,0.747,0.729,0.688c2.19-1.267-1.693-5.132-2.758-6.096
			c-2.978-2.69-6.107-2.929-9.929-2.746c-4.5,0.217-9.021,0.741-13.438,1.615c-0.5,0.1-6.491,1.313-5.299,2.589
			c0.951,1.016,2.043,1.348,3.39,1.666c3.482,0.824,7.1,1.169,10.65,1.549c5.776,0.618,11.582,1.074,17.384,1.423
			C193.892,38.875,193.672,38.219,193.399,38.203z"/>
	</g>
</g>
<g>
	<path fill="#EBBB25" d="M196.419,45.481c0,0,6.455-13.295,3.729-22.688c-2.725-9.396-3.092-10.213-5.083-9.965
		c-1.988,0.25-5.646,4.569-4.547,11.029c1.104,6.46,2.341,20.254,3.368,20.879C194.913,45.36,196.419,45.481,196.419,45.481z"/>
	<g>
		<path d="M196.916,45.426c2.758-5.729,4.618-12.388,4.367-18.765c-0.159-4.033-1.69-8.553-3.316-12.238
			c-0.551-1.25-1.241-1.785-2.577-1.648c-1.938,0.199-3.113,1.398-4.119,3.052c-2.338,3.837-1.167,8.302-0.604,12.438
			c0.553,4.091,1.006,8.195,1.641,12.275c0.438,2.814,0.365,4.65,3.635,5.002c0.294,0.028,0.739-0.143,0.957-0.116
			c-3.087-0.328-3.067-1.845-3.518-4.5c-0.575-3.403-0.956-6.843-1.396-10.267c-0.446-3.512-1.404-7.208-1.08-10.745
			c0.189-2.044,2.201-7.389,4.543-7.031c1.515,0.229,2.082,3.024,2.452,4.138c1.367,4.109,2.573,8.113,2.38,12.48
			c-0.238,5.45-1.994,11.132-4.355,16.038C195.987,45.398,196.83,45.604,196.916,45.426z"/>
	</g>
</g>
<g>
	<path fill="#EBBB25" d="M201.461,22.236c0,0,3.874-7.166,6.146-8.595c2.275-1.43,4.355,3.155,3.911,5.176
		c-0.441,2.021-12.626,21.374-15.356,20.153C193.429,37.749,199.493,25.591,201.461,22.236z"/>
	<g>
		<path d="M201.957,22.297c0.737-1.361,1.541-2.69,2.373-3.999c0.852-1.34,2.798-5.058,4.771-4.84
			c-0.248-0.035-0.497-0.069-0.745-0.104c1.854,0.703,3.155,3.6,2.644,5.5c-0.346,1.271-1.254,2.516-1.911,3.63
			c-2.492,4.231-5.256,8.354-8.323,12.19c-1.117,1.396-2.315,2.862-3.799,3.888c-0.679,0.472-0.487,0.443-0.771,0.032
			c-0.458-0.664-0.206-1.807-0.085-2.526C196.908,31.302,199.557,26.441,201.957,22.297c-0.057,0.095-0.917-0.253-0.992-0.123
			c-1.129,1.95-8.771,15.615-5.156,16.78c1.212,0.392,2.115-0.169,3.022-0.954c2.447-2.122,4.362-4.985,6.216-7.616
			c1.997-2.837,3.882-5.765,5.612-8.771c1.438-2.507,1.94-4.382,0.127-7.05c-3.451-5.067-8.604,5.372-9.821,7.612
			C201.012,22.086,201.889,22.423,201.957,22.297z"/>
	</g>
</g>
<g>
	<path fill="#679D46" d="M185.547,39.849c2.31-3.06,9.702-5.396,16.585-2.348c4.709,2.088,3.972,4.523,1.504,5.919
		c-2.467,1.393-4.122,1.932-5.602,2.801c-1.48,0.868-1.925,3.902-0.976,11.383c0.949,7.479,18.918,108.413,18.918,108.413
		l-2.541,0.043c0,0-18.898-114.857-19.452-117.016c-0.551-2.153-6.43-1.741-7.315-4.055
		C185.779,42.678,184.754,40.899,185.547,39.849z"/>
	<g>
		<path d="M185.819,40.268c3.861-4.659,11.507-4.438,16.585-2.348c3.933,1.616,3.185,3.864,0.165,5.516
			c-1.692,0.931-4.586,1.499-5.623,3.266c-1.688,2.878-0.518,8.01-0.078,11.048c0.209,1.456,0.451,2.904,0.691,4.355
			c2.229,13.484,4.624,26.942,6.988,40.403c2.583,14.714,5.184,29.424,7.792,44.133c0.856,4.839,1.717,9.678,2.577,14.519
			c0.217,1.224,0.435,2.444,0.65,3.67c0.263,1.461-1.071,0.791-2.4,0.812c0.182,0.271,0.361,0.546,0.544,0.817
			c-3.843-23.354-7.696-46.706-11.564-70.059c-2.062-12.449-4.125-24.902-6.223-37.353c-0.5-2.972-0.99-5.946-1.529-8.912
			c-0.145-0.791-0.433-1.351-0.919-2.005c-0.744-1.001-2.449-1.243-3.553-1.549c-1.299-0.358-2.763-0.65-3.317-2.039
			C186.079,43.233,185.118,41.659,185.819,40.268c0.096-0.185-0.601-0.729-0.547-0.838c-0.826,1.635,0.561,4.19,1.363,5.619
			c0.447,0.793,1.036,1.311,1.855,1.716c1.626,0.804,4.992,0.565,5.376,2.666c0.624,3.431,1.185,6.873,1.763,10.312
			c2.396,14.248,4.754,28.503,7.114,42.757c3.482,21.052,6.958,42.104,10.423,63.161c0.021,0.125,0.418,0.817,0.544,0.815
			c0.847-0.016,1.692-0.026,2.541-0.043c-0.001-0.007-0.002-0.015-0.003-0.021c-4.417-24.812-8.812-49.628-13.15-74.454
			c-1.898-10.88-3.896-21.754-5.582-32.67c-0.509-3.306-0.981-6.772-0.521-10.104c0.599-4.334,6.508-3.646,8.604-6.918
			c1.615-2.519-3.144-4.938-4.571-5.525c-4.795-1.975-12.226-1.573-15.758,2.688C185.182,39.541,185.852,40.229,185.819,40.268z"/>
	</g>
</g>
<g>
	<path fill="#308064" d="M68.699,28.7c0,0,2.094-6.53,2.962,0c1.5,11.276,2.316,22.141,8.158,35.851
		c9.529,22.382,9.99,35.997,9.99,46.084c0,12.965-14.953,58.297-14.953,58.297h-4c0,0,14.833-37.635,14.833-61.615
		C85.692,83.433,70.699,60.329,68.699,28.7"/>
	<g>
		<path d="M69.194,28.784c0.312-0.959,0.697-2.021,1.432-2.741c-0.08-0.044-0.159-0.089-0.239-0.133
			c0.155,0.192,0.271,0.412,0.35,0.648c0.271,0.628,0.333,1.394,0.437,2.059c0.271,1.737,0.451,3.499,0.672,5.244
			c0.827,6.522,1.818,13.005,3.545,19.356c2.02,7.425,5.416,14.348,7.944,21.597c2,5.736,3.572,11.625,4.621,17.608
			c1.274,7.295,1.973,15.16,1.012,22.543c-1.079,8.279-3.262,16.455-5.365,24.521c-2.112,8.112-4.406,13.185-6.784,21.228
			c-0.688,2.324-1.386,4.646-2.093,6.967c-0.113,0.381-0.229,0.76-0.35,1.143c-0.069,0.225-3.548,0.021-3.989,0.021
			c0.322,0.057,0.646,0.113,0.967,0.172c5.443-14.936,9.922-27.432,12.828-43.059c1.997-10.736,2.652-21.271,0.592-32.057
			c-2.309-12.086-6.784-23.669-10.141-35.479C71.876,48.73,69.869,38.849,69.194,28.784c-0.011-0.119-0.984-0.137-0.986-0.167
			c0.924,13.742,4.473,26.948,8.565,40.044c3.525,11.289,7.423,22.646,8.284,34.521c0.776,10.678-1.427,21.551-3.809,31.9
			c-2.224,9.668-5.021,16.207-8.104,25.633c-0.891,2.723-1.802,5.438-2.78,8.131c-0.012,0.023,0.872,0.172,0.967,0.172
			c1.333,0,2.667,0,4,0c0.006,0,0.013-0.002,0.019-0.004c3.979-12.867,7.679-22.848,10.902-35.926
			c1.749-7.09,3.794-14.502,4.046-21.842c0.305-8.896-0.875-17.885-3.038-26.494c-1.729-6.892-4.185-13.584-6.947-20.121
			c-2.93-6.932-4.92-14.131-6.19-21.541c-0.562-3.256-0.976-6.535-1.388-9.812c-0.174-1.347-0.068-6.771-1.562-7.361
			c-1.851-0.73-2.477,1.211-2.965,2.697C68.208,28.612,69.163,28.871,69.194,28.784L69.194,28.784z"/>
	</g>
</g>
<g>
	<path fill="#308064" d="M84.334,41.022c0,0,2.487-6.872,2.81-12.847c0,0,1.988,8.666-0.483,14.719
		C85.662,45.329,84.334,41.022,84.334,41.022z"/>
	<g>
		<path d="M84.83,40.958c1.474-4.119,2.506-8.481,2.81-12.849c-0.331,0.043-0.661,0.089-0.988,0.132
			c0.42,1.878,0.611,3.811,0.72,5.728c0.09,1.62,0.015,3.24-0.167,4.854c-0.127,1.125-0.415,4.413-1.692,4.876
			c0.325-0.041,0.649-0.082,0.978-0.122C85.515,43.353,85.096,41.792,84.83,40.958c-0.028-0.089-0.984,0.149-0.991,0.13
			c0.661,2.074,2.456,4.019,3.563,1.084c1.613-4.281,1.224-9.658,0.235-14.062c-0.006-0.026-0.984,0.071-0.988,0.132
			c-0.307,4.362-1.339,8.729-2.812,12.847C83.88,40.975,84.769,41.129,84.83,40.958z"/>
	</g>
</g>
<g>
	<path fill="#308064" d="M70.079,33.893c0,0,12.838,3.583,15.257,7.255c2.418,3.672-1.747,2.479-1.747,2.479
		S77.831,37.698,70.079,33.893z"/>
	<g>
		<path d="M70.455,34.223c3.078,0.864,6.112,1.938,9.047,3.205c2.254,0.972,5.969,2.431,6.212,5.253
			c0.099,1.145-1.908,0.776-2.5,0.615c0.236,0.202,0.471,0.405,0.707,0.605c-4.082-4.171-9.007-7.716-14.201-10.332
			c0.192,0.099,0.456,0.513,0.719,0.646c4.938,2.485,9.01,5.804,13.141,9.425c0.455,0.397,0.851,0.44,1.473,0.495
			c2.146,0.188,1.23-1.881,0.458-2.941c-1.448-1.988-4.111-3.215-6.247-4.196c-3.062-1.412-6.311-2.521-9.557-3.435
			C69.979,33.641,70.157,34.139,70.455,34.223z"/>
	</g>
</g>
<g>
	<path fill="#308064" d="M89.394,40.749c3.391-4.004,11.056-2.58,11.056-2.58c-2.396-3.548-9.341-2.137-12.001,0.785
		C85.785,41.875,89.053,41.151,89.394,40.749z"/>
	<g>
		<path d="M89.892,40.708c2.531-2.729,6.565-3.117,10.075-2.489c0.137,0.023,0.943-0.137,0.979-0.09
			c-2.48-3.233-7.786-2.289-10.941-0.688c-0.723,0.367-4.57,3.68-2.394,3.742C88.323,41.205,89.316,41.16,89.892,40.708
			c-0.19,0.148-0.761-0.104-0.997,0.082c-0.533,0.42-1.062,0.24-0.932-0.462c0.234-1.246,2.021-2.38,3.003-2.949
			c2.79-1.613,6.861-1.936,8.981,0.831c0.326-0.029,0.649-0.062,0.979-0.089c-3.923-0.7-9.18-0.406-12.032,2.669
			C89.036,40.638,89.706,40.909,89.892,40.708z"/>
	</g>
</g>
<g>
	<path fill="#F2E44A" d="M93.512,46.695c0,0,8.673,0.278,10.824,10.157c1.479,6.783-2.789,18.685-11.222,17.706
		c-7.554-0.875-10.312-8.689-8.984-17.601C85.361,48.727,87.358,46.57,93.512,46.695z"/>
	<g>
		<path d="M93.97,46.896c13.312,0.558,12.908,22.656,2.394,27.021c-3.697,1.534-7.645-0.337-9.783-3.44
			c-2.048-2.97-2.4-6.896-2.279-10.394c0.118-3.399,0.695-7.396,2.492-10.354C88.318,47.217,91.292,46.875,93.97,46.896
			c-0.294-0.002-0.6-0.4-0.914-0.402c-3.475-0.029-6.274,0.739-7.839,4.064c-1.997,4.251-2.293,9.969-1.479,14.523
			c1.113,6.267,7.497,11.745,14.015,9.042c3.769-1.562,5.799-5.931,6.761-9.621c1.092-4.191,0.613-8.587-1.668-12.298
			c-1.904-3.103-6.086-5.562-9.787-5.713C93.353,46.504,93.654,46.884,93.97,46.896z"/>
	</g>
</g>
<g>
	<path fill="#F2E44A" d="M87.381,39.597c0,0,9.354,0.906,9.741,10.737c0.272,6.938-1.737,17.401-10.229,17.328
		c-6.644-0.062-11.009-6.345-10.229-15.315C77.386,44.058,81.229,39.85,87.381,39.597z"/>
	<g>
		<path d="M87.805,39.861c5.404,0.57,8.567,5.065,8.893,10.214c0.35,5.562-0.822,13.101-5.969,16.271
			c-2.981,1.84-7.35,1.268-9.883-1.033c-2.847-2.583-3.733-6.72-3.845-10.392C76.79,47.791,79.922,40.354,87.805,39.861
			c-0.249,0.018-0.562-0.545-0.851-0.524C76.994,39.96,74.542,51.761,77,59.831c1.803,5.918,8.694,10.15,14.579,7.042
			c3.42-1.812,4.83-6.099,5.515-9.627c0.781-4.027,0.949-8.721-1.167-12.362c-1.704-2.934-5.625-5.193-8.973-5.547
			C87.238,39.365,87.495,39.829,87.805,39.861z"/>
	</g>
</g>
<g>
	<path fill="#308064" d="M65.454,30.935c0,0,3.592-18.008,13.296-16.341s12.037,2.667,17.371,1.333s30.333-9.333,30.667-11.333
		S66.735,53.525,65.454,30.935z"/>
	<g>
		<path d="M65.761,31.331c1.104-5.45,3.456-12.229,8.33-15.371c1.489-0.96,3.238-1.213,4.966-0.97
			c3.118,0.438,6.193,1.179,9.31,1.653c3.562,0.546,6.812,0.063,10.243-0.919c8.036-2.306,16.093-4.914,23.822-8.104
			c0.394-0.162,5.088-2.014,4.626-2.729c-0.52-0.81-0.539-0.242-1.31,0.244c-3.729,2.354-7.276,4.606-10.834,7.203
			c-5.864,4.282-11.801,8.47-17.916,12.387c-5.823,3.73-11.862,7.355-18.334,9.854c-2.862,1.104-10.152,3.711-12.187-0.188
			C65.991,33.452,65.831,32.371,65.761,31.331c-0.02-0.294-0.595-0.54-0.609-0.791c0.77,11.218,14.63,4.913,20.351,2.02
			c12.489-6.314,23.841-14.858,35.074-23.14c1.617-1.191,3.51-2.163,5.161-3.312c0.401-0.276,0.631-0.57,1.061-0.812
			c0.646-0.363-0.052-1.259-0.547-0.748c-1.833,1.891-5.518,2.885-7.888,3.781c-4.271,1.615-8.634,2.938-12.979,4.336
			c-3.165,1.02-6.343,2.048-9.564,2.867c-4.438,1.127-8.676,0.257-13.085-0.562c-2.404-0.447-4.906-1.227-7.345-0.638
			c-1.816,0.438-3.312,1.762-4.511,3.13c-2.396,2.738-3.799,6.362-4.866,9.792c-0.336,1.079-0.638,2.178-0.859,3.285
			C65.099,30.781,65.798,31.149,65.761,31.331z"/>
	</g>
</g>
<g>
	<path fill="#308064" d="M16.909,10.957c0,0,11.895,21.415,23.438,24.188c33.624,8.077,21.876-5.712,22.09-6.955
		c1.404-8.134,3.809-12.92-1.854-12.179c-5.662,0.74-5.946,4.172-8.592-0.118c-2.646-4.29-11.315-7.308-18.622-7.648
		C26.06,7.899,16.909,10.957,16.909,10.957z"/>
	<g>
		<path d="M16.414,10.885c3.409,6.112,7.636,11.959,12.514,16.974c3.035,3.121,6.652,6.103,10.941,7.226
			c4.37,1.145,8.883,1.951,13.375,2.435c3.106,0.334,11.205,1.252,11.501-3.63c0.08-1.31-0.483-2.622-1.027-3.78
			c-0.917-1.948-0.689-2.498-0.19-4.913c0.493-2.398,1.603-5.341,0.973-7.803c-0.314-1.229-1.655-1.37-2.698-1.492
			c-2.245-0.263-4.511,0.648-6.492,1.592c-1.276,0.604-1.691,0.104-2.477-0.984c-0.932-1.297-1.794-2.347-3.089-3.314
			c-4.479-3.351-10.594-4.524-16.065-4.976C27.953,7.745,21.834,9.094,16.414,10.885c0.266-0.089,0.695,0.239,0.99,0.144
			c4.543-1.503,9.347-2.476,14.124-2.717c6.684-0.338,16.363,1.929,20.312,8.047c1.25,1.938,2.896,2.013,4.819,1.1
			c1.683-0.798,5.518-2.607,6.732-0.496c0.915,1.586-0.083,4.43-0.423,6.039c-0.498,2.356-1.499,4.396-0.426,6.586
			c0.571,1.164,1.097,2.38,1.203,3.687c0.56,6.901-13.8,3.812-16.413,3.336c-4.757-0.862-9.057-1.811-13.001-4.693
			c-3.211-2.353-5.932-5.372-8.439-8.438c-3.161-3.871-6.055-8.074-8.489-12.442C17.293,10.831,16.498,11.037,16.414,10.885z"/>
	</g>
</g>
<g>
	<g>
		<path d="M58.934,24.182c-5.51,2.189-11.755,1.248-16.997-1.142c-3.937-1.794-7.646-4.056-11.409-6.175
			c-1.828-1.03-4.199-2.688-6.392-2.717c0.195,0.003,0.42,0.734,0.675,0.737c2.433,0.031,4.944,1.902,6.981,3.051
			c3.324,1.874,6.604,3.849,10.057,5.479c5.487,2.595,11.921,3.821,17.763,1.501C59.536,24.95,59.078,24.126,58.934,24.182
			L58.934,24.182z"/>
	</g>
</g>
<g>
	<g>
		<path d="M72.834,26.458c10.074-0.033,20.475-3.367,28.833-8.886c-0.213,0.141-0.751-0.149-1,0.015
			c-7.878,5.203-18.263,8.787-27.569,8.815C72.789,26.404,72.132,26.46,72.834,26.458L72.834,26.458z"/>
	</g>
</g>
<g>
	<path fill="#308064" d="M1090.369,51.508c0,0,7.462-1.878,11.448-5.48c3.987-3.604-6.901,7.864-8.574,8.007
		C1091.573,54.178,1090.369,51.508,1090.369,51.508z"/>
	<g>
		<path d="M1090.739,51.844c2.058-0.527,4.065-1.278,6.009-2.132c1.614-0.711,3.147-1.583,4.57-2.626
			c0.354-0.262,1.223-1.371,1.738-1.419c-0.248-0.226-0.494-0.447-0.741-0.671c0.03,0.41-1.143,1.35-1.391,1.609
			c-1.147,1.219-2.342,2.396-3.556,3.55c-1.864,1.773-4.814,5.536-6.643,1.673c-0.121-0.256-0.646-0.471-0.728-0.638
			c0.52,1.093,1.334,2.028,2.302,2.747c1.41,1.044,2.603-0.267,3.661-1.167c1.6-1.354,3.099-2.833,4.565-4.319
			c0.419-0.426,2.573-2.116,2.522-2.783c-0.009-0.118-0.622-0.684-0.74-0.671c-0.375,0.035-1.062,0.862-1.294,1.063
			c-1.325,1.146-2.926,1.982-4.491,2.739c-2.075,1.001-4.3,1.804-6.533,2.375C1090.136,51.135,1090.529,51.898,1090.739,51.844z"/>
	</g>
</g>
<g>
	<path fill="#308064" d="M1089.191,54.657c0,0,0.682-7.277-0.505-13.143c0,0,4.099,7.892,3.223,14.371
		C1091.557,58.492,1089.191,54.657,1089.191,54.657z"/>
	<g>
		<path d="M1089.688,54.711c0.393-4.355,0.298-8.84-0.505-13.142c-0.331-0.035-0.663-0.07-0.994-0.106
			c1.364,2.661,2.312,5.56,2.929,8.479c0.426,2.032,0.652,4.312,0.191,6.354C1091.148,56.999,1089.942,55.115,1089.688,54.711
			c-0.126-0.201-0.905,0.036-0.994-0.107c0.554,0.881,3.153,3.808,3.713,1.337c1.024-4.53-1.172-10.367-3.225-14.371
			c-0.072-0.141-0.981-0.046-0.994-0.106c0.805,4.301,0.896,8.785,0.506,13.141C1088.689,54.653,1089.685,54.749,1089.688,54.711z"
			/>
	</g>
</g>
<g>
	<g>
		<path fill="none" stroke="#333333" stroke-miterlimit="10" stroke-dasharray="7.8133,7.8133" d="M1222.497,27.396
			c-79.272,80.936-128.014,67.635-163.367,48.967"/>
		<path fill="none" stroke="#333333" stroke-miterlimit="10" d="M1055.797,74.355c-1.091-0.763-3.063-2.208-4.013-2.864"/>
		<g>
			<path fill="#333333" d="M1047.086,68.383c2.686,0.566,6.24,0.851,8.802,0.35l-3.49,3.18l-0.809,4.957
				C1050.747,74.109,1048.818,70.751,1047.086,68.383z"/>
		</g>
	</g>
</g>
<g>
	<path fill="#679D46" d="M979.443,157.779c0,0,2.993-28.312,25.568-34.638c23.692-6.639,17.555-4.74,28.615-14.704
		c11.067-9.961,14.403-16.271,12.727-16.813c-1.682-0.549-12.976,7.921-20.499,9.394c-7.524,1.469-22.534,7.12-30.489,17.654
		C987.41,129.2,980.277,135.59,979.443,157.779z"/>
	<g>
		<path d="M979.936,157.698c1.416-13.098,8.729-27.048,20.893-32.899c5.104-2.457,10.979-3.427,16.392-5.062
			c2.619-0.793,5.418-1.552,7.755-3.027c1.93-1.224,3.48-2.924,5.096-4.521c3.906-3.861,8.099-7.4,11.778-11.498
			c1.852-2.062,5.326-5.445,5.411-8.48c0.038-1.354-2.342-0.375-2.907-0.135c-4.395,1.856-8.362,4.729-12.684,6.775
			c-4.183,1.981-8.755,2.642-13.108,4.132c-5.05,1.729-9.878,4.135-14.312,7.104c-4.743,3.177-8.224,7.229-11.694,11.682
			c-2.647,3.396-5.293,6.78-7.434,10.527c-2.498,4.382-4.033,9.195-4.979,14.133c-0.726,3.769-1.025,7.608-1.188,11.438
			C978.949,157.833,979.932,157.805,979.936,157.698c0.464-11.031,2.798-21.235,9.223-30.339c2.644-3.737,5.479-7.525,8.508-10.954
			c4.045-4.574,9.362-7.97,14.802-10.645c4.541-2.23,9.328-3.844,14.271-4.901c4.769-1.021,9.199-3.763,13.392-6.139
			c1.702-0.967,3.395-1.979,5.178-2.793c0.723-0.329,1.104-0.075,0.9,0.966c-0.688,3.562-4.476,7.049-6.808,9.545
			c-3.424,3.663-7.274,6.888-10.83,10.413c-1.62,1.608-3.195,3.253-5.209,4.375c-7.731,4.313-17.25,4.353-25.079,8.521
			c-11.259,5.993-17.996,19.761-19.331,32.11C978.953,157.812,979.919,157.825,979.936,157.698z"/>
	</g>
</g>
<g>
	<path fill="#679D46" d="M965.727,103.886c0,0,12.72,12.87,12.994,20.638c0.273,7.771,2.942,25.352,2.942,25.352
		s-1.599-8.213-9.859-18.583C966.533,124.68,964.718,108.626,965.727,103.886z"/>
	<g>
		<path d="M965.237,103.784c2.22,2.254,4.274,4.685,6.219,7.179c2.906,3.729,6.188,8.197,6.748,13.03
			c1,8.598,1.674,17.199,2.976,25.774c0.323,0.067,0.649,0.14,0.979,0.205c-0.446-2.227-1.367-4.388-2.293-6.445
			c-1.082-2.403-2.4-4.696-3.814-6.924c-1.619-2.55-3.697-4.793-5.203-7.41c-2.388-4.147-3.457-9.114-4.209-13.795
			c-0.59-3.651-1.123-7.73-0.416-11.409C966.225,103.943,965.243,103.749,965.237,103.784c-0.674,3.497-0.168,7.298,0.321,10.78
			c0.669,4.772,1.851,9.612,4.037,13.932c1.188,2.347,3.019,4.315,4.515,6.467c1.722,2.473,3.216,5.1,4.518,7.812
			c1.061,2.203,2.064,4.584,2.552,6.995c0.028,0.154,0.967,0.126,0.979,0.205c-1.271-8.381-2.604-16.872-2.945-25.35
			c-0.189-4.772-3.668-9.353-6.425-13.002c-2.019-2.673-4.219-5.248-6.566-7.639C966.007,103.778,965.412,103.962,965.237,103.784z"
			/>
	</g>
</g>
<g>
	<path fill="#679D46" d="M973.778,166.018h3.783c3.104-8.239,4.531-16.965,5.962-25.286c2.564-14.932,4.562-48.662,4.068-50.932
		c-0.761-3.471-6.143,46.523-6.886,49.818C979.19,146.365,973.778,166.018,973.778,166.018z"/>
	<g>
		<path d="M973.316,166.154c1.263,0,2.523,0,3.784,0c0.146,0,0.894-0.125,0.942-0.268c4.354-11.785,6.174-24.615,7.524-37.066
			c1.093-10.056,1.845-20.157,2.346-30.263c0.14-2.766,0.332-5.562,0.216-8.333c-0.025-0.676-0.615-1.149-1.178-0.407
			c-0.753,1.004-0.722,3.28-0.902,4.456c-0.5,3.208-0.916,6.432-1.332,9.647c-1.438,11.103-2.622,22.231-4.105,33.329
			c-0.62,4.638-2.016,9.16-3.205,13.674c-1.342,5.083-2.715,10.157-4.105,15.227c0.03-0.115,0.906-0.062,0.965-0.264
			c1.945-7.074,3.863-14.158,5.679-21.269c1.266-4.957,1.93-9.819,2.549-14.896c0.965-7.918,1.896-15.841,2.896-23.753
			c0.666-5.269,0.934-10.946,2.396-16.073c0.104-0.354,0.312-0.394-0.271-0.234c-0.164,0.03-0.328,0.063-0.491,0.1
			c0.809,0.295,0.007,7.419-0.025,8.114c-0.3,6.602-0.769,13.193-1.312,19.778c-1.338,16.196-2.944,33.171-8.604,48.494
			c0.314-0.089,0.631-0.179,0.944-0.269c-1.262,0-2.521,0-3.783,0C973.946,165.882,973.513,166.154,973.316,166.154z"/>
	</g>
</g>
<g>
	<path fill="#679D46" d="M1067.4,102.098c4.369-2.069,13.748,7.139,13.722,13.004c-0.017,3.438-0.64,17.028-1.22,22.267
		c-0.416,3.748-0.391,11.985-6.062,11.985c-6.601,0-6.135-15.819-6.438-25.812C1067.035,111.624,1067.4,102.098,1067.4,102.098z"/>
	<g>
		<path d="M1067.745,102.458c4.702-1.875,10.003,4.739,11.788,8.001c1.872,3.421,1.174,7.493,1.01,11.228
			c-0.202,4.687-0.441,9.373-0.858,14.043c-0.317,3.562-0.334,7.491-2.029,10.724c-0.854,1.63-2.362,2.458-4.16,2.544
			c-2.524,0.12-3.497-2.577-4.094-4.562c-1.371-4.551-1.379-9.564-1.508-14.271C1067.64,120.932,1067.402,111.688,1067.745,102.458
			c0.01-0.259-0.7-0.524-0.69-0.724c-0.377,10.105-0.146,20.259,0.229,30.358c0.167,4.451-0.064,17.293,6.9,17.617
			c4.719,0.221,5.489-5.99,5.826-9.398c0.438-4.462,0.764-8.931,1.006-13.404c0.221-4.081,1.014-8.761,0.303-12.815
			c-0.595-3.392-3.195-6.321-5.567-8.667c-2.05-2.024-5.606-4.919-8.696-3.688C1067.127,101.708,1067.594,102.519,1067.745,102.458z
			"/>
	</g>
</g>
<g>
	<path fill="#679D46" d="M1073.498,166.017c0,0,3.17-17.928,2.42-27.266c-0.75-9.34-1.301-21.938-1.801-24.688s-0.031,25.828,0,28.5
		c0.062,4.875-1.979,17.104-3.219,23.454H1073.498z"/>
	<g>
		<path d="M1073.948,166.24c1.386-7.874,2.479-15.938,2.534-23.938c0.04-5.78-0.701-11.632-1.062-17.4
			c-0.157-2.562-0.317-5.131-0.526-7.689c-0.041-0.5,0.06-2.801-0.401-3.122c-0.09-0.062-0.819-0.486-0.883-0.431
			c-0.339,0.312-0.134,1.931-0.143,2.333c-0.034,1.914-0.025,3.827-0.021,5.741c0.016,4.812,0.074,9.62,0.139,14.434
			c0.046,3.378,0.18,6.741-0.128,10.108c-0.591,6.548-1.755,13.072-3.004,19.521c-0.011,0.051,0.8,0.443,0.896,0.443
			C1072.216,166.24,1073.08,166.24,1073.948,166.24c-0.287,0-0.589-0.443-0.896-0.443c-0.866,0-1.733,0-2.603,0
			c0.299,0.146,0.601,0.296,0.896,0.443c1.251-6.457,2.36-12.977,3.004-19.521c0.329-3.362,0.174-6.737,0.129-10.11
			c-0.064-4.811-0.12-9.617-0.14-14.431c-0.011-1.914-0.012-3.829,0.021-5.743c0.006-0.399-0.197-2.021,0.141-2.334
			c-0.294-0.145-0.588-0.287-0.883-0.432c0.485,0.338,0.372,3.081,0.415,3.608c0.216,2.645,0.37,5.289,0.535,7.937
			c0.357,5.728,1.051,11.509,1.011,17.247c-0.056,7.79-1.183,15.672-2.527,23.336C1073.031,165.91,1073.959,166.168,1073.948,166.24
			z"/>
	</g>
</g>
<g>
	<path fill="#EBBB25" d="M1168.705,105.705c0,0-5.009-12.604-11.379-9.354c-6.371,3.25-3.13,7.75,0,10.75
		c3.129,3,11.379,5.5,11.379,5.5V105.705z"/>
	<g>
		<path d="M1169.204,105.668c-1.892-4.697-5.933-11.57-11.917-9.489c-2.237,0.777-4.212,2.746-4.1,5.201
			c0.108,2.384,2.354,4.604,4.008,6.091c2.92,2.627,7.321,4.039,11.028,5.175c0.095,0.027,0.979-0.021,0.979-0.078
			C1169.204,110.268,1169.204,107.968,1169.204,105.668c0-0.021-0.998,0.005-0.998,0.072c0,2.299,0,4.599,0,6.896
			c0.327-0.026,0.652-0.054,0.979-0.078c-3.17-0.972-6.312-2.223-9.184-3.893c-2.909-1.693-6.835-5.562-5.543-9.258
			c0.855-2.452,4.216-4.062,6.543-3.076c1.54,0.648,2.748,2.037,3.757,3.316c1.429,1.812,2.584,3.945,3.444,6.086
			C1168.263,105.872,1169.185,105.615,1169.204,105.668z"/>
	</g>
</g>
<g>
	<path fill="#EBBB25" d="M1177.455,104.045c0,0-6.25-11.859-10-10.525s-2.5,18.728-1,20.778c1.5,2.055,12,5.789,13.25,2.048
		C1180.955,112.603,1177.455,104.045,1177.455,104.045z"/>
	<g>
		<path d="M1177.954,104.006c-1.178-2.223-2.541-4.359-4.046-6.374c-1.363-1.821-3.337-4.438-5.889-4.235
			c-2.131,0.166-2.657,1.997-3.058,3.894c-0.776,3.729-0.562,7.763-0.201,11.526c0.227,2.333,0.264,5.115,2.384,6.511
			c2.532,1.664,6.22,2.82,9.271,2.649c2.756-0.151,4.089-1.016,4.051-4.06C1180.427,110.582,1179.198,107.074,1177.954,104.006
			c-0.048-0.117-0.971,0.146-0.996,0.078c1.368,3.379,5.698,14.387-1.239,13.743c-2.811-0.263-6.201-1.366-8.407-3.189
			c-1.409-1.164-1.376-4.275-1.548-5.896c-0.326-3.066-0.378-6.186-0.113-9.258c0.075-0.893,0.554-6.086,2.188-6.013
			c2.484,0.11,4.722,3.701,5.968,5.466c1.157,1.643,2.215,3.373,3.155,5.146C1177.033,104.224,1177.906,103.914,1177.954,104.006z"
			/>
	</g>
</g>
<g>
	<path fill="#EBBB25" d="M1146.521,104.871c0,0-13.82-11.664-15.643-10.251c-1.821,1.412-1.192,10.634,0.957,12.738
		c2.146,2.106,20.623,14.32,23.666,14.223C1158.539,121.481,1148.578,106.639,1146.521,104.871z"/>
	<g>
		<path d="M1146.259,104.465c-2.006-1.688-4.062-3.316-6.145-4.905c-2.541-1.938-5.417-4.419-8.524-5.384
			c-3.052-0.944-1.903,7.362-1.679,8.663c0.354,2.028,1.109,4.07,2.734,5.407c5.831,4.802,12.771,8.994,19.49,12.401
			c1.106,0.562,4.662,2.646,4.117-0.066c-0.592-2.953-2.729-5.9-4.322-8.394C1150.273,109.594,1148.561,106.563,1146.259,104.465
			c0.149,0.14,0.305,0.612,0.521,0.812c2.986,2.726,5.195,6.882,7.121,10.372c0.376,0.685,3.418,5.951,0.817,5.458
			c-2.847-0.539-5.718-2.634-8.156-4.077c-3.784-2.234-7.479-4.637-11.094-7.14c-1.069-0.742-2.135-1.499-3.158-2.303
			c-1.5-1.176-1.761-3.233-2.022-5.023c-0.229-1.567-1.035-8.451,2.091-7.479c3.153,0.979,6.069,3.62,8.65,5.588
			c1.952,1.488,3.872,3.022,5.75,4.604C1146.626,105.147,1146.484,104.654,1146.259,104.465z"/>
	</g>
</g>
<g>
	<path fill="#EBBB25" d="M1141.227,94.977c0,0-8.188,3.681-5.188,5.931s25.441,24.711,36.441,23.961s6.726-2.266,6.726-2.266
		S1147.158,93.227,1141.227,94.977z"/>
	<g>
		<path d="M1141.011,94.526c-1.771,0.808-6.21,2.709-5.799,5.152c0.248,1.469,2,2.469,3.006,3.37
			c6.23,5.59,12.473,11.185,19.385,15.938c3.484,2.396,7.232,4.676,11.322,5.858c1.875,0.544,3.632,0.493,5.562,0.332
			c1.688-0.142,4.043-0.143,5.53-1.104c1.1-0.709-2.725-3.464-3.044-3.748c-6.035-5.415-12.201-10.699-18.581-15.706
			c-3.4-2.67-6.879-5.276-10.565-7.54C1146.079,96.008,1143.214,93.982,1141.011,94.526c0.021-0.005,0.319,0.932,0.432,0.902
			c1.918-0.475,4.28,1.087,5.847,1.979c3.203,1.819,6.191,4.034,9.127,6.257c6.442,4.873,12.601,10.136,18.649,15.479
			c1.411,1.247,2.814,2.502,4.207,3.771c0.146,0.133,0.265,0.179,0.443,0.268c0.693,0.344-0.039-0.021,0.039-0.182
			c-0.187,0.375-0.906,0.512-1.248,0.608c-9.062,2.649-16.635-2.077-23.718-7.208c-5.619-4.069-10.826-8.687-15.976-13.328
			c-0.729-0.657-1.454-1.315-2.193-1.961c-0.663-0.578-1.229-0.768-0.779-1.708c0.902-1.896,3.786-3.152,5.602-3.979
			C1141.48,95.411,1141.06,94.503,1141.011,94.526z"/>
	</g>
</g>
<g>
	<path fill="#EBBB25" d="M1189.969,120.023c0,0-7.244-25.67-9.378-26.42c-2.136-0.75-5.386,3.75-6.136,5.25s-3.5,25.75,4.5,26
		S1190.384,121.471,1189.969,120.023z"/>
	<g>
		<path d="M1190.464,120.086c-1.653-5.854-3.418-11.688-5.375-17.443c-0.949-2.797-1.824-5.92-3.449-8.419
			c-1.061-1.628-3.444-0.396-4.495,0.483c-5.111,4.274-4.447,12.271-4.183,18.284c0.146,3.354,0.482,7.282,2.492,10.106
			c1.317,1.854,3.61,1.938,5.684,1.815C1183.178,124.799,1191.117,123.748,1190.464,120.086c-0.025-0.146-0.982-0.08-0.991-0.127
			c0.604,3.396-6.506,4.581-8.493,4.771c-2.467,0.235-3.869-0.266-5.07-2.347c-0.799-1.383-1.163-3.017-1.454-4.566
			c-0.698-3.729-0.65-7.623-0.452-11.396c0.127-2.396,0.203-5.021,0.893-7.339c0.466-1.575,2.093-3.158,3.245-4.244
			c1.206-1.136,2.021-1.638,2.842-0.19c1.535,2.711,2.444,5.864,3.437,8.803c1.839,5.452,3.494,10.978,5.062,16.517
			C1189.521,120.128,1190.445,120.009,1190.464,120.086z"/>
	</g>
</g>
<g>
	<path fill="#EBBB25" d="M1216.205,126.353c0,0,35.25-1.711,39.75-3.479c4.5-1.771,10.5-10.021,8.25-11.771
		s-49.711,10.521-50.961,11.771S1216.205,126.353,1216.205,126.353z"/>
	<g>
		<path d="M1216.659,126.567c5.536-0.271,11.07-0.6,16.604-0.969c7.299-0.487,14.93-0.644,22.1-2.212
			c3.813-0.836,6.914-4.657,8.771-7.868c0.962-1.665,1.743-3.933-0.473-4.688c-1.396-0.479-3.388,0.085-4.777,0.3
			c-3.293,0.511-6.562,1.211-9.813,1.921c-9.034,1.973-18.018,4.229-26.937,6.676c-2.733,0.751-5.487,1.49-8.168,2.426
			c-2.928,1.021,0.209,3.144,1.853,4.027c0.177,0.095,0.839,0.378,0.789,0.354c-1.726-0.936-4.565-2.94-1.737-3.95
			c2.295-0.817,4.663-1.449,7.008-2.104c7.737-2.161,15.54-4.11,23.364-5.93c5.89-1.365,12.132-3.202,18.209-3.396
			c0.308-0.01,0.614-0.003,0.915,0.057c0.221,0.041-0.64-0.485-0.271,0.104c0.155,0.252,0.146,0.604,0.148,0.884
			c0.036,2.062-1.806,4.282-3.002,5.781c-2.232,2.797-4.844,4.697-8.35,5.283c-12.178,2.036-24.818,2.285-37.136,2.886
			C1216.031,126.125,1216.355,126.583,1216.659,126.567z"/>
	</g>
</g>
<g>
	<path fill="#EBBB25" d="M1195.455,120.023c0,0,8.595-23.65,0-23.67c-5.487-0.012-8.546,3.019-11,5.828
		c-3.073,3.522-5.25,23.922,0,24.172S1195.455,120.023,1195.455,120.023z"/>
	<g>
		<path d="M1195.896,120.264c1.979-5.467,3.679-11.412,3.816-17.247c0.055-2.273-0.238-4.967-2.396-6.205
			c-3.24-1.857-7.566,0.034-10.245,2.098c-6.229,4.794-6.804,14.508-6.051,21.759c0.233,2.241,0.746,4.51,2.851,5.615
			c3.197,1.681,7.757-2.048,9.979-3.99C1194.568,121.66,1195.262,120.982,1195.896,120.264c-0.016,0.021-0.797-0.571-0.875-0.479
			c-2.066,2.338-4.637,4.369-7.494,5.632c-1.702,0.751-3.744,1.352-4.713-0.546c-0.646-1.266-0.819-2.781-0.965-4.17
			c-0.385-3.695-0.006-7.517,0.627-11.158c0.51-2.929,1.188-5.772,3.219-8.009c1.448-1.603,3.091-2.93,5.033-3.874
			c1.512-0.737,5.24-1.94,6.677-0.606c1.979,1.841,1.506,5.76,1.254,8.124c-0.526,4.953-1.944,9.931-3.638,14.607
			C1194.986,119.875,1195.897,120.262,1195.896,120.264z"/>
	</g>
</g>
<g>
	<path fill="#EBBB25" d="M1207.209,121.615c0,0,31.066-23.688,34.234-24.891s8.254,2.308,6.483,5.757
		c-1.771,3.452-32.149,19.352-36.983,21.704C1206.111,126.542,1208.271,122.707,1207.209,121.615z"/>
	<g>
		<path d="M1207.707,121.661c10.223-7.791,20.417-15.703,31.048-22.935c0.815-0.557,1.644-1.104,2.494-1.604
			c2.245-1.312,4.813,0.211,6.083,2.175c1.828,2.833-1.551,4.841-3.463,6.154c-7.035,4.839-14.719,8.832-22.23,12.859
			c-3.021,1.62-6.059,3.222-9.108,4.779c-1.252,0.64-2.511,1.349-3.87,1.728C1208.017,125,1208.007,122.067,1207.707,121.661
			c-0.146-0.201-0.886,0.057-0.993-0.097c0.673,0.92,0.02,2.211,0.729,3.104c0.301,0.377,1.305,0.321,1.714,0.32
			c2.231-0.006,5.312-2.277,7.231-3.277c7.727-4.021,15.401-8.164,22.885-12.63c2.759-1.646,5.604-3.311,8.072-5.379
			c2.917-2.447,0.568-6.312-2.729-7.011c-4.749-1.008-8.728,3.201-12.312,5.784c-8.637,6.222-17.131,12.641-25.593,19.088
			C1206.882,121.438,1207.494,121.824,1207.707,121.661z"/>
	</g>
</g>
<g>
	<path fill="#EBBB25" d="M1246.205,102.603c0,0,7.75-2.5,10.5-2.75s8.466,12.21-17.514,18.79s-29.86,8.807-29.86,8.807l6.374-11.104
		L1246.205,102.603z"/>
	<g>
		<path d="M1246.408,103.061c3.194-1.024,6.443-2.056,9.751-2.646c1.618-0.291,2.547,0.714,2.801,2.302
			c1.026,6.412-6.808,10.688-11.562,12.729c-5.905,2.533-12.369,3.729-18.556,5.388c-4.227,1.135-8.438,2.314-12.616,3.617
			c-2.315,0.722-4.956,1.337-7.095,2.542c0.136,0.306,0.271,0.607,0.401,0.916c2.062-3.595,4.125-7.187,6.188-10.775
			c0.319-0.562,0.99-0.688,1.57-0.95c1.823-0.821,3.646-1.644,5.474-2.466C1230.647,110.163,1238.528,106.612,1246.408,103.061
			c0.043-0.021-0.365-0.934-0.401-0.916c-7.883,3.555-15.764,7.104-23.646,10.652c-1.754,0.79-3.508,1.58-5.261,2.37
			c-0.621,0.28-1.438,0.438-1.782,1.046c-2.062,3.593-4.125,7.184-6.188,10.771c-0.062,0.107,0.41,0.911,0.402,0.916
			c2.614-1.475,5.887-2.181,8.723-3.044c5.203-1.584,10.463-2.99,15.725-4.366c6.266-1.641,12.618-3.043,18.264-6.353
			c4.045-2.369,8.731-6.995,6.688-12.12c-0.388-0.971-0.905-2.106-1.924-2.547c-0.995-0.429-2.737,0.317-3.703,0.556
			c-2.177,0.532-4.327,1.188-6.466,1.854c-0.275,0.086-0.556,0.175-0.828,0.263C1245.996,102.149,1246.332,103.084,1246.408,103.061
			z"/>
	</g>
</g>
<g>
	<path fill="#EBBB25" d="M1195.955,101.853c0,0,8.75-10,11.5-8.438c4.266,2.421-3.417,23.706-9.25,26.605
		c-5.833,2.901-7-5.662-6.5-8.666S1195.955,101.853,1195.955,101.853z"/>
	<g>
		<path d="M1196.255,102.254c1.259-1.432,2.597-2.794,3.973-4.109c1.762-1.685,4.229-4.286,6.812-4.493
			c3.927-0.312-1.541,14.694-2.174,16.149c-1.194,2.757-2.647,5.472-4.577,7.788c-1.808,2.175-5.719,4.235-7.41,0.697
			C1190.218,112.733,1193.514,107.031,1196.255,102.254c0.089-0.151-0.641-0.729-0.598-0.803
			c-2.968,5.169-6.521,11.697-2.625,17.387c4.653,6.789,10.479-3.987,12.201-7.724c1.696-3.685,3.021-7.646,3.599-11.664
			c0.293-2.054,0.337-4.154-1.01-5.828c-2.744-3.415-10.438,5.86-12.165,7.829C1195.58,101.539,1196.27,102.24,1196.255,102.254z"/>
	</g>
</g>
<g>
	<path fill="#EBBB25" d="M1200.149,113.648c0,0,16.229-19.463,18.896-20.129s6.835,3.722,0,10.525
		c-6.835,6.808-17.613,19.404-17.613,19.404S1198.438,115.679,1200.149,113.648z"/>
	<g>
		<path d="M1200.612,113.833c2.603-3.117,5.252-6.192,7.938-9.236c2.069-2.352,4.175-4.678,6.354-6.93
			c1.297-1.338,2.693-2.994,4.368-3.874c3.16-1.66,3.021,4.198,2.509,5.599c-1.438,3.906-5.82,7.114-8.603,10.115
			c-4.166,4.499-8.229,9.102-12.22,13.758c0.312,0.124,0.619,0.246,0.933,0.37C1200.931,121.111,1198.914,116.336,1200.612,113.833
			c-0.021,0.032-0.871-0.455-0.929-0.371c-1.696,2.503,0.314,7.277,1.274,9.803c0.031,0.082,0.896,0.41,0.933,0.37
			c4.584-5.354,9.266-10.633,14.093-15.768c2.858-3.041,7.567-6.438,7.207-11.098c-0.135-1.748-1.533-2.868-3.097-3.331
			c-1.791-0.527-2.911,0.744-4.139,1.893c-2.339,2.187-4.482,4.59-6.624,6.968c-3.286,3.657-6.5,7.389-9.647,11.163
			C1199.731,113.408,1200.528,113.935,1200.612,113.833z"/>
	</g>
</g>
<g>
	<path fill="#EBBB25" d="M1203.205,118.643c0,0,22.943-23.29,26.601-22.29c3.649,1,5.399,7.649,3.399,9.325
		c-2,1.675-27,18.699-28.5,19.188C1203.205,125.355,1201.191,120.663,1203.205,118.643z"/>
	<g>
		<path d="M1203.64,118.895c3.938-3.997,7.984-7.895,12.117-11.69c2.909-2.682,5.879-5.316,9.021-7.723
			c1.771-1.354,4.611-4.081,6.696-2.021c2.396,2.367,3.114,6.668,0.27,8.742c-2.629,1.914-5.319,3.739-8.003,5.581
			c-6.113,4.19-12.203,8.518-18.561,12.34c-0.812,0.484-1.08,0.797-1.71-0.229C1202.541,122.381,1202.515,120.278,1203.64,118.895
			c-0.007,0.009-0.81-0.57-0.863-0.504c-1.521,1.87-0.883,5.979,1.768,6.679c1.459,0.39,4.041-2.03,5.147-2.755
			c6.781-4.419,13.477-8.981,20.11-13.619c1.852-1.292,4.443-2.428,4.671-4.901c0.288-3.188-1.765-6.108-4.498-7.474
			c-1.707-0.85-3.839,1.052-5.127,1.972c-3.116,2.227-5.988,4.812-8.824,7.377c-4.538,4.104-8.949,8.366-13.247,12.726
			C1202.806,118.361,1203.556,118.98,1203.64,118.895z"/>
	</g>
</g>
<g>
	<path fill="#EBBB25" d="M1181.696,129.605c0,0-57.681-9.002-61.603-20.425c-3.479-10.134,0.264-7.849,3.379-8.279
		c3.111-0.434,33.896,17.628,56.998,23.952C1182.906,125.518,1181.696,129.605,1181.696,129.605z"/>
	<g>
		<path d="M1181.527,129.135c-11.814-1.848-23.599-4.302-35.138-7.434c-7.246-1.969-14.794-4.138-21.312-7.956
			c-3.603-2.111-5.177-4.214-6.039-8.501c-0.795-3.947,1.38-3.643,4.324-3.845c2.64-0.182,5.812,1.954,8.094,3.034
			c5.451,2.581,10.852,5.275,16.306,7.854c6.631,3.133,13.333,6.12,20.172,8.771c3.33,1.29,6.703,2.468,10.116,3.517
			c0.984,0.301,3.485,0.484,3.736,1.785C1181.952,127.24,1181.766,128.282,1181.527,129.135c-0.077,0.275,0.41,0.699,0.343,0.939
			c0.484-1.728,0.438-3.834-0.774-5.264c-0.647-0.764-2.479-0.904-3.391-1.181c-1.339-0.4-2.666-0.839-3.988-1.284
			c-2.991-1.011-5.942-2.14-8.877-3.312c-10.562-4.226-20.762-9.278-30.991-14.229c-2.945-1.426-5.899-2.955-8.993-4.047
			c-1.483-0.522-4.02-0.648-5.447-0.005c-2.414,1.085,0.171,7.073,0.745,8.623c0.637,1.722,1.897,2.955,3.347,4.039
			c4.213,3.16,9.547,4.955,14.485,6.604c6.334,2.112,12.822,3.763,19.325,5.258c8.123,1.872,16.324,3.51,24.562,4.798
			C1181.737,130.054,1181.708,129.165,1181.527,129.135z"/>
	</g>
</g>
<g>
	<path fill="#679D46" d="M1191.813,166.017c-0.67-31.995,3.6-36.459,8.042-36.685c8.181-0.413,21.387-1.727,20.646-5.174
		c-1.153-5.407-17.032-7.104-28.348-7.705c-10.992-0.587-22.86,0.646-29.979,3.521c-2.677,1.081,1.149,4.842,9.806,8.424
		c2.979,1.231,11.665,3.21,12.729,6.2c0.438,1.236,4.918,4.921,2.918,31.457L1191.813,166.017z"/>
	<g>
		<path d="M1192.31,165.96c-0.194-9.979-0.79-21.053,2.248-30.722c0.562-1.79,1.385-3.652,2.854-4.887
			c1.945-1.633,5.077-1.123,7.417-1.331c4.12-0.362,8.304-0.795,12.295-1.926c1.308-0.37,2.901-0.886,3.714-2.047
			c0.856-1.226-0.875-2.833-1.718-3.479c-3.646-2.8-9.263-3.386-13.646-4.017c-6.312-0.909-12.76-1.328-19.131-1.302
			c-4.362,0.02-8.752,0.326-13.069,0.954c-2.377,0.347-4.729,0.779-7.062,1.36c-1.529,0.386-3.974,0.735-5.15,1.884
			c-2.023,1.965,6.264,6.087,7.126,6.521c4.214,2.111,8.872,3.017,13.084,5.105c2.886,1.434,4.199,4.48,5.001,7.47
			c2.271,8.474,1.492,17.949,0.859,26.562c0.009,0.002,0.015,0.003,0.021,0.006c1.396-0.018,2.791-0.028,4.188-0.045
			c0.301-0.004,0.729-0.115,0.957-0.117c-1.371,0.015-2.743,0.025-4.115,0.042c0.184-0.002,0.438-10.06,0.454-11.095
			c0.056-4.427-0.104-8.9-0.886-13.271c-0.562-3.161-1.71-7.288-4.561-9.148c-4.155-2.713-9.541-3.479-14.01-5.628
			c-1.454-0.695-10.56-5.354-5.936-7.162c8.602-3.358,18.42-3.591,27.54-3.229c6.192,0.247,12.448,0.805,18.53,2.022
			c3.291,0.659,7.222,1.53,9.703,3.966c2.79,2.731-1.104,4.241-3.375,4.887c-5.148,1.46-10.529,1.469-15.813,1.965
			c-0.862,0.081-1.71,0.204-2.503,0.575c-3.021,1.42-3.959,5.712-4.572,8.615c-1.894,8.957-1.613,18.479-1.438,27.57
			C1191.316,166.07,1192.311,166.018,1192.31,165.96z"/>
	</g>
</g>
<g>
	<path fill="#679D46" d="M1180.269,166.017c-0.797-2.091-1.869-3.896-3.062-4.562c-3.229-1.809-21.333-14.972-21.333-10.771
		c0.001,5.478,5.562,11.31,10.363,15.324L1180.269,166.017z"/>
	<g>
		<path d="M1180.287,166.009c-1.021-2.519-2.146-4.271-4.451-5.74c-2.421-1.544-4.791-3.168-7.204-4.725
			c-1.104-0.714-12.321-8.199-12.938-5.495c-0.427,1.879,0.938,4.74,1.854,6.382c1.168,2.092,2.623,3.939,4.237,5.7
			c0.91,0.992,1.896,1.914,2.886,2.822c0.342,0.312,1.385,1.521,1.843,1.521c4.646,0.002,9.295,0.004,13.939,0.006
			c-0.094,0-0.221-0.926-0.375-0.926c-4.036-0.002-8.071-0.005-12.105-0.007c-0.61,0-1.227,0-1.835,0
			c-0.908-0.001-2.938-2.541-3.594-3.177c-1.721-1.681-3.262-3.524-4.584-5.531c-0.486-0.74-3.036-5.067-1.618-6.347
			c0.854-0.771,3.157,0.528,3.928,0.887c2.434,1.124,4.729,2.562,6.996,3.979c2.315,1.45,4.595,2.97,6.875,4.478
			c2.744,1.812,4.741,2.82,6.104,6.188C1180.458,166.55,1180.499,166.534,1180.287,166.009z"/>
	</g>
</g>
<g>
	<path fill="#308064" d="M1099.329,166.017c0,0-0.979-29.859,13.729-47.46c4-4.785,4.688,27.177,0.25,41.177
		c-1.38,4.352-1.38,4.352-2.006,6.283H1099.329z"/>
	<g>
		<path d="M1099.819,166.126c-0.179-5.71,0.438-11.506,1.349-17.131c1.751-10.82,5.345-21.764,12.381-30.329
			c0.375-0.458,0.896-0.335,0.065-0.635c0.317,0.112,0.517,0.525,0.658,0.803c0.582,1.116,0.758,2.488,0.95,3.714
			c0.65,4.158,0.683,8.438,0.638,12.636c-0.104,9.781-1.354,19.172-4.323,28.487c-0.21,0.658-0.375,2.234-1.109,2.234
			c-1.364,0-2.729,0-4.096,0c-2.487,0-4.979,0-7.47,0c0.211,0,0.643,0.223,0.938,0.223c3.988,0,7.979,0,11.975,0
			c0.007-0.001,0.013-0.002,0.02-0.002c1.246-3.854,2.551-7.679,3.321-11.66c0.947-4.883,1.368-9.874,1.604-14.837
			c0.217-4.628,0.208-9.283-0.176-13.902c-0.172-2.062-0.151-5.756-1.764-7.351c-3.353-3.318-10.271,14.088-11.02,16.18
			c-3.101,8.655-4.514,17.962-4.87,27.126c-0.059,1.405-0.093,2.819-0.048,4.229
			C1098.847,166.027,1099.818,166.082,1099.819,166.126z"/>
	</g>
</g>
<g>
	<path fill="#E1B6E1" d="M989.287,58.532c0,0-17.29-21.64-21.043-21.747c-3.164-0.096-2.048,4.437-0.984,6.345
		c0.849,1.529-3.093,1.838-3.155,4.038c-0.137,4.758,6.689,10.824,10.646,12.398c3.956,1.575,12.652,3.501,15.423,2.895
		C992.945,61.849,989.287,58.532,989.287,58.532z"/>
	<g>
		<path d="M989.084,58.095c-3.805-4.758-7.753-9.414-11.877-13.896c-2.264-2.46-4.595-5.018-7.312-6.983
			c-0.909-0.658-1.684-1.042-2.812-0.734c-1.907,0.521-0.98,3.804-0.581,5c0.278,0.83,0.986,1.516,0.299,2.281
			c-1.297,1.442-3.354,1.51-2.838,4.01c0.673,3.226,2.804,5.96,5.109,8.202c3.859,3.75,8.57,5.153,13.716,6.241
			c1.404,0.298,10.02,2.301,8.348-1.292c-0.508-1.087-1.181-2.023-2.062-2.844c0.217,0.201,0.197,0.686,0.432,0.898
			c4.203,3.9-2.848,3.076-5.158,2.704c-4.314-0.69-8.964-1.702-12.65-4.145c-3.264-2.163-10.773-8.879-5.453-12.194
			c0.849-0.528,1.611-0.958,1.146-1.999c-0.688-1.521-1.234-3.12-0.863-4.804c0.683-3.083,4.293-0.104,5.348,0.797
			c2.701,2.312,5.106,4.995,7.479,7.634c3.499,3.896,6.878,7.904,10.146,11.991C989.361,58.801,989.272,58.326,989.084,58.095z"/>
	</g>
</g>
<g>
	<path fill="#E1B6E1" d="M992.111,67.331c0,0-7.434,15.826-11.036,18.479c-3.601,2.647-17.114,6.669-19.563,4.217
		c-2.452-2.451-1.999-9.635,2.341-12.919c4.338-3.282,9.883-6.438,16.26-7.708C986.487,68.131,992.111,67.331,992.111,67.331z"/>
	<g>
		<path d="M991.78,66.955c-2.347,4.981-4.875,9.942-7.86,14.577c-1.542,2.392-3.046,4.05-5.633,5.27
			c-3.402,1.605-7.156,2.661-10.855,3.302c-1.523,0.267-3.1,0.412-4.64,0.217c-1.756-0.223-2.122-1.716-2.362-3.272
			c-0.668-4.295,1.624-8.035,4.964-10.454c8.082-5.853,17.384-7.5,27.05-8.885C992.283,67.729,991.984,66.926,991.78,66.955
			c-10.218,1.465-21.377,3.164-29.195,10.601c-3.396,3.229-4.816,13.104,1.638,13.593c3.899,0.302,8.153-1.124,11.776-2.399
			c3.059-1.078,5.57-2.283,7.52-4.91c3.625-4.896,6.338-10.633,8.925-16.129C992.507,67.564,991.736,67.051,991.78,66.955z"/>
	</g>
</g>
<g>
	<path fill="#E1B6E1" d="M971.669,56.879c0,0-18.527-0.568-19.321,0.623c-0.796,1.195-1.259,2.367,0.101,3.078
		c1.355,0.712-2.996,0.186-2.766,2.179c0.229,1.993,2.997,5.688,6.699,6.736c3.699,1.047,9.326,4.253,13.824,4.105
		c4.498-0.146,23.253-8.055,22.564-8.631C992.086,64.394,971.669,56.879,971.669,56.879z"/>
	<g>
		<path d="M971.418,56.448c-4.6-0.143-9.208-0.204-13.809-0.074c-1.235,0.035-4.549-0.318-5.517,0.693
			c-0.604,0.637-0.998,1.76-0.552,2.562c0.354,0.63,0.944,0.905,1.269,1.407c-0.118-0.224-0.235-0.442-0.354-0.664
			c-0.59,0.931-2.476,0.151-3.017,1.585c-0.342,0.9,0.746,2.429,1.188,3.164c2.603,4.303,7.516,5.303,11.891,7.024
			c2.562,1.013,5.369,2.031,8.167,1.872c1.559-0.089,3.134-0.645,4.608-1.1c4.146-1.278,8.201-2.904,12.188-4.621
			c0.51-0.219,5.851-2.312,5.506-3.003c-0.65-1.301-2.242-1.556-3.521-2.062c-5.974-2.355-12.009-4.565-18.032-6.785
			C971.43,56.451,971.426,56.449,971.418,56.448c0.207,0.073,0.237,0.767,0.505,0.861c3.436,1.268,6.864,2.542,10.294,3.83
			c2.351,0.883,4.695,1.771,7.038,2.686c1.194,0.466,2.7,0.838,3.771,1.577c-0.135-0.212-0.269-0.424-0.401-0.637
			c0.021,0.034-6.394,2.994-7.008,3.253c-4.079,1.725-8.244,3.342-12.511,4.537c-4.923,1.379-9.315-0.559-13.886-2.392
			c-3.532-1.417-7.928-2.361-9.217-6.604c-0.698-2.296,2.307-1.299,2.954-2.323c0.06-0.091-0.305-0.587-0.354-0.663
			c-2.666-4.176,5.965-3.36,7.933-3.389c3.794-0.051,7.596,0.008,11.388,0.123C971.788,57.308,971.634,56.454,971.418,56.448z"/>
	</g>
</g>
<g>
	<path fill="#E1B6E1" d="M990.431,64.477c0,0-3.38-6.16-4.74-12.354c-1.391-6.331-1.729-16.787,0.377-23.117
		c1.67-5.033,3.161-1.843,3.161-1.843s1.908-3.397,2.896-3.431c0.987-0.03,2.388,1.926,2.438,3.592
		c0.054,1.666,3.646-0.617,3.979,4.54c0.333,5.156-1.764,33.214-2.555,34.587C995.199,67.824,992.457,65.122,990.431,64.477z"/>
	<g>
		<path d="M990.929,64.427c-3.393-6.234-5.271-12.944-5.745-20.009c-0.29-4.3-0.131-8.678,0.703-12.91
			c0.224-1.126,1.523-6.954,2.845-4.296c0.028,0.059,0.951-0.022,0.994-0.102c0.505-0.885,1.067-1.729,1.707-2.522
			c1.229-1.538,2.23,1.058,2.553,2.151c0.245,0.84,0.057,1.188,0.994,1.395c1.097,0.241,1.844,0.427,2.486,1.405
			c0.973,1.479,0.629,4.085,0.587,5.789c-0.063,2.633-0.212,5.264-0.365,7.894c-0.33,5.624-0.75,11.244-1.297,16.854
			c-0.175,1.794-0.354,3.594-0.646,5.373c-0.058,0.347-0.102,0.731-0.254,1.056C995.247,67.007,991.798,64.763,990.929,64.427
			c-0.291-0.111-0.739,0.197-0.996,0.1c1.971,0.761,3.699,2.707,5.94,2.271c1.185-0.229,1.068-2.812,1.175-3.676
			c0.803-6.638,1.232-13.33,1.635-19.999c0.18-2.982,0.337-5.972,0.389-8.957c0.033-2.052,0.268-5.405-2.293-5.979
			c-1.729-0.386-1.493-0.508-1.982-2.184c-0.294-1.009-1.229-2.398-2.422-2.319c-1.862,0.124-2.799,2.046-3.643,3.524
			c0.331-0.032,0.663-0.065,0.994-0.102c-0.535-1.077-1.326-1.062-2.354-0.874c-1.358,0.249-1.876,3.012-2.167,4.052
			c-0.725,2.581-0.951,5.305-1.083,7.971c-0.452,9.18,1.414,18.175,5.812,26.267C990.013,64.671,990.886,64.349,990.929,64.427z"/>
	</g>
</g>
<g>
	<path fill="#E1B6E1" d="M990.761,60.961c0,0,19.236-23.966,22.852-25.75c2.473-1.222,2.705,1.495,2.736,2.494
		c0.033,0.999,2.617-0.397,3.387-0.044c1.396,0.643,0.238,3.515-0.4,4.37c-0.641,0.854,2.352,0.089,0.961,3.804
		c-1.386,3.713-6.18,9.315-7.221,10.256c-2.836,2.557-9.911,6.805-14.365,8.282C994.25,65.85,989.558,65.002,990.761,60.961z"/>
	<g>
		<path d="M990.912,61.437c3.688-4.592,7.445-9.129,11.269-13.608c2.592-3.041,5.214-6.065,7.981-8.945
			c1.101-1.141,5.812-6.146,6.027-1.632c0.01,0.192,0.248,1.11,0.409,1.182c0.767,0.322,1.776-0.157,2.554-0.313
			c1.834-0.376,0.632,2.367,0.229,3.128c-0.32,0.604-0.294,0.749-0.041,1.397c0.086,0.22,0.214,0.294,0.42,0.403
			c1.194,0.639,0.612,1.727,0.179,2.808c-1.588,3.938-4.871,8.111-8.213,10.748c-4.288,3.381-9.859,6.773-15.276,7.818
			C994.178,64.857,990.167,64.649,990.912,61.437c0.068-0.295-0.366-0.699-0.31-0.951c-0.694,2.998,1.136,4.873,4.157,5.039
			c5.439,0.303,11.521-3.967,15.784-6.888c3.771-2.581,6.625-6.333,8.904-10.253c0.923-1.586,2.388-4.872,0.188-6.19
			c-0.645-0.385,0.02,0-0.152,0.312c0.221-0.403,0.445-0.773,0.634-1.198c0.269-0.602,0.557-1.497,0.411-2.175
			c-0.16-0.758-0.303-1.467-0.952-1.946c-0.521-0.388-2.091,0.299-2.664,0.396c-0.502,0.087-0.411,0.452-0.453-0.038
			c-0.021-0.277-0.084-0.522-0.142-0.796c-0.114-0.533-0.358-1.522-0.793-1.897c-1.923-1.661-5.101,2.478-6.226,3.654
			c-2.813,2.955-5.476,6.062-8.116,9.173c-3.587,4.218-7.113,8.49-10.581,12.808C990.472,60.653,991.003,61.324,990.912,61.437z"/>
	</g>
</g>
<g>
	<path fill="#E1B6E1" d="M1002.752,58.958c0,0,27.489-0.537,32.916,4.63c2.191,2.089-0.548,2.378-1.533,2.784
		c-0.989,0.403,3.59,2.76-3.582,5.286c-7.142,2.51-16.915,6.756-31.604-2.776c-14.688-9.53-5.688-9.617-5.688-9.617L1002.752,58.958
		z"/>
	<g>
		<path d="M1002.403,59.007c6.568-0.123,13.19,0.131,19.72,0.86c3.864,0.432,8.058,0.961,11.566,2.735
			c1.201,0.607,3.462,2.312,1.415,3.311c-1.188,0.58-1.936,0.206-1.209,1.554c1.854,3.462-6.384,5.166-8.631,5.869
			c-7.259,2.271-14.243,1.436-21.019-1.768c-3.174-1.5-6.139-3.502-8.93-5.615c-1.5-1.139-3.154-2.452-4.046-4.153
			c-0.737-1.409,0.603-2.471,1.634-2.487C996.073,59.261,999.239,59.109,1002.403,59.007c0.123-0.004,1.084-0.11,0.701-0.099
			c-3.712,0.117-7.817-0.31-11.47,0.539c-1.784,0.41-1.856,1.78-0.912,3.167c1.19,1.75,3.108,3.072,4.791,4.306
			c3.107,2.281,6.442,4.251,10.005,5.741c7.765,3.25,15.688,2.419,23.422-0.29c1.944-0.685,4.084-1.239,5.631-2.663
			c1.039-0.955,0.442-1.98-0.041-2.997c-0.204-0.43,2.265-0.943,2.468-1.816c0.312-1.333-2.744-2.604-3.621-2.96
			c-5.521-2.229-12.031-2.453-17.9-2.775c-4.113-0.229-8.248-0.326-12.368-0.248C1002.982,58.911,1002.021,59.015,1002.403,59.007z"
			/>
	</g>
</g>
<g>
	<path fill="#E1B6E1" d="M986.699,73.071c0,0-1.262,11.008-0.022,18.347c0.504,2.979,2.594,10.42,5.465,10.453
		c2.869,0.028,2.244-1.66,3.346-0.572c1.102,1.093,2.965,2.619,4.145,0.343c0.715-1.384,1.3-2.429,2.693-1.726
		c1.398,0.707,2.357-8.328,0.836-12.907c-1.521-4.579-7.658-18.263-7.658-18.263s-6.061-2.755-6.895-1.479
		C987.772,68.543,986.699,73.071,986.699,73.071z"/>
	<g>
		<path d="M986.26,72.834c-0.974,8.616-1.694,18.954,2.855,26.732c1.147,1.966,3.688,3.479,5.798,1.854
			c0.287-0.222,0.396-0.129,0.144-0.351c0.435,0.379,0.831,0.743,1.302,1.078c0.275,0.196,0.614,0.351,0.908,0.507
			c1.867,0.991,2.567-0.521,3.507-2.002c0.669-1.059,1.347-0.296,2.282-0.498c0.453-0.103,0.65-1.119,0.752-1.456
			c0.684-2.35,0.639-4.998,0.5-7.41c-0.25-4.369-2.381-8.49-4.062-12.455c-1.39-3.273-2.814-6.53-4.271-9.776
			c-0.491-1.101-4.145-1.812-5.004-2.06c-1.326-0.378-2.523-0.653-3.177,0.752C987.064,69.339,986.663,71.14,986.26,72.834
			c-0.026,0.114,0.894,0.424,0.881,0.475c0.354-1.479,0.802-5.387,2.302-6.075c1.599-0.73,4.97,1.065,6.434,1.728
			c-0.271-0.149-0.544-0.301-0.812-0.451c2.433,5.43,4.854,10.88,6.994,16.432c1.354,3.52,1.636,7.103,1.288,10.848
			c-0.109,1.188-0.226,2.84-1.027,3.804c-0.234,0.282-1.182-0.112-1.593-0.082c-0.886,0.066-1.555,1.924-1.951,2.521
			c-1.581,2.37-3.084-2.056-4.553-1.229c-1.813,1.022-2.957,1.16-4.222-0.757c-1.076-1.644-1.683-3.635-2.222-5.505
			c-1.938-6.729-1.413-14.342-0.638-21.229C987.157,73.154,986.246,72.925,986.26,72.834z"/>
	</g>
</g>
<g>
	<path fill="#E1B6E1" d="M1008.329,69.206c0,0,18.995,18.302,16.272,27.36c-0.604,2.007-5.688,0.933-8.497,0.272
		c-3.778-0.877-13.402-8.446-16.442-13.478c-3.038-5.028-11.016-15.266-4.701-18.466
		C998.653,63.028,1008.329,69.206,1008.329,69.206z"/>
	<g>
		<path d="M1008.531,69.664c4.197,4.057,8.067,8.562,11.399,13.353c2.538,3.648,5.711,8.449,4.47,13.096
			c-0.834,3.115-9.364,0.104-11.188-0.881c-4.418-2.386-8.489-5.953-11.797-9.698c-1.414-1.605-2.47-3.468-3.628-5.257
			c-1.964-3.031-4.193-6.248-4.891-9.844c-0.375-1.938,0.192-3.67,1.806-4.812c1.513-1.073,3.604-0.546,5.229-0.083
			C1002.954,66.399,1005.885,67.984,1008.531,69.664c-0.215-0.139-0.156-0.757-0.404-0.915c-2.814-1.787-5.891-3.354-9.104-4.271
			c-4.175-1.188-7.277,1.186-6.429,5.584c0.621,3.222,2.573,6.326,4.27,9.061c2.521,4.062,5.055,7.759,8.604,11.003
			c3.363,3.074,7.364,6.409,11.913,7.419c2.07,0.461,4.672,1.116,6.721,0.273c1.332-0.546,1.001-3.062,0.853-4.182
			c-0.911-6.817-6.364-13.236-10.627-18.233c-1.964-2.303-4.021-4.551-6.2-6.653C1008.335,68.951,1008.303,69.442,1008.531,69.664z"
			/>
	</g>
</g>
<g>
	<polygon fill="#F2E44A" points="991.626,56.901 990.018,55.729 990.058,56.953 987.592,56.42 988.563,59.448 985.768,59.54 
		987.561,60.88 984.821,62.718 987.119,63.518 984.934,66.212 988.952,66.082 989.239,69.571 990.565,67.255 992.034,69.481 
		993.016,67.351 995.53,69.368 995.413,65.874 997.886,66.494 997.783,63.35 996.876,62.416 997.698,60.729 995.22,59.758 
		997.611,57.933 993.761,57.882 995.082,55.566 	"/>
	<g>
		<path d="M992.075,57.082c-0.537-0.394-1.074-0.781-1.611-1.172c-0.094-0.069-0.904-0.354-0.905-0.375
			c0.015,0.434,0.292,1.271-0.325,1.139c-0.692-0.148-1.387-0.299-2.08-0.448c-0.007,0-0.014,0-0.021,0
			c0.313,0.98,0.633,1.962,0.944,2.943c0.019,0.056-2.446,0.166-2.748,0.175c-0.022-0.004-0.024,0.002-0.008,0.016
			c0.373,0.279,2.026,1.16,1.495,1.52c-0.817,0.549-1.639,1.099-2.455,1.646c0.03-0.021,0.691,0.324,0.775,0.354
			c0.769,0.268,1.532,0.533,2.302,0.8c-0.263-0.117-0.521-0.234-0.777-0.353c-0.729,0.896-1.457,1.796-2.188,2.691
			c0.007-0.009,0.781,0.396,0.898,0.393c1.34-0.043,2.683-0.087,4.021-0.133c-0.303-0.13-0.604-0.26-0.901-0.39
			c0.097,1.162,0.191,2.325,0.287,3.488c0.008,0.095,0.903,0.421,0.922,0.391c0.441-0.771,0.884-1.544,1.324-2.313
			c-0.311-0.133-0.613-0.263-0.922-0.393c0.487,0.741,0.979,1.483,1.471,2.229c0.061,0.09,0.903,0.429,0.922,0.39
			c0.326-0.71,0.653-1.421,0.98-2.131c-0.306-0.125-0.605-0.25-0.908-0.375c0.838,0.672,1.678,1.346,2.516,2.018
			c0.095,0.076,0.906,0.349,0.908,0.375c-0.035-1.062-0.07-2.126-0.104-3.188c-0.021-0.562,1.979,0.201,2.438,0.313
			c0.008,0,0.015,0,0.021,0c-0.033-1.048-0.067-2.097-0.104-3.145c-0.012-0.316-1.043-0.653-0.846-1.062
			c0.253-0.521,0.506-1.039,0.76-1.562c0.017-0.033-0.533-0.26-0.57-0.273c-0.827-0.321-1.65-0.646-2.479-0.971
			c0.188,0.091,0.382,0.186,0.568,0.273c0.799-0.608,1.596-1.22,2.394-1.826c-0.054,0.04-0.754-0.388-0.901-0.391
			c-1.282-0.019-2.563-0.033-3.849-0.052c0.3,0.13,0.601,0.263,0.897,0.393c0.441-0.771,0.886-1.544,1.324-2.315
			c0-0.002-0.807-0.435-0.922-0.391c-1.15,0.442-2.305,0.892-3.456,1.335c0.188-0.073,0.672,0.483,0.922,0.391
			c1.151-0.445,2.307-0.892,3.456-1.335c-0.309-0.131-0.612-0.261-0.922-0.391c-0.439,0.771-0.883,1.544-1.324,2.313
			c-0.013,0.021,0.801,0.392,0.9,0.393c1.283,0.018,2.565,0.031,3.85,0.05c-0.3-0.13-0.602-0.26-0.898-0.391
			c-0.796,0.607-1.596,1.218-2.393,1.824c0.013-0.007,0.527,0.259,0.571,0.273c0.827,0.324,1.652,0.646,2.479,0.972
			c-0.189-0.092-0.383-0.184-0.57-0.271c-0.272,0.562-0.547,1.125-0.819,1.688c0.005,0.005,0.009,0.01,0.016,0.018
			c1.072,1.105,0.924,1.858,0.973,3.384c0.039,1.22-1.562,0.273-2.428,0.06c-0.01,0-0.017,0-0.021,0
			c0.038,1.165,0.075,2.328,0.113,3.493c0.304,0.125,0.604,0.25,0.908,0.375c-0.839-0.672-1.68-1.345-2.518-2.017
			c-0.076-0.062-0.884-0.431-0.908-0.375c-0.323,0.71-0.65,1.421-0.979,2.131c0.309,0.13,0.614,0.26,0.923,0.39
			c-0.49-0.741-0.979-1.48-1.472-2.227c-0.062-0.088-0.896-0.44-0.922-0.393c-0.44,0.771-0.886,1.544-1.324,2.315
			c0.309,0.13,0.613,0.261,0.922,0.391c-0.096-1.163-0.189-2.326-0.286-3.486c-0.011-0.111-0.785-0.396-0.899-0.393
			c-1.342,0.043-2.682,0.086-4.021,0.13c0.3,0.13,0.602,0.263,0.9,0.393c0.729-0.898,1.456-1.796,2.188-2.694
			c0.009-0.012-0.713-0.331-0.777-0.354c-0.767-0.268-1.53-0.53-2.3-0.8c0.262,0.118,0.521,0.234,0.778,0.354
			c0.912-0.613,1.825-1.229,2.738-1.838c-0.005-0.005-0.012-0.013-0.017-0.018c-0.312-0.232-1.408-1.338-1.703-1.328
			c0.899-0.026,1.802-0.06,2.698-0.088c0.007,0,0.017,0,0.021,0c-0.29-0.902-0.58-1.81-0.869-2.713
			c-0.185-0.562,1.891,0.119,2.345,0.218c0.007,0,0.014,0,0.021,0c-0.017-0.405-0.027-0.812-0.04-1.224
			c-0.306-0.125-0.604-0.25-0.907-0.375c0.536,0.392,1.073,0.781,1.608,1.173C991.418,56.895,991.91,56.961,992.075,57.082z"/>
	</g>
</g>
<g>
	<path fill="#308064" d="M1078.623,29.651c0,0,2.097-6.528,2.964,0c1.5,11.278,2.317,22.143,8.156,35.853
		c9.532,22.382,9.993,35.997,9.993,46.084c0,12.965-13.764,57.632-13.764,57.632h-4c0,0,13.641-36.97,13.641-60.949
		C1095.615,84.384,1080.623,61.281,1078.623,29.651"/>
	<g>
		<path d="M1079.121,29.712c0.289-0.881,0.775-2.67,1.812-2.902c-0.325-0.038-0.65-0.076-0.979-0.114
			c1.626,0.404,1.546,6.059,1.715,7.394c0.414,3.277,0.851,6.552,1.391,9.812c1.174,7.084,3.102,13.979,5.812,20.633
			c4.71,11.56,8.693,23.226,9.92,35.715c0.687,6.976,0.571,13.729-0.708,20.617c-1.639,8.816-3.959,17.521-6.312,26.171
			c-1.808,6.627-2.517,9.562-4.479,16.146c-0.521,1.752-1.05,3.502-1.585,5.25c-0.458,1.497-2.843,0.727-4.205,0.727
			c0.323,0.042,0.648,0.085,0.976,0.127c5.441-14.937,8.729-26.768,11.636-42.394c1.997-10.736,2.651-21.271,0.592-32.058
			c-2.309-12.085-6.785-23.668-10.141-35.479C1081.807,49.659,1079.798,39.779,1079.121,29.712
			c-0.008-0.098-0.989-0.096-0.992-0.123c0.927,13.743,4.476,26.95,8.564,40.044c3.527,11.29,7.423,22.646,8.286,34.522
			c0.775,10.676-1.428,21.551-3.812,31.898c-2.226,9.667-3.824,15.541-6.909,24.967c-0.893,2.724-1.804,5.439-2.781,8.132
			c-0.003,0.01,0.878,0.129,0.975,0.129c1.334,0,2.667,0,4,0c0.006-0.003,0.015-0.005,0.021-0.006
			c3.979-12.866,6.482-22.183,9.71-35.26c1.749-7.09,3.794-14.504,4.046-21.843c0.307-8.896-0.875-17.883-3.038-26.493
			c-1.729-6.89-4.188-13.584-6.947-20.12c-2.93-6.933-4.92-14.132-6.189-21.541c-0.562-3.257-0.975-6.536-1.39-9.812
			c-0.146-1.16-0.163-7.016-1.562-7.361c-1.896-0.472-2.432,1.088-2.973,2.741C1078.139,29.562,1079.092,29.805,1079.121,29.712
			L1079.121,29.712z"/>
	</g>
</g>
<g>
	<path fill="#308064" d="M1070.42,48.399c0,0,0.485-7.292-0.857-13.122c0,0,4.312,7.774,3.612,14.276
		C1072.893,52.167,1070.42,48.399,1070.42,48.399z"/>
	<g>
		<path d="M1070.719,48.801c0.273-4.365,0.058-8.844-0.86-13.122c-0.196-0.262-0.393-0.522-0.589-0.787
			c1.094,1.996,1.92,4.146,2.604,6.309c0.664,2.105,1.032,4.28,1.081,6.488c0.047,2.128-0.729,3.347-2.31,0.985
			c-0.069-0.101-0.66-0.866-0.447-0.549c0.37,0.554,0.763,1.106,1.202,1.608c0.348,0.397,0.697,0.757,1.142,1.043
			c1.11,0.722,0.993-1.887,1.005-2.281c0.111-4.34-1.631-9.064-3.693-12.834c-0.126-0.232-0.536-0.553-0.588-0.787
			c0.918,4.276,1.136,8.756,0.858,13.122C1070.109,48.273,1070.734,48.574,1070.719,48.801z"/>
	</g>
</g>
<g>
	<path fill="#308064" d="M1054.749,45.499c0,0,13.328-0.115,16.67,2.742c3.344,2.856-0.989,2.864-0.989,2.864
		S1063.252,47.006,1054.749,45.499z"/>
	<g>
		<path d="M1054.287,45.634c2.447-0.017,4.901,0.111,7.338,0.324c2.988,0.263,6.851,0.501,9.312,2.418
			c0.79,0.616,2.14,2.396,0.291,2.58c-0.627,0.062-1.301-0.508-1.836-0.779c-4.464-2.25-9.253-3.887-14.163-4.812
			c-0.304-0.059-0.685,0.321-0.962,0.27c5.323,1.003,10.504,2.845,15.283,5.391c0.783,0.419,2.508,0.104,3.219-0.479
			c1.354-1.116-1.195-2.745-2.111-3.19c-1.947-0.946-4.282-1.219-6.403-1.484c-2.986-0.381-6.03-0.522-9.044-0.502
			C1054.92,45.367,1054.499,45.633,1054.287,45.634z"/>
	</g>
</g>
<g>
	<path fill="#308064" d="M1075.206,46.732c2.146-4.786,9.905-5.542,9.905-5.542c-3.282-2.747-9.565,0.535-11.312,4.08
		C1072.054,48.813,1074.991,47.215,1075.206,46.732z"/>
	<g>
		<path d="M1075.701,46.649c1.606-3.211,5.534-5.017,8.987-5.378c0.146-0.015,0.822-0.232,0.917-0.164
			c-3.238-2.379-8.108-0.227-10.687,2.119c-0.547,0.497-3.526,4.644-1.387,4.348C1074.293,47.467,1075.223,47.324,1075.701,46.649
			c-0.127,0.18-0.842-0.037-0.983,0.169c-0.259,0.363-0.742,0.799-0.965,0.229c-0.405-1.061,1.136-2.867,1.758-3.58
			c2.156-2.484,6.184-4.338,9.109-2.189c0.309-0.055,0.611-0.107,0.918-0.163c-4.041,0.42-8.882,1.825-10.82,5.705
			C1074.793,46.658,1075.607,46.841,1075.701,46.649z"/>
	</g>
</g>
<g>
	<path fill="#F2E44A" d="M1087.154,50.789c0,0,8.562-1.418,12.597,7.854c2.771,6.363,0.905,18.867-7.556,19.556
		c-7.576,0.612-11.811-6.518-12.241-15.514C1079.555,54.373,1081.093,51.866,1087.154,50.789z"/>
	<g>
		<path d="M1087.39,51.23c5.236-0.812,10.371,2.727,12.315,7.461c2.229,5.418,1.146,13.588-3.521,17.438
			c-2.284,1.886-5.546,1.999-8.262,1.146c-4.771-1.491-6.721-6.753-7.45-11.25c-0.562-3.424-0.827-7.735,0.6-11.013
			C1082.161,52.509,1084.938,51.698,1087.39,51.23c-0.055,0.013-0.331-0.906-0.474-0.883c-3.413,0.648-6.011,1.951-6.896,5.52
			c-1.08,4.356-0.323,9.787,1.145,13.951c2.154,6.111,8.562,11.647,15.092,7.481c5.765-3.679,6.11-13.743,3.256-19.266
			c-2.42-4.677-6.977-8.562-12.597-7.688C1086.982,50.337,1087.238,51.253,1087.39,51.23z"/>
	</g>
</g>
<g>
	<path fill="#EBBB25" d="M1072.954,46.185c0,0,9.235-1.722,12.334,7.618c2.188,6.589,3.154,17.202-5.021,19.483
		c-6.398,1.783-12.335-3.042-14.075-11.88C1064.584,53.241,1067.115,48.134,1072.954,46.185z"/>
	<g>
		<path d="M1073.138,46.65c3.418-0.604,7.087,0.555,9.567,2.933c3.005,2.877,3.752,7.999,3.924,12.018
			c0.131,3.053-0.46,6.213-2.397,8.646c-4.516,5.665-12.415,2.418-15.679-2.602C1064.092,60.787,1064.628,49.692,1073.138,46.65
			c0.026-0.01-0.317-0.945-0.364-0.931c-8.242,2.947-8.349,12.259-5.576,19.327c1.22,3.112,2.972,5.904,5.845,7.728
			c3.484,2.213,8.277,1.609,11.209-1.219c4.781-4.609,2.765-13.936,0.476-19.286c-1.987-4.647-6.914-7.442-11.951-6.551
			C1072.798,45.715,1073.036,46.669,1073.138,46.65z"/>
	</g>
</g>
<g>
	<path fill="#308064" d="M1075.378,31.886c0,0,3.595-18.008,13.299-16.341c9.702,1.667,12.035,2.667,17.369,1.333
		c5.332-1.333,30.332-9.333,30.666-11.333S1076.659,54.476,1075.378,31.886z"/>
	<g>
		<path d="M1075.787,32.176c1.104-5.45,3.456-12.229,8.33-15.371c1.488-0.96,3.236-1.213,4.966-0.97
			c3.118,0.438,6.192,1.179,9.31,1.655c3.562,0.546,6.812,0.062,10.243-0.921c8.037-2.306,16.093-4.911,23.822-8.104
			c0.283-0.117,5.081-2.266,4.637-2.693c-0.662-0.638-0.893-0.629-1.607-0.176c-3.729,2.354-7.188,5.2-10.746,7.799
			c-5.863,4.28-11.802,8.468-17.915,12.388c-5.823,3.729-11.86,7.354-18.334,9.852c-3.155,1.216-9.868,3.667-11.978-0.379
			C1076.023,34.31,1075.861,33.22,1075.787,32.176c-0.017-0.23-0.803-0.393-0.812-0.58c0.76,11.077,15.089,4.572,20.553,1.811
			c12.489-6.316,23.842-14.86,35.074-23.142c1.522-1.124,3.046-2.254,4.598-3.344c0.309-0.217,1.475-1.278,1.906-1.138
			c-0.27-0.188-0.535-0.377-0.803-0.565c0.367,0.354-3.688,2.253-3.898,2.346c-3.377,1.472-6.87,2.685-10.351,3.885
			c-6.072,2.097-12.481,4.701-18.877,5.62c-3.784,0.544-7.697-0.502-11.396-1.187c-4.17-0.771-7.286-1.213-10.479,1.975
			c-3.484,3.478-5.368,8.997-6.328,13.739C1074.943,31.753,1075.81,32.07,1075.787,32.176z"/>
	</g>
</g>
<g>
	<path fill="#308064" d="M1026.833,11.907c0,0,11.896,21.415,23.438,24.188c33.624,8.077,21.876-5.712,22.091-6.955
		c1.404-8.134,3.806-12.92-1.854-12.179c-5.662,0.74-5.946,4.172-8.596-0.118c-2.646-4.29-11.313-7.309-18.621-7.65
		C1035.987,8.85,1026.833,11.907,1026.833,11.907z"/>
	<g>
		<path d="M1026.376,11.704c3.408,6.11,7.639,11.959,12.517,16.975c2.616,2.688,5.586,5.1,9.03,6.634
			c4.341,1.933,9.479,2.559,14.155,3.157c3.162,0.405,12.236,1.709,12.557-3.5c0.077-1.31-0.483-2.623-1.026-3.78
			c-0.918-1.949-0.692-2.498-0.193-4.914c0.621-3.008,2.789-8.026-1.096-9.418c-2.229-0.798-5.062,0.51-7.047,1.448
			c-1.483,0.704-2.062,0.039-2.899-1.259c-0.729-1.131-1.688-1.99-2.756-2.79C1050.246,7.247,1036.841,8.246,1026.376,11.704
			c0.211-0.069,0.661,0.488,0.914,0.404c4.308-1.423,8.842-2.35,13.358-2.681c6.756-0.493,16.806,1.232,20.807,7.209
			c1.211,1.811,2.55,3.062,4.729,2.072c2.065-0.941,4.288-1.865,6.616-1.559c1.475,0.195,0.646,4.062,0.507,4.846
			c-0.393,2.172-1.541,4.824-1.4,7.019c0.021,0.352,0.284,0.736,0.438,1.041c0.561,1.143,1.104,2.294,1.317,3.56
			c0.863,5.105-6.477,4.91-9.66,4.722c-2.276-0.138-4.546-0.489-6.793-0.881c-3.37-0.586-7.23-1.07-10.273-2.697
			c-3.916-2.094-7.131-5.486-9.993-8.813c-3.646-4.237-6.922-8.944-9.646-13.833C1027.153,11.865,1026.496,11.917,1026.376,11.704z"
			/>
	</g>
</g>
<g>
	<g>
		<path d="M1068.74,25.298c-7.965,3.166-15.876-0.371-22.866-4.284c-2.726-1.522-5.396-3.152-8.205-4.52
			c-1.138-0.555-2.438-1.21-3.726-1.229c0.286,0.004,0.597,0.403,0.913,0.407c2.146,0.027,4.296,1.648,6.143,2.688
			c1.848,1.04,3.679,2.104,5.528,3.129c2.407,1.333,4.87,2.621,7.42,3.671c4.851,1.996,10.736,2.518,15.707,0.541
			C1069.467,25.781,1068.981,25.203,1068.74,25.298L1068.74,25.298z"/>
	</g>
</g>
<g>
	<g>
		<path d="M1083.091,27.84c9.817-0.032,20.074-3.486,28.198-8.854c0.088-0.059-0.4-0.911-0.396-0.919
			c-8.123,5.363-18.38,8.818-28.2,8.854C1082.78,26.921,1082.916,27.841,1083.091,27.84L1083.091,27.84z"/>
	</g>
</g>
<g>
	<path fill="#308064" d="M83.988,107.352c-5.203,4.814-9.613-7.557-24.461,6.385c-3.591,3.369-18.887,20.062-18.887,20.062
		c1.417-10.148,4.103-22.049,8.554-26.664c2.587-2.684,9.825-10.318,15.98-13.838c0,0,7.594-2.719,13.941,2.834
		C80.926,97.715,86.233,105.276,83.988,107.352z"/>
	<g>
		<path fill="#1B1B1B" d="M83.706,106.94c-2.718,2.377-5.956,0.285-8.967-0.301c-6.2-1.205-11.877,3.146-16.035,7.205
			c-6.383,6.232-12.318,12.967-18.343,19.543c0.188,0.275,0.375,0.551,0.562,0.826c1.051-7.389,2.396-14.98,5.467-21.83
			c2.335-5.207,7.232-9.238,11.413-12.953c2.131-1.896,4.938-4.777,7.684-5.729c1.722-0.598,3.618-0.703,5.423-0.627
			c3.517,0.145,7.091,1.768,9.396,4.432C81.584,98.981,85.84,104.496,83.706,106.94c-0.079,0.092,0.593,0.791,0.562,0.826
			c2.438-2.793-2.833-9.146-4.692-11.299c-3.246-3.746-10.723-5.914-15.258-3.24c-3.608,2.123-6.785,5.029-9.816,7.891
			c-2.377,2.24-5.005,4.564-6.901,7.248c-2.224,3.143-3.393,7.074-4.417,10.738c-1.306,4.674-2.138,9.482-2.817,14.283
			c-0.021,0.135,0.589,0.797,0.562,0.826c6.028-6.578,11.991-13.273,18.343-19.543c4.132-4.076,9.553-8.113,15.678-7.268
			c3.152,0.438,6.479,2.854,9.325,0.359C84.326,107.715,83.704,106.94,83.706,106.94z"/>
	</g>
</g>
<g>
	<path fill="#308064" d="M92.573,104.531c10.147-4.25,21.244,0,25.021,43.9c0.193,2.242-14.163-4.721-14.516-23.512
		c-0.151-8.062-10.355-11.57-11.5-13.25C91.578,111.672,90.713,105.309,92.573,104.531z"/>
	<g>
		<path fill="#1B1B1B" d="M92.771,104.99c14.371-5.926,19.63,11.871,21.853,22.619c1.389,6.719,2.173,13.559,2.771,20.387
			c0.116,1.326-4.006-1.227-4.235-1.393c-4.607-3.299-7.616-8.605-8.979-14.002c-0.982-3.908-0.278-8.188-2.123-11.844
			c-1.812-3.602-5.076-5.838-8.419-7.9c-0.562-0.35-1.125-0.693-1.663-1.086c-0.625-0.449-0.341-0.762-0.204,0.291
			c-0.042-0.316-0.068-0.641-0.1-0.961C91.517,109.424,91.046,106.037,92.771,104.99c0.078-0.051-0.396-0.922-0.396-0.918
			c-1.733,1.051-1.572,5.807-0.876,7.486c0.812,1.969,3.951,3.049,5.586,4.197c2.434,1.709,4.871,3.979,5.599,6.986
			c0.702,2.896,0.424,6.023,1.101,8.979c0.73,3.201,2.058,6.43,3.812,9.207c1.823,2.879,4.126,5.494,7.034,7.314
			c0.744,0.465,1.581,0.9,2.457,1.036c1.276,0.196,0.595-1.659,0.534-2.321c-0.964-10.535-2.311-21.57-6.318-31.455
			c-1.748-4.311-4.045-8.939-8.191-11.39c-3.354-1.981-7.286-1.472-10.736-0.048C92.335,104.088,92.722,105.01,92.771,104.99z"/>
	</g>
</g>
<g>
	<g>
		<path fill="#1B1B1B" d="M76.207,99.004c-2.462-0.482-5.272,0.086-7.654,0.711c-8.968,2.354-15.65,9.961-20.47,17.453
			c0.104-0.166,0.858,0.051,0.988-0.152c4.08-6.346,9.155-12.232,15.967-15.717c2.997-1.533,6.779-2.809,10.18-2.143
			C75.534,99.217,75.912,98.946,76.207,99.004L76.207,99.004z"/>
	</g>
</g>
<g>
	<g>
		<path fill="#1A1A1A" d="M97.031,109.885c8.529-0.414,10.884,10.73,11.096,17.072c0.006,0.184,0.9,0.311,0.904,0.428
			c-0.201-6.014-1.558-12.916-7.163-16.203c-1.676-0.98-3.767-1.816-5.741-1.725C96.4,109.446,96.722,109.901,97.031,109.885
			L97.031,109.885z"/>
	</g>
</g>
<path fill="#FFFFFF" d="M944.945,163.092c0,0,115.357-8.401,182.151,0c59.877,7.531,97.634-0.366,121.195-3.733v11.156H944.945
	V163.092z"/>
<path fill="#FFFFFF" d="M12.609,163.092c0,0,115.355-8.401,182.149,0c59.877,7.531,63.309-0.366,86.872-3.733v11.659H12.609V163.092
	z"/>
<path fill="none" stroke="#1B1B1B" stroke-miterlimit="10" d="M944.945,163.092c0,0,115.357-8.401,182.151,0
	c59.877,7.531,97.634-0.366,121.195-3.733"/>
<path fill="none" stroke="#1B1B1B" stroke-miterlimit="10" d="M12.609,163.092c0,0,115.355-8.401,182.149,0
	c59.877,7.531,74.376-0.967,86.872-4.904"/>
</svg>
