<?xml version="1.0" encoding="utf-8"?>
<!-- Generator: Adobe Illustrator 15.0.0, SVG Export Plug-In . SVG Version: 6.00 Build 0)  -->
<!DOCTYPE svg PUBLIC "-//W3C//DTD SVG 1.1//EN" "http://www.w3.org/Graphics/SVG/1.1/DTD/svg11.dtd">
<svg version="1.1" id="Ebene_5" xmlns="http://www.w3.org/2000/svg" xmlns:xlink="http://www.w3.org/1999/xlink" x="0px" y="0px"
	 width="1275.59px" height="171.018px" viewBox="0 0 1275.59 171.018" enable-background="new 0 0 1275.59 171.018"
	 xml:space="preserve">
<g>
	<path fill="#308064" d="M225.103,49.602c0,0,7.598-1.228,11.88-4.473c4.283-3.245-7.555,7.239-9.23,7.237
		C226.072,52.368,225.103,49.602,225.103,49.602z"/>
	<g>
		<path d="M225.445,49.967c2.146-0.354,4.259-0.949,6.312-1.657c1.594-0.549,3.122-1.262,4.564-2.127
			c0.513-0.307,1.297-1.209,1.927-1.312c-0.229-0.242-0.458-0.484-0.688-0.729c0.043,0.361-1.351,1.336-1.582,1.541
			c-1.204,1.069-2.443,2.101-3.702,3.105C230.277,50.396,226.942,54.007,225.445,49.967c-0.108-0.297-0.584-0.453-0.687-0.729
			c0.365,0.982,0.949,1.828,1.687,2.563c1.339,1.333,2.269,0.812,3.663-0.136c1.804-1.222,3.486-2.632,5.148-4.035
			c0.405-0.342,3.062-2.157,2.992-2.761c-0.014-0.104-0.596-0.742-0.688-0.729c-0.443,0.07-1.084,0.737-1.412,0.977
			c-1.523,1.099-3.327,1.82-5.08,2.463c-2.03,0.742-4.176,1.303-6.312,1.655C224.917,49.214,225.238,50.001,225.445,49.967z"/>
	</g>
</g>
<g>
	<path fill="#308064" d="M223.658,52.64c0,0,1.307-7.189,0.629-13.137c0,0,3.402,8.214,1.974,14.595
		C225.685,56.664,223.658,52.64,223.658,52.64z"/>
	<g>
		<path d="M223.979,53.022c0.768-4.308,1.06-8.779,0.629-13.136c-0.212-0.249-0.425-0.499-0.637-0.748
			c1.037,2.539,1.691,5.25,2.091,7.957c0.326,2.205,0.302,4.436-0.124,6.619c-0.345,1.771-1.522,0.146-1.966-0.711
			c-0.136-0.263-0.534-0.542-0.631-0.729c0.736,1.429,2.75,4.728,3.38,1.49c0.875-4.493-0.413-9.717-2.12-13.896
			c-0.096-0.234-0.616-0.533-0.637-0.748c0.428,4.354,0.137,8.829-0.629,13.136C223.293,52.495,224.011,52.844,223.979,53.022z"/>
	</g>
</g>
<g>
	<g>
		<path fill="none" stroke="#333333" stroke-miterlimit="10" stroke-dasharray="8.14,8.14" d="M181.048,59.573
			c13.412,8.253,33.7,21.663,59.491,31.293c65.231,28.781,180.344-21.445,176.247-52.677c-4.86-37.062-55.614-32.401-47.081-9.873
			c7.416,19.578,38.604,45.685,64.78,33.647"/>
		<path fill="none" stroke="#333333" stroke-miterlimit="10" d="M438.086,60.047c1.109-0.679,2.211-1.433,3.297-2.266"/>
		<g>
			<path fill="#333333" d="M445.892,53.764c-1.444,2.663-2.912,6.335-3.303,9.207l-1.836-4.713l-4.426-2.447
				C439.225,55.806,443.062,54.841,445.892,53.764z"/>
		</g>
	</g>
</g>
<g>
	<path fill="#679D46" d="M370.274,150.665c0,0,0.999-13.306,17.272-17.884c9.541-2.688,10.002-4.449,10.002-4.449
		s-1.331,8.379-8.85,10.059C375.979,141.23,370.274,150.665,370.274,150.665z"/>
	<g>
		<path d="M370.503,151.109c0.401-4.959,3.604-9.658,7.271-12.801c4.271-3.658,9.557-4.74,14.705-6.577
			c1.216-0.434,4.809-1.41,5.299-2.955c-0.153-0.296-0.307-0.593-0.459-0.889c-0.338,2.012-1.241,3.948-2.37,5.629
			c-2.761,4.107-7.361,4.352-11.602,6.043c-5.121,2.045-10.374,5.881-13.304,10.661C369.94,150.39,370.576,150.987,370.503,151.109
			c2.971-4.85,8.18-8.475,13.304-10.659c4.148-1.772,8.312-1.868,11.304-5.638c1.337-1.685,2.312-3.908,2.667-6.036
			c0.042-0.254-0.521-0.688-0.459-0.889c-0.449,1.413-3.583,2.294-4.697,2.729c-5.367,2.104-10.718,3.062-15.307,6.803
			c-3.705,3.018-6.874,7.918-7.271,12.801C370.021,150.517,370.524,150.847,370.503,151.109z"/>
	</g>
</g>
<g>
	<path fill="#EBBB25" d="M377.615,105.663c0,0,1-5.125,2.75-4.75s5.483,3.375,4.867,4.75
		C384.615,107.038,378.74,110.038,377.615,105.663z"/>
	<g>
		<path d="M378.112,105.602c0.271-1.35,0.674-2.733,1.398-3.911c0.542-0.88,0.815-0.626,1.651-0.181
			c1.039,0.554,1.974,1.342,2.767,2.204c1.317,1.436,0.849,2.393-0.646,3.302C381.24,108.257,378.868,108.134,378.112,105.602
			c-0.024-0.088-0.985,0.142-0.992,0.121c0.688,2.302,2.731,2.541,4.788,2.084c1.724-0.384,4.826-1.558,3.408-3.719
			c-1.151-1.754-3.507-3.521-5.681-3.146c-1.681,0.288-2.244,3.416-2.519,4.781C377.133,105.656,378.085,105.737,378.112,105.602z"
			/>
	</g>
</g>
<g>
	<g>
		<path fill="#EBBB25" d="M273.319,64.243c0,0,3.333-6.384,5-6.108s2.833,3.978,2.167,5.292c-0.666,1.315-10.5,14.538-12.167,14.538
			s-0.667-9.178,0-10.616C268.986,65.909,273.319,64.243,273.319,64.243z"/>
		<g>
			<path d="M273.716,64.546c0.88-1.67,1.876-3.299,3.062-4.77c0.478-0.588,1.123-1.329,1.938-1.34
				c1.168-0.014,1.559,3.11,1.554,3.932c-0.008,1.293-1.557,2.797-2.257,3.755c-1.491,2.038-3.038,4.036-4.625,6
				c-1.354,1.676-2.739,3.375-4.334,4.83c-0.312,0.282-0.698,0.646-1.133,0.709c0.359-0.054,0.091-0.324-0.002-0.852
				c-0.104-0.58-0.104-1.182-0.115-1.769c-0.045-2.299,0.182-4.744,0.765-6.974C269.064,66.179,272.089,65.184,273.716,64.546
				c-0.137,0.055-0.612-0.678-0.795-0.605c-2.077,0.812-4.76,1.771-5.297,4.146c-0.61,2.7-1.034,6.078-0.357,8.794
				c1.01,4.057,5.845-2.846,6.587-3.747c1.974-2.395,3.854-4.867,5.668-7.385c1.54-2.139,2.06-3.725,0.554-6.252
				c-2.604-4.374-5.941,2.145-7.152,4.442C272.882,64.014,273.728,64.523,273.716,64.546z"/>
		</g>
	</g>
	<g>
		<path fill="#EBBB25" d="M254.485,65.754c0,0-7.333-7.164-8.5-5.337s2,11.502,13.167,15.164s1.868-5.432,0.686-7.801
			C258.652,65.409,254.485,65.754,254.485,65.754z"/>
		<g>
			<path d="M254.767,65.968c-1.033-1.005-8.375-8.034-9.29-5.589c-0.729,1.951,0.998,4.855,1.962,6.417
				c1.438,2.325,3.493,4.229,5.666,5.854c2.854,2.137,7.005,4.195,10.658,4.107c2.6-0.062,0.188-3.477-0.42-4.354
				c-2.428-3.488-4.396-7.312-9.236-6.977c0.197-0.015,0.492,0.672,0.757,0.652c1.79-0.124,3.812,0.106,4.812,1.754
				c0.846,1.395,1.979,2.627,2.928,3.953c0.655,0.917,2.113,2.682,1.447,3.875c-0.905,1.621-5.733-0.561-6.698-0.928
				c-5.025-1.911-10.961-6.948-11.214-12.877c-0.173-4.056,7.165,2.807,8.066,3.683C254.292,65.627,255.043,66.236,254.767,65.968z"
				/>
		</g>
	</g>
	<g>
		<path fill="#EBBB25" d="M264.985,77.81c0,0-8.68-19.921-3.5-22.069c4.333-1.8,6,5.882,6,7.042
			C267.485,63.941,264.985,77.81,264.985,77.81z"/>
		<g>
			<path d="M265.34,78.137c-1.44-3.317-2.666-6.743-3.688-10.211c-0.799-2.716-3.223-9.678-0.031-11.731
				c3.113-2.005,4.814,2.804,5.323,5.027c0.322,1.405-0.005,2.75-0.229,4.152c-0.646,4.038-1.368,8.063-2.093,12.089
				c-0.039,0.22,0.747,0.557,0.723,0.689c0.831-4.613,1.69-9.231,2.367-13.872c0.43-2.945-1.044-7.067-3.72-8.649
				c-1.891-1.116-3.825-0.215-4.35,1.83c-0.636,2.489,0.169,5.444,0.768,7.857c1.023,4.147,2.518,8.242,4.219,12.16
				C264.744,77.744,265.269,77.974,265.34,78.137z"/>
		</g>
	</g>
	<g>
		<path fill="#EBBB25" d="M265.319,75.581c0,0-1.657-19.662,2.42-19.833c4.079-0.171,7.58,2.176,6.247,4.669
			s-7.333,17.548-7.333,17.548L265.319,75.581z"/>
		<g>
			<path d="M265.637,75.967c-0.266-3.191-0.365-6.406-0.324-9.608c0.028-2.217-0.382-9.349,2.548-10.198
				c1.375-0.399,3.3,0.279,4.541,0.826c1.875,0.825,1.681,2.167,0.973,3.641c-0.926,1.919-1.719,3.906-2.535,5.871
				c-1.532,3.683-3.026,7.38-4.503,11.084c0.209,0.251,0.419,0.503,0.629,0.754c-0.445-0.795-0.889-1.59-1.333-2.384
				c-0.146-0.262-0.517-0.545-0.622-0.737c0.445,0.795,0.889,1.591,1.333,2.385c0.062,0.109,0.651,0.699,0.629,0.754
				c1.669-4.187,3.361-8.361,5.103-12.521c0.785-1.872,2.18-4.007,2.518-6.014c0.212-1.259-1.364-2.645-2.251-3.28
				c-1.679-1.209-5.178-2.155-6.371,0.048c-1.034,1.908-1.082,4.479-1.207,6.587c-0.238,3.99-0.09,8.041,0.241,12.021
				C265.025,75.484,265.616,75.715,265.637,75.967z"/>
		</g>
	</g>
	<g>
		<path fill="#EBBB25" d="M257.652,58.743c0,0-3.333-4.415-4.833-2.874s-4.167,7.56,8.943,19.712
			C265.429,78.98,257.652,58.743,257.652,58.743z"/>
		<g>
			<path d="M258.049,59.018c-0.957-1.247-2.146-2.484-3.525-3.273c-1.643-0.938-2.551-0.025-3.098,1.543
				c-2.021,5.793,4.377,12.458,7.898,16.051c0.501,0.513,2.441,3.05,3.573,2.909c0.856-0.105-0.441-4.293-0.55-4.681
				c-1.178-4.248-2.712-8.419-4.291-12.531c-0.105-0.278-0.724-0.354-0.812-0.583c1.122,2.923,2.174,5.875,3.154,8.848
				c0.63,1.906,1.229,3.83,1.671,5.79c0.081,0.364,0.154,2.822,0.051,2.729c-4.348-3.784-9.887-9.575-10.182-15.731
				c-0.057-1.178,0.219-2.382,0.851-3.382c1.321-2.091,3.447,0.438,4.464,1.763C257.433,58.7,257.928,58.861,258.049,59.018z"/>
		</g>
	</g>
	<g>
		<path fill="#EBBB25" d="M261.652,59.077c0,0-1.814-4.558-4.833-3.208c-1.748,0.779-3.167,6.604,5.667,20.902
			c3.646,5.898,2.02-5.979,1.177-9.921C262.818,62.91,261.652,59.077,261.652,59.077z"/>
		<g>
			<path d="M261.981,59.43c-0.765-1.847-4.116-6.221-6.172-3.317c-2.469,3.488,1.104,10.419,2.575,13.512
				c1.323,2.777,2.769,5.938,4.847,8.248c0.923,1.024,1.607,1.138,1.814-0.471c0.734-5.73-1.438-12.582-3.06-17.952
				c-0.091-0.304-0.589-0.479-0.669-0.743c1.393,4.604,2.478,9.287,2.956,14.078c0.152,1.514,0.451,3.438-0.136,4.896
				c-0.492,1.222-1.662-1.107-1.831-1.386c-1.051-1.72-2.018-3.488-2.931-5.285c-1.879-3.7-4.077-8.396-3.427-12.684
				c0.53-3.516,4.233-2.352,5.375,0.396C261.434,58.991,261.908,59.254,261.981,59.43z"/>
		</g>
	</g>
	<g>
		<path fill="#EBBB25" d="M267.485,74.45c0,0,6.667-20.455,8-18.581s-1.833,11.432-2.833,13.068c-1,1.64-5.167,7.834-5.167,7.834
			V74.45z"/>
		<g>
			<path d="M267.824,74.817c0.87-2.671,1.796-5.324,2.752-7.967c1.216-3.357,2.304-7.511,4.534-10.371
				c0.093-0.117,0.198-0.211,0.315-0.298c0.207-0.154-0.254-1.036-0.015,0.066c0.202,0.938-0.014,2.012-0.157,2.94
				c-0.407,2.607-1.235,5.189-2.167,7.653c-1.305,3.451-3.897,6.521-5.942,9.562c0.228,0.245,0.453,0.49,0.681,0.734
				C267.824,76.366,267.824,75.591,267.824,74.817c0-0.271-0.681-0.522-0.681-0.732c0,0.772,0,1.549,0,2.323
				c0,0.139,0.695,0.709,0.681,0.732c2.352-3.498,5.018-6.877,6.423-10.882c0.92-2.624,3.503-8.479,0.89-10.787
				c-0.893-0.789-4.152,7.721-4.407,8.396c-1.277,3.375-2.465,6.786-3.584,10.218C267.084,74.272,267.862,74.703,267.824,74.817z"/>
		</g>
	</g>
	<g>
		<path fill="#679D46" d="M299.056,102.098c4.369-2.069,13.748,7.139,13.721,13.004c-0.016,3.438-0.64,17.028-1.22,22.266
			c-0.416,3.748-0.391,11.986-6.062,11.986c-6.601,0-6.135-15.82-6.438-25.812C298.692,111.624,299.056,102.098,299.056,102.098z"/>
		<g>
			<path d="M299.523,101.978c1.59-0.635,4.108,1.08,5.318,1.909c1.96,1.344,3.604,3.155,4.993,5.068
				c2.53,3.493,2.483,6.786,2.326,10.879c-0.188,4.965-0.445,9.932-0.833,14.884c-0.292,3.745-0.347,7.831-1.733,11.357
				c-0.831,2.107-2.671,3.714-5.021,2.876c-1.508-0.539-2.349-2.223-2.913-3.595c-1.809-4.4-1.782-9.688-1.939-14.364
				c-0.324-9.663-0.546-19.361-0.186-29.026c-0.002,0.062-0.96,0.13-0.965,0.263c-0.378,10.105-0.146,20.256,0.231,30.357
				c0.188,5.011,0.107,19.19,8.526,16.472c3.676-1.188,4.149-5.982,4.472-9.232c0.438-4.464,0.764-8.932,1.006-13.407
				c0.221-4.08,1.015-8.758,0.303-12.814c-0.783-4.463-4.921-8.653-8.679-10.847c-1.912-1.113-3.825-1.343-5.845-0.537
				C298.796,102.135,299.243,102.089,299.523,101.978z"/>
		</g>
	</g>
	<g>
		<path fill="#679D46" d="M305.156,166.017c0,0,3.169-17.928,2.419-27.266c-0.75-9.34-1.3-21.938-1.8-24.688s-0.032,25.828,0,28.5
			c0.061,4.875-1.979,17.103-3.219,23.454H305.156z"/>
		<g>
			<path d="M305.656,165.987c1.354-7.683,2.399-15.528,2.53-23.336c0.096-5.729-0.654-11.528-1.011-17.247
				c-0.165-2.646-0.328-5.289-0.534-7.934c-0.043-0.549,0.073-3.271-0.429-3.623c-0.117-0.082-0.895-0.037-0.998,0.062
				c-0.338,0.312-0.136,1.931-0.144,2.334c-0.035,1.914-0.025,3.827-0.021,5.741c0.015,4.812,0.075,9.621,0.139,14.433
				c0.045,3.379,0.177,6.741-0.128,10.109c-0.591,6.548-1.755,13.073-3.004,19.521c-0.003,0.014,0.158,0.013,0.146,0.013
				c0.865,0,1.732,0,2.601,0c0.124,0,1.086-0.084,0.703-0.084c-0.829,0-1.659,0-2.488,0c0.22,0,0.83-4.271,0.898-4.658
				c0.648-3.675,1.229-7.361,1.713-11.062c0.54-4.126,0.637-8.137,0.58-12.277c-0.07-5.041-0.134-10.083-0.158-15.125
				c-0.011-2.124-0.017-4.248,0.013-6.372c0.006-0.444-0.228-2.286,0.146-2.631c-0.333,0.021-0.666,0.04-0.998,0.062
				c0.44,0.309,0.346,2.629,0.387,3.108c0.22,2.562,0.368,5.127,0.529,7.69c0.361,5.78,1.042,11.609,1.062,17.4
				c0.027,7.981-1.151,16.087-2.534,23.938C304.662,166.014,305.636,166.104,305.656,165.987z"/>
		</g>
	</g>
	<g>
		<path fill="#679D46" d="M284.57,154.189c0,0-16.161-21.911-18.755-24.129c-2.592-2.217-1.011,12.135,3.364,15.316
			c4.375,3.184,17.068,14.899,17.942,13.71C287.996,157.895,285.826,155.886,284.57,154.189z"/>
		<g>
			<path d="M285.043,154.351c-3.716-5.037-7.475-10.045-11.288-15.009c-2.118-2.756-4.228-5.541-6.525-8.147
				c-0.444-0.505-1.866-2.068-2.69-1.38c-0.747,0.624-0.453,2.625-0.404,3.432c0.127,2.122,0.606,4.229,1.231,6.257
				c0.548,1.771,1.322,3.521,2.521,4.956c1.096,1.312,2.814,2.305,4.124,3.39c3.447,2.854,6.809,5.814,10.332,8.576
				c1.465,1.147,3.074,2.551,4.968,2.908c0.503,0.095,0.465-0.696,0.46-0.984C287.745,156.983,285.817,155.347,285.043,154.351
				c-0.184-0.231-0.791-0.123-0.946-0.324c0.248,0.319,4.052,4.979,2.305,4.979c0.447,0-0.483-0.354-0.771-0.543
				c-0.688-0.447-1.341-0.949-1.993-1.446c-3.536-2.698-6.87-5.662-10.282-8.515c-2.52-2.105-4.97-3.687-6.342-6.783
				c-1.37-3.093-2.229-6.947-1.925-10.342c0.035-0.391,0.124-0.77,0.303-1.112c0.279-0.54-0.316-0.627,0.166-0.17
				c0.7,0.664,1.309,1.438,1.924,2.178c2.281,2.74,4.442,5.582,6.607,8.414c3.376,4.416,6.709,8.866,10.01,13.341
				C284.271,154.262,284.895,154.151,285.043,154.351z"/>
		</g>
	</g>
	<g>
		<path fill="#679D46" d="M282.442,128.692c0,0,13.484-26.842,13.021-37.228c-0.192-4.297-13.342,30.013-13.342,30.013
			L282.442,128.692z"/>
		<g>
			<path d="M282.893,128.908c2.803-5.59,5.342-11.325,7.662-17.128c1.738-4.351,3.333-8.779,4.458-13.33
				c0.267-1.081,1.89-6.582,0.581-7.242c-1.21-0.609-1.451,0.4-2.021,1.469c-1.437,2.69-2.604,5.539-3.793,8.346
				c-2.629,6.2-5.103,12.471-7.534,18.749c-1.065,2.75-0.385,5.791-0.253,8.706C281.999,128.656,282.887,128.776,282.893,128.908
				c-0.082-1.83-0.163-3.659-0.245-5.488c-0.041-0.906-0.146-1.547,0.168-2.363c1.254-3.252,2.529-6.494,3.821-9.729
				c1.795-4.494,3.619-8.979,5.57-13.408c0.714-1.622,1.444-3.237,2.268-4.811c0.248-0.475,1.3-1.78,0.997-1.922
				c-0.188-0.097-0.375-0.19-0.562-0.289c0.485,0.522,0.044,2.393-0.025,3.021c-0.21,1.894-0.667,3.758-1.156,5.595
				c-1.174,4.404-2.804,8.69-4.507,12.913c-2.193,5.438-4.601,10.812-7.229,16.051C281.981,128.496,282.878,128.938,282.893,128.908
				z"/>
		</g>
	</g>
	<g>
		<path fill="#679D46" d="M289.735,166.017c-2.411-40.438-18.302-74.089-22.11-86.459c-0.57-1.853,4.229-3.462,3.694-4.627
			c-0.88-1.922-5.826-2.322-7.006-2.218c-3.119,0.279-4.176,3.727-4.176,3.727s2.661,0.599,4.849,4.931
			c3.657,7.236,12.117,29.428,17.47,48.907c3.812,13.874,4.71,31.662,4.176,35.74L289.735,166.017L289.735,166.017z"/>
		<g>
			<path d="M290.208,166.179c-1.527-24.549-8.08-48.235-16.568-71.212c-1.303-3.526-2.648-7.037-3.938-10.569
				c-0.496-1.355-0.979-2.722-1.423-4.097c-0.603-1.864,1.09-2.734,2.43-3.721c2.799-2.062-1.411-3.246-3.184-3.675
				c-3.303-0.802-6.666-0.267-7.859,3.369c-0.021,0.058,0.729,0.283,0.799,0.302c2.662,0.679,4.219,4.894,5.245,7.146
				c1.354,2.973,2.573,6.009,3.77,9.049c3.339,8.483,6.337,17.106,9.087,25.799c2.851,9.006,5.235,18.011,6.49,27.384
				c0.857,6.406,1.863,13.426,1.104,19.898c-0.012,0.086,0.819,0.327,0.926,0.327c1.035,0,2.069,0,3.104,0
				c-0.188,0-0.616-0.33-0.904-0.33c-1.035,0-2.07,0-3.106,0c0.309,0.108,0.617,0.219,0.926,0.327
				c0.854-7.247-0.396-15.118-1.432-22.273c-1.523-10.529-4.69-20.688-8.023-30.766c-2.938-8.886-6.133-17.713-9.784-26.331
				c-1.658-3.915-3.442-9.332-8.054-10.509c0.269,0.101,0.533,0.2,0.799,0.301c1.307-3.967,5.991-4.685,9.38-2.747
				c1.936,1.105,0.034,2.213-1.004,2.969c-1.403,1.024-2.104,1.749-1.554,3.455c2.117,6.543,4.772,12.92,7.096,19.394
				c7.665,21.354,13.323,43.475,14.736,66.186C289.273,166.026,290.203,166.102,290.208,166.179z"/>
		</g>
	</g>
</g>
<g>
	<path fill="#679D46" d="M357.299,165.992c6.834-10.028,12.569-19.479,14.249-22.494c4.734-8.503,13.191-18.21,10.816-30.335
		c-0.218-1.109-0.364-0.531-4.375-2.125c-4.315-1.716-0.625-9.875-0.625-9.875s2.875,7.375,2.75,6.625s0.36-4.846,0.485-4.221
		s3.301,2.098,3.051,0.848s-0.286-3.252-0.286-3.252s2.625,1.5,4.125,5.75s-2.25,3-3,4.375s-0.25,4.25-0.75,10.875
		c-0.446,5.925-14.521,30.677-21.793,43.828L357.299,165.992z"/>
	<g>
		<path d="M357.79,165.907c4.479-6.59,8.81-13.285,12.883-20.134c3.362-5.654,7.153-11.194,9.914-17.179
			c1.57-3.409,2.53-7.04,2.679-10.795c0.062-1.64,0.002-3.562-0.519-5.131c-0.198-0.604-1.579-0.763-2.058-0.915
			c-3.013-0.958-4.475-2.111-4.267-5.409c0.111-1.788,0.708-3.638,1.434-5.27c-0.329,0.057-0.657,0.111-0.985,0.17
			c0.411,1.054,0.827,2.104,1.246,3.153c0.366,0.918,0.747,2.846,1.504,3.521c0.07,0.062,0.986-0.133,0.985-0.17
			c-0.011-1.239-0.166-3.22,0.45-4.335c-0.328,0.057-0.656,0.11-0.985,0.169c0.539,0.991,2.063,1.524,3.153,1.339
			c1.699-0.292,0.663-2.479,0.631-3.851c-0.329,0.057-0.657,0.111-0.985,0.17c2.334,1.4,3.924,4.398,4.442,6.975
			c0.525,2.607-2.831,1.751-3.499,3.587c-0.913,2.504-0.316,6.036-0.45,8.646c-0.127,2.479-0.729,4.558-1.649,6.856
			c-5.396,13.477-13.25,26.091-20.262,38.765c0.322-0.06,0.646-0.116,0.969-0.176c-1.552,0.001-3.102,0.001-4.649,0.001
			c-0.298,0-0.732,0.18-0.948,0.18c1.55-0.001,3.102-0.001,4.649-0.001c0.157,0,0.89-0.034,0.967-0.176
			c7.023-12.692,14.753-25.309,20.26-38.762c0.804-1.958,1.449-3.872,1.6-5.987c0.214-3.043-0.312-6.554,0.503-9.519
			c0.512-1.861,3.316-0.82,3.533-3.106c0.237-2.534-2.349-6.175-4.478-7.452c-0.087-0.054-0.986,0.127-0.985,0.17
			c0.028,1.166,0.324,2.378,0.273,3.526c0.002-0.022-1.875-0.967-2.087-1.354c-0.028-0.055-0.941,0.091-0.985,0.169
			c-0.615,1.115-0.461,3.096-0.45,4.336c0.328-0.057,0.656-0.112,0.984-0.17c-0.669-0.602-1.003-2.274-1.329-3.084
			c-0.479-1.193-0.954-2.396-1.422-3.594c-0.016-0.038-0.949,0.089-0.985,0.17c-0.675,1.519-1.132,3.14-1.38,4.777
			c-0.476,3.146,0.736,4.658,3.598,5.689c0.795,0.287,1.766,0.416,2.487,0.872c0.806,0.51,0.629,3.037,0.684,3.835
			c0.267,4.017-0.83,7.993-2.36,11.663c-2.562,6.146-6.604,11.72-9.967,17.442c-4.116,7.005-8.562,13.827-13.125,20.545
			C356.918,165.912,357.647,166.12,357.79,165.907z"/>
	</g>
</g>
<g>
	<path fill="#EBBB25" d="M335.031,32.347c0,0,8.307-5.746,7.495-9.459c-0.809-3.714-2.847,0.188-5.579,1.381
		c-2.729,1.192-10.983,9.121-9.838,9.509C328.258,34.166,329.806,33.412,335.031,32.347z"/>
	<g>
		<path d="M335.482,32.561c2.803-1.955,7.517-5.312,7.546-9.094c0.01-1.286-0.723-1.934-1.786-2.318
			c-0.657-0.236-1.386,0.479-1.836,0.835c-1.125,0.888-2.175,1.649-3.431,2.341c-2.098,1.15-3.936,2.971-5.659,4.602
			c-1.23,1.165-3.2,2.707-3.757,4.383c-0.131,0.396,0.938,0.672,1.203,0.743c0.704,0.19,1.55-0.077,2.229-0.229
			C331.825,33.413,333.644,32.945,335.482,32.561c-0.229,0.048-0.623-0.484-0.903-0.429c-2.211,0.461-4.398,1.118-6.628,1.485
			c-0.192,0.027-0.389,0.045-0.584,0.049c-1.146,0.057,0.096,0.091,0.098,0.066c0.039-0.448,0.562-0.967,0.821-1.295
			c2.253-2.848,5.258-5.532,8.297-7.511c1.542-1.003,2.997-2.053,4.515-3.101c0.979-0.679,1.028,0.865,1.023,1.587
			c-0.007,0.855-0.514,1.701-0.94,2.403c-1.544,2.539-4.188,4.629-6.602,6.312C334.683,32.061,335.319,32.675,335.482,32.561z"/>
	</g>
</g>
<g>
	<path fill="#EBBB25" d="M326.606,33.735c0,0,20.47-7.901,22.619-7.04c2.147,0.863,0.492,4.479-5.647,7.403
		c-6.14,2.927-21.976,8.63-21.448,5.353C322.656,36.169,326.606,33.735,326.606,33.735z"/>
	<g>
		<path d="M327.087,33.694c3.64-1.401,7.307-2.737,10.992-4.013c2.568-0.889,5.153-1.742,7.776-2.453
			c1.906-0.518,4.78-0.804,3.378,2.076c-1.516,3.112-5.698,4.694-8.666,5.964c-3.041,1.3-6.157,2.438-9.306,3.445
			c-1.547,0.497-7.822,2.957-8.626,1.03c-0.843-2.019,3.049-5.163,4.466-6.061c-0.233,0.147-0.732-0.065-0.995,0.102
			c-1.127,0.713-6.303,5.271-4.027,6.517c1.232,0.676,3.623-0.002,4.891-0.25c3.926-0.771,7.757-2.189,11.48-3.62
			c3.958-1.521,8.494-3.128,11.279-6.477c1.312-1.579,1.04-3.539-1.165-3.353c-2.114,0.182-4.169,0.818-6.188,1.435
			c-5.492,1.669-10.898,3.673-16.254,5.737C326.317,33.702,326.813,33.8,327.087,33.694z"/>
	</g>
</g>
<g>
	<path fill="#EBBB25" d="M317.55,24.469c0,0-3.25-9.148-5.386-9.719c-2.134-0.569-1.714,6.438,2.602,11.838
		C319.08,31.99,317.55,24.469,317.55,24.469z"/>
	<g>
		<path d="M317.461,24.126c-0.98-2.742-2.107-5.501-3.634-7.987c-0.456-0.742-1.57-2.52-2.588-1.648
			c-1.001,0.854-0.386,3.314-0.178,4.345c0.725,3.581,2.551,7.455,5.365,9.813c2.044,1.717,1.43-2.931,1.263-3.771
			c-0.039-0.194-0.293-0.876-0.281-0.815c0.186,0.93,0.8,3.547-0.354,3.992c-1.104,0.426-3-2.688-3.323-3.147
			c-1.562-2.233-2.631-4.939-2.669-7.679c-0.011-0.801,0.178-2.152,1.251-2c1.038,0.149,1.807,1.845,2.256,2.62
			c1.266,2.186,2.22,4.592,3.068,6.965C317.768,25.171,317.503,24.242,317.461,24.126z"/>
	</g>
</g>
<g>
	<path fill="#EBBB25" d="M319.05,41.412c0,0-23.389,7.718-23.194,5.204c0.195-2.517,5.688-7.495,9.078-8.211
		c3.39-0.718,13.803-2.303,14.824-1.547C320.779,37.615,320.155,40.7,319.05,41.412z"/>
	<g>
		<path d="M318.593,41.209c-3.089,1.019-6.2,1.97-9.323,2.878c-3.981,1.159-8.926,3.173-13.146,2.807
			c-0.393-0.034,0.21,0.308,0.188-0.075c-0.024-0.509,0.318-1.07,0.543-1.5c0.712-1.354,1.918-2.479,3.037-3.491
			c2.405-2.179,4.913-3.151,8.037-3.691c3.005-0.52,6.036-0.948,9.077-1.192c0.583-0.047,1.167-0.068,1.751-0.077
			c0.307-0.008,0.61,0.009,0.916,0.045c0.336,0.044,0.298,0.058-0.115,0.041C320.497,38.01,319.451,40.448,318.593,41.209
			c0.071-0.064,0.782,0.521,0.914,0.405c1.489-1.321,1.896-4.192-0.188-4.981c-2.187-0.827-5.524,0.106-7.733,0.398
			c-3.393,0.447-7.07,0.697-10.061,2.48c-0.838,0.5-7.65,5.832-6.022,7.17c0.654,0.539,1.563,0.658,2.376,0.627
			c2.712-0.104,5.472-0.957,8.077-1.642c4.56-1.197,9.075-2.581,13.552-4.057C319.303,41.682,318.851,41.124,318.593,41.209z"/>
	</g>
</g>
<g>
	<path fill="#EBBB25" d="M319.743,31.043c0,0-11.146-11.396-14.167-11.771c-3.018-0.375,2.304,12.116,13.553,16.271
		C330.378,39.703,320.895,32.425,319.743,31.043z"/>
	<g>
		<path d="M320.241,31.094c-3.808-3.886-7.794-8.02-12.387-10.972c-0.881-0.565-1.992-1.042-3.073-0.89
			c-1.642,0.234,0.567,4.447,0.854,4.983c3.391,6.344,10.44,11.711,17.672,12.574c1.106,0.132,2.278,0.104,1.353-1.265
			C323.487,33.793,321.616,32.647,320.241,31.094c-0.173-0.195-0.846,0.067-0.995-0.102c1.046,1.179,2.323,2.154,3.428,3.28
			c1.069,1.095,2.488,2.968-0.337,2.224c-6.751-1.777-12.625-6.417-15.916-12.571c-0.562-1.053-1.698-3.146-0.994-4.359
			c0.217-0.375-0.425-0.431,0.311-0.146c0.396,0.149,0.764,0.386,1.123,0.604c1.006,0.608,1.933,1.359,2.844,2.1
			c3.371,2.724,6.513,5.778,9.543,8.874C319.438,31.187,320.074,30.924,320.241,31.094z"/>
	</g>
</g>
<g>
	<path fill="#EBBB25" d="M309.834,26.451c0,0-8.177-4.275-11.321-4.175c-3.146,0.104-2.999,3.675,3.448,6.288
		c6.445,2.614,12.814,4.873,17.377,4.728C323.899,33.145,310.591,26.836,309.834,26.451z"/>
	<g>
		<path d="M310.232,26.617c-3.354-1.747-7.239-3.85-11.01-4.434c-2.144-0.332-4.062,0.691-2.575,2.938
			c1.206,1.817,3.672,2.809,5.631,3.598c4.296,1.73,8.639,3.41,13.188,4.354c0.695,0.146,6.513,1.16,4.917-0.618
			C317.938,29.732,313.452,28.223,310.232,26.617c-0.179-0.091-0.846-0.354-0.798-0.331c2.574,1.282,5.156,2.545,7.623,4.028
			c0.856,0.519,2.461,1.262,2.768,2.307c0.315,1.068-5.888-0.076-6.025-0.104c-4.562-0.947-9.519-2.606-13.604-4.821
			c-1.324-0.717-3.764-2.423-3.099-4.28c1.217-3.398,10.896,2.125,12.337,2.874C309.612,26.378,310.281,26.642,310.232,26.617z"/>
	</g>
</g>
<g>
	<path fill="#EBBB25" d="M319.691,38.546c0,0-30.065-1.794-30.833-4.158c-0.766-2.365,17.938-4.419,23.177-4.026
		C317.275,30.754,321.952,37.615,319.691,38.546z"/>
	<g>
		<path d="M319.325,38.203c-4.298-0.26-8.592-0.595-12.88-0.979c-5.494-0.496-11.678-0.617-16.922-2.495
			c-0.756-0.271-0.62-0.688-0.302,0.002c-0.104-0.229,0.085-0.46,0.227-0.612c0.604-0.661,1.802-0.91,2.613-1.15
			c3.457-1.021,7.138-1.424,10.71-1.807c3.085-0.331,6.233-0.613,9.339-0.476c2.614,0.116,4.976,1.649,6.551,3.672
			C319.302,35.18,320.727,37.395,319.325,38.203c0.062-0.034,0.623,0.747,0.729,0.688c2.191-1.267-1.693-5.132-2.758-6.096
			c-2.977-2.69-6.107-2.929-9.928-2.746c-4.5,0.217-9.021,0.741-13.439,1.615c-0.5,0.1-6.491,1.314-5.299,2.589
			c0.951,1.016,2.043,1.348,3.39,1.666c3.482,0.824,7.1,1.169,10.65,1.549c5.777,0.618,11.582,1.074,17.384,1.423
			C319.818,38.875,319.598,38.219,319.325,38.203z"/>
	</g>
</g>
<g>
	<path fill="#EBBB25" d="M322.345,45.481c0,0,6.455-13.295,3.729-22.689c-2.725-9.396-3.092-10.213-5.083-9.965
		c-1.989,0.25-5.646,4.57-4.547,11.03c1.104,6.46,2.341,20.254,3.368,20.879C320.839,45.36,322.345,45.481,322.345,45.481z"/>
	<g>
		<path d="M322.842,45.426c2.758-5.729,4.618-12.388,4.367-18.765c-0.159-4.033-1.69-8.552-3.316-12.238
			c-0.551-1.25-1.241-1.785-2.577-1.648c-1.938,0.199-3.113,1.398-4.119,3.051c-2.338,3.837-1.167,8.302-0.605,12.438
			c0.553,4.091,1.006,8.195,1.641,12.275c0.438,2.815,0.365,4.651,3.635,5.002c0.294,0.029,0.739-0.142,0.957-0.116
			c-3.087-0.328-3.068-1.845-3.518-4.5c-0.575-3.403-0.956-6.843-1.396-10.267c-0.447-3.511-1.405-7.208-1.08-10.745
			c0.189-2.044,2.201-7.388,4.543-7.031c1.514,0.229,2.082,3.024,2.452,4.138c1.367,4.109,2.573,8.113,2.38,12.48
			c-0.239,5.45-1.995,11.132-4.356,16.038C321.913,45.398,322.756,45.604,322.842,45.426z"/>
	</g>
</g>
<g>
	<path fill="#EBBB25" d="M327.387,22.236c0,0,3.874-7.166,6.147-8.595c2.275-1.43,4.355,3.155,3.911,5.176
		c-0.442,2.021-12.626,21.374-15.357,20.153C319.355,37.749,325.419,25.591,327.387,22.236z"/>
	<g>
		<path d="M327.883,22.297c0.738-1.361,1.541-2.69,2.373-3.999c0.852-1.34,2.798-5.058,4.771-4.84
			c-0.248-0.035-0.497-0.069-0.745-0.104c1.853,0.703,3.155,3.599,2.643,5.5c-0.345,1.271-1.254,2.515-1.911,3.63
			c-2.492,4.231-5.256,8.354-8.323,12.19c-1.117,1.396-2.315,2.862-3.799,3.888c-0.679,0.471-0.487,0.443-0.771,0.032
			c-0.458-0.664-0.206-1.807-0.085-2.526C322.834,31.302,325.483,26.441,327.883,22.297c-0.056,0.095-0.917-0.253-0.992-0.123
			c-1.129,1.95-8.771,15.615-5.156,16.78c1.212,0.392,2.115-0.169,3.022-0.954c2.448-2.122,4.363-4.985,6.216-7.616
			c1.997-2.837,3.882-5.765,5.612-8.771c1.439-2.507,1.941-4.382,0.127-7.05c-3.451-5.068-8.604,5.372-9.821,7.612
			C326.938,22.086,327.815,22.423,327.883,22.297z"/>
	</g>
</g>
<g>
	<path fill="#679D46" d="M311.473,39.849c2.31-3.06,9.702-5.396,16.585-2.348c4.709,2.088,3.972,4.524,1.504,5.919
		c-2.467,1.393-4.122,1.932-5.602,2.801c-1.48,0.868-1.924,3.902-0.975,11.383c0.949,7.479,18.918,108.413,18.918,108.413
		l-2.541,0.043c0,0-18.899-114.858-19.452-117.016c-0.551-2.153-6.43-1.741-7.316-4.055
		C311.705,42.678,310.68,40.899,311.473,39.849z"/>
	<g>
		<path d="M311.745,40.268c3.861-4.659,11.506-4.438,16.585-2.348c3.932,1.616,3.184,3.864,0.165,5.516
			c-1.693,0.93-4.586,1.499-5.623,3.265c-1.689,2.878-0.518,8.01-0.079,11.048c0.209,1.456,0.452,2.905,0.692,4.356
			c2.229,13.484,4.624,26.942,6.988,40.403c2.583,14.714,5.184,29.424,7.792,44.133c0.857,4.839,1.717,9.678,2.577,14.518
			c0.217,1.224,0.435,2.445,0.651,3.67c0.262,1.461-1.072,0.791-2.401,0.812c0.182,0.271,0.362,0.546,0.544,0.817
			c-3.843-23.354-7.696-46.706-11.564-70.058c-2.062-12.45-4.125-24.903-6.223-37.353c-0.5-2.972-0.99-5.946-1.529-8.912
			c-0.145-0.791-0.433-1.351-0.919-2.005c-0.744-1.001-2.449-1.243-3.553-1.549c-1.299-0.358-2.763-0.65-3.317-2.039
			C312.005,43.233,311.044,41.659,311.745,40.268c0.095-0.185-0.601-0.729-0.547-0.838c-0.826,1.635,0.56,4.19,1.363,5.619
			c0.447,0.793,1.036,1.311,1.855,1.716c1.626,0.804,4.993,0.565,5.376,2.666c0.624,3.431,1.185,6.873,1.763,10.312
			c2.396,14.248,4.754,28.503,7.114,42.757c3.483,21.052,6.958,42.104,10.423,63.161c0.021,0.125,0.418,0.818,0.544,0.816
			c0.847-0.016,1.693-0.027,2.541-0.043c-0.001-0.007-0.002-0.015-0.003-0.021c-4.417-24.812-8.812-49.628-13.15-74.454
			c-1.899-10.88-3.896-21.754-5.582-32.67c-0.509-3.305-0.982-6.772-0.522-10.104c0.599-4.334,6.508-3.646,8.605-6.918
			c1.615-2.519-3.144-4.938-4.571-5.526c-4.795-1.974-12.226-1.573-15.758,2.688C311.108,39.541,311.778,40.229,311.745,40.268z"/>
	</g>
</g>
<g>
	<path fill="#308064" d="M194.625,28.7c0,0,2.094-6.53,2.962,0c1.5,11.277,2.317,22.141,8.158,35.851
		c9.53,22.382,9.991,35.997,9.991,46.084c0,12.965-14.954,58.297-14.954,58.297h-4c0,0,14.833-37.635,14.833-61.615
		C211.617,83.433,196.625,60.329,194.625,28.7"/>
	<g>
		<path d="M195.119,28.784c0.312-0.959,0.698-2.021,1.432-2.741c-0.08-0.044-0.159-0.089-0.239-0.133
			c0.155,0.193,0.271,0.412,0.349,0.649c0.271,0.628,0.333,1.393,0.437,2.058c0.271,1.738,0.451,3.499,0.672,5.245
			c0.827,6.522,1.818,13.004,3.545,19.356c2.019,7.425,5.416,14.348,7.944,21.597c2,5.736,3.572,11.625,4.621,17.608
			c1.275,7.295,1.973,15.16,1.012,22.543c-1.079,8.279-3.262,16.455-5.365,24.521c-2.113,8.112-4.407,13.184-6.785,21.227
			c-0.688,2.324-1.385,4.646-2.092,6.967c-0.114,0.381-0.23,0.76-0.35,1.142c-0.069,0.225-3.548,0.021-3.989,0.021
			c0.322,0.057,0.646,0.113,0.967,0.172c5.443-14.936,9.921-27.432,12.828-43.059c1.997-10.736,2.652-21.271,0.592-32.056
			c-2.309-12.086-6.785-23.669-10.141-35.479C197.802,48.73,195.795,38.849,195.119,28.784c-0.01-0.119-0.984-0.136-0.986-0.167
			c0.924,13.743,4.473,26.949,8.565,40.044c3.526,11.289,7.423,22.646,8.285,34.521c0.776,10.678-1.427,21.551-3.809,31.9
			c-2.224,9.668-5.02,16.207-8.104,25.633c-0.891,2.723-1.802,5.438-2.781,8.131c-0.011,0.023,0.872,0.172,0.967,0.172
			c1.333,0,2.667,0,4,0c0.006,0,0.013-0.002,0.019-0.004c3.979-12.867,7.678-22.848,10.902-35.926
			c1.749-7.09,3.794-14.502,4.046-21.842c0.305-8.896-0.875-17.884-3.038-26.494c-1.729-6.891-4.185-13.584-6.947-20.121
			c-2.93-6.932-4.92-14.131-6.191-21.541c-0.561-3.256-0.975-6.535-1.388-9.812c-0.173-1.347-0.068-6.772-1.562-7.362
			c-1.851-0.73-2.477,1.211-2.965,2.698C194.134,28.612,195.089,28.871,195.119,28.784L195.119,28.784z"/>
	</g>
</g>
<g>
	<path fill="#308064" d="M210.26,41.022c0,0,2.487-6.872,2.81-12.847c0,0,1.988,8.666-0.484,14.719
		C211.588,45.329,210.26,41.022,210.26,41.022z"/>
	<g>
		<path d="M210.756,40.958c1.474-4.119,2.506-8.481,2.81-12.848c-0.331,0.043-0.661,0.088-0.989,0.131
			c0.42,1.878,0.612,3.811,0.72,5.728c0.09,1.62,0.015,3.24-0.167,4.854c-0.127,1.125-0.415,4.414-1.692,4.876
			c0.325-0.041,0.649-0.082,0.977-0.122C211.441,43.353,211.022,41.792,210.756,40.958c-0.028-0.089-0.984,0.15-0.991,0.13
			c0.661,2.074,2.456,4.019,3.563,1.084c1.614-4.281,1.224-9.658,0.236-14.062c-0.006-0.027-0.985,0.071-0.989,0.131
			c-0.306,4.363-1.338,8.729-2.812,12.847C209.806,40.975,210.695,41.129,210.756,40.958z"/>
	</g>
</g>
<g>
	<path fill="#308064" d="M196.005,33.893c0,0,12.838,3.583,15.257,7.255c2.418,3.672-1.747,2.479-1.747,2.479
		S203.757,37.698,196.005,33.893z"/>
	<g>
		<path d="M196.381,34.223c3.078,0.864,6.112,1.938,9.047,3.205c2.254,0.972,5.969,2.431,6.212,5.253
			c0.099,1.144-1.908,0.776-2.5,0.615c0.236,0.202,0.471,0.405,0.707,0.606c-4.082-4.171-9.007-7.716-14.201-10.332
			c0.192,0.098,0.456,0.512,0.719,0.646c4.937,2.485,9.009,5.804,13.14,9.425c0.455,0.397,0.851,0.44,1.473,0.495
			c2.145,0.188,1.23-1.881,0.458-2.941c-1.448-1.989-4.112-3.215-6.247-4.197c-3.062-1.412-6.311-2.521-9.557-3.434
			C195.905,33.641,196.083,34.139,196.381,34.223z"/>
	</g>
</g>
<g>
	<path fill="#308064" d="M215.32,40.749c3.39-4.004,11.055-2.58,11.055-2.58c-2.395-3.548-9.341-2.137-12.001,0.785
		C211.711,41.875,214.979,41.151,215.32,40.749z"/>
	<g>
		<path d="M215.818,40.708c2.531-2.729,6.565-3.117,10.075-2.489c0.137,0.023,0.943-0.137,0.979-0.09
			c-2.48-3.233-7.786-2.289-10.941-0.688c-0.723,0.367-4.57,3.679-2.394,3.742C214.249,41.205,215.241,41.16,215.818,40.708
			c-0.191,0.149-0.761-0.104-0.997,0.082c-0.534,0.42-1.062,0.24-0.932-0.462c0.234-1.246,2.021-2.38,3.003-2.949
			c2.79-1.613,6.861-1.935,8.981,0.831c0.326-0.029,0.65-0.062,0.979-0.089c-3.923-0.7-9.18-0.406-12.032,2.669
			C214.962,40.638,215.632,40.909,215.818,40.708z"/>
	</g>
</g>
<g>
	<path fill="#F2E44A" d="M219.438,46.695c0,0,8.673,0.278,10.824,10.157c1.479,6.783-2.789,18.684-11.222,17.706
		c-7.553-0.875-10.312-8.69-8.984-17.601C211.286,48.727,213.283,46.57,219.438,46.695z"/>
	<g>
		<path d="M219.896,46.896c13.312,0.557,12.908,22.656,2.393,27.021c-3.697,1.534-7.644-0.337-9.783-3.44
			c-2.048-2.97-2.4-6.897-2.279-10.394c0.118-3.399,0.695-7.396,2.492-10.353C214.243,47.217,217.218,46.875,219.896,46.896
			c-0.294-0.002-0.6-0.401-0.914-0.403c-3.475-0.029-6.275,0.74-7.839,4.065c-1.997,4.251-2.293,9.969-1.48,14.523
			c1.114,6.267,7.497,11.745,14.015,9.042c3.769-1.562,5.799-5.93,6.761-9.621c1.092-4.191,0.613-8.587-1.668-12.298
			c-1.905-3.102-6.086-5.561-9.787-5.713C219.279,46.504,219.579,46.884,219.896,46.896z"/>
	</g>
</g>
<g>
	<path fill="#F2E44A" d="M213.307,39.597c0,0,9.353,0.906,9.741,10.737c0.273,6.938-1.737,17.402-10.229,17.328
		c-6.644-0.061-11.009-6.344-10.229-15.315C203.312,44.058,207.155,39.85,213.307,39.597z"/>
	<g>
		<path d="M213.731,39.861c5.404,0.57,8.567,5.065,8.892,10.213c0.35,5.562-0.822,13.101-5.968,16.271
			c-2.982,1.84-7.35,1.268-9.883-1.033c-2.847-2.583-3.734-6.72-3.845-10.392C202.716,47.791,205.848,40.354,213.731,39.861
			c-0.249,0.017-0.562-0.545-0.851-0.525c-9.96,0.624-12.412,12.425-9.954,20.495c1.803,5.918,8.694,10.151,14.579,7.042
			c3.42-1.811,4.83-6.098,5.515-9.627c0.781-4.027,0.949-8.72-1.167-12.362c-1.704-2.934-5.625-5.193-8.973-5.547
			C213.163,39.365,213.421,39.829,213.731,39.861z"/>
	</g>
</g>
<g>
	<path fill="#308064" d="M191.38,30.935c0,0,3.592-18.008,13.296-16.341s12.037,2.667,17.371,1.333s30.333-9.333,30.667-11.333
		S192.66,53.525,191.38,30.935z"/>
	<g>
		<path d="M191.687,31.331c1.104-5.45,3.456-12.229,8.33-15.371c1.489-0.96,3.238-1.213,4.966-0.97
			c3.118,0.438,6.193,1.179,9.309,1.654c3.563,0.546,6.812,0.063,10.243-0.919c8.037-2.306,16.093-4.914,23.823-8.105
			c0.393-0.162,5.088-2.013,4.626-2.729c-0.52-0.81-0.539-0.242-1.31,0.244c-3.729,2.354-7.276,4.606-10.834,7.203
			c-5.864,4.282-11.801,8.47-17.916,12.387c-5.823,3.73-11.862,7.355-18.334,9.853c-2.862,1.104-10.152,3.711-12.186-0.188
			C191.917,33.452,191.757,32.371,191.687,31.331c-0.02-0.294-0.595-0.54-0.61-0.791c0.77,11.218,14.63,4.913,20.351,2.02
			c12.489-6.315,23.841-14.859,35.074-23.14c1.617-1.191,3.51-2.163,5.161-3.312c0.402-0.277,0.631-0.571,1.061-0.812
			c0.646-0.363-0.052-1.259-0.547-0.748c-1.833,1.891-5.518,2.885-7.888,3.781c-4.271,1.616-8.633,2.938-12.979,4.336
			c-3.165,1.02-6.343,2.048-9.565,2.867c-4.438,1.127-8.675,0.257-13.085-0.562c-2.404-0.447-4.906-1.227-7.344-0.638
			c-1.817,0.438-3.312,1.762-4.511,3.13c-2.396,2.738-3.799,6.362-4.866,9.792c-0.336,1.079-0.638,2.178-0.86,3.285
			C191.025,30.781,191.724,31.149,191.687,31.331z"/>
	</g>
</g>
<g>
	<path fill="#308064" d="M142.835,10.957c0,0,11.895,21.415,23.438,24.188c33.624,8.077,21.876-5.712,22.09-6.955
		c1.404-8.134,3.808-12.92-1.854-12.179c-5.662,0.74-5.946,4.172-8.592-0.118c-2.646-4.29-11.315-7.308-18.622-7.649
		C151.986,7.899,142.835,10.957,142.835,10.957z"/>
	<g>
		<path d="M142.34,10.885c3.409,6.112,7.636,11.959,12.514,16.974c3.035,3.121,6.652,6.102,10.941,7.225
			c4.37,1.145,8.883,1.951,13.375,2.435c3.107,0.334,11.205,1.252,11.501-3.63c0.08-1.31-0.483-2.622-1.027-3.78
			c-0.917-1.949-0.69-2.498-0.191-4.913c0.494-2.399,1.603-5.341,0.973-7.803c-0.314-1.229-1.655-1.37-2.698-1.492
			c-2.245-0.263-4.511,0.648-6.492,1.591c-1.277,0.605-1.692,0.104-2.477-0.984c-0.932-1.297-1.794-2.347-3.089-3.314
			c-4.479-3.351-10.594-4.525-16.065-4.976C153.879,7.745,147.76,9.094,142.34,10.885c0.266-0.089,0.695,0.239,0.99,0.144
			c4.543-1.503,9.347-2.476,14.124-2.717c6.684-0.338,16.364,1.928,20.312,8.047c1.25,1.938,2.896,2.012,4.819,1.099
			c1.683-0.798,5.518-2.607,6.733-0.496c0.915,1.586-0.083,4.43-0.423,6.039c-0.498,2.357-1.499,4.396-0.426,6.586
			c0.571,1.164,1.097,2.38,1.203,3.687c0.56,6.901-13.8,3.812-16.413,3.336c-4.757-0.863-9.057-1.811-13.001-4.694
			c-3.211-2.352-5.932-5.372-8.439-8.438c-3.162-3.871-6.055-8.074-8.49-12.443C143.219,10.831,142.424,11.037,142.34,10.885z"/>
	</g>
</g>
<g>
	<g>
		<path d="M184.86,24.182c-5.51,2.189-11.755,1.248-16.997-1.142c-3.937-1.794-7.646-4.055-11.41-6.175
			c-1.828-1.03-4.199-2.688-6.391-2.716c0.195,0.003,0.42,0.734,0.675,0.737c2.432,0.031,4.944,1.902,6.981,3.051
			c3.324,1.874,6.604,3.848,10.057,5.479c5.487,2.595,11.921,3.822,17.762,1.501C185.462,24.95,185.004,24.126,184.86,24.182
			L184.86,24.182z"/>
	</g>
</g>
<g>
	<g>
		<path d="M198.76,26.458c10.074-0.033,20.475-3.367,28.833-8.886c-0.213,0.141-0.751-0.149-1,0.015
			c-7.878,5.203-18.263,8.787-27.569,8.816C198.715,26.404,198.058,26.46,198.76,26.458L198.76,26.458z"/>
	</g>
</g>
<g>
	<path fill="#308064" d="M998.363,51.508c0,0,7.462-1.878,11.448-5.48c3.987-3.604-6.901,7.864-8.574,8.006
		C999.567,54.178,998.363,51.508,998.363,51.508z"/>
	<g>
		<path d="M998.732,51.844c2.058-0.527,4.065-1.278,6.009-2.132c1.614-0.711,3.147-1.583,4.57-2.626
			c0.354-0.262,1.223-1.371,1.738-1.419c-0.248-0.225-0.494-0.447-0.741-0.671c0.03,0.41-1.142,1.35-1.39,1.61
			c-1.148,1.218-2.342,2.395-3.556,3.549c-1.864,1.774-4.815,5.537-6.643,1.673c-0.121-0.256-0.646-0.47-0.727-0.637
			c0.519,1.092,1.334,2.028,2.302,2.747c1.41,1.044,2.602-0.267,3.661-1.167c1.599-1.354,3.098-2.833,4.565-4.32
			c0.419-0.425,2.573-2.116,2.523-2.783c-0.009-0.118-0.623-0.683-0.741-0.671c-0.375,0.035-1.061,0.863-1.294,1.064
			c-1.325,1.146-2.925,1.982-4.491,2.739c-2.075,1.001-4.3,1.804-6.533,2.375C998.129,51.135,998.522,51.898,998.732,51.844z"/>
	</g>
</g>
<g>
	<path fill="#308064" d="M997.184,54.657c0,0,0.682-7.277-0.505-13.142c0,0,4.099,7.891,3.223,14.371
		C999.55,58.492,997.184,54.657,997.184,54.657z"/>
	<g>
		<path d="M997.681,54.711c0.393-4.355,0.298-8.84-0.505-13.141c-0.331-0.036-0.663-0.071-0.994-0.107
			c1.364,2.661,2.312,5.56,2.929,8.479c0.426,2.032,0.652,4.312,0.191,6.354C999.141,56.999,997.935,55.115,997.681,54.711
			c-0.126-0.201-0.905,0.036-0.994-0.107c0.554,0.881,3.153,3.807,3.713,1.337c1.024-4.531-1.172-10.368-3.225-14.371
			c-0.072-0.141-0.981-0.046-0.994-0.107c0.805,4.301,0.897,8.785,0.506,13.141C996.682,54.653,997.678,54.749,997.681,54.711z"/>
	</g>
</g>
<g>
	<g>
		<path fill="none" stroke="#333333" stroke-miterlimit="10" stroke-dasharray="7.8133,7.8133" d="M1150.897,38.003
			c-95.145,74.288-147.993,57.105-185.519,35.65"/>
		<path fill="none" stroke="#333333" stroke-miterlimit="10" d="M961.864,71.382c-1.143-0.849-3.199-2.447-4.194-3.178"/>
		<g>
			<path fill="#333333" d="M952.74,64.728c2.927,0.78,6.843,1.35,9.727,1.057l-4.153,2.889l-1.342,4.875
				C956.286,70.73,954.448,67.228,952.74,64.728z"/>
		</g>
	</g>
</g>
<g>
	<path fill="#679D46" d="M887.436,157.779c0,0,2.993-28.313,25.568-34.638c23.693-6.639,17.555-4.74,28.616-14.704
		c11.067-9.961,14.403-16.271,12.726-16.814c-1.681-0.549-12.975,7.921-20.499,9.394c-7.524,1.469-22.534,7.12-30.489,17.654
		C895.404,129.2,888.27,135.59,887.436,157.779z"/>
	<g>
		<path d="M887.929,157.698c1.416-13.097,8.729-27.047,20.893-32.899c5.104-2.457,10.979-3.427,16.391-5.062
			c2.62-0.793,5.418-1.552,7.755-3.028c1.93-1.223,3.481-2.924,5.096-4.521c3.906-3.862,8.099-7.401,11.778-11.498
			c1.852-2.062,5.326-5.446,5.411-8.481c0.038-1.354-2.341-0.375-2.907-0.135c-4.394,1.857-8.362,4.729-12.683,6.776
			c-4.183,1.981-8.755,2.641-13.109,4.132c-5.05,1.729-9.878,4.134-14.312,7.103c-4.744,3.177-8.224,7.229-11.695,11.682
			c-2.647,3.396-5.293,6.78-7.433,10.527c-2.498,4.382-4.034,9.195-4.98,14.133c-0.725,3.769-1.025,7.608-1.188,11.438
			C886.943,157.833,887.925,157.805,887.929,157.698c0.464-11.031,2.798-21.235,9.223-30.338c2.643-3.738,5.478-7.526,8.508-10.955
			c4.045-4.574,9.362-7.969,14.801-10.644c4.541-2.231,9.329-3.844,14.271-4.901c4.768-1.021,9.199-3.763,13.391-6.139
			c1.703-0.967,3.395-1.979,5.178-2.793c0.723-0.329,1.104-0.075,0.901,0.966c-0.688,3.562-4.476,7.049-6.808,9.545
			c-3.424,3.663-7.274,6.887-10.83,10.413c-1.62,1.608-3.195,3.253-5.209,4.375c-7.732,4.313-17.25,4.352-25.079,8.52
			c-11.259,5.993-17.996,19.761-19.331,32.111C886.947,157.812,887.913,157.825,887.929,157.698z"/>
	</g>
</g>
<g>
	<path fill="#679D46" d="M873.72,103.886c0,0,12.72,12.87,12.994,20.638c0.274,7.77,2.943,25.351,2.943,25.351
		s-1.599-8.213-9.86-18.583C874.527,124.68,872.711,108.626,873.72,103.886z"/>
	<g>
		<path d="M873.23,103.784c2.22,2.254,4.274,4.685,6.219,7.179c2.906,3.729,6.188,8.197,6.748,13.03
			c1,8.598,1.674,17.2,2.975,25.775c0.324,0.067,0.65,0.139,0.979,0.205c-0.446-2.227-1.367-4.388-2.293-6.445
			c-1.082-2.404-2.4-4.697-3.814-6.924c-1.62-2.55-3.698-4.793-5.204-7.41c-2.387-4.148-3.457-9.115-4.209-13.795
			c-0.589-3.652-1.123-7.731-0.416-11.41C874.218,103.943,873.237,103.749,873.23,103.784c-0.674,3.497-0.168,7.298,0.321,10.781
			c0.669,4.772,1.851,9.612,4.037,13.931c1.188,2.347,3.019,4.316,4.515,6.467c1.722,2.473,3.216,5.1,4.518,7.812
			c1.06,2.203,2.064,4.584,2.551,6.995c0.029,0.154,0.967,0.126,0.979,0.205c-1.271-8.381-2.604-16.872-2.945-25.35
			c-0.19-4.772-3.668-9.352-6.425-13.002c-2.019-2.673-4.219-5.248-6.567-7.638C874,103.778,873.406,103.962,873.23,103.784z"/>
	</g>
</g>
<g>
	<path fill="#679D46" d="M881.771,166.018h3.783c3.105-8.239,4.531-16.965,5.962-25.286c2.565-14.932,4.562-48.662,4.068-50.932
		c-0.76-3.471-6.142,46.523-6.885,49.818C887.183,146.365,881.771,166.018,881.771,166.018z"/>
	<g>
		<path d="M881.309,166.154c1.263,0,2.523,0,3.784,0c0.146,0,0.894-0.125,0.943-0.268c4.353-11.785,6.173-24.615,7.524-37.066
			c1.093-10.056,1.845-20.158,2.346-30.263c0.139-2.766,0.332-5.562,0.216-8.333c-0.026-0.676-0.616-1.15-1.178-0.407
			c-0.753,1.004-0.722,3.28-0.903,4.456c-0.5,3.208-0.916,6.431-1.332,9.647c-1.437,11.103-2.622,22.232-4.105,33.329
			c-0.62,4.638-2.016,9.16-3.205,13.674c-1.342,5.083-2.715,10.157-4.106,15.227c0.031-0.116,0.907-0.062,0.965-0.264
			c1.946-7.074,3.864-14.158,5.679-21.269c1.266-4.957,1.93-9.819,2.549-14.896c0.965-7.918,1.896-15.841,2.896-23.753
			c0.666-5.269,0.934-10.946,2.396-16.073c0.104-0.354,0.312-0.394-0.271-0.235c-0.164,0.031-0.328,0.064-0.491,0.1
			c0.809,0.295,0.007,7.419-0.025,8.114c-0.3,6.602-0.769,13.194-1.312,19.779c-1.338,16.196-2.944,33.17-8.604,48.494
			c0.314-0.089,0.631-0.179,0.944-0.269c-1.262,0-2.521,0-3.783,0C881.939,165.882,881.506,166.154,881.309,166.154z"/>
	</g>
</g>
<g>
	<path fill="#679D46" d="M975.393,102.098c4.369-2.069,13.748,7.139,13.722,13.004c-0.017,3.438-0.64,17.028-1.22,22.266
		c-0.416,3.748-0.391,11.986-6.062,11.986c-6.601,0-6.135-15.82-6.438-25.812C975.029,111.624,975.393,102.098,975.393,102.098z"/>
	<g>
		<path d="M975.739,102.458c4.702-1.875,10.003,4.739,11.788,8.001c1.872,3.421,1.174,7.493,1.01,11.228
			c-0.203,4.686-0.442,9.373-0.859,14.043c-0.317,3.562-0.334,7.491-2.029,10.723c-0.854,1.63-2.362,2.458-4.16,2.544
			c-2.525,0.12-3.497-2.577-4.094-4.562c-1.371-4.551-1.379-9.565-1.508-14.272C975.633,120.932,975.395,111.688,975.739,102.458
			c0.01-0.259-0.7-0.524-0.691-0.723c-0.377,10.105-0.146,20.258,0.229,30.358c0.167,4.451-0.065,17.293,6.9,17.617
			c4.719,0.221,5.489-5.99,5.826-9.398c0.438-4.462,0.764-8.931,1.006-13.405c0.221-4.081,1.014-8.76,0.303-12.815
			c-0.595-3.392-3.195-6.321-5.567-8.667c-2.05-2.024-5.607-4.919-8.697-3.688C975.121,101.708,975.587,102.519,975.739,102.458z"/>
	</g>
</g>
<g>
	<path fill="#679D46" d="M981.492,166.017c0,0,3.17-17.928,2.42-27.266c-0.75-9.34-1.301-21.938-1.801-24.688s-0.031,25.828,0,28.5
		c0.061,4.875-1.979,17.103-3.219,23.454H981.492z"/>
	<g>
		<path d="M981.942,166.24c1.386-7.874,2.479-15.938,2.534-23.938c0.04-5.78-0.701-11.632-1.062-17.4
			c-0.158-2.563-0.318-5.131-0.527-7.69c-0.041-0.5,0.06-2.801-0.401-3.122c-0.09-0.062-0.82-0.486-0.883-0.431
			c-0.339,0.312-0.134,1.931-0.143,2.333c-0.034,1.914-0.025,3.828-0.021,5.742c0.016,4.812,0.074,9.62,0.139,14.433
			c0.046,3.378,0.179,6.741-0.128,10.109c-0.591,6.547-1.755,13.072-3.004,19.521c-0.011,0.051,0.8,0.443,0.896,0.443
			C980.209,166.24,981.074,166.24,981.942,166.24c-0.287,0-0.589-0.443-0.896-0.443c-0.866,0-1.733,0-2.602,0
			c0.299,0.146,0.6,0.296,0.896,0.443c1.251-6.457,2.361-12.976,3.004-19.521c0.329-3.362,0.174-6.737,0.129-10.11
			c-0.064-4.811-0.12-9.618-0.14-14.431c-0.01-1.914-0.011-3.829,0.021-5.743c0.006-0.4-0.197-2.021,0.141-2.334
			c-0.294-0.145-0.588-0.287-0.883-0.432c0.485,0.338,0.372,3.081,0.415,3.609c0.216,2.644,0.37,5.289,0.535,7.936
			c0.357,5.728,1.051,11.509,1.011,17.247c-0.056,7.79-1.183,15.672-2.528,23.336C981.025,165.91,981.953,166.168,981.942,166.24z"
			/>
	</g>
</g>
<g>
	<path fill="#EBBB25" d="M1080.357,41.207c0,0,8.306-5.746,7.496-9.459c-0.812-3.714-2.849,0.188-5.58,1.381
		c-2.729,1.191-10.983,9.121-9.838,9.509C1073.584,43.027,1075.133,42.273,1080.357,41.207z"/>
	<g>
		<path d="M1080.634,41.624c2.804-1.955,7.518-5.313,7.547-9.096c0.009-0.971-0.63-1.864-1.22-2.583
			c-0.709-0.862-4.706,2.605-5.482,3.033c-2.1,1.151-3.936,2.972-5.658,4.604c-1.23,1.166-3.199,2.707-3.758,4.383
			C1071.226,44.478,1080.393,41.674,1080.634,41.624c-0.101,0.021-0.411-0.863-0.554-0.833c-1.84,0.384-3.66,0.827-5.488,1.26
			c-0.656,0.155-1.875,0.552-2.51,0.12c0.186,0.276,0.368,0.556,0.555,0.833c-0.479-1.303,3.76-4.617,4.534-5.336
			c2.316-2.151,4.979-3.527,7.405-5.458c0.909-0.725,2.738-2.771,3.051-0.513c0.199,1.447-1.021,2.97-1.854,4.009
			c-1.573,1.963-3.635,3.648-5.691,5.086C1080.055,40.81,1080.619,41.633,1080.634,41.624z"/>
	</g>
</g>
<g>
	<path fill="#EBBB25" d="M1071.934,42.595c0,0,20.471-7.902,22.619-7.04c2.146,0.863,0.49,4.479-5.647,7.403
		c-6.14,2.927-21.977,8.63-21.448,5.352C1067.983,45.031,1071.934,42.595,1071.934,42.595z"/>
	<g>
		<path d="M1072.196,43.021c3.962-1.527,7.956-2.979,11.978-4.35c2.6-0.886,5.218-1.748,7.888-2.395
			c0.77-0.187,1.561-0.357,2.354-0.361c1.383-0.008,0.608,1.403,0.162,2.143c-1.826,3.015-5.847,4.505-8.939,5.808
			c-3.422,1.438-6.932,2.695-10.488,3.751c-2.163,0.642-5.025,1.688-7.312,1.142c-0.238-0.059-0.201,0.36,0.021-0.627
			c0.227-0.99,0.895-1.87,1.513-2.646C1070.136,44.525,1071.156,43.678,1072.196,43.021c0.039-0.023-0.493-0.872-0.523-0.852
			c-1.517,0.958-5.494,4.225-4.349,6.336c0.845,1.555,2.322,1.273,3.925,1.023c4.022-0.628,7.977-2.13,11.767-3.562
			c4.122-1.56,8.916-3.197,11.812-6.678c1.088-1.306,1.146-2.97-0.249-4.017c-1.383-1.039-5.286,0.74-6.649,1.155
			c-5.491,1.669-10.897,3.674-16.253,5.738C1071.688,42.163,1072.102,43.058,1072.196,43.021z"/>
	</g>
</g>
<g>
	<path fill="#EBBB25" d="M1062.877,33.329c0,0-3.25-9.148-5.386-9.72c-2.134-0.568-1.714,6.438,2.603,11.839
		C1064.407,40.848,1062.877,33.329,1062.877,33.329z"/>
	<g>
		<path d="M1063.369,33.251c-1.103-3.081-2.32-6.624-4.512-9.107c-0.633-0.719-1.213-0.663-2.049-0.514
			c-1.252,0.224-1.09,2.047-1.025,2.981c0.188,2.742,1.463,5.417,2.922,7.69c0.678,1.058,2.046,3.354,3.578,3.141
			C1064.265,37.171,1063.671,34.764,1063.369,33.251c-0.008-0.038-0.988,0.145-0.986,0.155c0.166,0.834,0.26,1.685,0.264,2.534
			c0.002,0.474-0.054,0.962-0.324,1.357c0.183-0.265,0.363,0.049-0.221-0.348c-0.596-0.401-1.062-1.039-1.514-1.583
			c-1.75-2.106-2.919-4.699-3.562-7.348c-0.266-1.087-0.852-3.867,0.53-4.498c-0.28,0.048-0.562,0.099-0.843,0.146
			c1.669-0.22,3.16,3.772,3.673,4.86c0.747,1.587,1.405,3.225,1.996,4.874C1062.41,33.49,1063.358,33.216,1063.369,33.251z"/>
	</g>
</g>
<g>
	<path fill="#EBBB25" d="M1064.377,50.273c0,0-23.391,7.719-23.194,5.204c0.194-2.516,5.688-7.495,9.078-8.211
		c3.391-0.717,13.804-2.302,14.823-1.546C1066.105,46.475,1065.482,49.561,1064.377,50.273z"/>
	<g>
		<path d="M1063.898,50.335c-2.636,0.867-5.288,1.686-7.948,2.477c-2.3,0.684-4.608,1.332-6.936,1.924
			c-1.999,0.51-5.089,1.754-7.068,1.043c-1.248-0.445,1.61-3.684,1.949-4.058c2.354-2.594,5.224-4.25,8.658-4.86
			c3.479-0.618,7.056-1.212,10.597-1.267c2.718-0.041,2.346,3.319,0.729,4.749c0.19-0.169,0.771,0.052,0.989-0.146
			c1.122-0.994,1.793-3.324,0.707-4.554c-0.401-0.455-1.812-0.199-2.339-0.181c-2.994,0.107-5.997,0.597-8.953,1.056
			c-2.642,0.409-5.146,0.737-7.473,2.126c-0.919,0.548-7.687,5.804-5.96,7.222c0.724,0.595,2.685,0.068,3.492-0.06
			c2.348-0.372,4.661-0.936,6.957-1.547c4.555-1.213,9.071-2.58,13.551-4.055C1064.648,50.278,1064.182,50.242,1063.898,50.335z"/>
	</g>
</g>
<g>
	<path fill="#EBBB25" d="M1065.072,39.904c0,0-11.146-11.396-14.166-11.771c-3.019-0.375,2.302,12.116,13.552,16.271
		C1075.703,48.564,1066.223,41.285,1065.072,39.904z"/>
	<g>
		<path d="M1065.552,40.045c-3.739-3.814-7.646-7.782-12.084-10.781c-0.841-0.566-2.243-1.418-3.338-1.261
			c-1.646,0.234,0.562,4.445,0.854,4.982c3.363,6.295,9.633,10.632,16.438,12.424c1.017,0.268,3.877,1.022,2.554-0.932
			C1068.797,42.744,1066.928,41.598,1065.552,40.045c-0.2-0.228-0.792-0.096-0.959-0.283c0.583,0.658,5.899,5.068,4.521,5.715
			c-1.9,0.893-5.999-1.621-7.914-2.72c-1.672-0.96-3.187-2.188-4.59-3.5c-2.062-1.927-3.807-4.247-5.072-6.767
			c-0.5-0.992-1.446-2.86-0.803-3.976c0.567-0.98,4.205,2.283,4.721,2.706c3.212,2.646,6.227,5.568,9.138,8.539
			C1064.809,39.983,1065.366,39.859,1065.552,40.045z"/>
	</g>
</g>
<g>
	<path fill="#EBBB25" d="M1055.158,35.312c0,0-8.174-4.274-11.318-4.174c-3.146,0.104-2.999,3.674,3.447,6.288
		c6.445,2.614,12.814,4.873,17.378,4.727C1069.227,42.005,1055.918,35.698,1055.158,35.312z"/>
	<g>
		<path d="M1055.652,35.22c-1.979-1.029-4.017-1.958-6.085-2.791c-1.868-0.752-4.066-1.667-6.124-1.287
			c-1.355,0.25-2.485,0.854-1.904,2.451c0.557,1.52,2.4,2.511,3.716,3.224c2.455,1.33,5.271,2.193,7.897,3.121
			c3.549,1.251,7.555,2.547,11.368,2.289c0.496-0.034,1.893-0.117,1.472-0.896c-0.879-1.63-3.823-2.75-5.354-3.578
			C1058.998,36.865,1057.32,36.052,1055.652,35.22c-0.26-0.128-0.771,0.287-0.983,0.183c2.712,1.354,5.437,2.677,8.017,4.271
			c0.638,0.394,2.453,1.292,2.435,2.213c-0.021,1.042-10.108-1.833-10.979-2.128c-3.436-1.168-7.277-2.323-10.169-4.583
			c-1.155-0.902-2.571-2.959-0.708-3.906c1.536-0.781,5.508,1.402,6.931,2.013c1.52,0.647,3.017,1.361,4.479,2.125
			C1054.922,35.534,1055.447,35.115,1055.652,35.22z"/>
	</g>
</g>
<g>
	<path fill="#EBBB25" d="M1065.018,47.406c0,0-30.065-1.795-30.832-4.158c-0.766-2.365,17.938-4.419,23.178-4.026
		C1062.602,39.615,1067.281,46.475,1065.018,47.406z"/>
	<g>
		<path d="M1064.629,47.092c-4.135-0.248-8.264-0.568-12.388-0.937c-5.63-0.502-11.801-0.687-17.211-2.467
			c-0.53-0.176-1.144-0.756-0.376,0.013c-0.188-0.189-0.087-0.446,0.033-0.634c0.436-0.671,1.66-0.939,2.354-1.161
			c3.372-1.069,7.017-1.463,10.517-1.854c3.173-0.354,6.396-0.641,9.591-0.548c2.959,0.084,5.426,1.765,7.104,4.161
			C1064.85,44.509,1065.878,46.37,1064.629,47.092c0.08-0.046,0.65,0.701,0.775,0.629c2.324-1.342-2.035-5.492-3.161-6.378
			c-2.986-2.351-5.896-2.581-9.57-2.404c-4.499,0.217-9.021,0.74-13.44,1.614c-0.527,0.104-6.562,1.32-5.256,2.627
			c0.938,0.938,2.135,1.271,3.396,1.57c3.479,0.823,7.1,1.169,10.648,1.549c5.778,0.618,11.58,1.074,17.383,1.422
			C1065.154,47.706,1064.912,47.11,1064.629,47.092z"/>
	</g>
</g>
<g>
	<path fill="#EBBB25" d="M1067.672,54.341c0,0,6.455-13.295,3.729-22.69c-2.726-9.395-3.093-10.213-5.084-9.965
		c-1.991,0.25-5.646,4.571-4.547,11.031s2.342,20.254,3.366,20.879C1066.166,54.22,1067.672,54.341,1067.672,54.341z"/>
	<g>
		<path d="M1068.151,54.486c3.011-6.255,5.135-13.813,4.156-20.766c-0.343-2.437-1.266-4.854-2-7.196
			c-0.424-1.353-0.837-2.814-1.646-4c-0.49-0.72-1.594-1.021-2.427-1.015c-3.185,0.032-4.685,4.731-5.055,7.177
			c-0.327,2.161,0.2,4.342,0.51,6.475c0.329,2.281,0.608,4.57,0.899,6.857c0.448,3.534,0.697,7.251,1.691,10.688
			c0.396,1.363,2.614,1.646,3.849,1.778c-0.216-0.021-0.624-0.256-0.921-0.286c-2.744-0.293-2.514-3.602-2.841-5.771
			c-0.528-3.524-0.934-7.068-1.396-10.604c-0.479-3.636-1.399-7.217-0.416-10.846c0.568-2.097,2.271-5.157,4.771-5.184
			c0.107-0.001-0.229-0.219,0.239,0.274c0.229,0.24,0.382,0.552,0.535,0.84c0.649,1.222,1.021,2.618,1.433,3.932
			c1.266,4.03,2.26,7.752,1.967,12.006c-0.358,5.229-2.041,10.637-4.312,15.354C1067.198,54.184,1068.113,54.564,1068.151,54.486z"
			/>
	</g>
</g>
<g>
	<path fill="#EBBB25" d="M1072.714,31.096c0,0,3.874-7.166,6.147-8.595c2.274-1.431,4.354,3.155,3.911,5.176
		c-0.443,2.021-12.626,21.374-15.357,20.153C1064.683,46.61,1070.744,34.451,1072.714,31.096z"/>
	<g>
		<path d="M1073.209,31.161c1.104-2.027,2.314-4.002,3.652-5.884c0.532-0.75,2.246-3.492,3.509-2.683
			c1.268,0.812,1.809,2.77,1.96,4.154c0.174,1.562-1.254,3.337-1.99,4.59c-1.479,2.511-3.078,4.951-4.732,7.349
			c-1.628,2.355-3.336,4.679-5.264,6.799c-0.646,0.708-1.336,1.388-2.125,1.934c-0.267,0.184-0.559,0.32-0.872,0.389
			c0.573-0.122,0.095-0.246-0.064-0.811c-0.677-2.389,1.179-5.884,2.062-7.997C1070.461,36.318,1071.752,33.677,1073.209,31.161
			c-0.048,0.08-0.91-0.27-0.991-0.13c-1.128,1.947-8.771,15.616-5.155,16.782c1.221,0.396,2.104-0.155,3.021-0.948
			c2.448-2.122,4.363-4.986,6.216-7.616c1.997-2.838,3.883-5.766,5.61-8.771c1.44-2.508,1.942-4.383,0.127-7.051
			c-3.46-5.084-8.601,5.362-9.818,7.605C1072.258,30.957,1073.137,31.295,1073.209,31.161z"/>
	</g>
</g>
<g>
	<path fill="#679D46" d="M1056.801,48.709c2.31-3.061,9.701-5.397,16.584-2.349c4.71,2.089,3.974,4.525,1.505,5.92
		c-2.468,1.393-4.122,1.932-5.604,2.801c-1.479,0.868-1.923,3.901-0.974,11.383c0.949,7.479,17.567,102.233,17.567,102.233
		l-2.541,0.043c0,0-17.55-108.681-18.102-110.837c-0.552-2.152-6.431-1.74-7.316-4.055
		C1057.031,51.538,1056.008,49.759,1056.801,48.709z"/>
	<g>
		<path d="M1057.291,48.805c1.571-1.896,3.88-2.822,6.221-3.391c3.914-0.95,10.168-0.438,12.579,3.272
			c2.301,3.542-7.136,5.137-8.233,7.458c-1.453,3.071-0.395,7.812,0.075,10.988c0.229,1.541,0.483,3.078,0.739,4.615
			c2.267,13.659,4.689,27.294,7.086,40.932c2.549,14.509,5.112,29.015,7.686,43.52c0.836,4.707,1.672,9.412,2.508,14.118
			c0.22,1.226-0.916-3.731-0.699-2.509c0.26,1.46-1.053,0.811-2.384,0.831c0.32,0.063,0.644,0.129,0.964,0.193
			c-3.845-23.354-6.345-40.525-10.212-63.876c-2.016-12.158-4.027-24.315-6.072-36.472c-0.522-3.1-1.038-6.198-1.589-9.294
			c-0.178-0.988-0.231-1.649-1.188-2.265c-1.532-0.984-3.601-1.033-5.229-1.838C1057.906,54.288,1056.479,50.414,1057.291,48.805
			c-0.028,0.058-0.931-0.295-0.98-0.19c-0.871,1.727,0.688,5.31,2.25,6.288c1.793,1.125,4.225,0.863,5.851,2.308
			c0.546,0.481,0.562,1.771,0.678,2.421c0.711,4.054,1.385,8.112,2.063,12.172c2.479,14.772,4.923,29.552,7.366,44.329
			c3.235,19.562,5.11,32.948,8.333,52.513c0.014,0.082,0.854,0.196,0.964,0.194c0.847-0.016,1.692-0.028,2.541-0.043
			c0.006-0.002,0.012-0.002,0.018-0.002c-4.417-24.812-7.46-43.448-11.797-68.273c-1.899-10.881-3.896-21.755-5.582-32.67
			c-0.489-3.185-0.9-6.474-0.586-9.688c0.445-4.549,5.895-4.032,8.441-7.001c2.948-3.433-5.595-5.667-7.736-6.061
			c-4.27-0.783-9.881-0.012-12.802,3.515C1056.396,48.509,1057.176,48.946,1057.291,48.805z"/>
	</g>
</g>
<g>
	<path fill="#EBBB25" d="M1076.699,105.705c0,0-5.009-12.604-11.379-9.354c-6.371,3.25-3.13,7.75,0,10.75
		c3.129,3,11.379,5.5,11.379,5.5V105.705z"/>
	<g>
		<path d="M1077.198,105.668c-1.892-4.697-5.933-11.57-11.917-9.489c-2.238,0.777-4.212,2.746-4.1,5.201
			c0.109,2.384,2.355,4.604,4.008,6.091c2.92,2.627,7.321,4.039,11.028,5.175c0.095,0.027,0.979-0.022,0.979-0.078
			C1077.198,110.268,1077.198,107.968,1077.198,105.668c0-0.021-0.998,0.005-0.998,0.072c0,2.299,0,4.599,0,6.896
			c0.327-0.026,0.652-0.054,0.979-0.078c-3.17-0.972-6.312-2.223-9.183-3.893c-2.909-1.693-6.835-5.562-5.543-9.258
			c0.855-2.452,4.216-4.062,6.543-3.076c1.54,0.649,2.748,2.037,3.757,3.317c1.428,1.812,2.584,3.945,3.444,6.086
			C1076.256,105.872,1077.178,105.615,1077.198,105.668z"/>
	</g>
</g>
<g>
	<path fill="#EBBB25" d="M1085.449,104.045c0,0-6.25-11.859-10-10.525s-2.5,18.727-1,20.778c1.5,2.055,12,5.789,13.25,2.048
		C1088.949,112.603,1085.449,104.045,1085.449,104.045z"/>
	<g>
		<path d="M1085.948,104.006c-1.178-2.223-2.541-4.359-4.046-6.374c-1.363-1.821-3.337-4.438-5.889-4.235
			c-2.131,0.166-2.657,1.997-3.057,3.893c-0.777,3.729-0.563,7.763-0.202,11.527c0.227,2.333,0.264,5.115,2.384,6.51
			c2.532,1.664,6.22,2.821,9.271,2.65c2.756-0.152,4.089-1.016,4.051-4.06C1088.42,110.582,1087.192,107.074,1085.948,104.006
			c-0.048-0.117-0.971,0.146-0.996,0.078c1.368,3.379,5.698,14.387-1.24,13.743c-2.81-0.262-6.201-1.366-8.407-3.189
			c-1.409-1.164-1.376-4.275-1.548-5.896c-0.326-3.066-0.378-6.185-0.113-9.257c0.075-0.893,0.554-6.086,2.188-6.013
			c2.485,0.11,4.722,3.701,5.968,5.466c1.157,1.642,2.215,3.373,3.155,5.146C1085.027,104.224,1085.9,103.914,1085.948,104.006z"/>
	</g>
</g>
<g>
	<path fill="#EBBB25" d="M1054.514,104.871c0,0-13.82-11.664-15.643-10.251c-1.821,1.412-1.192,10.634,0.957,12.739
		c2.146,2.106,20.623,14.32,23.666,14.222C1066.533,121.481,1056.572,106.639,1054.514,104.871z"/>
	<g>
		<path d="M1054.252,104.465c-2.005-1.688-4.061-3.316-6.144-4.905c-2.541-1.938-5.417-4.419-8.524-5.384
			c-3.052-0.944-1.904,7.362-1.679,8.663c0.354,2.028,1.109,4.07,2.734,5.407c5.831,4.802,12.771,8.994,19.49,12.402
			c1.107,0.562,4.663,2.646,4.118-0.067c-0.592-2.953-2.729-5.9-4.323-8.393C1058.266,109.594,1056.554,106.563,1054.252,104.465
			c0.15,0.14,0.305,0.612,0.521,0.812c2.986,2.725,5.195,6.881,7.121,10.372c0.376,0.684,3.418,5.951,0.818,5.458
			c-2.847-0.539-5.718-2.634-8.157-4.077c-3.784-2.235-7.479-4.637-11.093-7.14c-1.07-0.742-2.135-1.499-3.159-2.303
			c-1.5-1.176-1.76-3.233-2.022-5.023c-0.229-1.568-1.035-8.451,2.091-7.48c3.153,0.979,6.069,3.62,8.65,5.588
			c1.952,1.488,3.872,3.023,5.75,4.605C1054.62,105.147,1054.477,104.654,1054.252,104.465z"/>
	</g>
</g>
<g>
	<path fill="#EBBB25" d="M1049.22,94.977c0,0-8.188,3.68-5.188,5.93s25.441,24.711,36.441,23.961s6.726-2.265,6.726-2.265
		S1055.152,93.227,1049.22,94.977z"/>
	<g>
		<path d="M1049.004,94.526c-1.771,0.807-6.21,2.709-5.799,5.152c0.248,1.469,2,2.469,3.006,3.37
			c6.231,5.59,12.473,11.185,19.385,15.938c3.484,2.396,7.232,4.675,11.322,5.858c1.875,0.544,3.632,0.493,5.562,0.332
			c1.688-0.142,4.043-0.143,5.53-1.104c1.1-0.709-2.725-3.463-3.044-3.748c-6.035-5.415-12.201-10.699-18.581-15.706
			c-3.4-2.67-6.879-5.276-10.565-7.54C1054.073,96.008,1051.207,93.982,1049.004,94.526c0.021-0.005,0.32,0.931,0.432,0.902
			c1.918-0.475,4.28,1.087,5.847,1.979c3.203,1.82,6.191,4.035,9.127,6.257c6.442,4.873,12.6,10.136,18.649,15.48
			c1.411,1.247,2.814,2.502,4.207,3.771c0.146,0.133,0.265,0.179,0.443,0.268c0.694,0.344-0.039-0.021,0.039-0.182
			c-0.186,0.375-0.906,0.512-1.248,0.609c-9.061,2.649-16.634-2.078-23.717-7.208c-5.619-4.07-10.826-8.687-15.976-13.329
			c-0.729-0.657-1.454-1.315-2.193-1.96c-0.663-0.579-1.229-0.768-0.779-1.708c0.902-1.896,3.786-3.153,5.601-3.979
			C1049.473,95.411,1049.053,94.503,1049.004,94.526z"/>
	</g>
</g>
<g>
	<path fill="#EBBB25" d="M1097.962,120.023c0,0-7.244-25.67-9.378-26.42c-2.135-0.75-5.385,3.75-6.135,5.25s-3.5,25.75,4.5,26
		S1098.377,121.471,1097.962,120.023z"/>
	<g>
		<path d="M1098.457,120.086c-1.653-5.854-3.418-11.687-5.375-17.443c-0.949-2.797-1.824-5.92-3.449-8.419
			c-1.06-1.628-3.444-0.396-4.495,0.483c-5.111,4.275-4.447,12.271-4.183,18.284c0.146,3.354,0.483,7.283,2.493,10.107
			c1.317,1.854,3.61,1.938,5.683,1.815C1091.171,124.799,1099.111,123.748,1098.457,120.086c-0.025-0.146-0.982-0.08-0.991-0.127
			c0.604,3.396-6.506,4.581-8.493,4.771c-2.467,0.235-3.869-0.266-5.07-2.347c-0.799-1.383-1.163-3.017-1.454-4.566
			c-0.699-3.729-0.651-7.623-0.452-11.397c0.127-2.396,0.203-5.021,0.892-7.339c0.466-1.575,2.093-3.158,3.245-4.244
			c1.206-1.136,2.021-1.638,2.842-0.19c1.535,2.711,2.444,5.864,3.436,8.802c1.839,5.453,3.495,10.978,5.062,16.517
			C1097.514,120.128,1098.438,120.009,1098.457,120.086z"/>
	</g>
</g>
<g>
	<path fill="#EBBB25" d="M1124.199,126.353c0,0,35.25-1.711,39.75-3.479c4.5-1.771,10.5-10.021,8.25-11.771
		s-49.711,10.521-50.961,11.771S1124.199,126.353,1124.199,126.353z"/>
	<g>
		<path d="M1124.653,126.567c5.536-0.271,11.07-0.6,16.604-0.969c7.299-0.487,14.93-0.644,22.1-2.212
			c3.813-0.836,6.914-4.657,8.771-7.868c0.961-1.665,1.743-3.933-0.473-4.688c-1.396-0.479-3.388,0.085-4.777,0.3
			c-3.293,0.511-6.562,1.211-9.814,1.921c-9.034,1.973-18.018,4.229-26.936,6.676c-2.734,0.751-5.488,1.49-8.168,2.426
			c-2.928,1.021,0.209,3.143,1.852,4.027c0.177,0.095,0.839,0.378,0.789,0.354c-1.725-0.935-4.565-2.94-1.737-3.95
			c2.295-0.817,4.663-1.449,7.008-2.104c7.737-2.161,15.54-4.111,23.364-5.93c5.889-1.365,12.132-3.202,18.209-3.396
			c0.307-0.01,0.614-0.003,0.915,0.056c0.221,0.041-0.64-0.485-0.271,0.104c0.156,0.252,0.146,0.604,0.149,0.883
			c0.036,2.062-1.806,4.283-3.002,5.782c-2.233,2.797-4.844,4.697-8.35,5.283c-12.178,2.036-24.818,2.285-37.136,2.886
			C1124.025,126.125,1124.348,126.583,1124.653,126.567z"/>
	</g>
</g>
<g>
	<path fill="#EBBB25" d="M1103.449,120.023c0,0,8.594-23.651,0-23.67c-5.488-0.012-8.546,3.018-11,5.828
		c-3.074,3.522-5.25,23.922,0,24.172S1103.449,120.023,1103.449,120.023z"/>
	<g>
		<path d="M1103.889,120.264c1.979-5.467,3.679-11.412,3.816-17.247c0.055-2.274-0.238-4.967-2.396-6.205
			c-3.24-1.858-7.566,0.034-10.245,2.097c-6.229,4.794-6.804,14.508-6.051,21.759c0.233,2.241,0.746,4.51,2.851,5.615
			c3.197,1.681,7.757-2.047,9.979-3.99C1102.561,121.66,1103.255,120.982,1103.889,120.264c-0.016,0.02-0.797-0.571-0.875-0.48
			c-2.066,2.338-4.637,4.37-7.494,5.632c-1.702,0.751-3.744,1.352-4.713-0.546c-0.646-1.265-0.819-2.781-0.965-4.17
			c-0.385-3.695-0.006-7.516,0.627-11.158c0.51-2.929,1.189-5.772,3.219-8.009c1.448-1.602,3.091-2.929,5.033-3.874
			c1.512-0.737,5.24-1.94,6.677-0.606c1.979,1.841,1.506,5.76,1.254,8.124c-0.526,4.953-1.944,9.931-3.638,14.607
			C1102.979,119.875,1103.89,120.262,1103.889,120.264z"/>
	</g>
</g>
<g>
	<path fill="#EBBB25" d="M1115.203,121.615c0,0,31.066-23.687,34.234-24.89s8.254,2.307,6.483,5.757
		c-1.771,3.452-32.149,19.351-36.983,21.704C1114.104,126.542,1116.264,122.707,1115.203,121.615z"/>
	<g>
		<path d="M1115.701,121.661c10.222-7.791,20.417-15.703,31.047-22.934c0.816-0.557,1.644-1.104,2.495-1.604
			c2.245-1.312,4.813,0.211,6.083,2.175c1.828,2.833-1.551,4.841-3.463,6.154c-7.035,4.839-14.719,8.832-22.231,12.86
			c-3.021,1.62-6.058,3.221-9.108,4.779c-1.252,0.64-2.511,1.349-3.87,1.728C1116.01,125,1116,122.067,1115.701,121.661
			c-0.146-0.201-0.886,0.057-0.994-0.096c0.673,0.92,0.02,2.211,0.729,3.104c0.301,0.377,1.305,0.321,1.714,0.32
			c2.231-0.005,5.312-2.277,7.231-3.277c7.727-4.021,15.402-8.164,22.885-12.63c2.759-1.646,5.604-3.31,8.072-5.379
			c2.917-2.447,0.569-6.311-2.729-7.01c-4.749-1.008-8.728,3.201-12.312,5.784c-8.636,6.221-17.131,12.64-25.592,19.088
			C1114.875,121.438,1115.488,121.824,1115.701,121.661z"/>
	</g>
</g>
<g>
	<path fill="#EBBB25" d="M1154.199,102.603c0,0,7.75-2.5,10.5-2.75s8.466,12.21-17.514,18.79c-25.979,6.58-29.86,8.806-29.86,8.806
		l6.374-11.104L1154.199,102.603z"/>
	<g>
		<path d="M1154.402,103.061c3.194-1.025,6.443-2.056,9.751-2.647c1.618-0.291,2.547,0.714,2.801,2.302
			c1.026,6.412-6.808,10.688-11.562,12.729c-5.905,2.533-12.369,3.728-18.556,5.387c-4.226,1.135-8.438,2.315-12.616,3.617
			c-2.315,0.722-4.956,1.337-7.095,2.542c0.136,0.306,0.271,0.608,0.402,0.916c2.062-3.594,4.125-7.186,6.188-10.775
			c0.32-0.562,0.991-0.688,1.571-0.95c1.823-0.821,3.646-1.644,5.473-2.466C1138.64,110.163,1146.521,106.612,1154.402,103.061
			c0.043-0.021-0.365-0.934-0.401-0.916c-7.883,3.554-15.764,7.104-23.646,10.652c-1.754,0.79-3.508,1.58-5.261,2.37
			c-0.621,0.28-1.438,0.438-1.782,1.046c-2.062,3.593-4.125,7.184-6.188,10.772c-0.062,0.107,0.41,0.911,0.402,0.916
			c2.614-1.475,5.887-2.181,8.723-3.044c5.203-1.584,10.462-2.991,15.724-4.367c6.266-1.64,12.618-3.043,18.264-6.352
			c4.045-2.369,8.731-6.995,6.688-12.12c-0.388-0.971-0.905-2.107-1.924-2.547c-0.995-0.429-2.737,0.317-3.703,0.556
			c-2.177,0.532-4.327,1.188-6.466,1.854c-0.275,0.086-0.555,0.175-0.828,0.263C1153.99,102.149,1154.326,103.084,1154.402,103.061z
			"/>
	</g>
</g>
<g>
	<path fill="#EBBB25" d="M1103.949,101.853c0,0,8.75-10,11.5-8.438c4.265,2.421-3.417,23.706-9.25,26.606
		c-5.833,2.901-7-5.662-6.5-8.666S1103.949,101.853,1103.949,101.853z"/>
	<g>
		<path d="M1104.248,102.254c1.259-1.432,2.597-2.794,3.973-4.109c1.762-1.685,4.229-4.286,6.812-4.493
			c3.926-0.312-1.541,14.694-2.174,16.149c-1.195,2.757-2.648,5.472-4.577,7.788c-1.808,2.175-5.719,4.235-7.411,0.697
			C1098.211,112.733,1101.507,107.031,1104.248,102.254c0.089-0.151-0.64-0.729-0.597-0.803c-2.968,5.169-6.521,11.698-2.625,17.387
			c4.653,6.789,10.479-3.987,12.201-7.724c1.696-3.684,3.021-7.645,3.599-11.664c0.293-2.053,0.337-4.154-1.01-5.828
			c-2.744-3.415-10.438,5.861-12.165,7.829C1103.574,101.539,1104.263,102.24,1104.248,102.254z"/>
	</g>
</g>
<g>
	<path fill="#EBBB25" d="M1108.142,113.648c0,0,16.229-19.463,18.896-20.129s6.835,3.721,0,10.525
		c-6.835,6.808-17.614,19.404-17.614,19.404S1106.431,115.679,1108.142,113.648z"/>
	<g>
		<path d="M1108.605,113.833c2.603-3.117,5.252-6.192,7.938-9.236c2.07-2.352,4.175-4.678,6.354-6.93
			c1.297-1.338,2.693-2.994,4.368-3.874c3.16-1.66,3.021,4.198,2.509,5.599c-1.438,3.906-5.82,7.114-8.603,10.115
			c-4.166,4.499-8.229,9.102-12.219,13.758c0.312,0.124,0.619,0.246,0.932,0.37C1108.924,121.111,1106.908,116.336,1108.605,113.833
			c-0.021,0.032-0.871-0.455-0.929-0.371c-1.696,2.503,0.315,7.277,1.275,9.803c0.031,0.082,0.896,0.41,0.932,0.37
			c4.584-5.354,9.266-10.633,14.093-15.768c2.858-3.041,7.567-6.438,7.207-11.097c-0.135-1.748-1.533-2.868-3.097-3.331
			c-1.791-0.528-2.911,0.744-4.138,1.892c-2.339,2.187-4.483,4.59-6.624,6.968c-3.287,3.657-6.5,7.389-9.648,11.163
			C1107.724,113.408,1108.521,113.935,1108.605,113.833z"/>
	</g>
</g>
<g>
	<path fill="#EBBB25" d="M1111.199,118.643c0,0,22.943-23.29,26.6-22.29c3.65,1,5.4,7.649,3.4,9.325c-2,1.675-27,18.699-28.5,19.188
		C1111.199,125.355,1109.184,120.663,1111.199,118.643z"/>
	<g>
		<path d="M1111.633,118.895c3.938-3.997,7.985-7.895,12.117-11.691c2.91-2.681,5.879-5.316,9.022-7.722
			c1.771-1.354,4.611-4.081,6.696-2.021c2.396,2.367,3.115,6.668,0.27,8.742c-2.629,1.914-5.32,3.74-8.003,5.581
			c-6.113,4.191-12.203,8.518-18.561,12.34c-0.812,0.485-1.08,0.797-1.71-0.229C1110.535,122.381,1110.508,120.278,1111.633,118.895
			c-0.007,0.009-0.809-0.571-0.863-0.504c-1.521,1.87-0.883,5.979,1.768,6.679c1.459,0.389,4.041-2.031,5.147-2.755
			c6.781-4.419,13.477-8.982,20.11-13.619c1.852-1.292,4.444-2.428,4.671-4.902c0.288-3.188-1.764-6.108-4.498-7.473
			c-1.707-0.85-3.839,1.051-5.127,1.971c-3.116,2.227-5.988,4.812-8.824,7.377c-4.538,4.104-8.949,8.366-13.247,12.726
			C1110.799,118.361,1111.549,118.98,1111.633,118.895z"/>
	</g>
</g>
<g>
	<path fill="#EBBB25" d="M1089.689,129.605c0,0-57.681-9.002-61.603-20.425c-3.479-10.134,0.264-7.849,3.379-8.279
		c3.112-0.434,33.896,17.628,56.998,23.952C1090.899,125.518,1089.689,129.605,1089.689,129.605z"/>
	<g>
		<path d="M1089.52,129.135c-11.814-1.848-23.599-4.302-35.138-7.434c-7.246-1.968-14.794-4.137-21.312-7.956
			c-3.603-2.111-5.177-4.214-6.039-8.501c-0.795-3.947,1.38-3.642,4.324-3.844c2.64-0.182,5.812,1.954,8.094,3.034
			c5.451,2.581,10.851,5.275,16.305,7.854c6.631,3.133,13.333,6.12,20.172,8.771c3.33,1.29,6.703,2.468,10.116,3.516
			c0.985,0.301,3.486,0.485,3.737,1.786C1089.946,127.24,1089.759,128.282,1089.52,129.135c-0.077,0.275,0.41,0.699,0.343,0.939
			c0.484-1.727,0.438-3.834-0.775-5.263c-0.647-0.764-2.478-0.905-3.39-1.181c-1.339-0.4-2.666-0.839-3.988-1.284
			c-2.992-1.011-5.943-2.14-8.877-3.312c-10.562-4.225-20.762-9.278-30.992-14.229c-2.945-1.426-5.899-2.955-8.993-4.047
			c-1.483-0.522-4.019-0.648-5.447-0.005c-2.414,1.085,0.171,7.073,0.745,8.623c0.637,1.722,1.898,2.955,3.347,4.039
			c4.213,3.16,9.547,4.955,14.485,6.604c6.334,2.112,12.822,3.762,19.325,5.258c8.123,1.872,16.325,3.509,24.562,4.797
			C1089.73,130.054,1089.702,129.165,1089.52,129.135z"/>
	</g>
</g>
<g>
	<path fill="#679D46" d="M1099.806,166.017c-0.67-31.995,3.6-36.459,8.042-36.685c8.181-0.413,21.387-1.726,20.646-5.174
		c-1.154-5.407-17.033-7.104-28.348-7.705c-10.992-0.587-22.86,0.646-29.979,3.522c-2.677,1.081,1.149,4.842,9.805,8.424
		c2.979,1.231,11.665,3.21,12.729,6.2c0.438,1.236,4.918,4.921,2.918,31.457L1099.806,166.017z"/>
	<g>
		<path d="M1100.303,165.96c-0.194-9.979-0.79-21.053,2.248-30.722c0.562-1.79,1.385-3.652,2.854-4.886
			c1.945-1.633,5.077-1.123,7.417-1.331c4.12-0.363,8.304-0.795,12.295-1.926c1.307-0.37,2.901-0.886,3.714-2.047
			c0.856-1.226-0.875-2.833-1.718-3.479c-3.646-2.8-9.263-3.386-13.646-4.017c-6.312-0.909-12.759-1.328-19.131-1.302
			c-4.362,0.02-8.752,0.326-13.069,0.954c-2.377,0.347-4.729,0.78-7.062,1.361c-1.529,0.385-3.973,0.735-5.15,1.883
			c-2.023,1.965,6.264,6.087,7.126,6.521c4.214,2.111,8.872,3.017,13.084,5.105c2.886,1.434,4.199,4.481,5.001,7.47
			c2.271,8.474,1.492,17.949,0.859,26.563c0.009,0.002,0.015,0.003,0.021,0.005c1.396-0.017,2.791-0.028,4.188-0.044
			c0.301-0.004,0.729-0.116,0.957-0.118c-1.371,0.015-2.743,0.026-4.115,0.042c0.184-0.002,0.438-10.059,0.454-11.094
			c0.056-4.427-0.104-8.901-0.885-13.271c-0.563-3.161-1.71-7.288-4.561-9.148c-4.155-2.713-9.541-3.48-14.01-5.628
			c-1.454-0.696-10.559-5.354-5.935-7.162c8.601-3.359,18.42-3.591,27.54-3.229c6.192,0.247,12.448,0.805,18.53,2.023
			c3.291,0.659,7.222,1.53,9.703,3.965c2.79,2.732-1.104,4.242-3.375,4.887c-5.148,1.46-10.529,1.469-15.813,1.965
			c-0.862,0.081-1.71,0.204-2.503,0.575c-3.021,1.42-3.959,5.712-4.572,8.615c-1.894,8.957-1.614,18.479-1.438,27.571
			C1099.309,166.07,1100.304,166.018,1100.303,165.96z"/>
	</g>
</g>
<g>
	<path fill="#679D46" d="M1088.262,166.017c-0.797-2.091-1.869-3.896-3.062-4.562c-3.229-1.808-21.333-14.971-21.333-10.77
		c0.001,5.477,5.562,11.309,10.363,15.324L1088.262,166.017z"/>
	<g>
		<path d="M1088.281,166.009c-1.021-2.519-2.146-4.271-4.451-5.74c-2.421-1.544-4.791-3.168-7.204-4.725
			c-1.105-0.714-12.322-8.199-12.938-5.495c-0.427,1.879,0.938,4.74,1.854,6.382c1.168,2.092,2.623,3.939,4.237,5.7
			c0.91,0.992,1.896,1.914,2.886,2.822c0.341,0.312,1.384,1.521,1.842,1.521c4.646,0.002,9.295,0.004,13.94,0.006
			c-0.094,0-0.221-0.926-0.375-0.926c-4.036-0.002-8.071-0.005-12.106-0.007c-0.61,0-1.226,0-1.835,0
			c-0.908-0.001-2.938-2.541-3.593-3.177c-1.721-1.68-3.262-3.524-4.584-5.531c-0.487-0.74-3.037-5.067-1.619-6.347
			c0.854-0.771,3.158,0.529,3.928,0.887c2.434,1.124,4.729,2.562,6.996,3.98c2.316,1.45,4.595,2.969,6.875,4.477
			c2.744,1.813,4.742,2.82,6.105,6.188C1088.452,166.55,1088.493,166.534,1088.281,166.009z"/>
	</g>
</g>
<g>
	<path fill="#308064" d="M1007.323,166.017c0,0-0.979-29.86,13.729-47.46c4-4.785,4.688,27.177,0.25,41.177
		c-1.38,4.351-1.38,4.351-2.006,6.283H1007.323z"/>
	<g>
		<path d="M1007.812,166.126c-0.179-5.71,0.438-11.506,1.349-17.131c1.751-10.82,5.344-21.763,12.381-30.329
			c0.375-0.458,0.896-0.335,0.065-0.635c0.317,0.113,0.517,0.526,0.658,0.803c0.582,1.116,0.758,2.488,0.95,3.714
			c0.651,4.158,0.683,8.438,0.638,12.636c-0.104,9.781-1.354,19.172-4.323,28.487c-0.21,0.658-0.375,2.234-1.11,2.234
			c-1.364,0-2.729,0-4.095,0c-2.488,0-4.979,0-7.47,0c0.211,0,0.642,0.223,0.938,0.223c3.989,0,7.98,0,11.975,0
			c0.007-0.001,0.013-0.002,0.02-0.002c1.246-3.854,2.55-7.679,3.321-11.66c0.947-4.883,1.368-9.874,1.604-14.837
			c0.217-4.628,0.208-9.283-0.175-13.902c-0.172-2.062-0.152-5.756-1.764-7.351c-3.353-3.318-10.271,14.088-11.02,16.18
			c-3.1,8.655-4.513,17.962-4.87,27.126c-0.058,1.405-0.092,2.819-0.048,4.229C1006.84,166.027,1007.811,166.082,1007.812,166.126z"
			/>
	</g>
</g>
<g>
	<path fill="#E1B6E1" d="M897.281,58.532c0,0-17.29-21.639-21.043-21.747c-3.164-0.095-2.048,4.437-0.985,6.345
		c0.849,1.529-3.092,1.838-3.155,4.038c-0.137,4.758,6.69,10.824,10.646,12.399s12.652,3.501,15.423,2.894
		C900.938,61.849,897.281,58.532,897.281,58.532z"/>
	<g>
		<path d="M897.078,58.095c-3.805-4.758-7.753-9.414-11.877-13.896c-2.264-2.46-4.595-5.017-7.313-6.983
			c-0.909-0.658-1.683-1.042-2.812-0.734c-1.908,0.521-0.981,3.803-0.581,5c0.278,0.83,0.986,1.515,0.298,2.281
			c-1.296,1.442-3.354,1.51-2.837,4.01c0.672,3.225,2.803,5.96,5.109,8.202c3.859,3.75,8.57,5.153,13.716,6.241
			c1.404,0.298,10.019,2.301,8.347-1.292c-0.507-1.087-1.18-2.023-2.062-2.844c0.217,0.201,0.197,0.686,0.432,0.899
			c4.203,3.9-2.848,3.076-5.159,2.704c-4.314-0.691-8.963-1.702-12.65-4.145c-3.264-2.163-10.773-8.879-5.453-12.194
			c0.848-0.528,1.611-0.958,1.146-1.999c-0.687-1.521-1.234-3.12-0.863-4.804c0.683-3.083,4.293-0.104,5.348,0.797
			c2.701,2.312,5.106,4.995,7.479,7.634c3.499,3.895,6.878,7.904,10.146,11.991C897.354,58.801,897.265,58.326,897.078,58.095z"/>
	</g>
</g>
<g>
	<path fill="#E1B6E1" d="M900.104,67.331c0,0-7.434,15.826-11.036,18.479c-3.601,2.647-17.114,6.669-19.564,4.217
		c-2.452-2.452-1.999-9.635,2.341-12.919c4.338-3.283,9.883-6.438,16.26-7.708C894.48,68.131,900.104,67.331,900.104,67.331z"/>
	<g>
		<path d="M899.773,66.955c-2.347,4.982-4.875,9.943-7.86,14.577c-1.542,2.392-3.046,4.05-5.633,5.27
			c-3.403,1.605-7.156,2.661-10.856,3.302c-1.523,0.266-3.099,0.412-4.639,0.217c-1.756-0.223-2.122-1.716-2.363-3.273
			c-0.668-4.295,1.624-8.035,4.964-10.454c8.082-5.853,17.384-7.5,27.05-8.885C900.277,67.729,899.977,66.926,899.773,66.955
			c-10.218,1.465-21.377,3.164-29.195,10.601c-3.396,3.229-4.817,13.103,1.637,13.593c3.9,0.301,8.154-1.124,11.777-2.4
			c3.058-1.078,5.57-2.283,7.519-4.91c3.625-4.896,6.338-10.633,8.925-16.129C900.5,67.564,899.729,67.051,899.773,66.955z"/>
	</g>
</g>
<g>
	<path fill="#E1B6E1" d="M879.663,56.879c0,0-18.528-0.568-19.322,0.623c-0.796,1.195-1.259,2.367,0.101,3.078
		c1.355,0.712-2.996,0.186-2.766,2.179c0.229,1.993,2.997,5.688,6.699,6.736c3.7,1.047,9.327,4.253,13.825,4.106
		c4.498-0.146,23.253-8.055,22.564-8.631C900.08,64.394,879.663,56.879,879.663,56.879z"/>
	<g>
		<path d="M879.412,56.448c-4.6-0.142-9.208-0.204-13.809-0.074c-1.235,0.035-4.549-0.318-5.517,0.694
			c-0.604,0.636-0.998,1.759-0.551,2.562c0.354,0.63,0.944,0.905,1.268,1.407c-0.118-0.223-0.235-0.442-0.354-0.664
			c-0.59,0.931-2.476,0.152-3.017,1.585c-0.342,0.901,0.746,2.429,1.188,3.164c2.602,4.303,7.515,5.303,11.89,7.025
			c2.562,1.012,5.369,2.031,8.167,1.872c1.559-0.089,3.134-0.645,4.609-1.1c4.146-1.278,8.201-2.904,12.187-4.621
			c0.51-0.219,5.851-2.312,5.506-3.003c-0.65-1.301-2.242-1.556-3.521-2.062c-5.974-2.356-12.009-4.566-18.033-6.786
			C879.423,56.451,879.419,56.449,879.412,56.448c0.207,0.074,0.237,0.767,0.504,0.862c3.436,1.267,6.865,2.542,10.294,3.83
			c2.351,0.883,4.696,1.771,7.038,2.685c1.195,0.466,2.701,0.838,3.771,1.578c-0.135-0.212-0.269-0.424-0.401-0.637
			c0.021,0.034-6.394,2.994-7.008,3.253c-4.079,1.724-8.244,3.342-12.511,4.537c-4.923,1.379-9.315-0.559-13.886-2.392
			c-3.532-1.417-7.927-2.361-9.217-6.604c-0.698-2.296,2.307-1.299,2.955-2.323c0.059-0.091-0.305-0.587-0.354-0.664
			c-2.666-4.175,5.965-3.36,7.933-3.388c3.794-0.051,7.595,0.008,11.387,0.123C879.782,57.308,879.627,56.454,879.412,56.448z"/>
	</g>
</g>
<g>
	<path fill="#E1B6E1" d="M898.424,64.477c0,0-3.38-6.16-4.74-12.354c-1.391-6.331-1.729-16.787,0.377-23.117
		c1.67-5.033,3.161-1.843,3.161-1.843s1.908-3.397,2.896-3.43c0.987-0.031,2.387,1.925,2.438,3.591
		c0.054,1.666,3.646-0.617,3.979,4.54s-1.764,33.214-2.555,34.587C903.193,67.824,900.451,65.122,898.424,64.477z"/>
	<g>
		<path d="M898.922,64.427c-3.392-6.234-5.271-12.944-5.745-20.009c-0.29-4.3-0.131-8.678,0.703-12.91
			c0.224-1.126,1.524-6.954,2.845-4.296c0.028,0.059,0.951-0.022,0.994-0.101c0.505-0.885,1.068-1.729,1.707-2.523
			c1.229-1.538,2.231,1.058,2.553,2.151c0.245,0.84,0.057,1.188,0.994,1.395c1.097,0.241,1.844,0.427,2.486,1.405
			c0.973,1.479,0.629,4.085,0.587,5.789c-0.063,2.633-0.212,5.264-0.365,7.894c-0.33,5.624-0.75,11.244-1.297,16.854
			c-0.175,1.794-0.354,3.594-0.646,5.373c-0.058,0.347-0.102,0.732-0.254,1.056C903.241,67.007,899.791,64.763,898.922,64.427
			c-0.291-0.111-0.739,0.197-0.996,0.1c1.971,0.76,3.699,2.707,5.941,2.271c1.184-0.229,1.068-2.812,1.174-3.676
			c0.803-6.637,1.233-13.33,1.635-19.999c0.18-2.982,0.337-5.971,0.389-8.957c0.033-2.052,0.268-5.405-2.293-5.978
			c-1.729-0.386-1.493-0.508-1.982-2.184c-0.294-1.009-1.229-2.398-2.422-2.319c-1.863,0.124-2.799,2.046-3.643,3.524
			c0.331-0.032,0.663-0.065,0.994-0.101c-0.535-1.078-1.326-1.062-2.354-0.874c-1.359,0.249-1.876,3.011-2.167,4.051
			c-0.725,2.581-0.951,5.305-1.083,7.971c-0.452,9.18,1.414,18.175,5.812,26.267C898.006,64.671,898.879,64.349,898.922,64.427z"/>
	</g>
</g>
<g>
	<path fill="#E1B6E1" d="M898.754,60.961c0,0,19.237-23.966,22.852-25.75c2.473-1.222,2.705,1.495,2.736,2.494
		c0.033,0.999,2.617-0.397,3.387-0.044c1.396,0.643,0.238,3.515-0.4,4.37c-0.641,0.854,2.351,0.089,0.961,3.804
		c-1.386,3.713-6.18,9.316-7.221,10.256c-2.836,2.557-9.911,6.805-14.365,8.282C902.244,65.85,897.551,65.002,898.754,60.961z"/>
	<g>
		<path d="M898.906,61.437c3.688-4.592,7.445-9.129,11.268-13.609c2.592-3.041,5.214-6.065,7.982-8.945
			c1.1-1.141,5.812-6.146,6.027-1.632c0.01,0.193,0.248,1.111,0.409,1.182c0.767,0.322,1.777-0.157,2.554-0.314
			c1.834-0.376,0.632,2.368,0.229,3.128c-0.32,0.604-0.293,0.749-0.041,1.398c0.086,0.219,0.214,0.294,0.42,0.403
			c1.195,0.639,0.613,1.727,0.179,2.808c-1.588,3.938-4.871,8.111-8.213,10.748c-4.288,3.381-9.859,6.773-15.276,7.818
			C902.171,64.857,898.161,64.649,898.906,61.437c0.068-0.295-0.366-0.699-0.31-0.951c-0.694,2.998,1.136,4.873,4.157,5.039
			c5.44,0.302,11.521-3.967,15.785-6.888c3.77-2.581,6.625-6.333,8.904-10.253c0.923-1.586,2.388-4.872,0.188-6.19
			c-0.644-0.385,0.02,0-0.152,0.312c0.221-0.403,0.445-0.773,0.634-1.198c0.268-0.602,0.556-1.497,0.411-2.175
			c-0.16-0.758-0.303-1.467-0.952-1.946c-0.522-0.388-2.091,0.299-2.664,0.396c-0.502,0.087-0.411,0.452-0.453-0.038
			c-0.022-0.277-0.084-0.522-0.142-0.796c-0.114-0.533-0.358-1.522-0.793-1.897c-1.923-1.661-5.1,2.477-6.225,3.654
			c-2.814,2.955-5.476,6.062-8.117,9.173c-3.587,4.218-7.113,8.49-10.581,12.808C898.465,60.653,898.997,61.324,898.906,61.437z"/>
	</g>
</g>
<g>
	<path fill="#E1B6E1" d="M910.746,58.958c0,0,27.489-0.537,32.916,4.63c2.191,2.089-0.548,2.378-1.534,2.784
		c-0.989,0.404,3.59,2.76-3.582,5.286c-7.141,2.51-16.915,6.756-31.604-2.776c-14.688-9.53-5.688-9.617-5.688-9.617L910.746,58.958z
		"/>
	<g>
		<path d="M910.396,59.007c6.568-0.123,13.19,0.131,19.72,0.86c3.864,0.432,8.057,0.961,11.566,2.736
			c1.201,0.607,3.462,2.312,1.415,3.31c-1.188,0.58-1.935,0.206-1.209,1.554c1.854,3.462-6.384,5.166-8.631,5.869
			c-7.258,2.271-14.243,1.436-21.018-1.767c-3.174-1.5-6.139-3.502-8.93-5.616c-1.5-1.138-3.154-2.452-4.046-4.153
			c-0.737-1.409,0.603-2.471,1.634-2.487C904.066,59.261,907.232,59.109,910.396,59.007c0.123-0.004,1.084-0.11,0.701-0.099
			c-3.712,0.118-7.817-0.309-11.47,0.539c-1.784,0.411-1.856,1.781-0.912,3.167c1.191,1.75,3.109,3.073,4.791,4.306
			c3.108,2.281,6.443,4.251,10.005,5.741c7.765,3.25,15.689,2.419,23.422-0.29c1.944-0.684,4.084-1.239,5.631-2.663
			c1.039-0.955,0.442-1.98-0.041-2.997c-0.204-0.43,2.265-0.943,2.468-1.816c0.312-1.333-2.744-2.604-3.621-2.96
			c-5.521-2.23-12.032-2.453-17.901-2.776c-4.113-0.229-8.248-0.326-12.368-0.248C910.975,58.911,910.014,59.015,910.396,59.007z"/>
	</g>
</g>
<g>
	<path fill="#E1B6E1" d="M894.693,73.071c0,0-1.262,11.007-0.023,18.346c0.504,2.98,2.594,10.42,5.465,10.453
		c2.869,0.029,2.244-1.66,3.346-0.572c1.101,1.093,2.965,2.619,4.144,0.343c0.715-1.384,1.3-2.429,2.694-1.726
		c1.398,0.707,2.357-8.328,0.836-12.907s-7.658-18.263-7.658-18.263s-6.061-2.755-6.895-1.479
		C895.765,68.543,894.693,73.071,894.693,73.071z"/>
	<g>
		<path d="M894.253,72.834c-0.973,8.616-1.694,18.954,2.856,26.733c1.147,1.965,3.687,3.479,5.798,1.854
			c0.287-0.222,0.396-0.129,0.143-0.35c0.435,0.378,0.831,0.743,1.302,1.078c0.275,0.196,0.614,0.35,0.908,0.506
			c1.867,0.992,2.568-0.521,3.507-2.001c0.669-1.059,1.347-0.296,2.282-0.499c0.453-0.102,0.651-1.119,0.752-1.456
			c0.684-2.349,0.639-4.998,0.5-7.41c-0.25-4.369-2.381-8.49-4.062-12.455c-1.39-3.273-2.815-6.53-4.271-9.776
			c-0.491-1.101-4.144-1.812-5.004-2.06c-1.326-0.378-2.523-0.653-3.176,0.752C895.057,69.339,894.657,71.14,894.253,72.834
			c-0.026,0.114,0.894,0.424,0.881,0.475c0.354-1.479,0.802-5.387,2.302-6.075c1.599-0.731,4.97,1.065,6.434,1.727
			c-0.271-0.149-0.544-0.301-0.813-0.451c2.433,5.43,4.854,10.88,6.994,16.432c1.354,3.519,1.636,7.102,1.288,10.847
			c-0.109,1.189-0.225,2.84-1.027,3.804c-0.234,0.282-1.182-0.112-1.593-0.082c-0.886,0.066-1.554,1.924-1.951,2.521
			c-1.581,2.371-3.084-2.055-4.553-1.228c-1.813,1.022-2.957,1.16-4.221-0.757c-1.077-1.643-1.683-3.635-2.222-5.505
			c-1.938-6.729-1.413-14.342-0.638-21.229C895.151,73.154,894.24,72.925,894.253,72.834z"/>
	</g>
</g>
<g>
	<path fill="#E1B6E1" d="M916.323,69.206c0,0,18.995,18.302,16.272,27.361c-0.604,2.006-5.688,0.932-8.497,0.272
		c-3.778-0.877-13.402-8.446-16.442-13.477c-3.038-5.029-11.016-15.266-4.701-18.466C906.646,63.028,916.323,69.206,916.323,69.206z
		"/>
	<g>
		<path d="M916.525,69.664c4.197,4.057,8.067,8.562,11.399,13.353c2.538,3.648,5.711,8.449,4.47,13.096
			c-0.834,3.115-9.364,0.104-11.188-0.881c-4.418-2.386-8.49-5.953-11.797-9.699c-1.414-1.605-2.47-3.467-3.628-5.256
			c-1.964-3.032-4.194-6.248-4.891-9.844c-0.375-1.938,0.192-3.67,1.806-4.812c1.512-1.073,3.604-0.546,5.229-0.083
			C910.948,66.399,913.878,67.984,916.525,69.664c-0.215-0.138-0.156-0.757-0.404-0.915c-2.815-1.787-5.891-3.354-9.104-4.271
			c-4.175-1.189-7.277,1.185-6.429,5.584c0.621,3.221,2.574,6.326,4.27,9.06c2.521,4.063,5.055,7.759,8.604,11.003
			c3.364,3.074,7.365,6.409,11.913,7.419c2.071,0.461,4.672,1.116,6.721,0.274c1.332-0.546,1.001-3.062,0.853-4.182
			c-0.911-6.817-6.365-13.236-10.627-18.233c-1.964-2.303-4.021-4.551-6.2-6.654C916.329,68.951,916.296,69.442,916.525,69.664z"/>
	</g>
</g>
<g>
	<polygon fill="#F2E44A" points="899.62,56.901 898.011,55.729 898.051,56.953 895.585,56.42 896.556,59.448 893.761,59.54 
		895.554,60.88 892.814,62.718 895.113,63.518 892.927,66.212 896.946,66.082 897.232,69.571 898.558,67.255 900.028,69.481 
		901.009,67.351 903.523,69.368 903.407,65.874 905.879,66.494 905.777,63.35 904.87,62.416 905.692,60.729 903.213,59.758 
		905.604,57.933 901.754,57.882 903.076,55.566 	"/>
	<g>
		<path d="M900.069,57.082c-0.537-0.393-1.074-0.781-1.611-1.172c-0.094-0.069-0.905-0.353-0.906-0.375
			c0.015,0.434,0.292,1.271-0.325,1.139c-0.692-0.148-1.387-0.299-2.08-0.448c-0.007,0-0.014,0-0.021,0
			c0.313,0.98,0.632,1.962,0.944,2.943c0.018,0.056-2.446,0.166-2.748,0.175c-0.023-0.004-0.025,0.002-0.008,0.016
			c0.373,0.279,2.026,1.16,1.495,1.519c-0.817,0.549-1.638,1.099-2.455,1.646c0.03-0.021,0.692,0.324,0.776,0.354
			c0.768,0.268,1.532,0.533,2.301,0.8c-0.262-0.117-0.521-0.234-0.777-0.353c-0.729,0.896-1.457,1.796-2.188,2.692
			c0.007-0.009,0.782,0.396,0.899,0.392c1.34-0.043,2.682-0.087,4.021-0.132c-0.302-0.13-0.603-0.26-0.901-0.39
			c0.097,1.162,0.191,2.325,0.287,3.488c0.008,0.095,0.903,0.421,0.922,0.391c0.441-0.771,0.884-1.544,1.324-2.314
			c-0.31-0.132-0.613-0.262-0.922-0.392c0.488,0.741,0.979,1.483,1.471,2.229c0.061,0.09,0.903,0.429,0.922,0.39
			c0.326-0.71,0.653-1.421,0.98-2.131c-0.305-0.125-0.605-0.25-0.908-0.375c0.838,0.672,1.678,1.346,2.516,2.018
			c0.095,0.076,0.906,0.348,0.908,0.375c-0.035-1.062-0.07-2.126-0.104-3.188c-0.02-0.562,1.979,0.201,2.438,0.314
			c0.008,0,0.015,0,0.021,0c-0.033-1.048-0.067-2.097-0.103-3.145c-0.012-0.316-1.043-0.653-0.846-1.061
			c0.253-0.521,0.506-1.04,0.76-1.562c0.017-0.033-0.533-0.26-0.57-0.273c-0.827-0.322-1.651-0.646-2.479-0.971
			c0.188,0.091,0.382,0.185,0.569,0.273c0.798-0.608,1.595-1.219,2.393-1.826c-0.054,0.04-0.754-0.388-0.901-0.39
			c-1.282-0.019-2.564-0.034-3.849-0.052c0.3,0.13,0.601,0.262,0.898,0.392c0.441-0.771,0.885-1.544,1.324-2.315
			c0-0.002-0.807-0.435-0.922-0.391c-1.15,0.443-2.305,0.892-3.456,1.335c0.188-0.073,0.672,0.484,0.922,0.391
			c1.151-0.445,2.306-0.892,3.456-1.335c-0.309-0.131-0.612-0.261-0.922-0.391c-0.439,0.771-0.883,1.544-1.324,2.314
			c-0.013,0.021,0.801,0.391,0.9,0.392c1.283,0.018,2.566,0.032,3.85,0.05c-0.3-0.13-0.602-0.26-0.899-0.39
			c-0.796,0.607-1.595,1.217-2.392,1.824c0.012-0.007,0.527,0.259,0.571,0.273c0.827,0.324,1.652,0.646,2.479,0.972
			c-0.19-0.092-0.383-0.184-0.571-0.272c-0.272,0.562-0.547,1.125-0.819,1.688c0.005,0.005,0.009,0.01,0.016,0.017
			c1.072,1.106,0.923,1.859,0.972,3.384c0.039,1.22-1.562,0.274-2.428,0.06c-0.009,0-0.016,0-0.021,0
			c0.038,1.165,0.075,2.328,0.113,3.493c0.304,0.125,0.604,0.25,0.908,0.375c-0.838-0.672-1.679-1.345-2.517-2.017
			c-0.076-0.062-0.884-0.43-0.908-0.375c-0.324,0.71-0.651,1.421-0.979,2.131c0.309,0.13,0.614,0.26,0.923,0.39
			c-0.49-0.741-0.979-1.481-1.472-2.227c-0.061-0.088-0.895-0.44-0.922-0.392c-0.44,0.771-0.885,1.544-1.324,2.315
			c0.309,0.13,0.614,0.261,0.922,0.391c-0.096-1.163-0.189-2.326-0.286-3.487c-0.011-0.111-0.785-0.396-0.899-0.392
			c-1.342,0.043-2.682,0.086-4.021,0.13c0.3,0.13,0.602,0.262,0.9,0.392c0.729-0.898,1.457-1.796,2.188-2.694
			c0.009-0.012-0.713-0.331-0.777-0.354c-0.767-0.268-1.531-0.531-2.3-0.8c0.261,0.118,0.521,0.234,0.778,0.354
			c0.912-0.613,1.825-1.228,2.738-1.838c-0.005-0.005-0.011-0.012-0.016-0.017c-0.312-0.233-1.408-1.338-1.703-1.328
			c0.899-0.027,1.801-0.06,2.698-0.088c0.007,0,0.016,0,0.021,0c-0.29-0.903-0.58-1.81-0.869-2.713
			c-0.184-0.562,1.891,0.119,2.345,0.218c0.007,0,0.014,0,0.021,0c-0.016-0.406-0.027-0.813-0.04-1.224
			c-0.305-0.125-0.604-0.25-0.907-0.375c0.536,0.392,1.073,0.781,1.609,1.173C899.412,56.895,899.904,56.961,900.069,57.082z"/>
	</g>
</g>
<g>
	<path fill="#308064" d="M986.617,29.651c0,0,2.096-6.529,2.964,0c1.5,11.278,2.317,22.142,8.156,35.852
		c9.532,22.382,9.993,35.997,9.993,46.084c0,12.965-13.764,57.632-13.764,57.632h-4c0,0,13.641-36.97,13.641-60.949
		C1003.609,84.384,988.617,61.281,986.617,29.651"/>
	<g>
		<path d="M987.115,29.712c0.289-0.881,0.775-2.67,1.811-2.902c-0.325-0.038-0.65-0.076-0.978-0.114
			c1.626,0.404,1.546,6.058,1.715,7.393c0.414,3.277,0.85,6.552,1.39,9.812c1.174,7.084,3.102,13.979,5.812,20.632
			c4.71,11.56,8.693,23.226,9.92,35.715c0.686,6.976,0.571,13.73-0.708,20.617c-1.639,8.817-3.959,17.521-6.313,26.171
			c-1.807,6.627-2.516,9.562-4.478,16.146c-0.521,1.752-1.05,3.502-1.585,5.25c-0.458,1.497-2.843,0.726-4.205,0.726
			c0.323,0.042,0.648,0.085,0.975,0.127c5.442-14.936,8.729-26.767,11.636-42.393c1.997-10.737,2.651-21.272,0.592-32.058
			c-2.309-12.085-6.785-23.668-10.141-35.479C989.8,49.659,987.791,39.779,987.115,29.712c-0.008-0.098-0.989-0.096-0.992-0.123
			c0.926,13.743,4.475,26.95,8.564,40.044c3.527,11.29,7.423,22.646,8.286,34.522c0.775,10.676-1.428,21.551-3.811,31.899
			c-2.226,9.667-3.825,15.541-6.91,24.967c-0.892,2.723-1.803,5.439-2.781,8.132c-0.003,0.009,0.878,0.128,0.975,0.128
			c1.334,0,2.667,0,4,0c0.006-0.002,0.014-0.004,0.02-0.005c3.979-12.867,6.483-22.183,9.71-35.26
			c1.749-7.09,3.794-14.504,4.046-21.843c0.307-8.896-0.875-17.883-3.038-26.493c-1.729-6.89-4.187-13.584-6.947-20.12
			c-2.93-6.933-4.92-14.132-6.19-21.541c-0.562-3.257-0.974-6.536-1.389-9.812c-0.146-1.16-0.163-7.015-1.562-7.361
			c-1.896-0.472-2.431,1.088-2.973,2.741C986.132,29.562,987.085,29.805,987.115,29.712L987.115,29.712z"/>
	</g>
</g>
<g>
	<path fill="#308064" d="M978.414,48.399c0,0,0.485-7.292-0.858-13.122c0,0,4.312,7.774,3.612,14.276
		C980.886,52.167,978.414,48.399,978.414,48.399z"/>
	<g>
		<path d="M978.712,48.801c0.274-4.365,0.058-8.844-0.86-13.122c-0.196-0.262-0.393-0.523-0.589-0.787
			c1.094,1.996,1.92,4.145,2.604,6.308c0.664,2.106,1.032,4.281,1.081,6.489c0.047,2.128-0.729,3.346-2.31,0.985
			c-0.069-0.101-0.66-0.866-0.447-0.549c0.37,0.554,0.763,1.107,1.202,1.609c0.348,0.397,0.697,0.756,1.142,1.043
			c1.11,0.721,0.993-1.887,1.005-2.282c0.111-4.34-1.631-9.064-3.694-12.834c-0.126-0.232-0.536-0.552-0.588-0.787
			c0.918,4.277,1.136,8.756,0.859,13.122C978.102,48.273,978.727,48.574,978.712,48.801z"/>
	</g>
</g>
<g>
	<path fill="#308064" d="M962.743,45.499c0,0,13.328-0.115,16.67,2.742c3.343,2.857-0.99,2.865-0.99,2.865
		S971.246,47.006,962.743,45.499z"/>
	<g>
		<path d="M962.281,45.634c2.447-0.017,4.901,0.111,7.338,0.324c2.988,0.263,6.85,0.501,9.312,2.418
			c0.79,0.616,2.14,2.397,0.291,2.58c-0.627,0.062-1.301-0.508-1.836-0.779c-4.464-2.25-9.253-3.887-14.163-4.812
			c-0.304-0.058-0.684,0.322-0.962,0.27c5.323,1.003,10.504,2.845,15.283,5.391c0.784,0.419,2.508,0.104,3.219-0.479
			c1.354-1.116-1.195-2.745-2.111-3.19c-1.947-0.947-4.282-1.219-6.403-1.485c-2.987-0.381-6.031-0.522-9.044-0.502
			C962.914,45.367,962.493,45.633,962.281,45.634z"/>
	</g>
</g>
<g>
	<path fill="#308064" d="M983.2,46.732c2.146-4.786,9.905-5.542,9.905-5.542c-3.282-2.747-9.566,0.535-11.312,4.08
		C980.047,48.813,982.985,47.215,983.2,46.732z"/>
	<g>
		<path d="M983.695,46.649c1.606-3.211,5.534-5.017,8.987-5.378c0.146-0.015,0.822-0.233,0.917-0.164
			c-3.238-2.379-8.108-0.227-10.686,2.119c-0.547,0.497-3.527,4.643-1.387,4.347C982.287,47.467,983.216,47.324,983.695,46.649
			c-0.127,0.179-0.842-0.037-0.984,0.169c-0.258,0.363-0.742,0.798-0.964,0.229c-0.406-1.06,1.135-2.867,1.757-3.58
			c2.157-2.484,6.184-4.338,9.11-2.189c0.308-0.055,0.611-0.108,0.918-0.164c-4.041,0.42-8.882,1.826-10.821,5.706
			C982.787,46.658,983.6,46.841,983.695,46.649z"/>
	</g>
</g>
<g>
	<path fill="#F2E44A" d="M995.147,50.789c0,0,8.562-1.418,12.597,7.854c2.771,6.363,0.905,18.867-7.556,19.555
		c-7.576,0.613-11.811-6.517-12.241-15.513C987.548,54.373,989.086,51.866,995.147,50.789z"/>
	<g>
		<path d="M995.383,51.23c5.237-0.812,10.371,2.726,12.316,7.461c2.229,5.418,1.146,13.588-3.521,17.438
			c-2.284,1.886-5.546,1.999-8.261,1.147c-4.771-1.492-6.721-6.753-7.451-11.25c-0.561-3.424-0.827-7.736,0.6-11.013
			C990.155,52.509,992.931,51.698,995.383,51.23c-0.054,0.012-0.331-0.907-0.473-0.883c-3.413,0.648-6.011,1.951-6.896,5.519
			c-1.08,4.357-0.323,9.788,1.145,13.952c2.154,6.111,8.562,11.647,15.092,7.481c5.764-3.679,6.11-13.743,3.255-19.266
			c-2.42-4.676-6.976-8.562-12.596-7.688C994.975,50.337,995.231,51.253,995.383,51.23z"/>
	</g>
</g>
<g>
	<path fill="#EBBB25" d="M980.948,46.185c0,0,9.235-1.722,12.334,7.618c2.187,6.589,3.154,17.202-5.022,19.483
		c-6.398,1.784-12.335-3.042-14.075-11.88C972.578,53.241,975.108,48.134,980.948,46.185z"/>
	<g>
		<path d="M981.131,46.65c3.418-0.604,7.087,0.554,9.568,2.932c3.005,2.877,3.752,7.999,3.924,12.018
			c0.13,3.053-0.46,6.213-2.398,8.646c-4.516,5.665-12.415,2.418-15.679-2.601C972.085,60.787,972.622,49.692,981.131,46.65
			c0.027-0.01-0.317-0.946-0.364-0.931c-8.242,2.947-8.349,12.259-5.576,19.327c1.22,3.112,2.972,5.904,5.845,7.728
			c3.484,2.213,8.277,1.609,11.209-1.219c4.781-4.609,2.764-13.936,0.475-19.286c-1.987-4.648-6.914-7.443-11.951-6.551
			C980.791,45.715,981.03,46.669,981.131,46.65z"/>
	</g>
</g>
<g>
	<path fill="#308064" d="M983.372,31.886c0,0,3.594-18.008,13.298-16.341c9.703,1.667,12.036,2.667,17.37,1.333
		c5.332-1.333,30.332-9.333,30.666-11.333S984.653,54.476,983.372,31.886z"/>
	<g>
		<path d="M983.781,32.176c1.104-5.45,3.456-12.229,8.33-15.371c1.488-0.96,3.236-1.213,4.966-0.97
			c3.118,0.438,6.192,1.179,9.309,1.655c3.563,0.546,6.812,0.062,10.243-0.92c8.038-2.306,16.093-4.912,23.823-8.105
			c0.283-0.117,5.081-2.266,4.636-2.693c-0.662-0.638-0.892-0.629-1.607-0.176c-3.729,2.354-7.188,5.2-10.746,7.799
			c-5.863,4.28-11.802,8.468-17.915,12.387c-5.823,3.729-11.861,7.354-18.334,9.852c-3.155,1.216-9.868,3.667-11.978-0.379
			C984.016,34.31,983.854,33.22,983.781,32.176c-0.017-0.23-0.803-0.393-0.812-0.58c0.76,11.077,15.089,4.572,20.553,1.81
			c12.489-6.316,23.842-14.86,35.074-23.141c1.523-1.124,3.046-2.254,4.598-3.344c0.308-0.217,1.474-1.278,1.906-1.138
			c-0.269-0.188-0.535-0.377-0.803-0.565c0.368,0.354-3.688,2.253-3.898,2.346c-3.377,1.471-6.87,2.684-10.351,3.884
			c-6.072,2.097-12.481,4.702-18.877,5.621c-3.784,0.544-7.697-0.502-11.396-1.187c-4.17-0.771-7.286-1.213-10.479,1.975
			c-3.484,3.477-5.368,8.997-6.328,13.739C982.936,31.753,983.803,32.07,983.781,32.176z"/>
	</g>
</g>
<g>
	<path fill="#308064" d="M934.827,11.907c0,0,11.896,21.415,23.438,24.188c33.624,8.077,21.876-5.712,22.091-6.955
		c1.404-8.134,3.806-12.92-1.854-12.179c-5.662,0.74-5.946,4.172-8.595-0.118c-2.646-4.29-11.314-7.309-18.621-7.65
		C943.98,8.85,934.827,11.907,934.827,11.907z"/>
	<g>
		<path d="M934.37,11.704c3.408,6.111,7.638,11.959,12.516,16.975c2.616,2.688,5.586,5.1,9.03,6.634
			c4.341,1.932,9.48,2.558,14.156,3.157c3.162,0.405,12.236,1.709,12.556-3.5c0.077-1.31-0.483-2.623-1.026-3.78
			c-0.918-1.95-0.692-2.498-0.193-4.914c0.621-3.008,2.789-8.027-1.096-9.418c-2.229-0.798-5.062,0.509-7.047,1.448
			c-1.483,0.704-2.062,0.039-2.899-1.259c-0.729-1.131-1.688-1.99-2.756-2.79C958.24,7.247,944.834,8.246,934.37,11.704
			c0.211-0.069,0.661,0.489,0.914,0.405c4.307-1.423,8.841-2.35,13.358-2.681c6.756-0.493,16.806,1.232,20.807,7.209
			c1.211,1.81,2.55,3.062,4.729,2.072c2.066-0.941,4.288-1.865,6.616-1.558c1.475,0.195,0.646,4.062,0.507,4.845
			c-0.392,2.172-1.541,4.825-1.4,7.019c0.021,0.351,0.284,0.736,0.437,1.041c0.561,1.142,1.104,2.294,1.318,3.559
			c0.863,5.106-6.477,4.911-9.66,4.722c-2.277-0.138-4.546-0.489-6.793-0.881c-3.37-0.586-7.231-1.07-10.274-2.697
			c-3.916-2.094-7.131-5.486-9.993-8.813c-3.646-4.238-6.922-8.945-9.646-13.833C935.146,11.865,934.49,11.917,934.37,11.704z"/>
	</g>
</g>
<g>
	<g>
		<path d="M976.734,25.298c-7.965,3.166-15.876-0.371-22.866-4.284c-2.726-1.523-5.396-3.152-8.205-4.52
			c-1.138-0.554-2.438-1.21-3.726-1.229c0.286,0.004,0.597,0.403,0.913,0.407c2.147,0.027,4.296,1.649,6.143,2.689
			s3.678,2.104,5.528,3.128c2.407,1.333,4.87,2.622,7.42,3.671c4.851,1.996,10.736,2.518,15.707,0.541
			C977.46,25.781,976.974,25.203,976.734,25.298L976.734,25.298z"/>
	</g>
</g>
<g>
	<g>
		<path d="M991.084,27.84c9.818-0.032,20.075-3.486,28.199-8.854c0.088-0.059-0.401-0.912-0.396-0.919
			c-8.123,5.363-18.38,8.818-28.2,8.854C990.773,26.921,990.91,27.841,991.084,27.84L991.084,27.84z"/>
	</g>
</g>
<g>
	<path fill="#308064" d="M209.913,107.352c-5.203,4.814-9.613-7.557-24.461,6.385c-3.59,3.369-18.886,20.062-18.886,20.062
		c1.417-10.148,4.102-22.049,8.553-26.664c2.587-2.684,9.826-10.318,15.981-13.838c0,0,7.594-2.719,13.941,2.834
		C206.852,97.715,212.158,105.276,209.913,107.352z"/>
	<g>
		<path fill="#1B1B1B" d="M209.632,106.94c-2.718,2.377-5.956,0.285-8.967-0.301c-6.2-1.205-11.877,3.146-16.035,7.205
			c-6.383,6.232-12.318,12.967-18.343,19.543c0.188,0.275,0.375,0.551,0.562,0.826c1.051-7.389,2.396-14.98,5.467-21.83
			c2.335-5.207,7.232-9.238,11.413-12.953c2.131-1.896,4.937-4.777,7.683-5.729c1.722-0.597,3.619-0.703,5.423-0.627
			c3.517,0.145,7.091,1.768,9.397,4.432C207.51,98.981,211.766,104.496,209.632,106.94c-0.079,0.091,0.593,0.791,0.562,0.826
			c2.438-2.793-2.833-9.146-4.693-11.299c-3.246-3.746-10.722-5.914-15.258-3.24c-3.608,2.123-6.785,5.029-9.816,7.89
			c-2.377,2.241-5.005,4.565-6.901,7.248c-2.224,3.143-3.393,7.075-4.417,10.739c-1.306,4.674-2.138,9.482-2.818,14.283
			c-0.021,0.135,0.589,0.797,0.562,0.826c6.028-6.578,11.991-13.273,18.343-19.543c4.131-4.076,9.552-8.113,15.677-7.267
			c3.153,0.438,6.479,2.853,9.325,0.359C210.252,107.715,209.63,106.94,209.632,106.94z"/>
	</g>
</g>
<g>
	<path fill="#308064" d="M218.499,104.531c10.148-4.25,21.244,0,25.021,43.901c0.193,2.242-14.163-4.721-14.516-23.512
		c-0.151-8.062-10.355-11.57-11.5-13.25C217.504,111.672,216.639,105.309,218.499,104.531z"/>
	<g>
		<path fill="#1B1B1B" d="M218.697,104.99c14.371-5.925,19.629,11.872,21.852,22.62c1.389,6.718,2.173,13.558,2.771,20.386
			c0.116,1.326-4.006-1.226-4.236-1.392c-4.607-3.299-7.616-8.606-8.978-14.002c-0.983-3.908-0.279-8.188-2.123-11.844
			c-1.812-3.602-5.077-5.838-8.419-7.9c-0.562-0.35-1.125-0.694-1.663-1.086c-0.625-0.45-0.341-0.762-0.204,0.291
			c-0.042-0.317-0.069-0.641-0.1-0.961C217.443,109.424,216.972,106.037,218.697,104.99c0.078-0.05-0.396-0.921-0.396-0.918
			c-1.733,1.051-1.572,5.807-0.876,7.487c0.812,1.969,3.951,3.049,5.586,4.197c2.434,1.709,4.871,3.979,5.599,6.986
			c0.702,2.897,0.423,6.024,1.1,8.979c0.731,3.201,2.058,6.43,3.813,9.207c1.823,2.879,4.126,5.494,7.034,7.314
			c0.744,0.465,1.581,0.901,2.457,1.037c1.276,0.196,0.595-1.66,0.534-2.322c-0.964-10.535-2.31-21.57-6.318-31.455
			c-1.748-4.31-4.045-8.939-8.192-11.389c-3.354-1.982-7.286-1.472-10.736-0.048C218.261,104.088,218.648,105.01,218.697,104.99z"/>
	</g>
</g>
<g>
	<g>
		<path fill="#1B1B1B" d="M202.133,99.004c-2.462-0.482-5.272,0.086-7.654,0.711c-8.968,2.354-15.651,9.961-20.47,17.453
			c0.104-0.166,0.858,0.051,0.988-0.152c4.08-6.346,9.156-12.233,15.967-15.717c2.997-1.533,6.779-2.809,10.18-2.143
			C201.46,99.217,201.838,98.946,202.133,99.004L202.133,99.004z"/>
	</g>
</g>
<g>
	<g>
		<path fill="#1A1A1A" d="M222.956,109.885c8.53-0.414,10.884,10.73,11.096,17.072c0.006,0.184,0.9,0.311,0.904,0.428
			c-0.201-6.014-1.557-12.916-7.163-16.203c-1.676-0.981-3.766-1.817-5.741-1.725C222.325,109.446,222.648,109.901,222.956,109.885
			L222.956,109.885z"/>
	</g>
</g>
<path fill="#FFFFFF" d="M852.938,163.092c0,0,115.357-8.401,182.151,0c59.877,7.531,97.634-0.366,121.196-3.733v11.156H852.938
	V163.092z"/>
<path fill="#FFFFFF" d="M138.534,163.092c0,0,115.356-8.401,182.15,0c59.877,7.531,97.634-0.366,121.197-3.733v11.659H138.534
	V163.092z"/>
<path fill="none" stroke="#1B1B1B" stroke-miterlimit="10" d="M852.938,163.092c0,0,115.357-8.401,182.151,0
	c59.877,7.531,97.634-0.366,121.196-3.733"/>
<path fill="none" stroke="#1B1B1B" stroke-miterlimit="10" d="M138.534,163.092c0,0,115.356-8.401,182.15,0
	c59.877,7.531,97.634-0.366,121.197-3.733"/>
</svg>
