<?xml version="1.0" encoding="utf-8"?>
<!-- Generator: Adobe Illustrator 15.0.0, SVG Export Plug-In . SVG Version: 6.00 Build 0)  -->
<!DOCTYPE svg PUBLIC "-//W3C//DTD SVG 1.1//EN" "http://www.w3.org/Graphics/SVG/1.1/DTD/svg11.dtd">
<svg version="1.1" id="Ebene_5" xmlns="http://www.w3.org/2000/svg" xmlns:xlink="http://www.w3.org/1999/xlink" x="0px" y="0px"
	 width="360px" height="171.018px" viewBox="457.795 0 360 171.018" enable-background="new 457.795 0 360 171.018"
	 xml:space="preserve">
<g>
	<path fill="#679D46" d="M498.409,151.184c0,0-7.736-10.87,1.852-24.793c5.62-8.166,4.848-9.815,4.848-9.815
		s4.333,7.295-0.375,13.392C496.765,140.281,498.409,151.184,498.409,151.184z"/>
	<g>
		<path d="M498.869,151.378c-2.86-4.07-3.402-9.733-2.591-14.491c0.945-5.543,4.319-9.754,7.104-14.457
			c0.658-1.111,2.796-4.158,2.186-5.661c-0.307-0.129-0.615-0.26-0.92-0.39c1.025,1.763,1.569,3.83,1.775,5.844
			c0.502,4.924-2.881,8.053-5.059,12.063c-2.632,4.846-4.219,11.153-3.417,16.702C497.976,151.186,498.848,151.237,498.869,151.378
			c-0.815-5.628,0.873-11.746,3.417-16.701c2.059-4.016,5.198-6.75,5.09-11.561c-0.049-2.15-0.721-4.483-1.808-6.348
			c-0.13-0.221-0.841-0.195-0.92-0.39c0.557,1.375-1.29,4.055-1.868,5.103c-2.784,5.049-6.285,9.205-7.423,15.015
			c-0.921,4.689-0.225,10.483,2.59,14.492C498.12,151.232,498.718,151.164,498.869,151.378z"/>
	</g>
</g>
<g>
	<path fill="#EBBB25" d="M475.29,111.883c0,0-2.507-4.58-0.921-5.411c1.585-0.83,6.375-0.909,6.779,0.542
		C481.552,108.466,478.952,114.529,475.29,111.883z"/>
	<g>
		<path d="M475.632,111.519c-0.655-1.211-1.23-2.533-1.425-3.901c-0.146-1.023,0.228-1.003,1.156-1.196
			c1.153-0.238,2.375-0.229,3.536-0.072c1.932,0.261,2.182,1.298,1.613,2.953C479.736,111.561,477.833,112.982,475.632,111.519
			c-0.076-0.052-0.669,0.738-0.686,0.728c2.001,1.33,3.725,0.207,5.014-1.458c1.079-1.396,2.716-4.282,0.244-5.038
			c-2.006-0.613-4.948-0.467-6.38,1.21c-1.108,1.296,0.458,4.062,1.12,5.287C474.915,112.187,475.698,111.639,475.632,111.519z"/>
	</g>
</g>
<g>
	<path fill="#679D46" d="M498.229,171.264c-1.155-12.08-2.785-23.015-3.421-26.406c-1.793-9.565-1.494-22.437-11.071-30.242
		c-0.876-0.715-0.62-0.177-4.723,1.162c-4.416,1.438-6.793-7.195-6.793-7.195s6.925,3.834,6.35,3.337
		c-0.576-0.496-2.82-3.956-2.324-3.556s3.878-0.497,2.887-1.298c-0.991-0.803-2.298-2.318-2.298-2.318s2.977-0.525,6.847,1.785
		c3.87,2.309,0.188,3.745,0.49,5.282s2.524,3.428,6.374,8.842c3.444,4.842,8.441,32.874,11.256,47.636L498.229,171.264z"/>
	<g>
		<path d="M498.553,170.885c-0.768-7.931-1.718-15.848-2.962-23.718c-1.029-6.499-1.655-13.182-3.357-19.548
			c-0.971-3.626-2.553-7.032-4.84-10.014c-1-1.302-2.275-2.74-3.678-3.615c-0.54-0.338-1.702,0.423-2.167,0.611
			c-2.929,1.189-4.791,1.237-6.739-1.432c-1.056-1.447-1.78-3.25-2.266-4.97c-0.217,0.255-0.434,0.507-0.649,0.761
			c0.989,0.548,1.98,1.089,2.974,1.63c0.868,0.472,2.393,1.71,3.408,1.747c0.093,0.002,0.674-0.733,0.649-0.761
			c-0.8-0.946-2.186-2.371-2.425-3.622c-0.216,0.254-0.433,0.505-0.649,0.76c1.048,0.418,2.562-0.146,3.281-0.985
			c1.12-1.312-1.074-2.329-1.976-3.365c-0.217,0.255-0.434,0.507-0.649,0.761c2.69-0.414,5.829,0.876,7.874,2.523
			c2.071,1.67-1.058,3.157-0.398,4.996c0.898,2.509,3.615,4.845,5.181,6.937c1.488,1.988,2.353,3.971,3.114,6.328
			c4.463,13.813,6.487,28.535,9.196,42.762c0.21-0.25,0.422-0.502,0.633-0.752c-1.192,0.991-2.384,1.981-3.575,2.973
			c-0.229,0.19-0.449,0.604-0.615,0.743c1.192-0.992,2.384-1.982,3.575-2.974c0.121-0.1,0.663-0.595,0.632-0.751
			c-2.712-14.252-4.832-28.894-9.196-42.76c-0.635-2.019-1.361-3.904-2.598-5.627c-1.781-2.477-4.429-4.84-5.697-7.641
			c-0.796-1.759,2.027-2.752,0.731-4.648c-1.437-2.102-5.752-3.248-8.206-2.87c-0.101,0.015-0.677,0.729-0.649,0.761
			c0.768,0.879,1.77,1.622,2.465,2.538c-0.013-0.02-2.06,0.455-2.471,0.292c-0.056-0.022-0.666,0.672-0.65,0.76
			c0.239,1.252,1.625,2.675,2.425,3.622c0.216-0.253,0.433-0.506,0.649-0.759c-0.898-0.035-2.226-1.108-2.993-1.522
			c-1.133-0.61-2.265-1.231-3.391-1.854c-0.036-0.02-0.673,0.675-0.649,0.76c0.452,1.599,1.136,3.138,1.993,4.557
			c1.645,2.722,3.544,3.111,6.403,2.076c0.794-0.287,1.623-0.809,2.471-0.919c0.945-0.123,2.425,1.933,2.976,2.512
			c2.772,2.919,4.471,6.679,5.64,10.479c1.958,6.364,2.413,13.234,3.485,19.785c1.312,8.019,2.255,16.105,3.039,24.19
			C497.885,171.447,498.577,171.142,498.553,170.885z"/>
	</g>
</g>
<g>
	<path fill="#EBBB25" d="M513.351,32.347c0,0,8.306-5.746,7.495-9.459c-0.809-3.714-2.847,0.188-5.579,1.381
		c-2.73,1.192-10.984,9.121-9.838,9.509C506.579,34.166,508.127,33.412,513.351,32.347z"/>
	<g>
		<path d="M513.802,32.561c2.803-1.955,7.517-5.313,7.546-9.094c0.01-1.286-0.723-1.934-1.786-2.318
			c-0.657-0.237-1.386,0.479-1.836,0.835c-1.125,0.887-2.175,1.649-3.431,2.34c-2.098,1.151-3.935,2.971-5.659,4.602
			c-1.231,1.165-3.2,2.707-3.757,4.383c-0.131,0.396,0.938,0.672,1.203,0.743c0.704,0.19,1.55-0.077,2.23-0.229
			C510.147,33.413,511.965,32.945,513.802,32.561c-0.23,0.048-0.623-0.485-0.903-0.429c-2.211,0.461-4.399,1.118-6.628,1.485
			c-0.193,0.028-0.389,0.045-0.584,0.049c-1.146,0.057,0.095,0.091,0.097,0.067c0.039-0.449,0.562-0.967,0.822-1.295
			c2.253-2.848,5.258-5.533,8.297-7.511c1.542-1.003,2.997-2.053,4.514-3.101c0.979-0.678,1.029,0.866,1.024,1.587
			c-0.007,0.856-0.514,1.701-0.941,2.404c-1.544,2.539-4.188,4.629-6.601,6.312C513.004,32.061,513.639,32.675,513.802,32.561z"/>
	</g>
</g>
<g>
	<path fill="#EBBB25" d="M504.927,33.735c0,0,20.47-7.902,22.619-7.04c2.148,0.863,0.492,4.478-5.647,7.403
		c-6.14,2.927-21.976,8.63-21.449,5.352C500.976,36.169,504.927,33.735,504.927,33.735z"/>
	<g>
		<path d="M505.408,33.694c3.64-1.402,7.307-2.738,10.993-4.013c2.568-0.889,5.153-1.742,7.776-2.453
			c1.906-0.518,4.78-0.804,3.378,2.076c-1.516,3.112-5.698,4.694-8.666,5.964c-3.041,1.3-6.157,2.437-9.306,3.445
			c-1.547,0.497-7.822,2.957-8.626,1.03c-0.843-2.018,3.049-5.163,4.466-6.06c-0.233,0.147-0.732-0.066-0.995,0.101
			c-1.127,0.713-6.303,5.271-4.027,6.517c1.232,0.676,3.623-0.002,4.89-0.25c3.926-0.771,7.757-2.189,11.481-3.62
			c3.958-1.521,8.494-3.128,11.279-6.477c1.312-1.579,1.04-3.539-1.165-3.352c-2.114,0.181-4.169,0.818-6.188,1.434
			c-5.492,1.669-10.898,3.673-16.253,5.738C504.637,33.702,505.134,33.8,505.408,33.694z"/>
	</g>
</g>
<g>
	<path fill="#EBBB25" d="M495.871,24.469c0,0-3.25-9.148-5.385-9.719c-2.134-0.569-1.714,6.438,2.601,11.838
		C497.402,31.99,495.871,24.469,495.871,24.469z"/>
	<g>
		<path d="M495.782,24.126c-0.98-2.742-2.107-5.501-3.633-7.987c-0.456-0.742-1.571-2.52-2.588-1.649
			c-1.001,0.854-0.386,3.315-0.178,4.345c0.725,3.581,2.551,7.455,5.365,9.814c2.044,1.716,1.43-2.931,1.263-3.771
			c-0.039-0.194-0.293-0.876-0.281-0.815c0.185,0.929,0.8,3.547-0.354,3.992c-1.104,0.426-3-2.688-3.323-3.148
			c-1.562-2.233-2.631-4.939-2.669-7.678c-0.011-0.801,0.178-2.153,1.251-2c1.038,0.149,1.807,1.844,2.256,2.62
			c1.265,2.185,2.22,4.592,3.068,6.965C496.089,25.171,495.824,24.242,495.782,24.126z"/>
	</g>
</g>
<g>
	<path fill="#EBBB25" d="M497.371,41.412c0,0-23.389,7.718-23.194,5.204c0.195-2.516,5.688-7.495,9.078-8.211
		c3.39-0.717,13.803-2.302,14.824-1.546C499.099,37.615,498.475,40.7,497.371,41.412z"/>
	<g>
		<path d="M496.914,41.209c-3.089,1.019-6.2,1.97-9.323,2.878c-3.981,1.159-8.926,3.173-13.147,2.807
			c-0.392-0.034,0.21,0.307,0.189-0.075c-0.025-0.509,0.318-1.071,0.543-1.5c0.712-1.354,1.918-2.479,3.037-3.492
			c2.405-2.178,4.913-3.151,8.037-3.691c3.005-0.52,6.036-0.948,9.077-1.192c0.583-0.047,1.167-0.069,1.751-0.078
			c0.307-0.007,0.611,0.009,0.916,0.045c0.336,0.044,0.298,0.058-0.115,0.041C498.819,38.01,497.773,40.448,496.914,41.209
			c0.072-0.064,0.782,0.521,0.914,0.405c1.49-1.321,1.897-4.192-0.188-4.981c-2.187-0.827-5.525,0.106-7.734,0.398
			c-3.392,0.448-7.07,0.698-10.06,2.481c-0.838,0.5-7.651,5.832-6.023,7.17c0.655,0.539,1.564,0.658,2.376,0.627
			c2.712-0.104,5.472-0.957,8.078-1.642c4.559-1.197,9.075-2.581,13.551-4.056C497.624,41.682,497.172,41.124,496.914,41.209z"/>
	</g>
</g>
<g>
	<path fill="#EBBB25" d="M498.065,31.043c0,0-11.147-11.396-14.167-11.771c-3.018-0.375,2.303,12.116,13.552,16.271
		C508.699,39.703,499.216,32.425,498.065,31.043z"/>
	<g>
		<path d="M498.563,31.094c-3.808-3.886-7.794-8.02-12.387-10.972c-0.881-0.565-1.992-1.042-3.073-0.889
			c-1.642,0.234,0.567,4.447,0.854,4.983c3.391,6.344,10.441,11.711,17.672,12.574c1.107,0.132,2.278,0.104,1.353-1.264
			C501.807,33.793,499.938,32.647,498.563,31.094c-0.173-0.195-0.846,0.067-0.995-0.102c1.045,1.179,2.323,2.155,3.427,3.281
			c1.07,1.094,2.489,2.967-0.337,2.223c-6.751-1.777-12.625-6.417-15.916-12.571c-0.562-1.053-1.698-3.146-0.994-4.359
			c0.217-0.375-0.425-0.431,0.311-0.146c0.396,0.15,0.763,0.386,1.123,0.604c1.006,0.608,1.932,1.359,2.844,2.099
			c3.371,2.724,6.512,5.779,9.543,8.874C497.759,31.187,498.396,30.924,498.563,31.094z"/>
	</g>
</g>
<g>
	<path fill="#EBBB25" d="M488.155,26.451c0,0-8.176-4.275-11.321-4.174c-3.146,0.103-2.999,3.674,3.448,6.288
		c6.446,2.614,12.815,4.873,17.377,4.727C502.219,33.145,488.912,26.836,488.155,26.451z"/>
	<g>
		<path d="M488.552,26.617c-3.355-1.747-7.239-3.849-11.01-4.433c-2.144-0.332-4.062,0.691-2.575,2.938
			c1.206,1.818,3.672,2.809,5.631,3.598c4.296,1.73,8.639,3.41,13.187,4.354c0.696,0.146,6.513,1.161,4.917-0.618
			C496.259,29.732,491.774,28.223,488.552,26.617c-0.179-0.09-0.846-0.354-0.798-0.331c2.574,1.283,5.156,2.545,7.623,4.029
			c0.857,0.518,2.461,1.261,2.768,2.306c0.315,1.069-5.888-0.076-6.026-0.104c-4.561-0.947-9.518-2.607-13.604-4.821
			c-1.324-0.717-3.764-2.423-3.099-4.281c1.217-3.398,10.896,2.125,12.337,2.874C487.932,26.378,488.601,26.642,488.552,26.617z"/>
	</g>
</g>
<g>
	<path fill="#EBBB25" d="M498.011,38.546c0,0-30.066-1.794-30.833-4.158c-0.766-2.365,17.938-4.419,23.177-4.026
		C495.595,30.754,500.274,37.615,498.011,38.546z"/>
	<g>
		<path d="M497.647,38.203c-4.298-0.259-8.592-0.594-12.88-0.979c-5.494-0.496-11.678-0.617-16.922-2.495
			c-0.756-0.271-0.62-0.688-0.302,0.002c-0.104-0.229,0.085-0.46,0.227-0.613c0.603-0.661,1.801-0.91,2.613-1.15
			c3.457-1.021,7.138-1.424,10.71-1.807c3.085-0.331,6.233-0.613,9.339-0.475c2.614,0.116,4.975,1.649,6.551,3.672
			C497.623,35.18,499.048,37.395,497.647,38.203c0.061-0.034,0.623,0.747,0.729,0.688c2.192-1.267-1.693-5.132-2.758-6.096
			c-2.976-2.69-6.107-2.929-9.927-2.746c-4.5,0.217-9.021,0.741-13.44,1.615c-0.5,0.1-6.491,1.315-5.299,2.589
			c0.951,1.016,2.043,1.348,3.39,1.666c3.482,0.824,7.1,1.169,10.65,1.549c5.778,0.618,11.582,1.074,17.384,1.423
			C498.138,38.875,497.919,38.219,497.647,38.203z"/>
	</g>
</g>
<g>
	<path fill="#EBBB25" d="M500.666,45.481c0,0,6.455-13.295,3.729-22.69c-2.725-9.396-3.092-10.213-5.083-9.965
		c-1.99,0.25-5.647,4.571-4.547,11.031c1.103,6.46,2.341,20.254,3.368,20.879C499.16,45.36,500.666,45.481,500.666,45.481z"/>
	<g>
		<path d="M501.163,45.426c2.758-5.729,4.618-12.388,4.367-18.765c-0.159-4.033-1.69-8.551-3.316-12.238
			c-0.551-1.25-1.241-1.785-2.577-1.648c-1.939,0.199-3.113,1.398-4.119,3.05c-2.338,3.837-1.167,8.302-0.606,12.438
			c0.553,4.091,1.006,8.195,1.641,12.275c0.438,2.816,0.365,4.652,3.635,5.002c0.294,0.03,0.739-0.141,0.957-0.116
			c-3.087-0.328-3.069-1.845-3.518-4.5c-0.575-3.403-0.956-6.843-1.395-10.267c-0.448-3.51-1.406-7.208-1.08-10.745
			c0.189-2.044,2.201-7.387,4.542-7.031c1.514,0.229,2.083,3.024,2.453,4.138c1.367,4.109,2.573,8.113,2.38,12.48
			c-0.24,5.45-1.996,11.132-4.357,16.038C500.235,45.398,501.077,45.604,501.163,45.426z"/>
	</g>
</g>
<g>
	<path fill="#EBBB25" d="M505.708,22.236c0,0,3.874-7.166,6.148-8.595c2.275-1.43,4.355,3.155,3.911,5.176
		c-0.443,2.021-12.626,21.374-15.358,20.153C497.676,37.749,503.74,25.591,505.708,22.236z"/>
	<g>
		<path d="M506.204,22.297c0.739-1.361,1.541-2.69,2.373-3.999c0.852-1.34,2.798-5.058,4.772-4.84
			c-0.248-0.035-0.497-0.069-0.745-0.104c1.852,0.703,3.155,3.598,2.642,5.5c-0.344,1.27-1.254,2.514-1.911,3.63
			c-2.492,4.231-5.256,8.354-8.323,12.19c-1.117,1.396-2.315,2.862-3.799,3.888c-0.679,0.47-0.487,0.443-0.771,0.032
			c-0.458-0.664-0.206-1.807-0.085-2.526C501.155,31.302,503.803,26.441,506.204,22.297c-0.055,0.095-0.917-0.253-0.992-0.123
			c-1.129,1.95-8.771,15.615-5.156,16.78c1.212,0.392,2.115-0.169,3.022-0.954c2.449-2.122,4.364-4.985,6.216-7.616
			c1.997-2.837,3.882-5.765,5.612-8.771c1.44-2.507,1.942-4.382,0.127-7.05c-3.451-5.069-8.604,5.372-9.821,7.612
			C505.259,22.086,506.135,22.423,506.204,22.297z"/>
	</g>
</g>
<g>
	<path fill="#679D46" d="M489.794,39.849c2.31-3.06,9.702-5.397,16.585-2.348c4.709,2.088,3.972,4.525,1.504,5.919
		c-2.467,1.393-4.122,1.932-5.602,2.801c-1.48,0.868-1.923,3.902-0.974,11.383c0.949,7.479,18.918,108.413,18.918,108.413
		l-2.541,0.043c0,0-18.9-114.859-19.452-117.016c-0.551-2.153-6.43-1.741-7.317-4.055C490.027,42.678,489.001,40.899,489.794,39.849
		z"/>
	<g>
		<path d="M490.067,40.268c3.861-4.659,11.505-4.438,16.585-2.348c3.931,1.616,3.183,3.864,0.165,5.516
			c-1.694,0.929-4.586,1.499-5.623,3.264c-1.69,2.878-0.518,8.01-0.08,11.048c0.209,1.456,0.453,2.906,0.693,4.357
			c2.228,13.484,4.624,26.942,6.988,40.403c2.583,14.714,5.184,29.424,7.792,44.133c0.858,4.839,1.717,9.678,2.577,14.517
			c0.217,1.224,0.435,2.446,0.652,3.67c0.261,1.461-1.073,0.791-2.402,0.812c0.182,0.271,0.363,0.546,0.544,0.817
			c-3.843-23.354-7.696-46.706-11.564-70.057c-2.062-12.451-4.125-24.904-6.223-37.353c-0.5-2.972-0.99-5.946-1.529-8.912
			c-0.145-0.791-0.433-1.351-0.919-2.005c-0.744-1.001-2.449-1.243-3.553-1.549c-1.299-0.358-2.763-0.65-3.317-2.039
			C490.326,43.233,489.365,41.659,490.067,40.268c0.094-0.185-0.601-0.729-0.547-0.838c-0.826,1.635,0.559,4.19,1.363,5.619
			c0.447,0.793,1.036,1.311,1.855,1.716c1.626,0.804,4.994,0.565,5.376,2.666c0.624,3.431,1.185,6.873,1.763,10.312
			c2.396,14.248,4.754,28.503,7.114,42.757c3.484,21.052,6.958,42.105,10.423,63.161c0.021,0.125,0.418,0.819,0.544,0.817
			c0.847-0.016,1.694-0.028,2.541-0.043c-0.001-0.007-0.002-0.015-0.003-0.021c-4.417-24.812-8.812-49.628-13.15-74.454
			c-1.9-10.88-3.897-21.754-5.582-32.67c-0.509-3.304-0.983-6.772-0.523-10.104c0.599-4.334,6.508-3.646,8.606-6.918
			c1.615-2.519-3.144-4.939-4.571-5.527c-4.795-1.973-12.226-1.573-15.758,2.688C489.428,39.541,490.098,40.229,490.067,40.268z"/>
	</g>
</g>
<g>
	<path fill="#679D46" d="M752.397,97.748c0,0,14.428,9.261,16.291,16.386c1.865,7.125,7.978,22.826,7.978,22.826
		s-3.182-7.26-12.971-15.135C757.453,116.806,752.447,102.339,752.397,97.748z"/>
	<g>
		<path d="M751.922,97.756c2.52,1.623,4.923,3.445,7.238,5.347c3.46,2.846,7.419,6.297,8.939,10.648
			c2.706,7.742,5.113,15.557,8.092,23.215c0.315-0.004,0.631-0.008,0.947-0.012c-0.874-1.967-2.173-3.773-3.455-5.484
			c-1.5-1.998-3.194-3.846-4.963-5.611c-2.027-2.021-4.413-3.664-6.348-5.771c-3.066-3.342-5.086-7.711-6.75-11.883
			c-1.302-3.254-2.642-6.913-2.75-10.462C752.868,97.698,751.922,97.722,751.922,97.756c0.103,3.373,1.357,6.782,2.532,9.901
			c1.608,4.273,3.703,8.504,6.62,12.041c1.585,1.924,3.686,3.367,5.515,5.043c2.104,1.93,4.03,4.049,5.795,6.287
			c1.436,1.816,2.859,3.809,3.808,5.938c0.061,0.137,0.92-0.084,0.947-0.012c-2.912-7.486-5.903-15.061-7.978-22.826
			c-1.167-4.373-5.329-7.887-8.635-10.689c-2.42-2.052-4.988-3.978-7.655-5.7C752.634,97.591,752.122,97.884,751.922,97.756z"/>
	</g>
</g>
<g>
	<path fill="#679D46" d="M772.75,162.043l3.498-0.785c1.164-8.262,2.806-39.467,2.404-47.457
		c-0.723-14.338-5.868-45.936-6.796-47.932c-1.421-3.051,3.966,44.285,3.961,47.486C775.814,119.906,772.75,162.043,772.75,162.043z
		"/>
	<g>
		<path d="M772.352,162.264c1.168-0.262,2.332-0.523,3.499-0.783c0.134-0.031,0.801-0.303,0.817-0.443
			c1.58-11.799,2.736-46.881,1.406-58.674c-1.074-9.523-2.474-19.02-4.104-28.465c-0.445-2.586-0.846-5.213-1.526-7.749
			c-0.167-0.618-0.811-0.937-1.174-0.132c-0.488,1.085,0.013,3.182,0.087,4.308c0.203,3.068,0.486,6.133,0.769,9.195
			c0.975,10.562,2.184,21.099,3.112,31.665c0.389,4.416,0.035,8.887-0.129,13.305c-0.188,4.979-2.537,32.799-2.773,37.773
			c0.005-0.115,0.826-0.246,0.837-0.443c0.334-6.943,2.771-36.736,2.975-43.684c0.143-4.846-0.252-9.479-0.731-14.301
			c-0.749-7.521-1.53-15.039-2.244-22.561c-0.478-5.009-1.406-10.313-1.116-15.356c0.021-0.35,0.206-0.429-0.3-0.164
			c-0.145,0.064-0.289,0.13-0.433,0.194c0.809,0.105,1.544,6.858,1.658,7.508c1.091,6.165,2.024,12.358,2.888,18.559
			c3.042,15.518,2.021,54.121-0.036,69.463c0.271-0.148,0.546-0.297,0.817-0.443c-1.167,0.26-2.33,0.521-3.498,0.783
			C772.878,161.883,772.534,162.223,772.352,162.264z"/>
	</g>
</g>
<g>
	<path fill="#E1B6E1" d="M761.755,34.275c0,0-21.255-13.693-24.535-12.696c-2.765,0.839-0.482,4.435,0.992,5.777
		c1.18,1.077-2.14,2.489-1.555,4.412c1.265,4.157,8.938,7.42,12.819,7.633c3.882,0.212,11.966-0.65,14.188-1.982
		C765.881,36.082,761.755,34.275,761.755,34.275z"/>
	<g>
		<path d="M761.451,33.956c-4.677-3.011-9.446-5.891-14.318-8.569c-2.676-1.47-5.436-3.003-8.362-3.916
			c-0.976-0.305-1.758-0.412-2.646,0.183c-1.501,1.005,0.258,3.575,0.953,4.495c0.481,0.637,1.294,1.023,0.92,1.888
			c-0.7,1.625-2.464,2.282-1.288,4.294c1.519,2.594,4.159,4.342,6.807,5.611c4.433,2.122,8.916,1.966,13.685,1.411
			c1.303-0.15,9.338-0.923,6.847-3.545c-0.755-0.793-1.608-1.408-2.613-1.861c0.246,0.111,0.371,0.536,0.637,0.654
			c4.771,2.152-1.569,3.49-3.679,3.841c-3.934,0.656-8.251,1.134-12.151,0.093c-3.454-0.922-11.906-4.549-8.266-8.965
			c0.58-0.703,1.115-1.298,0.409-2.063c-1.036-1.118-1.976-2.341-2.144-3.905c-0.307-2.866,3.684-1.339,4.859-0.866
			c3.009,1.214,5.869,2.836,8.692,4.43c4.16,2.351,8.251,4.838,12.267,7.425C761.895,34.487,761.679,34.102,761.451,33.956z"/>
	</g>
</g>
<g>
	<path fill="#E1B6E1" d="M766.755,41.068c0,0-1.828,15.856-4.174,19.199c-2.346,3.338-12.87,10.75-15.705,9.34
		c-2.834-1.409-4.531-7.756-1.73-11.859c2.799-4.104,6.677-8.446,11.827-11.4C762.121,43.396,766.755,41.068,766.755,41.068z"/>
	<g>
		<path d="M766.359,40.839c-0.579,4.995-1.325,10.022-2.56,14.9c-0.64,2.518-1.458,4.39-3.341,6.198
			c-2.48,2.379-5.418,4.384-8.437,6.015c-1.241,0.672-2.56,1.258-3.95,1.537c-1.582,0.318-2.334-0.867-2.997-2.146
			c-1.827-3.521-0.932-7.425,1.255-10.49c5.29-7.415,12.859-11.547,20.819-15.556C767.021,41.362,766.527,40.754,766.359,40.839
			c-8.415,4.24-17.576,8.957-22.178,17.666c-1.999,3.782-0.358,12.738,5.368,11.286c3.464-0.876,6.73-3.345,9.495-5.503
			c2.33-1.823,4.155-3.597,5.074-6.437c1.714-5.289,2.393-11.044,3.031-16.552C767.165,41.154,766.35,40.935,766.359,40.839z"/>
	</g>
</g>
<g>
	<path fill="#E1B6E1" d="M746.03,37.97c0,0-16.199,4.898-16.54,6.159c-0.341,1.266-0.4,2.415,0.983,2.635
		c1.38,0.222-2.539,1.032-1.761,2.69c0.78,1.657,4.25,4.05,7.757,3.88c3.507-0.171,9.309,0.966,13.159-0.469
		c3.85-1.434,17.776-13.733,17.013-14.031C765.881,38.533,746.03,37.97,746.03,37.97z"/>
	<g>
		<path d="M745.686,37.669c-4.021,1.216-8.025,2.502-11.97,3.953c-1.059,0.389-4.028,1.047-4.571,2.206
			c-0.338,0.725-0.353,1.811,0.269,2.377c0.489,0.442,1.081,0.509,1.508,0.85c-0.169-0.158-0.334-0.314-0.501-0.472
			c-0.239,0.977-2.098,0.853-2.149,2.249c-0.032,0.88,1.352,1.884,1.949,2.391c3.502,2.967,8.044,2.403,12.332,2.622
			c2.51,0.129,5.235,0.196,7.612-0.756c1.322-0.53,2.521-1.469,3.668-2.292c3.216-2.312,6.252-4.899,9.199-7.543
			c0.379-0.337,4.391-3.702,3.891-4.2c-0.939-0.936-2.393-0.694-3.646-0.758c-5.855-0.303-11.72-0.459-17.58-0.627
			C745.697,37.67,745.691,37.669,745.686,37.669c0.201,0.005,0.429,0.594,0.688,0.601c3.34,0.095,6.679,0.201,10.021,0.319
			c2.291,0.081,4.58,0.166,6.87,0.274c1.172,0.055,2.582-0.061,3.723,0.27c-0.179-0.144-0.356-0.289-0.533-0.435
			c0.028,0.023-4.661,4.451-5.117,4.854c-3.028,2.677-6.161,5.289-9.506,7.565c-3.858,2.625-8.224,2.227-12.71,1.97
			c-3.471-0.199-7.545,0.262-9.897-3.033c-1.271-1.784,1.619-1.795,1.883-2.871c0.022-0.095-0.435-0.419-0.5-0.473
			c-3.521-2.835,4.185-4.643,5.878-5.238c3.27-1.148,6.575-2.202,9.89-3.206C746.256,38.306,745.872,37.613,745.686,37.669z"/>
	</g>
</g>
<g>
	<path fill="#E1B6E1" d="M764.472,39.087c0,0-4.717-4.347-7.695-9.311c-3.046-5.074-6.379-14.023-6.398-20.113
		c-0.02-4.841,2.199-2.514,2.199-2.514s0.662-3.495,1.508-3.809c0.845-0.315,2.624,0.97,3.153,2.397
		c0.531,1.426,2.978-1.595,4.765,2.771c1.79,4.366,8.137,29.252,7.853,30.67C769.571,40.596,766.415,39.055,764.472,39.087z"/>
	<g>
		<path d="M764.888,38.898c-4.747-4.408-8.324-9.667-10.791-15.642c-1.503-3.636-2.638-7.471-3.147-11.375
			c-0.134-1.04-0.703-6.46,1.212-4.545c0.042,0.043,0.817-0.295,0.832-0.375c0.178-0.912,0.421-1.807,0.742-2.681
			c0.616-1.688,2.239,0.265,2.835,1.119c0.456,0.655,0.394,1.012,1.265,0.917c1.02-0.11,1.721-0.167,2.56,0.493
			c1.273,0.998,1.734,3.352,2.193,4.839c0.711,2.296,1.348,4.616,1.98,6.937c1.35,4.962,2.621,9.947,3.779,14.96
			c0.371,1.603,0.739,3.212,1.005,4.836c0.052,0.317,0.126,0.664,0.087,0.987C769.377,39.875,765.738,38.937,764.888,38.898
			c-0.283-0.011-0.582,0.386-0.833,0.376c1.926,0.083,3.989,1.266,5.804,0.237c0.955-0.543,0.104-2.745-0.055-3.522
			c-1.236-5.976-2.811-11.893-4.404-17.781c-0.711-2.633-1.444-5.264-2.268-7.863c-0.568-1.786-1.342-4.754-3.724-4.504
			c-1.608,0.168-1.439-0.005-2.351-1.313c-0.547-0.787-1.762-1.718-2.77-1.302c-1.578,0.649-1.827,2.584-2.127,4.109
			c0.275-0.124,0.554-0.249,0.832-0.375c-0.777-0.778-1.458-0.533-2.293-0.072c-1.104,0.611-0.747,3.15-0.696,4.135
			c0.124,2.444,0.719,4.867,1.382,7.212c2.279,8.075,6.51,15.316,12.669,21.038C764.166,39.376,764.827,38.844,764.888,38.898z"/>
	</g>
</g>
<g>
	<path fill="#E1B6E1" d="M763.735,35.949c0,0,9.676-26.334,12.283-28.929c1.784-1.777,2.774,0.507,3.093,1.362
		c0.32,0.855,2.149-1.105,2.918-1.023c1.395,0.15,1.229,2.972,0.924,3.898c-0.305,0.925,2.06-0.607,1.938,3.012
		c-0.119,3.616-2.637,9.859-3.265,10.974c-1.711,3.038-6.597,8.771-10.02,11.346C768.177,39.163,763.869,39.795,763.735,35.949z"/>
	<g>
		<path d="M764.006,36.316c1.855-5.046,3.786-10.065,5.789-15.055c1.358-3.385,2.748-6.765,4.306-10.062
			c0.619-1.307,3.242-7.009,4.741-3.165c0.064,0.165,0.538,0.89,0.698,0.903c0.756,0.057,1.492-0.653,2.116-1.016
			c1.479-0.859,1.237,1.866,1.109,2.64c-0.103,0.617-0.036,0.733,0.371,1.223c0.138,0.165,0.271,0.193,0.48,0.227
			c1.221,0.206,1.033,1.316,0.972,2.378c-0.229,3.87-1.855,8.436-3.981,11.69c-2.726,4.173-6.559,8.729-10.943,11.208
			C767.824,38.325,764.295,39.312,764.006,36.316c-0.027-0.275-0.521-0.499-0.545-0.733c0.271,2.796,2.399,3.886,5.063,3.151
			c4.795-1.323,8.814-6.784,11.655-10.552c2.51-3.33,3.891-7.407,4.722-11.462c0.337-1.642,0.648-4.911-1.638-5.411
			c-0.668-0.146,0.017-0.005-0.043,0.314c0.074-0.413,0.161-0.798,0.201-1.221c0.056-0.597,0.044-1.457-0.278-2.001
			c-0.357-0.609-0.688-1.182-1.39-1.407c-0.565-0.183-1.721,0.867-2.189,1.118c-0.409,0.221-0.224,0.511-0.404,0.099
			c-0.1-0.233-0.223-0.428-0.352-0.648c-0.255-0.428-0.754-1.213-1.239-1.411c-2.147-0.878-3.693,3.625-4.321,4.972
			c-1.577,3.376-2.975,6.839-4.356,10.299c-1.877,4.692-3.687,9.415-5.431,14.16C763.395,35.766,764.051,36.192,764.006,36.316z"/>
	</g>
</g>
<g>
	<path fill="#E1B6E1" d="M773.529,30.727c0,0,23.631-8.461,29.828-5.569c2.505,1.17,0.219,2.217-0.518,2.856
		c-0.737,0.638,3.909,1.344-1.561,5.616c-5.448,4.249-12.672,10.766-28.156,6.792c-15.481-3.974-7.719-6.668-7.719-6.668
		L773.529,30.727z"/>
	<g>
		<path d="M773.24,30.871c5.647-2.017,11.451-3.723,17.313-4.992c3.471-0.75,7.251-1.512,10.805-0.996
			c1.216,0.176,3.669,0.994,2.188,2.451c-0.86,0.848-1.613,0.741-0.594,1.696c2.611,2.456-4.022,6.328-5.761,7.589
			c-5.62,4.075-11.909,5.386-18.7,4.586c-3.183-0.375-6.331-1.245-9.361-2.264c-1.629-0.547-3.442-1.204-4.708-2.417
			c-1.049-1.005-0.198-2.312,0.689-2.627C767.836,32.932,770.531,31.88,773.24,30.871c0.105-0.039,0.907-0.41,0.578-0.289
			c-3.177,1.183-6.854,2.008-9.769,3.803c-1.423,0.875-1.088,2.082,0.133,3.005c1.54,1.167,3.586,1.755,5.398,2.332
			c3.354,1.07,6.812,1.804,10.327,2.058c7.664,0.554,14.279-2.471,20.182-7.064c1.483-1.156,3.173-2.261,4.098-3.942
			c0.621-1.128-0.193-1.842-0.908-2.582c-0.3-0.312,1.687-1.475,1.607-2.29c-0.117-1.244-3.131-1.455-3.994-1.508
			c-5.425-0.324-11.125,1.378-16.299,2.805c-3.626,0.999-7.23,2.117-10.772,3.383C773.713,30.62,772.91,30.989,773.24,30.871z"/>
	</g>
</g>
<g>
	<path fill="#E1B6E1" d="M763.742,47.608c0,0,2.11,9.891,5.316,15.882c1.302,2.432,5.274,8.26,7.769,7.455
		c2.491-0.809,1.459-2.089,2.729-1.469c1.271,0.626,3.328,1.404,3.685-0.908c0.216-1.405,0.418-2.479,1.829-2.277
		c1.416,0.205-0.382-7.892-3.03-11.412c-2.65-3.519-11.94-13.574-11.94-13.574s-6.045-0.622-6.396,0.725
		C763.353,43.379,763.742,47.608,763.742,47.608z"/>
	<g>
		<path d="M763.293,47.531c1.665,7.739,4.048,16.895,10.248,22.303c1.565,1.366,4.202,1.937,5.558-0.083
			c0.185-0.274,0.306-0.226,0.021-0.343c0.485,0.201,0.937,0.402,1.44,0.555c0.296,0.089,0.633,0.123,0.933,0.172
			c1.904,0.317,2.071-1.198,2.452-2.751c0.271-1.108,1.08-0.646,1.83-1.096c0.362-0.217,0.238-1.157,0.228-1.478
			c-0.092-2.229-0.901-4.511-1.724-6.557c-1.486-3.708-4.53-6.655-7.139-9.596c-2.154-2.428-4.337-4.831-6.538-7.217
			c-0.746-0.809-4.113-0.363-4.93-0.327c-1.259,0.059-2.373,0.168-2.527,1.574C762.972,44.274,763.152,45.948,763.293,47.531
			c0.01,0.107,0.896,0.108,0.9,0.155c-0.125-1.384-0.873-4.895,0.225-5.926c1.17-1.099,4.61-0.524,6.069-0.378
			c-0.278-0.05-0.559-0.103-0.836-0.153c3.684,3.99,7.365,8.001,10.831,12.184c2.195,2.649,3.481,5.667,4.271,9.01
			c0.251,1.061,0.632,2.522,0.218,3.59c-0.122,0.312-1.058,0.246-1.403,0.392c-0.747,0.314-0.783,2.117-0.955,2.748
			c-0.678,2.513-3.266-0.88-4.297,0.264c-1.271,1.413-2.22,1.864-3.87,0.573c-1.411-1.106-2.515-2.655-3.524-4.118
			c-3.633-5.258-5.394-11.999-6.727-18.184C764.164,47.547,763.309,47.614,763.293,47.531z"/>
	</g>
</g>
<g>
	<path fill="#E1B6E1" d="M781.334,37.973c0,0,21.76,10.311,22.04,18.942c0.061,1.91-4.649,2.46-7.271,2.708
		c-3.525,0.339-14.056-3.411-18.149-6.879c-4.092-3.468-13.972-10.004-9.438-14.609C771.163,35.441,781.334,37.973,781.334,37.973z"
		/>
	<g>
		<path d="M781.643,38.31c4.812,2.289,9.471,5.062,13.749,8.238c3.256,2.419,7.398,5.65,7.676,10.032
			c0.186,2.938-8.072,2.813-9.936,2.492c-4.519-0.779-9.08-2.682-13.029-4.963c-1.692-0.978-3.147-2.28-4.669-3.492
			c-2.582-2.052-5.448-4.185-7.096-7.094c-0.888-1.568-0.9-3.232,0.162-4.69c0.996-1.368,2.96-1.52,4.5-1.592
			C775.867,37.107,778.863,37.626,781.643,38.31c-0.227-0.055-0.355-0.609-0.615-0.674c-2.958-0.727-6.073-1.188-9.12-1.047
			c-3.959,0.185-5.953,3.142-3.938,6.702c1.474,2.605,4.069,4.726,6.33,6.596c3.362,2.785,6.63,5.244,10.646,7.018
			c3.806,1.68,8.237,3.403,12.465,2.955c1.928-0.205,4.368-0.395,5.896-1.717c0.993-0.859-0.026-2.941-0.479-3.866
			c-2.771-5.634-9.357-9.602-14.499-12.686c-2.37-1.422-4.805-2.768-7.301-3.956C781.268,37.749,781.381,38.184,781.643,38.31z"/>
	</g>
</g>
<g>
	<polygon fill="#F2E44A" points="763.304,32.183 761.57,31.637 761.96,32.685 759.672,32.94 761.392,35.279 759,36.171 
		760.943,36.809 759.106,39.197 761.327,39.22 760.221,42.187 763.66,40.906 764.922,43.841 765.396,41.452 767.316,42.95 
		767.544,40.822 770.307,41.836 769.192,38.846 771.509,38.664 770.505,35.973 769.451,35.428 769.671,33.729 767.242,33.611 
		768.781,31.336 765.435,32.412 765.906,30.023 	"/>
	<g>
		<path d="M763.742,32.21c-0.578-0.183-1.155-0.364-1.735-0.546c-0.1-0.033-0.886-0.041-0.893-0.06
			c0.139,0.37,0.622,1.016,0.05,1.08c-0.643,0.073-1.287,0.144-1.931,0.217c-0.006,0.002-0.011,0.004-0.019,0.006
			c0.557,0.757,1.117,1.514,1.674,2.272c0.03,0.042-2.069,0.855-2.328,0.95c-0.021,0.004-0.021,0.009-0.002,0.016
			c0.405,0.133,2.091,0.415,1.735,0.878c-0.547,0.712-1.098,1.427-1.646,2.138c0.02-0.027,0.693,0.079,0.775,0.08
			c0.741,0.008,1.481,0.016,2.224,0.023c-0.261-0.025-0.519-0.052-0.775-0.079c-0.368,0.988-0.737,1.979-1.11,2.967
			c0.004-0.01,0.793,0.114,0.893,0.076c1.148-0.426,2.294-0.854,3.441-1.282c-0.299-0.025-0.596-0.05-0.894-0.075
			c0.424,0.978,0.842,1.957,1.264,2.935c0.033,0.08,0.903,0.101,0.911,0.07c0.158-0.796,0.316-1.593,0.471-2.389
			c-0.304-0.023-0.604-0.048-0.909-0.07c0.639,0.499,1.279,0.999,1.92,1.5c0.078,0.061,0.906,0.108,0.911,0.069
			c0.075-0.709,0.151-1.42,0.229-2.129c-0.299-0.019-0.597-0.04-0.895-0.06c0.921,0.337,1.844,0.677,2.763,1.014
			c0.106,0.039,0.885,0.036,0.895,0.06c-0.339-0.909-0.679-1.819-1.018-2.729c-0.18-0.481,1.771-0.401,2.202-0.436
			c0.007-0.002,0.014-0.004,0.018-0.006c-0.333-0.896-0.668-1.794-1.001-2.691c-0.104-0.271-1.094-0.262-1.042-0.67
			c0.068-0.525,0.136-1.049,0.204-1.573c0.004-0.034-0.536-0.07-0.574-0.071c-0.809-0.04-1.617-0.079-2.427-0.119
			c0.191,0.023,0.385,0.048,0.573,0.071c0.513-0.758,1.025-1.517,1.539-2.276c-0.036,0.051-0.766-0.116-0.894-0.075
			c-1.114,0.357-2.229,0.717-3.345,1.075c0.296,0.025,0.596,0.052,0.891,0.077c0.157-0.796,0.316-1.593,0.474-2.389
			c-0.001-0.002-0.824-0.141-0.912-0.07c-0.866,0.72-1.734,1.442-2.602,2.161c0.143-0.118,0.723,0.225,0.911,0.07
			c0.867-0.72,1.735-1.442,2.603-2.16c-0.306-0.024-0.606-0.047-0.912-0.07c-0.155,0.796-0.314,1.594-0.473,2.389
			c-0.003,0.023,0.807,0.105,0.893,0.076c1.117-0.358,2.23-0.718,3.347-1.077c-0.298-0.025-0.597-0.05-0.892-0.076
			c-0.513,0.759-1.026,1.517-1.538,2.275c0.007-0.009,0.531,0.069,0.572,0.071c0.811,0.039,1.618,0.078,2.429,0.119
			c-0.19-0.023-0.383-0.047-0.573-0.07c-0.073,0.565-0.146,1.132-0.218,1.698c0.005,0.003,0.009,0.006,0.018,0.009
			c1.25,0.646,1.338,1.342,1.824,2.646c0.389,1.044-1.271,0.692-2.084,0.758c-0.006,0.002-0.011,0.004-0.019,0.006
			c0.373,0.998,0.742,1.993,1.114,2.99c0.3,0.02,0.596,0.041,0.895,0.06c-0.92-0.338-1.843-0.676-2.763-1.013
			c-0.083-0.033-0.89-0.114-0.894-0.061c-0.076,0.708-0.153,1.419-0.229,2.128c0.305,0.023,0.607,0.046,0.911,0.069
			c-0.64-0.499-1.278-0.998-1.921-1.499c-0.076-0.058-0.9-0.121-0.911-0.07c-0.156,0.796-0.316,1.594-0.473,2.389
			c0.306,0.022,0.607,0.047,0.911,0.07c-0.421-0.979-0.841-1.958-1.262-2.936c-0.042-0.093-0.795-0.114-0.894-0.075
			c-1.148,0.426-2.294,0.853-3.441,1.281c0.298,0.025,0.597,0.051,0.894,0.076c0.369-0.99,0.738-1.979,1.108-2.967
			c0.005-0.013-0.712-0.08-0.774-0.08c-0.741-0.009-1.48-0.016-2.222-0.023c0.258,0.026,0.516,0.051,0.776,0.079
			c0.609-0.796,1.221-1.593,1.834-2.388c-0.007-0.002-0.012-0.006-0.018-0.009c-0.337-0.112-1.608-0.748-1.86-0.653
			c0.771-0.286,1.54-0.576,2.31-0.861c0.006-0.002,0.012-0.004,0.019-0.007c-0.515-0.697-1.028-1.396-1.542-2.094
			c-0.32-0.433,1.672-0.447,2.092-0.494c0.007-0.002,0.014-0.004,0.021-0.006c-0.132-0.348-0.261-0.697-0.391-1.047
			c-0.299-0.02-0.597-0.041-0.895-0.061c0.577,0.183,1.156,0.365,1.733,0.547C763.121,32.239,763.566,32.153,763.742,32.21z"/>
	</g>
</g>
<path fill="#FFFFFF" d="M812.446,159.361c-53.095,0.105-102.879,3.731-102.879,3.731v7.423h101.817L812.446,159.361z"/>
<path fill="#FFFFFF" d="M478.273,171.018h82.11v-13.659c-23.563,3.367-22.233,11.265-82.11,3.733V171.018z"/>
<g>
	<g>
		<path fill="#1B1B1B" d="M811.659,158.911c-34.106,0.099-68.291,1.259-102.313,3.731c0.096-0.007,0.29,0.909,0.441,0.898
			c34.021-2.474,68.207-3.634,102.313-3.731C811.983,159.81,811.831,158.911,811.659,158.911L811.659,158.911z"/>
	</g>
</g>
<g>
	<g>
		<path fill="#1B1B1B" d="M478.655,161.414c11.533,1.444,23.108,2.729,34.725,3.248c6.733,0.301,13.537,0.336,20.228-0.573
			c8.086-1.1,15.232-4.637,22.907-7.133c-0.142,0.047-0.575-0.706-0.764-0.645c-7.686,2.499-14.821,5.99-22.908,7.132
			c-6.493,0.917-13.113,0.854-19.65,0.598c-11.808-0.464-23.583-1.805-35.302-3.271C478.15,160.802,478.364,161.378,478.655,161.414
			L478.655,161.414z"/>
	</g>
</g>
</svg>
