<?xml version="1.0" encoding="utf-8"?>
<!-- Generator: Adobe Illustrator 15.0.0, SVG Export Plug-In . SVG Version: 6.00 Build 0)  -->
<!DOCTYPE svg PUBLIC "-//W3C//DTD SVG 1.1//EN" "http://www.w3.org/Graphics/SVG/1.1/DTD/svg11.dtd">
<svg version="1.1" id="Ebene_1" xmlns="http://www.w3.org/2000/svg" xmlns:xlink="http://www.w3.org/1999/xlink" x="0px" y="0px"
	 width="595.279px" height="372.814px" viewBox="0 0 595.279 372.814" enable-background="new 0 0 595.279 372.814"
	 xml:space="preserve">
<g id="sun_1_">
	<path fill="#FF9999" d="M482.67,185.533c-23.35-41.219-78.841-53.917-123.941-28.368c-45.107,25.551-62.735,79.682-39.388,120.901
		c23.356,41.212,78.845,53.917,123.948,28.368C488.385,280.879,506.025,226.754,482.67,185.533z"/>
	<path fill="#FF9999" d="M226.124,66.488c-52.529-18.447-108.77,5.523-125.627,53.523c-16.846,48.002,12.067,101.865,64.59,120.308
		c52.525,18.435,108.768-5.521,125.621-53.527C307.564,138.792,278.644,84.931,226.124,66.488z"/>
</g>
<g id="contact">
	<path fill="#EDF8FA" d="M175.401,162.579"/>
	<g>
		<g>
			<path fill="#FFFFFF" d="M172.243,180.439c-1.702-6.623,2.285-13.369,8.909-15.074l228.854-58.822
				c6.623-1.702,13.37,2.287,15.073,8.909l33.535,130.474c1.701,6.621-2.287,13.367-8.907,15.072l-228.854,58.822
				c-6.623,1.703-13.371-2.285-15.073-8.907L172.243,180.439z"/>
			<path d="M217.76,321.144c-6.073,0-11.371-4.113-12.883-10L171.341,180.67c-1.828-7.108,2.469-14.378,9.579-16.207l228.854-58.822
				c1.09-0.28,2.208-0.421,3.324-0.421c6.07,0,11.368,4.113,12.883,10l33.535,130.473c1.826,7.107-2.471,14.379-9.58,16.206
				l-228.853,58.823C219.994,321.003,218.875,321.144,217.76,321.144z M413.096,107.081c-0.96,0-1.922,0.122-2.858,0.363
				l-228.856,58.823c-6.114,1.572-9.81,7.825-8.237,13.937l33.536,130.474c1.302,5.064,5.857,8.601,11.079,8.601
				c0.959,0,1.922-0.121,2.86-0.363l228.853-58.821c6.113-1.573,9.809-7.825,8.237-13.938l-33.533-130.474
				C422.874,110.619,418.317,107.081,413.096,107.081z"/>
		</g>
		<g>
			<circle cx="342.423" cy="176.237" r="8.196"/>
			<path d="M341.12,144.362c-3.33-0.187-16.837,9.205-18.063,14.268c-0.119,0.488-0.072,0.876,0.141,1.145
				c0.199,0.253,0.516,0.382,0.945,0.382c3.373,0,15.717-8.714,17.62-10.074l24.413,19.203l0.505-0.545
				C364.39,166.263,344.215,144.558,341.12,144.362z"/>
			<circle cx="273.965" cy="193.833" r="8.198"/>
			<path d="M264.365,164.581c-1.61,0-3.721,0.12-4.629,0.699c-2.617,1.664-9.825,30.41-10.636,33.68l0.705,0.235l12.127-28.596
				c1.548,0.18,9.205,1.035,14.694,1.035c4.978,0,5.915-0.685,6.179-1.282c0.12-0.272,0.154-0.717-0.363-1.284
				C279.76,166.14,270.22,164.581,264.365,164.581z"/>
		</g>
		<path d="M458.772,250.658l-105.592-36.79c24.114-35.974,60.82-91.694,63.061-95.097c0.28-0.426,0.166-1-0.259-1.286
			c-0.423-0.285-0.998-0.175-1.289,0.245l-71.028,103.367l-3.321,4.854c-4.446,6.591-11.082,11.293-18.686,13.249
			c-7.675,1.975-15.952,0.983-23.063-2.75l-112.986-56.332c-0.453-0.226-1.005-0.047-1.24,0.401
			c-0.234,0.448-0.069,1.003,0.374,1.248c0.725,0.4,58.888,32.576,94.236,53.545l-71.044,79.01
			c-0.343,0.384-0.312,0.973,0.071,1.317c0.177,0.158,0.399,0.237,0.623,0.237c0.254,0,0.509-0.105,0.693-0.308l71.292-79.286
			c7.757,4.617,14.313,8.644,18.75,11.584c6.21,4.116,11.583,6.118,16.425,6.118l0,0c7.29,0,11.61-4.645,14.766-8.038
			c0.672-0.725,1.31-1.408,1.901-1.971c1.064-1.008,9.027-12.675,19.653-28.513l106.053,36.951c0.101,0.034,0.204,0.051,0.307,0.051
			c0.386,0,0.746-0.24,0.879-0.626C459.515,251.359,459.258,250.827,458.772,250.658z"/>
	</g>
</g>
<g id="cloud-front">
	<g>
		<path d="M377.405,83.732c0,0.149-0.024,0.294-0.059,0.433l-16.629-16.704l16.666-16.74c0.009,0.072,0.02,0.142,0.02,0.216v13.194
			h1.864V50.937c0-2.006-1.632-3.639-3.642-3.639h-46.165c-2.007,0-3.641,1.632-3.641,3.639v32.795c0,2.006,1.634,3.639,3.641,3.639
			h46.165c0.948,0,1.805-0.371,2.452-0.966c0.035-0.026,0.077-0.04,0.108-0.072c0.018-0.019,0.026-0.046,0.045-0.066
			c0.638-0.656,1.036-1.549,1.036-2.534v-3.56h-1.864v3.56L377.405,83.732L377.405,83.732z M329.461,49.161h46.166
			c0.204,0,0.396,0.042,0.576,0.104l-16.802,16.875l-1.932-1.941c-1.364-1.391-3.121-2.157-4.943-2.157
			c-1.847,0-3.622,0.785-4.983,2.2l-1.856,1.865l-16.772-16.852C329.086,49.2,329.268,49.161,329.461,49.161z M327.685,83.732
			V50.937c0-0.086,0.012-0.169,0.023-0.251l16.662,16.743l-16.636,16.709C327.705,84.007,327.685,83.873,327.685,83.732z
			 M375.627,85.507h-46.166c-0.142,0-0.277-0.019-0.41-0.051l19.826-19.911c1.017-1.058,2.313-1.64,3.65-1.64
			c1.319,0,2.602,0.568,3.617,1.603l19.865,19.956C375.886,85.492,375.76,85.507,375.627,85.507z"/>
		<path d="M406.607,61.123h-20.506c-0.513,0-0.931,0.418-0.931,0.931c0,0.514,0.418,0.932,0.931,0.932h20.506
			c0.514,0,0.932-0.418,0.932-0.932S407.122,61.123,406.607,61.123z"/>
		<path d="M401.62,67.784h-29.611c-0.514,0-0.932,0.418-0.932,0.932c0,0.515,0.418,0.932,0.932,0.932h29.611
			c0.516,0,0.933-0.417,0.933-0.932C402.552,68.202,402.136,67.784,401.62,67.784z"/>
		<path d="M395.609,73.999h-17.707c-0.514,0-0.933,0.418-0.933,0.931c0,0.515,0.419,0.932,0.933,0.932h17.707
			c0.515,0,0.932-0.417,0.932-0.932C396.541,74.416,396.125,73.999,395.609,73.999z"/>
	</g>
</g>
<g id="cloud-back">
	<g>
		<path d="M137.81,116.524h-1.863v3.559c0,0.985,0.398,1.879,1.037,2.535c0.017,0.021,0.024,0.046,0.045,0.067
			c0.031,0.031,0.074,0.045,0.108,0.071c0.646,0.595,1.504,0.967,2.45,0.967h46.167c2.007,0,3.641-1.631,3.641-3.64V87.288
			c0-2.006-1.633-3.639-3.641-3.639h-46.167c-2.006,0-3.641,1.632-3.641,3.639v13.194h1.863V87.288c0-0.074,0.014-0.144,0.022-0.217
			l16.666,16.74l-16.627,16.705c-0.035-0.14-0.06-0.284-0.06-0.434V116.524L137.81,116.524z M186.303,85.608l-16.772,16.853
			l-1.857-1.866c-1.363-1.414-3.137-2.199-4.986-2.199c-1.821,0-3.578,0.765-4.941,2.156l-1.934,1.942l-16.801-16.876
			c0.183-0.063,0.375-0.104,0.576-0.104h46.167C185.946,85.513,186.128,85.55,186.303,85.608z M187.482,120.489l-16.637-16.71
			l16.663-16.741c0.012,0.083,0.024,0.166,0.024,0.25v32.794C187.531,120.224,187.512,120.358,187.482,120.489z M139.207,121.816
			l19.864-19.955c1.015-1.036,2.299-1.603,3.617-1.603c1.338,0,2.636,0.583,3.653,1.64l19.825,19.91
			c-0.132,0.032-0.267,0.051-0.411,0.051h-46.167C139.457,121.859,139.329,121.844,139.207,121.816z"/>
		<path d="M108.609,97.474h20.506c0.513,0,0.931,0.418,0.931,0.931c0,0.515-0.418,0.932-0.931,0.932h-20.506
			c-0.515,0-0.932-0.417-0.932-0.932C107.677,97.892,108.094,97.474,108.609,97.474z"/>
		<path d="M113.594,104.136h29.613c0.513,0,0.932,0.417,0.932,0.932c0,0.512-0.419,0.931-0.932,0.931h-29.613
			c-0.514,0-0.931-0.419-0.931-0.931C112.662,104.553,113.08,104.136,113.594,104.136z"/>
		<path d="M119.607,110.351h17.707c0.514,0,0.932,0.417,0.932,0.932s-0.417,0.932-0.932,0.932h-17.707
			c-0.516,0-0.932-0.418-0.932-0.932S119.09,110.351,119.607,110.351z"/>
	</g>
</g>
<g id="sun">
	<path fill="#FF9999" d="M404.552,199.162c0-7.827,6.13-14.234,13.838-14.715c-3.483-4.963-9.246-8.209-15.769-8.209
		c-10.633,0-19.254,8.62-19.254,19.253c0,10.636,8.621,19.254,19.254,19.254c3.524,0,6.821-0.95,9.664-2.601
		C407.682,209.639,404.552,204.76,404.552,199.162z"/>
	<path fill="#FF9999" d="M419.316,185.889c-7.318,0-13.273,5.955-13.273,13.273c0,7.319,5.954,13.273,13.273,13.273
		c7.318,0,13.273-5.954,13.273-13.273C432.59,191.844,426.635,185.889,419.316,185.889z"/>
	<path fill="#FF9999" d="M237.417,224.542c-9.774-4.19-21.094,0.334-25.284,10.108c-1.389,3.237-1.815,6.645-1.417,9.906
		c4.114-3.244,9.833-4.197,14.977-1.992c7.195,3.085,10.667,11.243,8.072,18.519c5.933-1.246,11.188-5.261,13.759-11.257
		C251.715,240.052,247.189,228.733,237.417,224.542z"/>
	<path fill="#FF9999" d="M225.105,243.934c-6.726-2.885-14.544,0.239-17.429,6.967c-2.884,6.726,0.242,14.547,6.967,17.43
		c6.726,2.885,14.546-0.239,17.431-6.968C234.958,254.637,231.83,246.819,225.105,243.934z"/>
</g>
</svg>
