<?xml version="1.0" encoding="utf-8"?>
<!-- Generator: Adobe Illustrator 15.0.0, SVG Export Plug-In . SVG Version: 6.00 Build 0)  -->
<!DOCTYPE svg PUBLIC "-//W3C//DTD SVG 1.1//EN" "http://www.w3.org/Graphics/SVG/1.1/DTD/svg11.dtd">
<svg version="1.1" id="Ebene_1" xmlns="http://www.w3.org/2000/svg" xmlns:xlink="http://www.w3.org/1999/xlink" x="0px" y="0px"
	 width="595.279px" height="372.814px" viewBox="0 0 595.279 372.814" enable-background="new 0 0 595.279 372.814"
	 xml:space="preserve">
<g id="sun_1_">
	<path fill="#FF9999" enable-background="new    " d="M527.238,186.49c-31.33-55.309-105.791-72.348-166.311-38.065
		c-60.527,34.285-84.18,106.92-52.852,162.23c31.34,55.302,105.799,72.35,166.32,38.066
		C534.907,314.429,558.577,241.801,527.238,186.49z"/>
	<path fill="#FF9999" enable-background="new    " d="M182.993,26.75C112.508,1.997,37.042,34.161,14.422,98.569
		c-22.605,64.412,16.192,136.688,86.67,161.436c70.479,24.735,145.95-7.41,168.563-71.827
		C292.273,123.77,253.468,51.498,182.993,26.75z"/>
</g>
<g id="contact">
	<path fill="#EDF8FA" d="M114.931,155.689"/>
	<g>
		<g>
			<path fill="#FFFFFF" d="M110.693,179.653c-2.284-8.886,3.067-17.939,11.954-20.226l307.087-78.93
				c8.887-2.284,17.94,3.067,20.225,11.953l45,175.075c2.283,8.885-3.068,17.938-11.953,20.225l-307.086,78.93
				c-8.887,2.285-17.941-3.065-20.226-11.952L110.693,179.653z"/>
			<path d="M171.77,368.459c-8.148,0-15.258-5.519-17.287-13.419l-45-175.075c-2.452-9.538,3.313-19.294,12.853-21.747
				l307.088-78.93c1.462-0.376,2.963-0.566,4.459-0.566c8.147,0,15.256,5.52,17.287,13.419l44.999,175.075
				c2.452,9.538-3.313,19.294-12.853,21.747l-307.086,78.93C174.768,368.267,173.267,368.459,171.77,368.459z M433.881,81.22
				c-1.287,0-2.578,0.164-3.837,0.488l-307.087,78.93c-8.204,2.109-13.163,10.5-11.054,18.702l45,175.075
				c1.747,6.796,7.859,11.542,14.866,11.542c1.287,0,2.579-0.164,3.838-0.488l307.086-78.93
				c8.203-2.109,13.162-10.499,11.054-18.702L448.748,92.762C447.001,85.967,440.887,81.22,433.881,81.22z"/>
		</g>
		<g>
			<circle cx="339.047" cy="174.015" r="10.999"/>
			<path d="M337.298,131.245c-4.466-0.251-22.59,12.352-24.237,19.145c-0.16,0.656-0.097,1.175,0.189,1.537
				c0.268,0.339,0.693,0.512,1.269,0.512c4.526,0,21.09-11.693,23.643-13.517l32.76,25.766l0.676-0.732
				C368.525,160.633,341.452,131.508,337.298,131.245z"/>
			<circle cx="247.189" cy="197.627" r="11"/>
			<path d="M234.306,158.376c-2.161,0-4.992,0.162-6.211,0.938c-3.511,2.233-13.182,40.805-14.272,45.194l0.946,0.315l16.274-38.371
				c2.078,0.241,12.35,1.388,19.717,1.388c6.679,0,7.938-0.919,8.291-1.72c0.161-0.366,0.208-0.963-0.488-1.724
				C254.964,160.468,242.163,158.376,234.306,158.376z"/>
		</g>
		<path d="M495.172,273.878L353.484,224.51c32.356-48.27,81.61-123.039,84.616-127.604c0.377-0.572,0.224-1.342-0.346-1.726
			c-0.568-0.382-1.34-0.235-1.729,0.329l-95.31,138.705l-4.457,6.511c-5.966,8.844-14.872,15.156-25.074,17.779
			c-10.3,2.648-21.403,1.32-30.947-3.691l-151.61-75.588c-0.607-0.302-1.348-0.062-1.664,0.538
			c-0.315,0.603-0.093,1.347,0.501,1.676c0.973,0.536,79.019,43.711,126.451,71.849l-95.33,106.019
			c-0.461,0.515-0.419,1.305,0.094,1.767c0.239,0.215,0.537,0.319,0.836,0.319c0.342,0,0.683-0.14,0.93-0.413l95.663-106.39
			c10.409,6.196,19.206,11.599,25.16,15.545c8.333,5.524,15.542,8.21,22.04,8.21c0.001,0,0.001,0,0.001,0
			c9.78,0,15.579-6.233,19.812-10.787c0.903-0.972,1.755-1.889,2.551-2.643c1.429-1.353,12.114-17.008,26.372-38.259l142.307,49.581
			c0.136,0.047,0.274,0.068,0.41,0.068c0.519,0,1.001-0.322,1.182-0.839C496.168,274.818,495.824,274.105,495.172,273.878z"/>
	</g>
</g>
<g id="cloud-front">
	<g>
		<path d="M385.99,49.888c0,0.201-0.033,0.395-0.08,0.582l-22.313-22.416l22.363-22.462c0.012,0.097,0.028,0.19,0.028,0.291v17.704
			h2.5V5.884c0-2.693-2.19-4.884-4.885-4.884h-61.949c-2.692,0-4.885,2.19-4.885,4.884v44.005c0,2.692,2.191,4.883,4.885,4.883
			h61.949c1.271,0,2.42-0.498,3.289-1.297c0.047-0.035,0.104-0.053,0.146-0.096c0.024-0.026,0.035-0.062,0.059-0.089
			c0.857-0.88,1.391-2.079,1.391-3.401v-4.777h-2.5v4.777H385.99z M321.656,3.5h61.948c0.271,0,0.529,0.055,0.773,0.14
			l-22.545,22.644l-2.594-2.604c-1.83-1.866-4.187-2.894-6.632-2.894c-2.479,0-4.86,1.054-6.688,2.951l-2.492,2.503L320.92,3.627
			C321.153,3.552,321.397,3.5,321.656,3.5z M319.27,49.888V5.884c0-0.116,0.019-0.227,0.033-0.337l22.359,22.465l-22.324,22.421
			C319.298,50.258,319.27,50.077,319.27,49.888z M383.604,52.271h-61.948c-0.191,0-0.373-0.026-0.552-0.069l26.603-26.717
			c1.365-1.419,3.106-2.2,4.901-2.2c1.769,0,3.49,0.762,4.854,2.15l26.654,26.779C383.952,52.251,383.781,52.271,383.604,52.271z"/>
		<path d="M425.175,19.551h-27.516c-0.689,0-1.25,0.56-1.25,1.25c0,0.689,0.561,1.25,1.25,1.25h27.516c0.689,0,1.25-0.561,1.25-1.25
			C426.425,20.11,425.865,19.551,425.175,19.551z"/>
		<path d="M418.483,28.489h-39.735c-0.689,0-1.25,0.561-1.25,1.25c0,0.69,0.561,1.25,1.25,1.25h39.735c0.691,0,1.25-0.56,1.25-1.25
			C419.733,29.05,419.175,28.489,418.483,28.489z"/>
		<path d="M410.417,36.829h-23.76c-0.689,0-1.25,0.56-1.25,1.25c0,0.689,0.561,1.25,1.25,1.25h23.76c0.69,0,1.25-0.561,1.25-1.25
			C411.667,37.388,411.108,36.829,410.417,36.829z"/>
	</g>
</g>
<g id="cloud-back">
	<g>
		<path d="M64.49,93.89h-2.5v4.776c0,1.322,0.533,2.521,1.392,3.401c0.022,0.028,0.032,0.062,0.059,0.089
			c0.043,0.043,0.1,0.062,0.146,0.097c0.868,0.799,2.018,1.297,3.288,1.297h61.949c2.693,0,4.885-2.19,4.885-4.884V54.661
			c0-2.692-2.19-4.884-4.885-4.884h-61.95c-2.692,0-4.885,2.191-4.885,4.884v17.704h2.5V54.661c0-0.1,0.019-0.193,0.029-0.291
			l22.363,22.462L64.57,99.248c-0.047-0.188-0.08-0.381-0.08-0.582L64.49,93.89L64.49,93.89z M129.559,52.406l-22.506,22.613
			l-2.492-2.503c-1.828-1.898-4.209-2.952-6.689-2.952c-2.444,0-4.801,1.027-6.631,2.894l-2.594,2.605L66.102,52.418
			c0.244-0.085,0.502-0.141,0.772-0.141h61.949C129.081,52.278,129.325,52.329,129.559,52.406z M131.141,99.211l-22.324-22.422
			l22.359-22.465c0.016,0.111,0.032,0.223,0.032,0.337v44.005C131.208,98.855,131.182,99.035,131.141,99.211z M66.364,100.991
			l26.654-26.777c1.363-1.39,3.086-2.151,4.854-2.151c1.795,0,3.537,0.782,4.902,2.201l26.602,26.716
			c-0.178,0.043-0.358,0.07-0.551,0.07h-61.95C66.699,101.05,66.528,101.029,66.364,100.991z"/>
		<path d="M25.305,68.328h27.516c0.689,0,1.25,0.561,1.25,1.25c0,0.69-0.561,1.25-1.25,1.25H25.305c-0.689,0-1.25-0.56-1.25-1.25
			C24.055,68.889,24.615,68.328,25.305,68.328z"/>
		<path d="M31.995,77.268h39.736c0.689,0,1.25,0.56,1.25,1.25c0,0.689-0.561,1.25-1.25,1.25H31.995c-0.69,0-1.25-0.561-1.25-1.25
			C30.745,77.827,31.305,77.268,31.995,77.268z"/>
		<path d="M40.063,85.607h23.76c0.689,0,1.25,0.56,1.25,1.25s-0.561,1.25-1.25,1.25h-23.76c-0.691,0-1.25-0.56-1.25-1.25
			S39.37,85.607,40.063,85.607z"/>
	</g>
</g>
<g id="sun">
	<path fill="#FF9999" enable-background="new    " d="M422.417,204.779c0-10.505,8.225-19.102,18.568-19.748
		c-4.674-6.659-12.405-11.016-21.158-11.016c-14.269,0-25.836,11.567-25.836,25.836c0,14.27,11.567,25.836,25.836,25.836
		c4.728,0,9.154-1.275,12.967-3.492C426.618,218.837,422.417,212.289,422.417,204.779z"/>
	<path fill="#FF9999" enable-background="new    " d="M442.227,186.969c-9.82,0-17.81,7.99-17.81,17.811s7.989,17.81,17.81,17.81
		s17.811-7.989,17.811-17.81S452.047,186.969,442.227,186.969z"/>
	<path fill="#FF9999" enable-background="new    " d="M198.146,238.834c-13.115-5.623-28.304,0.448-33.927,13.563
		c-1.863,4.344-2.436,8.915-1.901,13.293c5.521-4.353,13.194-5.633,20.096-2.673c9.655,4.14,14.314,15.087,10.832,24.848
		c7.961-1.671,15.013-7.059,18.463-15.104C217.332,259.647,211.26,244.458,198.146,238.834z"/>
	<path fill="#FF9999" enable-background="new    " d="M181.626,264.855c-9.026-3.871-19.517,0.323-23.388,9.349
		c-3.87,9.025,0.324,19.519,9.349,23.389c9.025,3.87,19.518-0.324,23.389-9.35C194.846,279.217,190.651,268.725,181.626,264.855z"/>
</g>
</svg>
