<?xml version="1.0" encoding="utf-8"?>
<!-- Generator: Adobe Illustrator 15.0.0, SVG Export Plug-In . SVG Version: 6.00 Build 0)  -->
<!DOCTYPE svg PUBLIC "-//W3C//DTD SVG 1.1//EN" "http://www.w3.org/Graphics/SVG/1.1/DTD/svg11.dtd">
<svg version="1.1" id="Ebene_1" xmlns="http://www.w3.org/2000/svg" xmlns:xlink="http://www.w3.org/1999/xlink" x="0px" y="0px"
	 width="595.279px" height="372.814px" viewBox="0 0 595.279 372.814" enable-background="new 0 0 595.279 372.814"
	 xml:space="preserve">
<path fill="#ACCCC1" d="M514.49,72.264c-42.264-28.859-97.692-32.348-123.813-7.805c-26.111,24.549-13.027,67.838,29.229,96.693
	c42.266,28.85,97.695,32.35,123.812,7.799C569.836,144.409,556.748,101.119,514.49,72.264z"/>
<g>
	<path fill="#FFFFFF" d="M211.545,274.829c0,0,35.968,37.923,17.635,57.102s-66.189,21.552-69.821-12.537
		S183.293,259.202,211.545,274.829z"/>
	<g>
		<path fill="#333333" d="M211.045,274.832c8.5,8.981,16.162,19.885,20.45,31.513c2.729,7.399,3.774,15.967-0.679,22.917
			c-4.337,6.77-12.78,11.028-20.131,13.548c-16.045,5.5-38.523,4.248-47.564-12.36c-5.013-9.209-4.352-21.415-1.692-31.212
			c2.743-10.105,9.007-19.373,18.077-24.776C189.413,268.559,201.136,269.46,211.045,274.832c0.273,0.148,0.772-0.13,1-0.006
			c-7.669-4.158-16.333-5.767-24.889-3.837c-9.752,2.199-17.583,9.362-22.451,17.855c-9.256,16.149-9.936,42.14,8.137,52.357
			c13.025,7.364,30.809,5.514,43.965-0.418c6.831-3.08,14.118-7.978,16.881-15.244c2.916-7.667,0.239-16.416-2.97-23.527
			c-4.474-9.913-11.199-19.289-18.673-27.187C211.865,274.636,211.171,274.966,211.045,274.832z"/>
	</g>
</g>
<g>
	<path fill="#FFFFFF" d="M224.752,271.539c0,0,27.799,39.502,9.466,58.68c-18.333,19.18-58.021,19.974-61.652-14.115
		S196.5,255.912,224.752,271.539z"/>
	<g>
		<path fill="#333333" d="M224.252,271.542c7.507,10.696,13.746,23.72,15.416,36.74c1.155,9.011-1.003,17.439-7.764,23.716
			c-6.493,6.027-15.06,9.771-23.782,11.036c-9.307,1.35-19.23-0.884-26.208-7.398c-7.392-6.901-9.349-17.378-9.151-27.075
			c0.228-11.143,4.138-22.294,11.634-30.621c8.192-9.101,20.375-13.073,32.265-9.624
			C219.309,269.084,221.835,270.231,224.252,271.542c0.273,0.148,0.772-0.13,1-0.006c-7.669-4.158-16.333-5.767-24.889-3.837
			c-9.753,2.199-17.583,9.362-22.451,17.855c-9.396,16.394-9.875,44.072,8.777,54.244c13.214,7.206,30.957,3.497,42.656-4.902
			c7.45-5.35,11.565-12.573,11.628-21.808c0.062-8.992-3.16-17.911-6.895-25.963c-2.5-5.39-5.408-10.719-8.827-15.59
			C225.121,271.348,224.334,271.658,224.252,271.542z"/>
	</g>
</g>
<path fill="#ACCCC1" d="M193.362,68.808c-57.805-20.3-119.696,6.077-138.247,58.899c-18.538,52.825,13.28,112.098,71.079,132.395
	c57.802,20.286,119.695-6.076,138.24-58.905C282.983,148.375,251.158,89.104,193.362,68.808z"/>
<g>
	<g>
		<path fill="none" stroke="#333333" stroke-miterlimit="10" d="M65.724,186.446c0.961,0.735,2.068,1.486,3.307,2.245"/>
		<path fill="none" stroke="#333333" stroke-miterlimit="10" stroke-dasharray="7.9274,7.9274" d="M76.031,192.402
			c18.514,8.654,51.68,16.893,83.261,14.487c84.869-6.463,168.086-105.229,149.183-136.602
			c-22.433-37.231-74.346-8.639-54.764,11.396c17.42,17.826,64.582,31.342,86.248,3.845"/>
		<path fill="none" stroke="#333333" stroke-miterlimit="10" d="M342.258,82.302c0.707-1.098,1.379-2.25,2.012-3.458"/>
		<g>
			<path fill="#333333" d="M346.738,73.334c-0.235,3.02-0.081,6.973,0.73,9.754l-3.595-3.557l-5.038-0.434
				C341.48,77.914,344.591,75.47,346.738,73.334z"/>
		</g>
	</g>
</g>
<path fill="#FFFFFF" stroke="#333333" stroke-miterlimit="10" d="M252.626,196.162c-13.672-24.315-49.205-36.155-85.775-26.787
	c-29.863,7.649-52.315,27.369-59.711,49.532c4.961,26.182,23.106,78.754,39.47,93.101c15.887,5.973,35.374,7.125,55.171,2.054
	c19.542-5.006,35.913-15.181,46.968-27.826C256.572,269.208,254.583,218.099,252.626,196.162z"/>
<g>
	<path fill="#FFFFFF" d="M241.721,225.868c0,0,2.777-11.344-9.26-10.187c-11.121,1.069-22.063,22.432-7.408,27.317
		C236.165,246.703,241.721,232.582,241.721,225.868z"/>
	<g>
		<path fill="#333333" d="M242.207,225.749c0.427-1.795,0.377-3.757-0.116-5.527c-1.07-3.838-4.903-4.854-8.459-4.717
			c-6.916,0.267-12.315,6.034-14.844,12.057c-1.484,3.535-1.915,7.716-0.016,11.172c1.881,3.422,6.639,5.457,10.438,4.937
			c7.615-1.042,11.637-8.43,12.791-15.443C242.136,227.407,242.195,226.578,242.207,225.749c0,0.043-0.969,0.115-0.971,0.238
			c-0.101,6.674-4.315,17.32-12.218,17.499c-3.759,0.085-7.681-2.091-9.486-5.376c-1.569-2.854-1.193-6.393-0.283-9.381
			c2.205-7.233,9.298-14.717,17.438-12.622c4.324,1.113,5.466,6.02,4.548,9.88C241.262,225.877,242.164,225.93,242.207,225.749z"/>
	</g>
</g>
<g>
	<path fill="#FFFFFF" d="M234.275,220.269c0,0,13.122,8.37,28.072,7.516c14.949-0.855,38.82-1.347,45.078,2
		c2.338,1.25,3.833,2.401,4.655,3.48c5.756,7.55-21.474,11.546-23.642,21.19c-3.299,14.671,18.591,8.908,10.07,3.873
		c-9.578-5.659-19.648,4.839-24.377-2.366c-11.525-17.558-35.571-11.944-43.522-15.742
		C226.028,238.032,219.895,223.23,234.275,220.269z"/>
	<g>
		<path fill="#333333" d="M234.541,220.692c7.691,4.867,17.3,7.58,26.355,7.574c5.883-0.003,11.786-0.551,17.673-0.649
			c5.854-0.099,11.72-0.052,17.561,0.363c3.773,0.269,8.12,0.483,11.561,2.228c1.894,0.96,5.168,2.566,4.889,5.111
			c-0.133,1.211-1.174,2.194-2.044,2.936c-5.792,4.938-13.891,6.374-19.611,11.522c-3.782,3.403-4.46,10.294,0.112,13.36
			c2.047,1.372,4.927,1.335,7.18,0.564c1.37-0.468,3.189-1.744,2.297-3.388c-1.365-2.516-4.132-3.558-6.855-4.019
			c-5.081-0.861-9.842,1.794-14.85,1.876c-2.714,0.044-4.156-1.573-5.635-3.655c-1.4-1.972-3.111-3.699-4.984-5.222
			c-3.718-3.023-8.284-4.805-12.897-5.925c-4.652-1.13-9.458-1.473-14.219-1.815c-3.454-0.249-7.211-0.296-10.458-1.634
			c-3.762-1.551-5.235-6.939-5.011-10.643C225.903,224.328,230.118,221.684,234.541,220.692c-0.069,0.016-0.388-0.879-0.533-0.846
			c-4.25,0.952-7.975,3.221-8.836,7.754c-0.576,3.034,0.454,6.259,1.947,8.874c0.969,1.698,2.199,3.462,4.027,4.292
			c3.006,1.366,6.73,1.361,9.96,1.598c9.648,0.706,19.659,1.614,27.584,7.754c2.394,1.854,4.197,4.167,5.943,6.618
			c1.012,1.42,2.525,2.096,4.221,2.264c2.157,0.213,4.43-0.501,6.504-0.99c2.702-0.638,5.392-1.145,8.178-0.945
			c1.899,0.136,9.031,1.983,5.836,4.862c-1.68,1.513-4.53,1.667-6.627,1.258c-4.195-0.82-4.797-4.651-4.04-8.306
			c0.68-3.282,4.057-5.505,6.7-7.133c3.473-2.14,7.24-3.764,10.852-5.646c2.358-1.228,5.734-2.788,6.741-5.467
			c0.632-1.682-0.823-3.486-1.914-4.604c-3.012-3.084-7.288-3.968-11.37-4.496c-11.969-1.55-24.373-0.881-36.386-0.241
			c-10.102,0.537-20.707-1.996-29.32-7.446C234.243,219.995,234.276,220.524,234.541,220.692z"/>
	</g>
</g>
<g>
	<g>
		<path fill="none" stroke="#333333" stroke-miterlimit="10" d="M346.261,291.176c1.326-0.228,2.639-0.463,3.938-0.706"/>
		<path fill="none" stroke="#333333" stroke-miterlimit="10" stroke-dasharray="7.7488,7.7488" d="M357.795,288.928
			C483.86,261.311,469.608,159.02,462.146,117.469"/>
		<path fill="none" stroke="#333333" stroke-miterlimit="10" d="M461.454,113.658c-0.258-1.404-0.499-2.716-0.716-3.931"/>
		<g>
			<path fill="#333333" d="M459.793,103.77c1.49,2.637,3.824,5.831,6.051,7.686l-4.969-0.945l-4.422,2.452
				C457.987,110.505,459.204,106.74,459.793,103.77z"/>
		</g>
	</g>
</g>
<g>
	<path fill="#679D46" d="M292.395,215.864c0,0,10.848,14.48,10.062,22.214c-0.787,7.734-0.537,25.516-0.537,25.516
		s-0.466-8.354-7.238-19.753C290.362,236.572,290.75,220.423,292.395,215.864z"/>
	<g>
		<path d="M291.923,215.696c1.893,2.535,3.597,5.223,5.184,7.958c2.371,4.09,5.014,8.963,4.91,13.829
			c-0.18,8.653-0.684,17.267-0.563,25.94c0.312,0.109,0.626,0.226,0.941,0.336c-0.14-2.267-0.757-4.534-1.394-6.697
			c-0.745-2.529-1.738-4.98-2.836-7.379c-1.258-2.748-3.012-5.252-4.146-8.05c-1.8-4.436-2.184-9.501-2.291-14.24
			c-0.086-3.698-0.06-7.813,1.142-11.359C292.88,215.987,291.934,215.662,291.923,215.696c-1.144,3.372-1.16,7.206-1.15,10.724
			c0.014,4.819,0.525,9.775,2.104,14.351c0.855,2.487,2.402,4.688,3.592,7.021c1.367,2.685,2.49,5.49,3.41,8.355
			c0.75,2.327,1.422,4.822,1.575,7.277c0.008,0.156,0.94,0.257,0.941,0.336c-0.117-8.476-0.281-17.069,0.534-25.515
			c0.461-4.753-2.359-9.764-4.594-13.756c-1.636-2.922-3.465-5.773-5.466-8.46C292.687,215.794,292.073,215.896,291.923,215.696z"/>
	</g>
</g>
<g>
	<path fill="#679D46" d="M291.909,278.511l3.747,0.516c4.198-7.739,6.8-16.19,9.351-24.237
		c4.574-14.444,11.147-47.587,10.967-49.903c-0.279-3.542-12.42,45.254-13.605,48.417
		C299.946,259.779,291.909,278.511,291.909,278.511z"/>
	<g>
		<path d="M291.432,278.585c1.25,0.171,2.5,0.343,3.748,0.516c0.145,0.019,0.902-0.003,0.972-0.138
			c5.917-11.083,9.468-23.545,12.503-35.696c2.452-9.813,4.572-19.719,6.445-29.662c0.514-2.721,1.086-5.465,1.349-8.225
			c0.065-0.674-0.454-1.224-1.111-0.564c-0.882,0.892-1.161,3.151-1.501,4.292c-0.934,3.109-1.784,6.245-2.635,9.375
			c-2.936,10.805-5.625,21.668-8.605,32.461c-1.246,4.509-3.246,8.801-5.038,13.109c-2.022,4.852-4.073,9.692-6.142,14.526
			c0.047-0.113,0.906,0.061,0.991-0.131c2.892-6.742,5.757-13.499,8.522-20.298c1.93-4.738,3.25-9.464,4.555-14.41
			c2.033-7.713,4.035-15.435,6.104-23.137c1.378-5.129,2.416-10.718,4.564-15.598c0.15-0.336,0.361-0.347-0.236-0.27
			c-0.167,0.009-0.334,0.02-0.5,0.032c0.76,0.402-1.004,7.35-1.131,8.034c-1.196,6.5-2.559,12.968-3.993,19.416
			c-3.532,15.864-7.435,32.46-15.129,46.87c0.323-0.043,0.649-0.089,0.972-0.136c-1.25-0.172-2.498-0.343-3.748-0.516
			C292.093,278.401,291.628,278.611,291.432,278.585z"/>
	</g>
</g>
<g>
	<path fill="#E1B6E1" d="M321.914,174.141c0,0-14.183-23.792-17.885-24.411c-3.122-0.525-2.634,4.116-1.841,6.151
		c0.633,1.631-3.312,1.4-3.676,3.571c-0.783,4.695,5.154,11.634,8.859,13.733c3.704,2.1,12.057,5.192,14.885,4.968
		C325.085,177.925,321.914,174.141,321.914,174.141z"/>
	<g>
		<path d="M321.772,173.68c-3.121-5.231-6.398-10.382-9.873-15.383c-1.908-2.746-3.869-5.596-6.295-7.915
			c-0.811-0.776-1.525-1.262-2.686-1.111c-1.961,0.256-1.49,3.634-1.256,4.875c0.162,0.86,0.77,1.634-0.016,2.3
			c-1.48,1.253-3.529,1.039-3.357,3.586c0.227,3.286,1.965,6.286,3.945,8.821c3.312,4.241,7.788,6.273,12.737,8.051
			c1.351,0.486,9.612,3.644,8.445-0.143c-0.354-1.146-0.894-2.166-1.656-3.099c0.188,0.229,0.103,0.707,0.306,0.95
			c3.633,4.437-3.24,2.66-5.48,1.976c-4.18-1.272-8.646-2.907-11.968-5.829c-2.938-2.587-9.464-10.264-3.741-12.824
			c0.912-0.408,1.727-0.729,1.408-1.824c-0.473-1.601-0.799-3.259-0.201-4.876c1.096-2.961,4.268,0.481,5.189,1.518
			c2.361,2.658,4.379,5.644,6.37,8.581c2.937,4.335,5.737,8.767,8.418,13.261C321.948,174.417,321.925,173.934,321.772,173.68z"/>
	</g>
</g>
<g>
	<path fill="#E1B6E1" d="M323.51,183.242c0,0-9.52,14.667-13.449,16.804c-3.928,2.132-17.863,4.274-19.957,1.514
		c-2.095-2.765-0.668-9.818,4.079-12.48c4.745-2.662,10.667-5.032,17.158-5.422C317.831,183.269,323.51,183.242,323.51,183.242z"/>
	<g>
		<path d="M323.235,182.824c-3.004,4.617-6.185,9.187-9.773,13.372c-1.853,2.158-3.568,3.596-6.298,4.453
			c-3.591,1.127-7.452,1.661-11.204,1.791c-1.546,0.056-3.127-0.013-4.625-0.416c-1.71-0.46-1.869-1.988-1.896-3.565
			c-0.076-4.346,2.703-7.739,6.342-9.681c8.804-4.697,18.244-5.062,28.008-5.117C323.628,183.66,323.44,182.823,323.235,182.824
			c-10.322,0.06-21.609,0.223-30.367,6.526c-3.805,2.736-6.558,12.323-0.23,13.688c3.824,0.829,8.232-0.002,11.994-0.774
			c3.177-0.651,5.83-1.503,8.117-3.84c4.259-4.356,7.728-9.67,11.039-14.763C323.872,183.527,323.178,182.913,323.235,182.824z"/>
	</g>
</g>
<g>
	<path fill="#E1B6E1" d="M304.684,170.104c0,0-18.277-3.086-19.227-2.015c-0.951,1.076-1.569,2.174-0.319,3.063
		c1.245,0.89-2.993-0.224-3.036,1.782c-0.045,2.006,2.193,6.044,5.719,7.586c3.523,1.541,8.661,5.483,13.137,5.951
		c4.477,0.469,24.133-4.812,23.529-5.477C323.887,180.329,304.684,170.104,304.684,170.104z"/>
	<g>
		<path d="M304.495,169.643c-4.537-0.767-9.094-1.457-13.67-1.954c-1.229-0.134-4.463-0.936-5.56-0.064
			c-0.686,0.548-1.228,1.606-0.895,2.463c0.265,0.673,0.812,1.026,1.063,1.567c-0.086-0.237-0.172-0.471-0.26-0.707
			c-0.711,0.842-2.474-0.186-3.205,1.16c-0.461,0.846,0.408,2.507,0.746,3.296c1.992,4.617,6.723,6.276,10.822,8.579
			c2.4,1.351,5.043,2.744,7.836,2.968c1.557,0.123,3.193-0.213,4.717-0.462c4.281-0.702,8.52-1.761,12.702-2.919
			c0.534-0.147,6.11-1.493,5.863-2.225c-0.467-1.377-2.009-1.847-3.208-2.522c-5.597-3.148-11.274-6.16-16.94-9.179
			C304.505,169.647,304.502,169.644,304.495,169.643c0.195,0.102,0.131,0.792,0.383,0.923c3.23,1.723,6.454,3.453,9.676,5.196
			c2.208,1.195,4.411,2.395,6.606,3.618c1.121,0.625,2.562,1.198,3.521,2.077c-0.105-0.228-0.209-0.456-0.311-0.685
			c0.016,0.037-6.742,2.095-7.386,2.268c-4.276,1.152-8.622,2.188-13.013,2.791c-5.064,0.695-9.152-1.822-13.43-4.261
			c-3.307-1.885-7.531-3.419-8.232-7.798c-0.379-2.37,2.463-0.973,3.244-1.899c0.07-0.082-0.222-0.623-0.26-0.706
			c-2.072-4.499,6.367-2.517,8.32-2.275c3.766,0.466,7.523,1.042,11.264,1.672C304.745,170.545,304.707,169.677,304.495,169.643z"/>
	</g>
</g>
<g>
	<path fill="#E1B6E1" d="M322.236,180.186c0,0-2.51-6.563-3.014-12.884c-0.515-6.461,0.573-16.866,3.522-22.851
		c2.34-4.758,3.383-1.395,3.383-1.395s2.353-3.105,3.335-3.003c0.982,0.104,2.104,2.232,1.928,3.89
		c-0.174,1.658,3.695-0.115,3.324,5.04c-0.373,5.154-6.271,32.664-7.243,33.917C326.505,184.152,324.157,181.101,322.236,180.186z"
		/>
	<g>
		<path d="M322.736,180.204c-2.511-6.639-3.458-13.542-2.966-20.605c0.298-4.299,1.053-8.615,2.455-12.694
			c0.375-1.085,2.457-6.682,3.402-3.868c0.021,0.062,0.945,0.107,0.999,0.036c0.62-0.808,1.293-1.567,2.035-2.268
			c1.426-1.356,2.066,1.352,2.236,2.479c0.127,0.865-0.107,1.184,0.795,1.517c1.053,0.388,1.768,0.674,2.271,1.73
			c0.762,1.598,0.066,4.133-0.207,5.815c-0.422,2.6-0.928,5.186-1.438,7.77c-1.092,5.526-2.273,11.038-3.58,16.52
			c-0.418,1.753-0.84,3.512-1.37,5.235c-0.105,0.336-0.201,0.712-0.396,1.011C326.665,183.348,323.552,180.655,322.736,180.204
			c-0.272-0.15-0.759,0.095-1-0.037c1.849,1.021,3.296,3.185,5.577,3.06c1.202-0.066,1.44-2.641,1.663-3.482
			c1.699-6.465,3.037-13.038,4.344-19.59c0.584-2.93,1.146-5.869,1.605-8.821c0.311-2.028,1-5.318-1.459-6.234
			c-1.66-0.618-1.41-0.707-1.666-2.434c-0.154-1.039-0.891-2.543-2.084-2.627c-1.863-0.131-3.051,1.646-4.089,2.996
			c0.333,0.013,0.666,0.025,1,0.036c-0.385-1.141-1.17-1.232-2.215-1.187c-1.381,0.062-2.268,2.727-2.697,3.718
			c-1.07,2.458-1.666,5.125-2.16,7.749c-1.697,9.033-1.073,18.198,2.182,26.813C321.796,180.322,322.704,180.121,322.736,180.204z"
			/>
	</g>
</g>
<g>
	<path fill="#E1B6E1" d="M323.042,176.747c0,0,22.321-21.122,26.146-22.397c2.615-0.874,2.477,1.85,2.369,2.843
		c-0.102,0.995,2.648-0.037,3.363,0.418c1.295,0.827-0.242,3.514-0.994,4.275c-0.75,0.758,2.318,0.409,0.436,3.899
		c-1.877,3.49-7.393,8.388-8.551,9.177c-3.156,2.147-10.746,5.392-15.357,6.249C325.834,182.066,321.3,180.587,323.042,176.747z"/>
	<g>
		<path d="M323.128,177.24c4.279-4.046,8.62-8.03,13.017-11.948c2.982-2.66,5.99-5.299,9.125-7.775
			c1.246-0.98,6.596-5.297,6.193-0.795c-0.016,0.192,0.094,1.134,0.244,1.226c0.717,0.424,1.781,0.086,2.574,0.036
			c1.867-0.123,0.303,2.432-0.201,3.13c-0.4,0.554-0.391,0.703-0.23,1.38c0.057,0.229,0.172,0.32,0.361,0.457
			c1.098,0.796,0.373,1.794-0.205,2.806c-2.111,3.686-5.932,7.372-9.602,9.529c-4.707,2.766-10.688,5.368-16.197,5.665
			C325.897,181.073,321.952,180.32,323.128,177.24c0.108-0.283-0.268-0.743-0.177-0.984c-1.097,2.875,0.462,4.982,3.433,5.558
			c5.347,1.04,11.952-2.361,16.575-4.673c4.086-2.044,7.426-5.372,10.217-8.945c1.131-1.446,3.029-4.501,1.029-6.107
			c-0.586-0.469,0.02,0.002-0.193,0.289c0.273-0.37,0.545-0.706,0.791-1.101c0.348-0.56,0.754-1.408,0.703-2.099
			c-0.055-0.772-0.1-1.494-0.678-2.058c-0.465-0.455-2.111,0.012-2.693,0.03c-0.51,0.018-0.469,0.392-0.443-0.099
			c0.016-0.278-0.012-0.529-0.033-0.808c-0.039-0.544-0.146-1.558-0.525-1.988c-1.678-1.908-5.391,1.759-6.666,2.772
			c-3.189,2.544-6.248,5.261-9.289,7.982c-4.127,3.69-8.202,7.443-12.228,11.248C322.798,176.403,323.233,177.141,323.128,177.24z"
			/>
	</g>
</g>
<g>
	<path fill="#E1B6E1" d="M335.193,176.397c0,0,27.307,3.212,31.98,9.07c1.887,2.368-0.867,2.281-1.9,2.55
		c-1.033,0.266,3.182,3.223-4.268,4.748c-7.418,1.515-17.68,4.389-30.932-7.055c-13.253-11.442-4.324-10.302-4.324-10.302
		L335.193,176.397z"/>
	<g>
		<path d="M334.842,176.397c6.521,0.772,13.049,1.926,19.418,3.538c3.768,0.954,7.85,2.049,11.084,4.286
			c1.109,0.766,3.117,2.762,0.953,3.472c-1.256,0.413-1.943-0.06-1.41,1.374c1.365,3.683-7.027,4.249-9.35,4.64
			c-7.5,1.261-14.307-0.519-20.58-4.612c-2.939-1.919-5.605-4.306-8.081-6.781c-1.332-1.332-2.791-2.859-3.443-4.666
			c-0.538-1.496,0.934-2.365,1.957-2.241C328.535,175.787,331.693,176.067,334.842,176.397c0.123,0.013,1.088,0.038,0.707-0.002
			c-3.693-0.388-7.701-1.37-11.436-1.028c-1.823,0.165-2.082,1.512-1.335,3.013c0.941,1.896,2.662,3.468,4.16,4.918
			c2.769,2.684,5.804,5.089,9.128,7.05c7.25,4.277,15.215,4.533,23.244,2.902c2.02-0.412,4.215-0.671,5.941-1.871
			c1.16-0.805,0.707-1.901,0.367-2.975c-0.145-0.453,2.373-0.626,2.691-1.463c0.492-1.278-2.363-2.954-3.184-3.426
			c-5.164-2.962-11.586-4.069-17.355-5.189c-4.045-0.787-8.129-1.446-12.219-1.93C335.427,176.381,334.461,176.353,334.842,176.397z
			"/>
	</g>
</g>
<g>
	<path fill="#E1B6E1" d="M317.369,188.191c0,0-2.749,10.732-2.522,18.171c0.094,3.021,1.151,10.677,3.99,11.101
		c2.84,0.419,2.45-1.34,3.393-0.111c0.942,1.232,2.581,2.998,4.059,0.904c0.896-1.274,1.618-2.23,2.903-1.344
		c1.291,0.892,3.471-7.929,2.588-12.672c-0.885-4.744-5.101-19.136-5.101-19.136s-5.629-3.555-6.629-2.405
		C319.048,183.852,317.369,188.191,317.369,188.191z"/>
	<g>
		<path d="M316.966,187.897c-2.137,8.404-4.26,18.547-0.811,26.873c0.869,2.104,3.178,3.949,5.49,2.627
			c0.315-0.18,0.411-0.074,0.189-0.327c0.379,0.435,0.723,0.851,1.143,1.245c0.246,0.233,0.562,0.43,0.831,0.624
			c1.714,1.237,2.616-0.166,3.747-1.503c0.806-0.957,1.374-0.111,2.329-0.185c0.463-0.038,0.797-1.02,0.943-1.339
			c0.996-2.235,1.312-4.864,1.504-7.273c0.346-4.362-1.203-8.735-2.328-12.893c-0.932-3.432-1.9-6.854-2.899-10.267
			c-0.337-1.158-3.858-2.359-4.677-2.722c-1.263-0.555-2.411-0.991-3.249,0.312C318.238,184.544,317.596,186.274,316.966,187.897
			c-0.041,0.109,0.828,0.541,0.809,0.59c0.551-1.418,1.527-5.227,3.107-5.705c1.684-0.507,4.778,1.732,6.139,2.586
			c-0.248-0.185-0.498-0.372-0.744-0.558c1.669,5.71,3.325,11.438,4.69,17.231c0.861,3.669,0.654,7.258-0.201,10.92
			c-0.27,1.164-0.609,2.783-1.535,3.63c-0.271,0.246-1.156-0.273-1.567-0.298c-0.887-0.056-1.801,1.693-2.276,2.231
			c-1.89,2.133-2.776-2.456-4.343-1.838c-1.937,0.768-3.088,0.747-4.078-1.323c-0.844-1.774-1.172-3.83-1.451-5.757
			c-1.004-6.93,0.553-14.399,2.26-21.118C317.811,188.336,316.94,187.985,316.966,187.897z"/>
	</g>
</g>
<g>
	<path fill="#E1B6E1" d="M339.322,187.309c0,0,16.326,20.717,12.395,29.322c-0.871,1.905-5.762,0.148-8.453-0.889
		c-3.625-1.383-12.129-10.191-14.455-15.59c-2.323-5.396-8.833-16.623-2.142-18.934C330.578,179.87,339.322,187.309,339.322,187.309
		z"/>
	<g>
		<path d="M339.461,187.79c3.605,4.59,6.826,9.58,9.475,14.781c2.018,3.96,4.508,9.148,2.645,13.583
			c-1.25,2.973-9.291-1.173-10.965-2.396c-4.053-2.967-7.6-7.054-10.363-11.216c-1.184-1.783-1.977-3.771-2.88-5.702
			c-1.532-3.271-3.305-6.761-3.504-10.417c-0.107-1.971,0.689-3.61,2.443-4.521c1.644-0.857,3.646-0.05,5.192,0.63
			C334.381,183.795,337.068,185.765,339.461,187.79c-0.193-0.166-0.051-0.771-0.275-0.961c-2.547-2.154-5.379-4.126-8.438-5.472
			c-3.974-1.747-7.37,0.183-7.128,4.657c0.176,3.274,1.688,6.617,2.995,9.557c1.943,4.369,3.951,8.375,7.025,12.072
			c2.914,3.504,6.424,7.353,10.791,8.972c1.988,0.738,4.477,1.742,6.621,1.188c1.395-0.361,1.41-2.897,1.414-4.026
			c0.027-6.879-4.504-13.98-8.045-19.512c-1.633-2.549-3.363-5.057-5.236-7.437C339.365,187.057,339.263,187.538,339.461,187.79z"/>
	</g>
</g>
<g>
	<polygon fill="#F2E44A" points="324.453,172.843 323.018,171.463 322.891,172.681 320.521,171.818 321.07,174.95 318.289,174.66 
		319.883,176.232 316.917,177.679 319.086,178.784 316.553,181.156 320.553,181.575 320.361,185.07 321.991,182.956 
		323.143,185.361 324.405,183.385 326.622,185.726 326.983,182.249 329.347,183.199 329.674,180.071 328.902,179.022 
		329.947,177.462 327.624,176.163 330.24,174.68 326.433,174.106 328.058,171.991 	"/>
	<g>
		<path d="M324.873,173.084c-0.479-0.462-0.958-0.92-1.438-1.38c-0.083-0.082-0.849-0.472-0.847-0.495
			c-0.044,0.432,0.117,1.299-0.477,1.083c-0.666-0.241-1.334-0.485-2-0.728c-0.006-0.001-0.014-0.002-0.021-0.003
			c0.178,1.014,0.359,2.03,0.535,3.045c0.01,0.057-2.446-0.169-2.746-0.201c-0.023-0.007-0.025-0.002-0.01,0.015
			c0.331,0.327,1.85,1.425,1.273,1.708c-0.885,0.432-1.771,0.865-2.656,1.295c0.033-0.016,0.643,0.416,0.721,0.457
			c0.725,0.37,1.445,0.737,2.171,1.106c-0.243-0.152-0.483-0.303-0.722-0.456c-0.844,0.789-1.688,1.581-2.535,2.37
			c0.009-0.008,0.723,0.498,0.838,0.511c1.334,0.14,2.669,0.279,4.003,0.417c-0.282-0.169-0.562-0.339-0.841-0.508
			c-0.062,1.165-0.127,2.329-0.189,3.495c-0.006,0.095,0.838,0.54,0.859,0.513c0.543-0.703,1.086-1.41,1.627-2.113
			c-0.289-0.173-0.572-0.342-0.859-0.514c0.383,0.801,0.768,1.604,1.153,2.409c0.048,0.097,0.837,0.548,0.86,0.511
			c0.42-0.659,0.84-1.319,1.262-1.978c-0.285-0.165-0.566-0.33-0.85-0.495c0.739,0.78,1.479,1.562,2.218,2.341
			c0.083,0.088,0.851,0.468,0.849,0.495c0.109-1.056,0.221-2.116,0.332-3.171c0.057-0.56,1.933,0.468,2.372,0.644
			c0.008,0.001,0.014,0.001,0.021,0.002c0.109-1.042,0.219-2.086,0.326-3.129c0.031-0.315-0.943-0.789-0.693-1.166
			c0.322-0.481,0.643-0.962,0.965-1.444c0.021-0.03-0.492-0.33-0.527-0.348c-0.775-0.432-1.549-0.865-2.323-1.299
			c0.174,0.116,0.353,0.235,0.526,0.349c0.873-0.494,1.746-0.991,2.619-1.483c-0.059,0.032-0.693-0.487-0.84-0.509
			c-1.268-0.193-2.536-0.383-3.806-0.576c0.279,0.169,0.56,0.341,0.838,0.51c0.541-0.704,1.085-1.409,1.626-2.113
			c0-0.002-0.739-0.541-0.86-0.513c-1.199,0.283-2.404,0.569-3.605,0.852c0.197-0.047,0.6,0.571,0.86,0.513
			c1.201-0.285,2.405-0.57,3.605-0.852c-0.287-0.171-0.57-0.342-0.86-0.513c-0.539,0.704-1.084,1.41-1.627,2.112
			c-0.015,0.02,0.74,0.497,0.84,0.511c1.269,0.192,2.538,0.381,3.806,0.574c-0.279-0.169-0.561-0.339-0.838-0.508
			c-0.871,0.494-1.746,0.988-2.616,1.481c0.012-0.005,0.486,0.328,0.527,0.349c0.776,0.434,1.55,0.864,2.325,1.3
			c-0.178-0.117-0.355-0.234-0.529-0.348c-0.346,0.52-0.695,1.04-1.043,1.56c0.006,0.006,0.008,0.011,0.014,0.019
			c0.912,1.242,0.662,1.968,0.502,3.485c-0.127,1.214-1.585,0.059-2.413-0.272c-0.009-0.001-0.016-0.002-0.021-0.003
			c-0.121,1.16-0.242,2.317-0.363,3.476c0.284,0.166,0.564,0.33,0.85,0.495c-0.739-0.779-1.48-1.561-2.219-2.34
			c-0.067-0.072-0.817-0.546-0.85-0.495c-0.418,0.659-0.838,1.319-1.259,1.978c0.288,0.17,0.573,0.341,0.86,0.512
			c-0.385-0.801-0.768-1.602-1.154-2.407c-0.049-0.095-0.826-0.558-0.859-0.514c-0.542,0.705-1.088,1.41-1.628,2.114
			c0.288,0.171,0.573,0.342,0.86,0.513c0.063-1.166,0.129-2.33,0.191-3.494c0.004-0.112-0.725-0.5-0.838-0.511
			c-1.335-0.14-2.668-0.28-4.002-0.419c0.279,0.169,0.561,0.341,0.839,0.511c0.845-0.791,1.688-1.581,2.534-2.372
			c0.01-0.01-0.661-0.425-0.722-0.457c-0.723-0.37-1.444-0.735-2.169-1.105c0.242,0.152,0.483,0.303,0.723,0.457
			c0.986-0.483,1.975-0.967,2.963-1.448c-0.004-0.005-0.01-0.013-0.014-0.019c-0.277-0.274-1.213-1.517-1.506-1.547
			c0.895,0.095,1.792,0.186,2.686,0.28c0.006,0.001,0.015,0.002,0.021,0.003c-0.164-0.935-0.328-1.872-0.491-2.806
			c-0.105-0.582,1.856,0.375,2.293,0.535c0.007,0.001,0.014,0.002,0.021,0.003c0.039-0.404,0.084-0.81,0.127-1.218
			c-0.285-0.166-0.565-0.33-0.848-0.495c0.478,0.461,0.957,0.92,1.434,1.381C324.248,172.809,324.725,172.941,324.873,173.084z"/>
	</g>
</g>
<g>
	<path fill="#FFFFFF" d="M160.776,176.957c0,0-17.618,7.948-6.723,19.958c10.065,11.094,56.464,2.362,53.913-15.494
		C205.689,165.483,169.93,170.461,160.776,176.957z"/>
	<g>
		<path fill="#333333" d="M160.371,176.663c-4.937,2.252-10.466,6.796-10.262,12.701c0.214,6.188,6.265,10.267,11.622,11.69
			c7.684,2.042,16.271,1.131,23.913-0.617c7.168-1.641,15.199-4.531,20.086-10.315c3.06-3.62,3.694-8.657,0.96-12.657
			c-2.345-3.431-6.779-5.207-10.646-6.091c-6.512-1.49-13.512-1.022-20.047,0.046C170.735,172.28,164.833,173.579,160.371,176.663
			c0.062-0.042,0.691,0.669,0.81,0.588c5.971-4.128,14.344-5.354,21.396-5.965c7.382-0.639,19.638-0.895,23.907,6.55
			c3.515,6.132-1.104,12.261-6.059,15.669c-6.711,4.616-15.239,6.73-23.224,7.655c-8.631,1-20.862,1.229-25.354-7.742
			c-3.524-7.04,3.452-13.484,9.335-16.167C161.062,177.305,160.548,176.583,160.371,176.663z"/>
	</g>
</g>
<g>
	<path fill="#FFFFFF" d="M160.755,86.608L160.755,86.608c-3.491,0.498-40.536,7.145-37.508,59.431l7.75,15.543
		c0,0,12.762,0.436,20.524,10.728c3.63,4.814,13.676,16.597,28.527,14.368l-0.034-0.005c14.615-3.418,19.605-18.205,21.201-24.018
		c3.413-12.431,15.112-17.549,15.112-17.549l1.462-17.306C200.484,75.639,160.755,86.608,160.755,86.608z"/>
	<g>
		<path fill="#333333" d="M160.271,86.481c-8.246,1.192-16.194,5.589-22.209,11.219c-5.714,5.348-9.697,12.243-12.169,19.624
			c-1.636,4.885-2.526,9.997-2.991,15.118c-0.263,2.9-0.332,5.815-0.307,8.725c0.015,1.785-0.273,3.859,0.539,5.487
			c2.46,4.934,4.92,9.867,7.38,14.801c0.072,0.144,0.791,0.25,0.949,0.256c4.54,0.179,9.004,1.925,12.834,4.289
			c4.564,2.816,7.262,7.288,10.911,11.049c6.634,6.84,15.704,11.049,25.325,9.755c-0.229,0.031-0.651-0.209-0.898-0.249
			c-0.011-0.002-0.022-0.003-0.034-0.005c0.299,0.083,0.599,0.166,0.898,0.249c9.851-2.45,16.224-10.297,19.725-19.452
			c1.577-4.124,2.45-8.267,4.917-12.031c2.337-3.565,5.631-6.507,9.23-8.754c0.75-0.468,1.527-0.902,2.328-1.279
			c0.324-0.153,0.223-1.353,0.25-1.667c0.312-3.686,0.623-7.372,0.935-11.057c0.113-1.339,0.226-2.678,0.339-4.018
			c0.163-1.922-1.188-4.177-1.875-5.939c-2.105-5.408-4.765-10.605-8.015-15.415c-7.2-10.655-17.735-18.227-30.371-20.794
			C172.323,85.248,165.891,84.943,160.271,86.481c0.256-0.07,0.674,0.333,0.968,0.253c8.296-2.27,18.07-0.822,25.77,2.566
			c7.823,3.443,14.277,9.296,19.3,16.134c3.343,4.552,5.982,9.592,8.198,14.774c0.615,1.438,1.175,2.899,1.719,4.365
			c0.303,0.817,1.148,2.31,1.075,3.172c-0.093,1.101-0.186,2.201-0.279,3.302c-0.393,4.644-0.785,9.288-1.178,13.932
			c-0.024,0.293-3.382,1.935-3.711,2.157c-2.777,1.879-5.206,4.233-7.233,6.899c-4.014,5.28-4.81,12.099-7.814,17.918
			c-3.674,7.119-9.682,12.634-17.555,14.592c0.19-0.047,0.681,0.214,0.898,0.249c0.011,0.002,0.022,0.003,0.034,0.005
			c-0.3-0.083-0.599-0.166-0.898-0.249c-8.155,1.097-15.437-2.068-21.438-7.38c-3.59-3.177-6.083-7.313-9.626-10.504
			c-4.656-4.192-11.647-6.965-17.967-7.214c0.316,0.085,0.632,0.17,0.949,0.256c-2.56-5.133-5.119-10.267-7.679-15.399
			c-0.328-0.658-0.155-1.822-0.184-2.549c-0.06-1.538-0.068-3.077-0.057-4.616c0.022-3.055,0.232-6.106,0.587-9.139
			c0.578-4.943,1.715-9.819,3.436-14.489c4.555-12.361,14.084-22.225,26.437-26.844c2.324-0.869,4.757-1.583,7.218-1.938
			C160.954,86.776,160.586,86.435,160.271,86.481z"/>
	</g>
</g>
<ellipse transform="matrix(0.9731 -0.2304 0.2304 0.9731 -25.8797 47.0112)" fill="#333333" cx="188.377" cy="134.331" rx="7.449" ry="8.96"/>
<path fill="none" stroke="#333333" stroke-miterlimit="10" d="M200.542,142.434c0.318-2.311,0.212-4.837-0.396-7.405
	c-1.972-8.332-8.453-13.93-14.476-12.504c-6.021,1.426-9.305,9.335-7.333,17.667c0.608,2.568,1.646,4.874,2.966,6.797
	L200.542,142.434z"/>
<ellipse transform="matrix(0.9731 -0.2304 0.2304 0.9731 -28.7705 38.1381)" fill="#333333" cx="148.934" cy="142.273" rx="7.449" ry="8.96"/>
<path fill="none" stroke="#333333" stroke-miterlimit="10" d="M161.099,150.377c0.318-2.311,0.212-4.837-0.396-7.405
	c-1.972-8.332-8.453-13.93-14.476-12.504c-6.021,1.426-9.305,9.335-7.333,17.667c0.608,2.568,1.646,4.874,2.966,6.797
	L161.099,150.377z"/>
<path fill="#333333" d="M164.453,168.991c-0.257-2.949,6.307,1.074,22.689-6.446c3.442-1.581,3.687,10.002-8.774,12.625
	C171.86,176.539,164.983,175.054,164.453,168.991z"/>
<g>
	<g>
		<path fill="#333333" d="M119.112,225.104c4.803,4.995,12.403,7.751,18.917,9.416c18.213,4.656,37.927,1.006,55.388-4.876
			c5.017-1.69,9.935-3.664,14.783-5.785c-0.174,0.076-0.694-0.036-0.961,0.08c-21.058,9.215-45.3,16.168-68.253,10.465
			c-6.481-1.61-14.104-4.436-18.879-9.401C119.94,224.829,119.222,225.219,119.112,225.104L119.112,225.104z"/>
	</g>
</g>
<g>
	<path fill="#FFFFFF" d="M300.832,264.138c-6.642,6.049-21.161,1.27-7.739-19.47c4.268-6.595,15.518,1.035,17.328-10.862
		C311.53,226.52,322.521,244.385,300.832,264.138z"/>
	<g>
		<path fill="#333333" d="M300.42,263.855c-2.228,1.95-5.212,2.868-8.13,2.205c-4.05-0.921-4.595-5.579-4.096-8.99
			c0.385-2.629,1.471-5.14,2.637-7.503c1.17-2.372,2.476-5.234,4.832-6.642c3.025-1.808,7.029-0.968,10.311-2.005
			c1.73-0.546,2.982-1.764,3.828-3.334c0.802-1.484,0.587-3.364,1.456-4.761c1.118-1.796,2.18,2.809,2.32,3.65
			C315.343,247.017,307.624,257.189,300.42,263.855c0.021-0.02,0.739,0.645,0.824,0.566c7.363-6.813,14.685-16.717,13.159-27.38
			c-0.238-1.665-0.768-3.613-2.209-4.638c-1.117-0.793-1.828-0.542-2.145,0.884c-0.975,4.396-2.723,6.947-7.357,7.604
			c-3.459,0.489-7.318,0.113-9.748,3.115c-4.117,5.088-9.424,16.662-2.305,21.491c3.323,2.253,7.68,1.485,10.604-1.076
			C301.216,264.446,300.512,263.774,300.42,263.855z"/>
	</g>
</g>
<g>
	<path fill="#FFFFFF" d="M277.096,236.177c0,0-0.525,12.705,5.16,10.219c5.685-2.485,9.586-2.967,7.508-8.168
		c-2.077-5.204-3.154-6.281-3.154-6.281S280.148,227.634,277.096,236.177z"/>
	<g>
		<path fill="#333333" d="M276.632,235.992c-0.115,3.06-0.188,8.186,2.555,10.19c0.756,0.551,1.867,0.793,2.764,0.652
			c1.707-0.268,3.596-1.402,5.186-2.085c1.295-0.556,2.586-1.222,3.334-2.461c1.492-2.474-1.472-7.01-2.688-9.125
			c-0.468-0.814-0.773-1.146-1.616-1.518C281.744,229.692,278.415,231.378,276.632,235.992c-0.011,0.029,0.921,0.393,0.93,0.369
			c0.879-2.275,2.129-4.42,4.591-5.16c1.059-0.319,3.181-0.299,4.005,0.572c0.981,1.038,1.558,2.615,2.137,3.883
			c0.958,2.095,2.461,4.813,0.793,6.916c-1.428,1.802-4.578,2.5-6.594,3.338c-0.48,0.199-1.821,0.944-2.406,0.619
			c-0.779-0.434-1.212-1.398-1.531-2.18c-0.994-2.425-1.092-5.394-0.994-7.988C277.567,236.223,276.63,236.075,276.632,235.992z"/>
	</g>
</g>
</svg>
