<?xml version="1.0" encoding="utf-8"?>
<!-- Generator: Adobe Illustrator 15.0.0, SVG Export Plug-In . SVG Version: 6.00 Build 0)  -->
<!DOCTYPE svg PUBLIC "-//W3C//DTD SVG 1.1//EN" "http://www.w3.org/Graphics/SVG/1.1/DTD/svg11.dtd">
<svg version="1.1" id="Ebene_1" xmlns="http://www.w3.org/2000/svg" xmlns:xlink="http://www.w3.org/1999/xlink" x="0px" y="0px"
	 width="259.253px" height="82.271px" viewBox="0 0 259.253 82.271" enable-background="new 0 0 259.253 82.271"
	 xml:space="preserve">
<g>
	<g>
		<path fill="none" stroke="#474746" stroke-miterlimit="10" stroke-dasharray="4.9755,4.9755" d="M147.902,67.914
			c-27.968,12.306-71.514-0.586-77.106-12.611c-9.795-16.934,13.485-27.26,19.403-10.828c2.187,12.02-10.255,22.853-34.54,15.088"/>
		<g>
			<path fill="#474746" d="M50.437,57.594c2.477,0.013,5.691-0.347,7.911-1.175l-2.688,3.145l-0.054,4.135
				C54.483,61.611,52.305,59.22,50.437,57.594z"/>
		</g>
	</g>
</g>
<title>Artboard</title>
<desc>Created with Sketch.</desc>
<path fill="#339966" stroke="#339966" stroke-width="0.3" stroke-miterlimit="10" d="M17.127,47.354c0,0.869-0.13,1.649-0.389,2.345
	c-0.259,0.694-0.625,1.284-1.096,1.771c-0.471,0.487-1.035,0.86-1.692,1.119c-0.657,0.261-1.385,0.392-2.184,0.392H7.667V41.739
	h4.099c0.799,0,1.527,0.13,2.184,0.39c0.657,0.261,1.221,0.634,1.692,1.119c0.471,0.486,0.837,1.078,1.096,1.771
	C16.997,45.714,17.127,46.492,17.127,47.354z M16.285,47.354c0-0.783-0.109-1.481-0.326-2.098c-0.217-0.613-0.523-1.133-0.917-1.557
	c-0.394-0.425-0.87-0.747-1.426-0.97c-0.556-0.224-1.173-0.334-1.851-0.334h-3.28v9.922h3.28c0.678,0,1.294-0.111,1.851-0.334
	c0.556-0.224,1.031-0.545,1.426-0.969c0.395-0.426,0.7-0.942,0.917-1.559C16.176,48.846,16.285,48.145,16.285,47.354z"/>
<path fill="#339966" stroke="#339966" stroke-width="0.3" stroke-miterlimit="10" d="M26.793,41.739v0.675h-5.917v4.544H25.8v0.659
	h-4.924v4.688h5.917v0.674h-6.736v-11.24H26.793z"/>
<path fill="#339966" stroke="#339966" stroke-width="0.3" stroke-miterlimit="10" d="M35.522,43.105
	c-0.048,0.09-0.117,0.135-0.207,0.135c-0.069,0-0.158-0.049-0.267-0.146c-0.109-0.097-0.256-0.206-0.442-0.325
	s-0.418-0.229-0.697-0.328c-0.279-0.103-0.623-0.151-1.032-0.151s-0.769,0.061-1.08,0.175c-0.311,0.117-0.571,0.275-0.781,0.478
	s-0.37,0.436-0.479,0.699c-0.109,0.263-0.163,0.543-0.163,0.834c0,0.381,0.081,0.695,0.243,0.944
	c0.162,0.249,0.375,0.461,0.64,0.638c0.265,0.174,0.566,0.319,0.903,0.438c0.337,0.119,0.683,0.236,1.038,0.354
	c0.355,0.115,0.701,0.244,1.038,0.385c0.336,0.142,0.637,0.315,0.902,0.528c0.265,0.212,0.479,0.474,0.641,0.781
	c0.162,0.312,0.243,0.695,0.243,1.156c0,0.472-0.081,0.915-0.242,1.33c-0.162,0.416-0.396,0.777-0.703,1.084
	c-0.307,0.308-0.683,0.55-1.128,0.728c-0.445,0.178-0.953,0.268-1.525,0.268c-0.742,0-1.379-0.131-1.914-0.395
	c-0.535-0.263-1.004-0.621-1.406-1.076l0.223-0.35c0.063-0.08,0.138-0.119,0.222-0.119c0.048,0,0.109,0.031,0.183,0.096
	c0.074,0.063,0.164,0.143,0.271,0.233c0.106,0.093,0.233,0.193,0.382,0.302c0.149,0.109,0.321,0.209,0.517,0.303
	c0.196,0.094,0.422,0.172,0.676,0.233c0.254,0.062,0.543,0.097,0.867,0.097c0.445,0,0.843-0.066,1.193-0.203
	c0.35-0.136,0.646-0.317,0.887-0.553c0.242-0.23,0.426-0.51,0.553-0.828c0.127-0.32,0.19-0.664,0.19-1.029
	c0-0.396-0.081-0.725-0.242-0.98c-0.162-0.257-0.375-0.471-0.641-0.643c-0.265-0.174-0.566-0.316-0.903-0.435
	c-0.336-0.116-0.683-0.229-1.038-0.342c-0.355-0.111-0.702-0.235-1.038-0.374c-0.337-0.138-0.638-0.312-0.903-0.527
	c-0.265-0.213-0.479-0.48-0.641-0.803c-0.162-0.32-0.242-0.722-0.242-1.201c0-0.377,0.071-0.74,0.214-1.091
	c0.144-0.35,0.353-0.655,0.628-0.925c0.275-0.269,0.617-0.48,1.022-0.644c0.405-0.162,0.868-0.242,1.388-0.242
	c0.583,0,1.107,0.093,1.571,0.277c0.464,0.186,0.887,0.469,1.268,0.851L35.522,43.105z"/>
<path fill="#72B632" stroke="#72B632" stroke-width="0.3" stroke-miterlimit="10" d="M39.812,52.979h-0.818v-11.24h0.818V52.979z"/>
<path fill="#72B632" stroke="#72B632" stroke-width="0.3" stroke-miterlimit="10" d="M48.278,52.445c0.387,0,0.739-0.021,1.057-0.06
	c0.318-0.041,0.613-0.101,0.886-0.18c0.272-0.079,0.532-0.176,0.778-0.29c0.246-0.111,0.494-0.242,0.743-0.385v-3.026h-2.161
	c-0.058,0-0.107-0.02-0.147-0.056c-0.04-0.037-0.06-0.079-0.06-0.127v-0.445h3.106v3.995c-0.281,0.195-0.572,0.371-0.874,0.523
	c-0.302,0.153-0.625,0.282-0.969,0.387c-0.344,0.104-0.715,0.183-1.112,0.238c-0.397,0.055-0.831,0.082-1.302,0.082
	c-0.811,0-1.55-0.137-2.22-0.408c-0.67-0.272-1.245-0.659-1.724-1.159c-0.479-0.501-0.851-1.104-1.116-1.815
	c-0.265-0.709-0.397-1.497-0.397-2.366c0-0.867,0.132-1.654,0.397-2.361s0.641-1.311,1.128-1.812c0.487-0.5,1.079-0.888,1.775-1.158
	c0.696-0.272,1.476-0.41,2.339-0.41c0.429,0,0.825,0.029,1.188,0.088c0.362,0.059,0.7,0.145,1.013,0.259
	c0.312,0.112,0.604,0.254,0.874,0.421s0.529,0.357,0.778,0.575l-0.214,0.352c-0.048,0.078-0.114,0.117-0.199,0.117
	c-0.047,0-0.093-0.01-0.135-0.029c-0.08-0.033-0.195-0.106-0.346-0.225c-0.151-0.117-0.354-0.236-0.611-0.363
	c-0.257-0.129-0.579-0.242-0.965-0.344c-0.386-0.101-0.855-0.148-1.406-0.148c-0.731,0-1.39,0.115-1.978,0.35
	c-0.587,0.232-1.089,0.566-1.505,1c-0.416,0.437-0.736,0.964-0.961,1.589c-0.226,0.625-0.338,1.326-0.338,2.104
	c0,0.795,0.114,1.506,0.342,2.137s0.546,1.164,0.957,1.602c0.41,0.438,0.903,0.771,1.477,1.005
	C46.951,52.33,47.585,52.445,48.278,52.445z"/>
<path fill="#72B632" stroke="#72B632" stroke-width="0.3" stroke-miterlimit="10" d="M55.912,41.768
	c0.042,0.02,0.087,0.061,0.135,0.123l7.275,9.736c-0.016-0.156-0.023-0.312-0.023-0.46v-9.429h0.715v11.239h-0.389
	c-0.122,0-0.22-0.055-0.294-0.16l-7.308-9.754c0.016,0.16,0.024,0.312,0.024,0.453v9.461H55.34V41.739h0.397
	C55.811,41.739,55.869,41.749,55.912,41.768z"/>
<path fill="#339966" stroke="#339966" stroke-width="0.3" stroke-miterlimit="10" d="M82.687,52.979H82.06
	c-0.074,0-0.135-0.021-0.183-0.061c-0.047-0.04-0.084-0.092-0.111-0.154L80.439,49.5h-5.521L73.6,52.764
	c-0.021,0.06-0.058,0.108-0.111,0.15c-0.053,0.042-0.116,0.063-0.19,0.063h-0.62l4.599-11.239h0.81L82.687,52.979z M75.165,48.896
	h5.036l-2.295-5.681c-0.037-0.09-0.074-0.19-0.111-0.306s-0.074-0.234-0.111-0.361c-0.037,0.127-0.074,0.247-0.111,0.361
	c-0.037,0.112-0.074,0.218-0.111,0.313L75.165,48.896z"/>
<path fill="#72B632" stroke="#72B632" stroke-width="0.3" stroke-miterlimit="10" d="M101.437,52.979v-11.24h3.233
	c0.641,0,1.195,0.062,1.664,0.19c0.468,0.127,0.856,0.312,1.164,0.561c0.308,0.246,0.536,0.547,0.687,0.9s0.227,0.758,0.227,1.207
	c0,0.297-0.052,0.584-0.155,0.857c-0.103,0.274-0.253,0.528-0.449,0.762c-0.196,0.233-0.436,0.438-0.719,0.608
	c-0.283,0.172-0.607,0.303-0.973,0.393c0.884,0.134,1.565,0.429,2.042,0.884c0.477,0.455,0.715,1.057,0.715,1.803
	c0,0.477-0.085,0.906-0.254,1.287c-0.17,0.381-0.416,0.703-0.739,0.969c-0.323,0.265-0.72,0.468-1.191,0.607
	c-0.472,0.141-1.006,0.211-1.604,0.211L101.437,52.979L101.437,52.979z M102.247,46.997h2.438c0.519,0,0.962-0.064,1.331-0.198
	c0.368-0.132,0.67-0.307,0.905-0.522c0.236-0.217,0.409-0.463,0.521-0.738c0.112-0.274,0.167-0.559,0.167-0.85
	c0-0.758-0.24-1.332-0.719-1.722s-1.219-0.584-2.22-0.584h-2.423V46.997z M102.247,47.593v4.734h2.82c0.99,0,1.737-0.214,2.24-0.64
	c0.503-0.428,0.755-1.025,0.755-1.799c0-0.354-0.067-0.676-0.203-0.957c-0.136-0.283-0.33-0.524-0.584-0.725
	c-0.254-0.199-0.566-0.351-0.937-0.457c-0.371-0.104-0.792-0.159-1.263-0.159L102.247,47.593L102.247,47.593z"/>
<path fill="#72B632" stroke="#72B632" stroke-width="0.3" stroke-miterlimit="10" d="M118.354,41.739v0.675h-5.917v4.544h4.925
	v0.659h-4.925v4.688h5.917v0.674h-6.735v-11.24H118.354z"/>
<path fill="#339966" stroke="#339966" stroke-width="0.3" stroke-miterlimit="10" d="M128.665,41.739v0.69h-3.948v10.549h-0.81
	V42.432h-3.973V41.74L128.665,41.739L128.665,41.739z"/>
<path fill="#339966" stroke="#339966" stroke-width="0.3" stroke-miterlimit="10" d="M139.22,41.739v0.69h-3.947v10.549h-0.811
	V42.432h-3.972V41.74L139.22,41.739L139.22,41.739z"/>
<path fill="#339966" stroke="#339966" stroke-width="0.3" stroke-miterlimit="10" d="M147.902,41.739v0.675h-5.917v4.544h4.926
	v0.659h-4.926v4.688h5.917v0.674h-6.735v-11.24H147.902z"/>
<path fill="#339966" stroke="#339966" stroke-width="0.3" stroke-miterlimit="10" d="M150.967,47.896v5.082h-0.811V41.739h2.867
	c1.298,0,2.268,0.25,2.906,0.751c0.642,0.5,0.963,1.234,0.963,2.203c0,0.43-0.073,0.82-0.223,1.176
	c-0.148,0.355-0.361,0.666-0.642,0.934c-0.276,0.269-0.612,0.487-1.004,0.659c-0.394,0.173-0.834,0.285-1.325,0.338
	c0.127,0.079,0.239,0.188,0.342,0.317l3.867,4.861h-0.707c-0.084,0-0.158-0.018-0.22-0.049s-0.119-0.085-0.178-0.158l-3.599-4.561
	c-0.093-0.116-0.188-0.197-0.291-0.246c-0.104-0.048-0.265-0.07-0.479-0.07h-1.47v0.002H150.967z M150.967,47.291h1.953
	c0.498,0,0.943-0.061,1.338-0.18c0.396-0.118,0.729-0.288,1.003-0.512c0.271-0.224,0.479-0.49,0.622-0.804
	c0.145-0.312,0.216-0.664,0.216-1.056c0-0.8-0.263-1.394-0.787-1.779c-0.522-0.387-1.287-0.58-2.287-0.58h-2.058V47.291
	L150.967,47.291z"/>
<path fill="#72B632" stroke="#72B632" stroke-width="0.3" stroke-miterlimit="10" d="M163.848,41.772h0.676
	c0.154,0,0.252,0.07,0.293,0.215l2.836,9.237c0.033,0.104,0.061,0.22,0.084,0.342c0.023,0.121,0.049,0.249,0.076,0.381
	c0.025-0.132,0.053-0.26,0.078-0.381c0.027-0.122,0.059-0.236,0.096-0.342l3.178-9.237c0.021-0.061,0.06-0.108,0.111-0.151
	c0.053-0.042,0.115-0.062,0.189-0.062h0.223c0.074,0,0.135,0.02,0.184,0.06c0.047,0.04,0.084,0.093,0.111,0.155l3.176,9.236
	c0.037,0.104,0.07,0.218,0.1,0.334s0.059,0.239,0.084,0.373c0.025-0.127,0.052-0.25,0.07-0.369c0.021-0.118,0.049-0.231,0.08-0.338
	l2.836-9.236c0.017-0.059,0.051-0.107,0.107-0.15c0.055-0.043,0.121-0.062,0.195-0.062h0.617l-3.533,11.239h-0.73l-3.32-9.755
	c-0.043-0.127-0.08-0.263-0.11-0.405c-0.031,0.145-0.067,0.278-0.11,0.405l-3.328,9.755h-0.724L163.848,41.772z"/>
<path fill="#339966" stroke="#339966" stroke-width="0.3" stroke-miterlimit="10" d="M191.084,47.387
	c0,0.868-0.129,1.655-0.39,2.362c-0.26,0.707-0.625,1.312-1.096,1.812c-0.474,0.5-1.035,0.887-1.693,1.157
	c-0.655,0.272-1.385,0.41-2.184,0.41c-0.789,0-1.513-0.138-2.168-0.41c-0.656-0.271-1.222-0.657-1.691-1.157
	c-0.473-0.502-0.838-1.104-1.102-1.812c-0.263-0.707-0.394-1.494-0.394-2.362c0-0.861,0.131-1.646,0.394-2.354
	c0.264-0.707,0.629-1.311,1.102-1.812c0.472-0.5,1.035-0.889,1.691-1.162c0.655-0.275,1.379-0.414,2.168-0.414
	c0.799,0,1.526,0.138,2.184,0.41c0.658,0.271,1.222,0.659,1.693,1.161c0.471,0.505,0.836,1.108,1.096,1.815
	C190.956,45.739,191.084,46.525,191.084,47.387z M190.243,47.387c0-0.783-0.109-1.486-0.326-2.111s-0.521-1.154-0.916-1.59
	c-0.395-0.435-0.871-0.768-1.426-0.996c-0.557-0.229-1.174-0.347-1.852-0.347c-0.668,0-1.277,0.115-1.83,0.347
	c-0.555,0.229-1.031,0.562-1.43,0.996c-0.4,0.436-0.711,0.965-0.932,1.59c-0.222,0.625-0.33,1.328-0.33,2.111
	c0,0.788,0.108,1.495,0.33,2.116c0.221,0.622,0.528,1.15,0.932,1.586c0.396,0.435,0.875,0.765,1.43,0.991
	c0.553,0.229,1.162,0.343,1.83,0.343c0.678,0,1.295-0.112,1.852-0.343c0.555-0.228,1.031-0.56,1.426-0.991
	c0.396-0.436,0.699-0.964,0.916-1.586C190.133,48.883,190.243,48.177,190.243,47.387z"/>
<path fill="#339966" stroke="#339966" stroke-width="0.3" stroke-miterlimit="10" d="M194.778,47.93v5.082h-0.811v-11.24h2.869
	c1.297,0,2.266,0.25,2.904,0.751c0.643,0.5,0.961,1.233,0.961,2.203c0,0.43-0.072,0.819-0.224,1.176
	c-0.147,0.354-0.36,0.666-0.64,0.934c-0.278,0.269-0.612,0.487-1.006,0.659c-0.391,0.173-0.834,0.285-1.326,0.338
	c0.127,0.079,0.242,0.188,0.343,0.317l3.868,4.86h-0.706c-0.087,0-0.158-0.017-0.22-0.049c-0.061-0.03-0.121-0.084-0.18-0.157
	l-3.598-4.561c-0.09-0.116-0.188-0.198-0.289-0.246c-0.104-0.048-0.264-0.071-0.48-0.071h-1.469v0.004H194.778z M194.778,47.324
	h1.955c0.496,0,0.943-0.061,1.338-0.18c0.395-0.118,0.729-0.288,1-0.513c0.273-0.223,0.48-0.489,0.625-0.803
	c0.143-0.312,0.213-0.664,0.213-1.056c0-0.8-0.262-1.395-0.785-1.779c-0.524-0.387-1.287-0.58-2.287-0.58h-2.059V47.324
	L194.778,47.324z"/>
<path fill="#72B632" stroke="#72B632" stroke-width="0.3" stroke-miterlimit="10" d="M204.881,52.32h5.33v0.69h-6.142V41.772h0.812
	V52.32z"/>
<path fill="#72B632" stroke="#72B632" stroke-width="0.3" stroke-miterlimit="10" d="M221.975,47.387
	c0,0.868-0.131,1.649-0.393,2.345c-0.258,0.691-0.625,1.284-1.096,1.771c-0.472,0.487-1.035,0.86-1.689,1.119
	c-0.656,0.26-1.387,0.392-2.186,0.392h-4.101V41.772h4.101c0.799,0,1.526,0.13,2.186,0.39c0.654,0.26,1.221,0.633,1.689,1.119
	c0.471,0.486,0.838,1.078,1.096,1.771C221.844,45.747,221.975,46.525,221.975,47.387z M221.133,47.387
	c0-0.783-0.108-1.481-0.326-2.098c-0.217-0.614-0.521-1.133-0.918-1.557c-0.395-0.425-0.869-0.747-1.426-0.97
	c-0.558-0.224-1.172-0.334-1.851-0.334h-3.28v9.922h3.28c0.679,0,1.293-0.111,1.851-0.334c0.557-0.224,1.031-0.545,1.426-0.97
	c0.396-0.425,0.701-0.941,0.918-1.558C221.025,48.876,221.133,48.177,221.133,47.387z"/>
<g>
	<path fill="#474746" stroke="#474746" stroke-width="0.3" stroke-miterlimit="10" d="M12.876,30.821
		c-0.921,0-1.637-0.254-2.146-0.766c-0.511-0.511-0.766-1.3-0.766-2.365v-9.295H8.009c-0.101,0-0.183-0.027-0.246-0.082
		c-0.064-0.056-0.096-0.133-0.096-0.232v-0.506l2.324-0.164l0.324-4.867c0.01-0.082,0.043-0.153,0.102-0.219
		c0.059-0.062,0.138-0.096,0.236-0.096h0.609v5.194h4.279v0.972h-4.279v9.227c0,0.375,0.047,0.695,0.143,0.965
		c0.096,0.271,0.229,0.49,0.396,0.662c0.169,0.174,0.367,0.301,0.596,0.383c0.227,0.082,0.473,0.123,0.738,0.123
		c0.328,0,0.609-0.047,0.848-0.143c0.236-0.096,0.441-0.201,0.615-0.314c0.172-0.112,0.314-0.219,0.424-0.313
		s0.195-0.146,0.26-0.146c0.072,0,0.145,0.047,0.219,0.138l0.354,0.573c-0.347,0.384-0.786,0.691-1.319,0.925
		C14.003,30.707,13.45,30.821,12.876,30.821z"/>
	<path fill="#474746" stroke="#474746" stroke-width="0.3" stroke-miterlimit="10" d="M20.449,30.603V17.001h0.71
		c0.238,0,0.375,0.113,0.41,0.342l0.123,1.97c0.266-0.373,0.547-0.715,0.848-1.025c0.301-0.31,0.623-0.576,0.965-0.801
		c0.342-0.223,0.705-0.396,1.094-0.521c0.387-0.123,0.795-0.184,1.223-0.184c0.994,0,1.787,0.289,2.379,0.867
		c0.592,0.58,0.993,1.385,1.203,2.414c0.164-0.564,0.394-1.054,0.689-1.463c0.295-0.41,0.635-0.75,1.017-1.021
		c0.382-0.268,0.798-0.469,1.249-0.602c0.45-0.131,0.912-0.197,1.385-0.197c0.674,0,1.279,0.111,1.816,0.334
		c0.537,0.225,0.994,0.555,1.371,0.992c0.378,0.438,0.666,0.975,0.867,1.612c0.199,0.64,0.301,1.367,0.301,2.188v8.693H36.8v-8.693
		c0-1.33-0.287-2.346-0.861-3.043c-0.574-0.697-1.395-1.045-2.461-1.045c-0.475,0-0.928,0.086-1.36,0.26
		c-0.432,0.174-0.815,0.43-1.148,0.771c-0.333,0.341-0.597,0.77-0.793,1.278c-0.196,0.51-0.294,1.103-0.294,1.777V30.6h-1.299
		v-8.693c0-1.322-0.264-2.334-0.793-3.035c-0.528-0.701-1.299-1.053-2.311-1.053c-0.738,0-1.422,0.221-2.051,0.662
		c-0.629,0.442-1.189,1.057-1.682,1.84V30.6h-1.298V30.603z"/>
	<path fill="#474746" d="M51.645,19.312c-0.091,0.146-0.187,0.248-0.287,0.307c-0.101,0.062-0.228,0.09-0.383,0.09
		c-0.164,0-0.339-0.045-0.526-0.137s-0.402-0.193-0.648-0.309c-0.246-0.113-0.527-0.216-0.842-0.308s-0.686-0.137-1.113-0.137
		c-0.666,0-1.189,0.141-1.572,0.424c-0.383,0.283-0.574,0.652-0.574,1.107c0,0.301,0.098,0.553,0.293,0.758
		c0.196,0.205,0.456,0.385,0.779,0.541c0.324,0.153,0.691,0.293,1.102,0.416s0.828,0.258,1.258,0.403
		c0.428,0.146,0.848,0.312,1.257,0.498c0.41,0.188,0.777,0.425,1.101,0.711c0.324,0.287,0.584,0.632,0.779,1.033
		c0.195,0.4,0.294,0.883,0.294,1.447c0,0.676-0.123,1.297-0.369,1.867c-0.246,0.57-0.606,1.062-1.08,1.477
		c-0.474,0.415-1.06,0.738-1.757,0.972c-0.697,0.232-1.496,0.348-2.398,0.348c-0.483,0-0.955-0.043-1.416-0.129
		c-0.459-0.088-0.902-0.207-1.325-0.363c-0.424-0.154-0.815-0.336-1.176-0.547c-0.36-0.209-0.677-0.438-0.95-0.684l0.779-1.285
		c0.1-0.154,0.219-0.273,0.355-0.355c0.136-0.082,0.31-0.123,0.52-0.123c0.209,0,0.408,0.062,0.595,0.179
		c0.187,0.118,0.403,0.245,0.649,0.383c0.246,0.137,0.535,0.266,0.867,0.383c0.333,0.119,0.754,0.178,1.266,0.178
		c0.4,0,0.744-0.047,1.031-0.143c0.287-0.097,0.524-0.222,0.711-0.377c0.188-0.154,0.324-0.334,0.41-0.539
		c0.087-0.205,0.131-0.418,0.131-0.638c0-0.327-0.099-0.596-0.295-0.807c-0.195-0.209-0.455-0.391-0.779-0.547
		c-0.323-0.154-0.692-0.293-1.107-0.416c-0.414-0.123-0.838-0.258-1.271-0.402c-0.433-0.146-0.855-0.317-1.271-0.514
		c-0.414-0.195-0.783-0.443-1.106-0.744c-0.323-0.301-0.583-0.67-0.779-1.106c-0.196-0.438-0.294-0.968-0.294-1.586
		c0-0.574,0.113-1.121,0.342-1.642c0.228-0.52,0.562-0.973,1.005-1.361c0.442-0.387,0.993-0.696,1.653-0.93
		c0.661-0.231,1.424-0.348,2.291-0.348c0.965,0,1.846,0.16,2.638,0.479c0.793,0.318,1.454,0.738,1.982,1.258L51.645,19.312z"/>
	<path fill="#474746" d="M66.108,19.544c-0.101,0.127-0.198,0.229-0.294,0.301c-0.096,0.072-0.235,0.109-0.417,0.109
		c-0.174,0-0.342-0.053-0.506-0.158c-0.164-0.104-0.359-0.223-0.588-0.354c-0.228-0.131-0.499-0.25-0.813-0.355
		c-0.314-0.104-0.704-0.155-1.169-0.155c-0.592,0-1.111,0.106-1.559,0.319c-0.446,0.215-0.818,0.523-1.113,0.924
		c-0.297,0.4-0.518,0.888-0.664,1.455c-0.146,0.57-0.219,1.215-0.219,1.937c0,0.746,0.08,1.412,0.24,1.994
		c0.159,0.584,0.389,1.073,0.689,1.471c0.3,0.396,0.666,0.697,1.094,0.902c0.429,0.205,0.912,0.307,1.449,0.307
		c0.538,0,0.973-0.064,1.306-0.197s0.613-0.276,0.841-0.438c0.229-0.16,0.426-0.306,0.595-0.438s0.357-0.199,0.567-0.199
		c0.273,0,0.479,0.105,0.615,0.314l0.971,1.229c-0.374,0.438-0.779,0.806-1.217,1.103c-0.438,0.295-0.891,0.533-1.36,0.711
		c-0.469,0.178-0.954,0.303-1.456,0.375c-0.501,0.074-0.998,0.109-1.49,0.109c-0.865,0-1.682-0.162-2.447-0.484
		c-0.766-0.324-1.433-0.795-2.002-1.416c-0.57-0.619-1.021-1.377-1.354-2.275c-0.333-0.897-0.499-1.92-0.499-3.067
		c0-1.031,0.147-1.984,0.444-2.865c0.296-0.879,0.731-1.641,1.306-2.283c0.573-0.643,1.284-1.145,2.132-1.51
		s1.823-0.547,2.926-0.547c1.049,0,1.967,0.168,2.755,0.506s1.497,0.82,2.126,1.449L66.108,19.544z"/>
	<path fill="#474746" d="M70.278,30.603V10.288h3.376v7.807c0.547-0.52,1.148-0.938,1.805-1.258c0.657-0.318,1.427-0.479,2.31-0.479
		c0.766,0,1.445,0.129,2.037,0.389c0.593,0.26,1.088,0.625,1.484,1.094c0.396,0.472,0.697,1.031,0.902,1.683
		s0.307,1.369,0.307,2.153v8.927h-3.377v-8.927c0-0.856-0.197-1.52-0.594-1.989c-0.396-0.47-0.992-0.703-1.784-0.703
		c-0.583,0-1.13,0.133-1.641,0.396c-0.511,0.264-0.993,0.625-1.449,1.08v10.144H70.278z"/>
	<path fill="#474746" d="M84.851,16.577h2.68c0.255,0,0.469,0.059,0.643,0.178c0.173,0.119,0.282,0.271,0.328,0.451l2.01,7.492
		c0.109,0.408,0.197,0.811,0.266,1.201c0.068,0.393,0.135,0.785,0.199,1.176c0.1-0.391,0.207-0.783,0.32-1.176
		c0.114-0.392,0.234-0.793,0.363-1.201l2.323-7.521c0.055-0.182,0.164-0.331,0.328-0.45s0.355-0.179,0.574-0.179h1.49
		c0.246,0,0.451,0.06,0.615,0.179c0.164,0.119,0.273,0.27,0.328,0.45l2.296,7.654c0.119,0.394,0.227,0.773,0.322,1.144
		c0.095,0.369,0.189,0.739,0.279,1.112c0.064-0.391,0.135-0.782,0.213-1.176c0.077-0.391,0.175-0.797,0.293-1.215l2.078-7.492
		c0.046-0.182,0.155-0.332,0.328-0.451c0.174-0.119,0.374-0.178,0.602-0.178h2.557l-4.443,14.025h-2.72
		c-0.292,0-0.501-0.199-0.629-0.603l-2.529-8.104c-0.082-0.267-0.157-0.531-0.226-0.802c-0.068-0.268-0.125-0.534-0.171-0.799
		c-0.055,0.273-0.114,0.545-0.178,0.812c-0.063,0.27-0.137,0.541-0.219,0.813l-2.556,8.078C92.486,30.4,92.24,30.6,91.877,30.6
		h-2.584L84.851,16.577z"/>
	<path fill="#474746" d="M114.966,16.358c0.885,0,1.697,0.141,2.44,0.424c0.743,0.283,1.383,0.695,1.921,1.236
		c0.537,0.543,0.957,1.209,1.258,1.996c0.301,0.788,0.451,1.688,0.451,2.7c0,0.254-0.012,0.468-0.034,0.636
		s-0.063,0.301-0.123,0.396s-0.14,0.164-0.239,0.205c-0.101,0.041-0.229,0.062-0.383,0.062h-8.668
		c0.101,1.438,0.488,2.495,1.162,3.17c0.675,0.676,1.568,1.012,2.68,1.012c0.547,0,1.019-0.062,1.415-0.191
		c0.396-0.127,0.743-0.268,1.039-0.424c0.296-0.154,0.556-0.295,0.779-0.424c0.224-0.127,0.439-0.191,0.649-0.191
		c0.137,0,0.255,0.027,0.355,0.082c0.1,0.056,0.187,0.134,0.26,0.232l0.984,1.229c-0.374,0.438-0.793,0.806-1.258,1.103
		c-0.465,0.295-0.95,0.533-1.456,0.711c-0.506,0.178-1.021,0.303-1.545,0.375c-0.524,0.074-1.032,0.109-1.524,0.109
		c-0.975,0-1.882-0.162-2.721-0.484c-0.838-0.324-1.566-0.803-2.187-1.437c-0.621-0.633-1.107-1.418-1.463-2.352
		s-0.533-2.016-0.533-3.246c0-0.957,0.155-1.856,0.465-2.701c0.31-0.842,0.754-1.576,1.333-2.201
		c0.578-0.622,1.285-1.116,2.119-1.481S113.918,16.358,114.966,16.358z M115.034,18.778c-0.984,0-1.754,0.277-2.311,0.834
		c-0.556,0.557-0.911,1.344-1.066,2.365h6.344c0-0.438-0.059-0.851-0.178-1.238c-0.119-0.387-0.301-0.727-0.547-1.018
		s-0.556-0.521-0.93-0.691C115.974,18.862,115.536,18.778,115.034,18.778z"/>
	<path fill="#474746" d="M129.621,16.331c0.602,0,1.167,0.062,1.695,0.185c0.528,0.123,1.011,0.305,1.448,0.541h4.033v1.258
		c0,0.209-0.055,0.373-0.164,0.492c-0.109,0.118-0.296,0.2-0.561,0.245l-1.258,0.232c0.092,0.236,0.162,0.488,0.213,0.752
		c0.049,0.264,0.074,0.543,0.074,0.834c0,0.691-0.139,1.318-0.416,1.879c-0.279,0.562-0.662,1.037-1.148,1.431
		c-0.488,0.391-1.066,0.692-1.736,0.907c-0.67,0.215-1.396,0.32-2.181,0.32c-0.528,0-1.044-0.049-1.545-0.15
		c-0.438,0.269-0.656,0.566-0.656,0.896c0,0.285,0.13,0.492,0.39,0.627c0.26,0.133,0.602,0.227,1.025,0.281
		c0.423,0.054,0.904,0.082,1.442,0.082s1.089,0.022,1.653,0.069c0.566,0.045,1.117,0.125,1.654,0.238
		c0.538,0.115,1.02,0.295,1.443,0.543c0.424,0.246,0.766,0.582,1.025,1.008c0.259,0.426,0.389,0.972,0.389,1.64
		c0,0.621-0.152,1.225-0.457,1.811c-0.307,0.586-0.748,1.105-1.326,1.564c-0.58,0.457-1.288,0.823-2.127,1.104
		c-0.838,0.279-1.795,0.418-2.87,0.418c-1.066,0-1.991-0.102-2.775-0.307c-0.784-0.205-1.433-0.479-1.948-0.82
		c-0.515-0.342-0.9-0.736-1.154-1.184c-0.256-0.447-0.383-0.912-0.383-1.396c0-0.656,0.199-1.207,0.602-1.654
		c0.4-0.444,0.957-0.801,1.668-1.065c-0.348-0.191-0.625-0.445-0.834-0.766c-0.211-0.318-0.314-0.732-0.314-1.244
		c0-0.209,0.035-0.427,0.109-0.648c0.072-0.223,0.184-0.445,0.334-0.664c0.15-0.219,0.34-0.426,0.568-0.621
		c0.227-0.194,0.496-0.371,0.806-0.524c-0.71-0.384-1.269-0.896-1.675-1.531c-0.405-0.639-0.607-1.387-0.607-2.242
		c0-0.693,0.139-1.32,0.416-1.881c0.278-0.561,0.666-1.039,1.162-1.436c0.497-0.396,1.085-0.699,1.764-0.908
		C128.078,16.437,128.819,16.331,129.621,16.331z M133.325,31.192c0-0.279-0.082-0.508-0.246-0.685
		c-0.164-0.178-0.387-0.313-0.67-0.411c-0.281-0.099-0.612-0.171-0.99-0.218c-0.379-0.047-0.779-0.069-1.203-0.069
		c-0.424,0-0.861,0-1.312,0c-0.451,0-0.887-0.05-1.306-0.15c-0.383,0.211-0.69,0.459-0.923,0.746
		c-0.233,0.287-0.349,0.617-0.349,0.99c0,0.246,0.062,0.477,0.185,0.69c0.123,0.213,0.319,0.398,0.588,0.554
		c0.27,0.153,0.617,0.274,1.046,0.362c0.429,0.086,0.952,0.129,1.572,0.129c0.629,0,1.171-0.049,1.627-0.146
		c0.456-0.097,0.831-0.232,1.128-0.404c0.296-0.172,0.512-0.377,0.648-0.615C133.257,31.729,133.325,31.472,133.325,31.192z
		 M129.621,23.249c0.419,0,0.784-0.059,1.094-0.172s0.567-0.271,0.772-0.471c0.205-0.201,0.359-0.443,0.465-0.726
		c0.104-0.282,0.156-0.594,0.156-0.93c0-0.693-0.207-1.242-0.621-1.648c-0.415-0.403-1.037-0.606-1.866-0.606
		s-1.452,0.203-1.866,0.606c-0.414,0.406-0.622,0.955-0.622,1.648c0,0.328,0.052,0.633,0.157,0.916
		c0.105,0.281,0.26,0.525,0.465,0.73c0.205,0.204,0.465,0.364,0.779,0.479S129.211,23.249,129.621,23.249z"/>
	<path fill="#474746" d="M143.497,10.288v20.314h-3.377V10.288H143.497z"/>
	<path fill="#474746" d="M153.543,16.358c0.885,0,1.697,0.141,2.44,0.424c0.742,0.283,1.384,0.695,1.92,1.236
		c0.537,0.543,0.957,1.209,1.259,1.996c0.301,0.788,0.45,1.688,0.45,2.7c0,0.254-0.012,0.468-0.032,0.636
		c-0.023,0.168-0.064,0.301-0.123,0.396c-0.062,0.096-0.142,0.164-0.24,0.205c-0.1,0.041-0.229,0.062-0.383,0.062h-8.668
		c0.102,1.438,0.487,2.495,1.162,3.17c0.676,0.676,1.567,1.012,2.68,1.012c0.547,0,1.02-0.062,1.416-0.191
		c0.396-0.127,0.742-0.268,1.039-0.424c0.295-0.154,0.555-0.295,0.779-0.424c0.223-0.127,0.438-0.191,0.647-0.191
		c0.137,0,0.256,0.027,0.354,0.082c0.1,0.056,0.188,0.134,0.26,0.232l0.984,1.229c-0.373,0.438-0.793,0.806-1.258,1.103
		c-0.465,0.295-0.949,0.533-1.455,0.711s-1.021,0.303-1.545,0.375c-0.525,0.074-1.033,0.109-1.525,0.109
		c-0.975,0-1.881-0.162-2.721-0.484c-0.838-0.324-1.566-0.803-2.186-1.437c-0.621-0.633-1.107-1.418-1.463-2.352
		c-0.356-0.934-0.533-2.016-0.533-3.246c0-0.957,0.154-1.856,0.465-2.701c0.309-0.842,0.754-1.576,1.332-2.201
		c0.578-0.622,1.285-1.116,2.119-1.481S152.497,16.358,153.543,16.358z M153.612,18.778c-0.984,0-1.754,0.277-2.311,0.834
		c-0.555,0.557-0.91,1.344-1.066,2.365h6.344c0-0.438-0.059-0.851-0.178-1.238c-0.119-0.387-0.301-0.727-0.547-1.018
		s-0.555-0.521-0.93-0.691C154.551,18.862,154.114,18.778,153.612,18.778z"/>
	<path fill="#474746" d="M162.799,30.603V16.577h1.981c0.347,0,0.589,0.064,0.726,0.191s0.227,0.346,0.272,0.655l0.205,1.695
		c0.5-0.865,1.088-1.549,1.765-2.051c0.674-0.502,1.43-0.752,2.268-0.752c0.693,0,1.268,0.16,1.723,0.479l-0.438,2.529
		c-0.027,0.164-0.086,0.279-0.178,0.348c-0.09,0.068-0.213,0.104-0.369,0.104c-0.137,0-0.322-0.031-0.562-0.096
		c-0.235-0.064-0.551-0.097-0.94-0.097c-0.703,0-1.306,0.193-1.806,0.58c-0.502,0.389-0.926,0.955-1.271,1.703v8.734h-3.377V30.603z
		"/>
	<g>
		<path fill="none" d="M121.296,21.938"/>
	</g>
</g>
</svg>
