<?xml version="1.0" encoding="utf-8"?>
<!-- Generator: Adobe Illustrator 15.0.0, SVG Export Plug-In . SVG Version: 6.00 Build 0)  -->
<!DOCTYPE svg PUBLIC "-//W3C//DTD SVG 1.1//EN" "http://www.w3.org/Graphics/SVG/1.1/DTD/svg11.dtd">
<svg version="1.1" id="Ebene_1" xmlns="http://www.w3.org/2000/svg" xmlns:xlink="http://www.w3.org/1999/xlink" x="0px" y="0px"
	 width="500.021px" height="67.152px" viewBox="0 0 500.021 67.152" enable-background="new 0 0 500.021 67.152"
	 xml:space="preserve">
<title>Artboard</title>
<desc>Created with Sketch.</desc>
<path fill="#339966" stroke="#339966" stroke-width="0.3" stroke-miterlimit="10" d="M210.948,29.988c0,1.029-0.156,1.95-0.46,2.765
	c-0.307,0.816-0.737,1.514-1.293,2.093c-0.555,0.572-1.222,1.014-1.997,1.316c-0.773,0.306-1.633,0.46-2.576,0.46h-4.836V23.364
	h4.836c0.944,0,1.803,0.155,2.576,0.46c0.773,0.305,1.442,0.748,1.997,1.319c0.556,0.577,0.986,1.274,1.293,2.091
	C210.793,28.052,210.948,28.971,210.948,29.988z M209.954,29.988c0-0.924-0.128-1.747-0.386-2.469
	c-0.255-0.725-0.618-1.338-1.082-1.836c-0.467-0.5-1.025-0.882-1.681-1.144c-0.659-0.263-1.382-0.394-2.185-0.394h-3.869v11.7h3.869
	c0.803,0,1.525-0.129,2.185-0.393c0.656-0.26,1.216-0.643,1.681-1.144c0.467-0.497,0.826-1.111,1.082-1.833
	C209.826,31.746,209.954,30.918,209.954,29.988z"/>
<path fill="#339966" stroke="#339966" stroke-width="0.3" stroke-miterlimit="10" d="M222.349,23.364v0.797h-6.978v5.359h5.809
	v0.777h-5.809v5.528h6.978v0.797h-7.941V23.365L222.349,23.364L222.349,23.364z"/>
<path fill="#339966" stroke="#339966" stroke-width="0.3" stroke-miterlimit="10" d="M232.644,24.976
	c-0.056,0.109-0.139,0.161-0.243,0.161c-0.083,0-0.188-0.056-0.316-0.173c-0.127-0.114-0.302-0.244-0.523-0.384
	c-0.217-0.14-0.489-0.269-0.82-0.389c-0.33-0.119-0.734-0.178-1.22-0.178c-0.482,0-0.905,0.068-1.271,0.207
	c-0.367,0.138-0.675,0.324-0.921,0.562c-0.25,0.238-0.439,0.515-0.567,0.826c-0.126,0.311-0.191,0.641-0.191,0.984
	c0,0.446,0.094,0.82,0.286,1.117c0.193,0.293,0.44,0.542,0.758,0.749c0.311,0.207,0.666,0.381,1.063,0.521
	c0.396,0.141,0.807,0.282,1.225,0.417c0.419,0.138,0.827,0.292,1.223,0.452c0.396,0.166,0.751,0.374,1.063,0.623
	c0.312,0.248,0.568,0.56,0.76,0.924c0.19,0.364,0.284,0.818,0.284,1.36c0,0.558-0.094,1.083-0.284,1.57
	c-0.19,0.489-0.469,0.915-0.831,1.277c-0.36,0.362-0.806,0.648-1.328,0.858c-0.529,0.207-1.128,0.312-1.801,0.312
	c-0.874,0-1.629-0.155-2.257-0.463c-0.631-0.309-1.185-0.732-1.661-1.271l0.263-0.41c0.074-0.095,0.161-0.141,0.261-0.141
	c0.057,0,0.13,0.037,0.217,0.112c0.085,0.075,0.193,0.166,0.319,0.278c0.121,0.11,0.273,0.227,0.448,0.354
	c0.172,0.128,0.38,0.249,0.611,0.354c0.232,0.111,0.495,0.204,0.798,0.278c0.3,0.073,0.64,0.113,1.023,0.113
	c0.526,0,0.995-0.076,1.406-0.24c0.411-0.16,0.76-0.375,1.044-0.652c0.287-0.273,0.501-0.6,0.653-0.977
	c0.149-0.381,0.225-0.783,0.225-1.217c0-0.469-0.095-0.854-0.286-1.159c-0.193-0.298-0.44-0.556-0.758-0.758
	c-0.312-0.206-0.668-0.372-1.063-0.511c-0.4-0.137-0.807-0.272-1.227-0.401c-0.417-0.132-0.825-0.278-1.221-0.44
	c-0.396-0.162-0.755-0.369-1.065-0.622c-0.312-0.252-0.568-0.569-0.758-0.943c-0.189-0.379-0.285-0.852-0.285-1.419
	c0-0.443,0.084-0.872,0.253-1.284c0.17-0.412,0.418-0.775,0.743-1.089c0.326-0.315,0.727-0.569,1.205-0.759
	c0.479-0.191,1.027-0.289,1.636-0.289c0.688,0,1.308,0.112,1.853,0.329c0.548,0.217,1.045,0.552,1.496,1.002L232.644,24.976z"/>
<path fill="#72B632" stroke="#72B632" stroke-width="0.3" stroke-miterlimit="10" d="M237.701,36.622h-0.964V23.364h0.964V36.622z"
	/>
<path fill="#72B632" stroke="#72B632" stroke-width="0.3" stroke-miterlimit="10" d="M247.692,35.993
	c0.454,0,0.868-0.024,1.243-0.069c0.376-0.048,0.726-0.114,1.046-0.207c0.32-0.096,0.625-0.209,0.918-0.346
	c0.291-0.133,0.58-0.287,0.875-0.454v-3.567h-2.551c-0.067,0-0.123-0.023-0.17-0.066c-0.047-0.046-0.071-0.096-0.071-0.152v-0.523
	h3.664v4.712c-0.332,0.231-0.676,0.438-1.033,0.619c-0.354,0.184-0.736,0.335-1.141,0.455s-0.846,0.214-1.312,0.28
	c-0.47,0.068-0.982,0.1-1.537,0.1c-0.956,0-1.828-0.161-2.619-0.484c-0.791-0.32-1.468-0.775-2.034-1.365s-1.003-1.307-1.314-2.141
	c-0.312-0.836-0.467-1.769-0.467-2.793c0-1.021,0.154-1.953,0.467-2.784c0.312-0.833,0.755-1.545,1.331-2.137
	c0.573-0.591,1.271-1.043,2.093-1.366c0.821-0.321,1.741-0.484,2.761-0.484c0.507,0,0.972,0.034,1.401,0.104
	c0.43,0.067,0.827,0.168,1.194,0.302c0.369,0.136,0.713,0.3,1.031,0.498c0.318,0.196,0.625,0.423,0.92,0.678l-0.254,0.412
	c-0.061,0.095-0.135,0.141-0.238,0.141c-0.055,0-0.109-0.012-0.158-0.037c-0.096-0.039-0.23-0.126-0.408-0.264
	c-0.178-0.136-0.42-0.28-0.719-0.429c-0.303-0.151-0.682-0.285-1.136-0.404c-0.455-0.12-1.011-0.179-1.66-0.179
	c-0.861,0-1.64,0.138-2.333,0.415c-0.691,0.274-1.282,0.668-1.772,1.178c-0.488,0.513-0.866,1.136-1.133,1.872
	c-0.266,0.738-0.396,1.564-0.396,2.483c0,0.939,0.133,1.775,0.402,2.52c0.268,0.742,0.645,1.372,1.128,1.889
	c0.484,0.516,1.066,0.91,1.741,1.184C246.123,35.857,246.869,35.993,247.692,35.993z"/>
<path fill="#72B632" stroke="#72B632" stroke-width="0.3" stroke-miterlimit="10" d="M256.692,23.398
	c0.053,0.023,0.105,0.07,0.16,0.146l8.584,11.486c-0.02-0.186-0.025-0.369-0.025-0.542V23.364h0.844v13.258h-0.461
	c-0.145,0-0.256-0.063-0.344-0.188l-8.623-11.506c0.021,0.188,0.027,0.367,0.027,0.534v11.159h-0.834V23.364h0.469
	C256.577,23.364,256.645,23.377,256.692,23.398z"/>
<path fill="#339966" stroke="#339966" stroke-width="0.3" stroke-miterlimit="10" d="M285.585,36.622h-0.738
	c-0.088,0-0.162-0.022-0.215-0.068c-0.059-0.048-0.102-0.11-0.129-0.183l-1.566-3.849h-6.514l-1.553,3.849
	c-0.023,0.067-0.068,0.129-0.129,0.179c-0.066,0.05-0.139,0.072-0.229,0.072h-0.727l5.422-13.258h0.955L285.585,36.622z
	 M276.716,31.804h5.938l-2.705-6.698c-0.045-0.107-0.09-0.227-0.133-0.36c-0.041-0.132-0.086-0.276-0.129-0.426
	c-0.045,0.15-0.088,0.294-0.133,0.426c-0.043,0.134-0.086,0.256-0.129,0.372L276.716,31.804z"/>
<path fill="#72B632" stroke="#72B632" stroke-width="0.3" stroke-miterlimit="10" d="M292.925,36.622V23.364h3.814
	c0.756,0,1.41,0.074,1.963,0.225c0.551,0.151,1.008,0.37,1.369,0.662c0.363,0.292,0.631,0.646,0.809,1.064
	c0.18,0.417,0.266,0.892,0.266,1.424c0,0.348-0.061,0.686-0.18,1.012c-0.123,0.324-0.301,0.621-0.531,0.896
	c-0.23,0.274-0.516,0.515-0.85,0.718c-0.336,0.201-0.715,0.355-1.146,0.463c1.039,0.158,1.846,0.503,2.408,1.039
	c0.562,0.534,0.844,1.244,0.844,2.127c0,0.562-0.102,1.07-0.299,1.516c-0.201,0.451-0.49,0.834-0.871,1.143
	c-0.385,0.312-0.852,0.553-1.404,0.717c-0.561,0.162-1.188,0.249-1.895,0.249h-4.301v0.004H292.925z M293.882,29.566h2.875
	c0.615,0,1.135-0.074,1.57-0.234c0.438-0.156,0.791-0.36,1.068-0.617c0.277-0.258,0.484-0.546,0.617-0.872
	c0.129-0.323,0.197-0.661,0.197-1.001c0-0.896-0.283-1.571-0.85-2.028c-0.566-0.459-1.439-0.69-2.619-0.69h-2.857L293.882,29.566
	L293.882,29.566z M293.882,30.269v5.586h3.326c1.172,0,2.049-0.254,2.645-0.757c0.592-0.503,0.889-1.21,0.889-2.122
	c0-0.419-0.078-0.795-0.238-1.127c-0.162-0.334-0.389-0.623-0.688-0.854c-0.299-0.234-0.668-0.412-1.104-0.537
	c-0.439-0.123-0.939-0.188-1.496-0.188L293.882,30.269L293.882,30.269z"/>
<path fill="#72B632" stroke="#72B632" stroke-width="0.3" stroke-miterlimit="10" d="M312.88,23.364v0.797h-6.98v5.359h5.811v0.777
	h-5.811v5.528h6.98v0.797h-7.945V23.365L312.88,23.364L312.88,23.364z"/>
<path fill="#339966" stroke="#339966" stroke-width="0.3" stroke-miterlimit="10" d="M325.042,23.364v0.814h-4.658v12.443h-0.955
	V24.18h-4.684v-0.813h10.297V23.364L325.042,23.364z"/>
<path fill="#339966" stroke="#339966" stroke-width="0.3" stroke-miterlimit="10" d="M337.491,23.364v0.814h-4.656v12.443h-0.957
	V24.18h-4.682v-0.813h10.295V23.364z"/>
<path fill="#339966" stroke="#339966" stroke-width="0.3" stroke-miterlimit="10" d="M347.731,23.364v0.797h-6.979v5.359h5.809
	v0.777h-5.809v5.528h6.979v0.797h-7.943V23.365L347.731,23.364L347.731,23.364z"/>
<path fill="#339966" stroke="#339966" stroke-width="0.3" stroke-miterlimit="10" d="M351.348,30.627v5.995h-0.957V23.364h3.383
	c1.529,0,2.672,0.297,3.43,0.887c0.756,0.588,1.133,1.456,1.133,2.601c0,0.504-0.088,0.966-0.262,1.386
	c-0.174,0.419-0.424,0.786-0.756,1.101c-0.328,0.314-0.723,0.575-1.184,0.775c-0.463,0.208-0.986,0.338-1.564,0.4
	c0.152,0.093,0.285,0.217,0.402,0.375l4.562,5.731h-0.834c-0.102,0-0.188-0.019-0.258-0.058c-0.07-0.035-0.141-0.099-0.209-0.186
	l-4.244-5.38c-0.111-0.134-0.219-0.233-0.344-0.288c-0.127-0.057-0.312-0.086-0.566-0.086h-1.732V30.627L351.348,30.627z
	 M351.348,29.912h2.303c0.586,0,1.113-0.068,1.58-0.209c0.465-0.141,0.859-0.341,1.18-0.604c0.32-0.262,0.568-0.577,0.736-0.946
	c0.164-0.369,0.252-0.784,0.252-1.245c0-0.943-0.309-1.641-0.928-2.097c-0.619-0.457-1.52-0.684-2.697-0.684h-2.426V29.912
	L351.348,29.912z"/>
<path fill="#72B632" stroke="#72B632" stroke-width="0.3" stroke-miterlimit="10" d="M366.739,23.364h0.795
	c0.182,0,0.299,0.083,0.346,0.254l3.344,10.894c0.039,0.123,0.07,0.26,0.102,0.402c0.025,0.143,0.057,0.297,0.09,0.447
	c0.025-0.155,0.062-0.305,0.092-0.447s0.068-0.279,0.113-0.402l3.748-10.894c0.027-0.069,0.07-0.128,0.133-0.18
	c0.062-0.049,0.135-0.073,0.223-0.073h0.262c0.088,0,0.16,0.024,0.215,0.069c0.055,0.047,0.1,0.108,0.131,0.184l3.748,10.895
	c0.043,0.122,0.082,0.252,0.113,0.393c0.035,0.136,0.07,0.282,0.102,0.438c0.029-0.15,0.061-0.298,0.084-0.438
	c0.021-0.141,0.059-0.274,0.092-0.397l3.346-10.893c0.018-0.069,0.059-0.128,0.125-0.179c0.066-0.049,0.143-0.073,0.23-0.073h0.73
	l-4.168,13.256h-0.861l-3.916-11.504c-0.053-0.152-0.096-0.308-0.131-0.479c-0.037,0.17-0.08,0.328-0.129,0.479l-3.93,11.504h-0.852
	L366.739,23.364z"/>
<path fill="#339966" stroke="#339966" stroke-width="0.3" stroke-miterlimit="10" d="M398.864,29.988
	c0,1.029-0.154,1.957-0.459,2.787c-0.307,0.832-0.74,1.545-1.295,2.138c-0.555,0.588-1.219,1.046-1.996,1.366
	c-0.775,0.322-1.633,0.484-2.576,0.484c-0.932,0-1.781-0.162-2.555-0.484c-0.775-0.32-1.441-0.778-1.996-1.366
	c-0.559-0.591-0.99-1.304-1.301-2.138c-0.309-0.834-0.465-1.763-0.465-2.787c0-1.017,0.156-1.943,0.465-2.778
	c0.311-0.833,0.742-1.543,1.301-2.138c0.555-0.589,1.219-1.044,1.996-1.371c0.773-0.325,1.627-0.486,2.555-0.486
	c0.943,0,1.803,0.162,2.576,0.484c0.775,0.323,1.441,0.778,1.996,1.371c0.555,0.595,0.988,1.309,1.295,2.141
	C398.714,28.045,398.864,28.971,398.864,29.988z M397.868,29.988c0-0.924-0.127-1.754-0.385-2.493
	c-0.254-0.736-0.617-1.357-1.082-1.871c-0.463-0.512-1.027-0.904-1.68-1.175c-0.656-0.271-1.385-0.406-2.184-0.406
	c-0.789,0-1.506,0.135-2.158,0.406c-0.656,0.271-1.219,0.665-1.688,1.175c-0.471,0.514-0.838,1.135-1.094,1.871
	c-0.26,0.738-0.391,1.569-0.391,2.493c0,0.932,0.129,1.767,0.391,2.498c0.256,0.734,0.623,1.357,1.094,1.869
	c0.473,0.513,1.035,0.901,1.688,1.174c0.652,0.267,1.369,0.4,2.158,0.4c0.799,0,1.527-0.134,2.184-0.4
	c0.654-0.271,1.219-0.661,1.68-1.174c0.465-0.514,0.826-1.135,1.082-1.869C397.741,31.753,397.868,30.918,397.868,29.988z"/>
<path fill="#339966" stroke="#339966" stroke-width="0.3" stroke-miterlimit="10" d="M403.219,30.627v5.995h-0.955V23.364h3.383
	c1.527,0,2.674,0.297,3.428,0.887c0.758,0.588,1.133,1.456,1.133,2.601c0,0.504-0.086,0.966-0.262,1.386
	c-0.174,0.419-0.428,0.786-0.756,1.101c-0.33,0.314-0.721,0.575-1.184,0.775c-0.461,0.208-0.986,0.338-1.562,0.4
	c0.148,0.093,0.283,0.217,0.398,0.375l4.564,5.731h-0.832c-0.105,0-0.188-0.019-0.26-0.058c-0.068-0.035-0.141-0.099-0.209-0.186
	l-4.244-5.38c-0.107-0.134-0.221-0.233-0.34-0.288c-0.125-0.057-0.314-0.086-0.572-0.086h-1.73V30.627L403.219,30.627z
	 M403.219,29.912h2.307c0.584,0,1.113-0.068,1.578-0.209c0.467-0.141,0.859-0.341,1.178-0.604c0.324-0.262,0.566-0.577,0.736-0.946
	c0.168-0.369,0.254-0.784,0.254-1.245c0-0.943-0.307-1.641-0.93-2.097c-0.621-0.457-1.518-0.684-2.695-0.684h-2.428V29.912
	L403.219,29.912z"/>
<path fill="#72B632" stroke="#72B632" stroke-width="0.3" stroke-miterlimit="10" d="M415.135,35.805h6.287v0.814h-7.246V23.362
	h0.955v12.442L415.135,35.805L415.135,35.805z"/>
<path fill="#72B632" stroke="#72B632" stroke-width="0.3" stroke-miterlimit="10" d="M435.298,29.988
	c0,1.029-0.154,1.95-0.461,2.765c-0.303,0.816-0.736,1.514-1.293,2.093c-0.557,0.572-1.221,1.014-1.996,1.316
	c-0.775,0.306-1.635,0.46-2.576,0.46h-4.834V23.364h4.834c0.943,0,1.801,0.155,2.576,0.46c0.773,0.305,1.439,0.748,1.996,1.319
	c0.557,0.576,0.99,1.274,1.293,2.091C435.145,28.052,435.298,28.971,435.298,29.988z M434.303,29.988
	c0-0.924-0.127-1.747-0.383-2.469c-0.256-0.725-0.621-1.338-1.084-1.836c-0.465-0.5-1.023-0.882-1.68-1.144
	c-0.658-0.263-1.381-0.394-2.184-0.394h-3.869v11.7h3.869c0.803,0,1.525-0.129,2.184-0.393c0.658-0.26,1.219-0.643,1.68-1.144
	c0.469-0.497,0.828-1.111,1.084-1.833C434.175,31.746,434.303,30.918,434.303,29.988z"/>
<g>
	<path fill="none" stroke="#4A4A4A" stroke-miterlimit="10" d="M120.824,28.596"/>
</g>
<path fill="#4A4A4A" d="M12.933,37.078c-0.903,0-1.604-0.25-2.105-0.751s-0.75-1.274-0.75-2.319V24.89H8.16
	c-0.098,0-0.179-0.027-0.241-0.08c-0.062-0.055-0.094-0.13-0.094-0.229v-0.496l2.279-0.16l0.318-4.773
	c0.009-0.08,0.042-0.152,0.099-0.215c0.058-0.062,0.135-0.094,0.232-0.094h0.597v5.096h4.197v0.951h-4.197v9.05
	c0,0.366,0.047,0.682,0.141,0.945c0.094,0.264,0.223,0.48,0.389,0.65c0.165,0.17,0.359,0.295,0.583,0.375
	c0.223,0.081,0.465,0.121,0.724,0.121c0.321,0,0.599-0.047,0.831-0.142c0.232-0.094,0.434-0.195,0.604-0.308
	s0.309-0.215,0.416-0.309s0.191-0.141,0.254-0.141c0.072,0,0.143,0.045,0.215,0.134l0.349,0.563
	c-0.34,0.376-0.771,0.677-1.294,0.905C14.039,36.964,13.495,37.078,12.933,37.078z"/>
<path fill="#4A4A4A" d="M19.69,36.863v-13.34h0.697c0.232,0,0.366,0.111,0.402,0.335l0.12,1.931c0.26-0.367,0.537-0.701,0.832-1.006
	c0.295-0.304,0.609-0.564,0.945-0.784c0.334-0.219,0.691-0.389,1.072-0.509c0.379-0.121,0.779-0.182,1.199-0.182
	c0.975,0,1.752,0.283,2.334,0.852c0.58,0.567,0.974,1.356,1.18,2.366c0.16-0.554,0.385-1.032,0.676-1.435
	c0.289-0.402,0.622-0.735,0.997-0.999c0.374-0.263,0.782-0.46,1.225-0.59s0.895-0.194,1.358-0.194c0.66,0,1.254,0.109,1.781,0.328
	c0.525,0.22,0.975,0.543,1.345,0.973c0.37,0.429,0.653,0.956,0.851,1.582c0.195,0.625,0.294,1.34,0.294,2.145v8.527h-1.273v-8.527
	c0-1.305-0.282-2.299-0.845-2.982s-1.367-1.025-2.413-1.025c-0.465,0-0.909,0.084-1.335,0.254c-0.424,0.17-0.799,0.422-1.125,0.758
	c-0.326,0.335-0.586,0.753-0.778,1.254c-0.192,0.5-0.288,1.081-0.288,1.742v8.527h-1.273v-8.527c0-1.295-0.26-2.287-0.777-2.977
	c-0.52-0.688-1.273-1.031-2.266-1.031c-0.725,0-1.395,0.217-2.012,0.65s-1.166,1.034-1.648,1.803v10.082H19.69z"/>
<path fill="#4A4A4A" d="M49.198,25.185c-0.062,0.125-0.16,0.188-0.295,0.188c-0.098,0-0.225-0.056-0.382-0.168
	c-0.156-0.111-0.362-0.236-0.616-0.375c-0.255-0.139-0.568-0.264-0.939-0.375c-0.37-0.111-0.824-0.168-1.36-0.168
	c-0.482,0-0.923,0.069-1.32,0.207c-0.397,0.139-0.737,0.324-1.019,0.556c-0.282,0.231-0.501,0.501-0.657,0.809
	c-0.157,0.308-0.235,0.631-0.235,0.97c0,0.419,0.107,0.767,0.322,1.043s0.496,0.512,0.845,0.709
	c0.349,0.195,0.744,0.365,1.187,0.508s0.896,0.285,1.361,0.428c0.464,0.144,0.918,0.303,1.36,0.477s0.838,0.391,1.187,0.65
	s0.63,0.576,0.845,0.951c0.214,0.376,0.321,0.832,0.321,1.368c0,0.581-0.105,1.122-0.314,1.622
	c-0.211,0.501-0.514,0.934-0.912,1.301c-0.397,0.366-0.887,0.656-1.468,0.871s-1.243,0.322-1.984,0.322
	c-0.938,0-1.747-0.15-2.427-0.449c-0.68-0.3-1.287-0.691-1.823-1.174L41.181,35c0.045-0.072,0.094-0.125,0.148-0.161
	c0.053-0.036,0.129-0.054,0.228-0.054c0.116,0,0.259,0.072,0.429,0.215s0.391,0.297,0.664,0.463c0.272,0.165,0.612,0.318,1.02,0.462
	c0.406,0.144,0.908,0.214,1.508,0.214c0.562,0,1.059-0.078,1.488-0.234c0.429-0.156,0.786-0.368,1.072-0.637
	c0.286-0.268,0.503-0.583,0.65-0.945c0.147-0.361,0.221-0.744,0.221-1.146c0-0.446-0.107-0.817-0.321-1.112
	s-0.496-0.545-0.845-0.751c-0.349-0.205-0.744-0.379-1.187-0.522s-0.898-0.286-1.368-0.429c-0.469-0.144-0.924-0.3-1.367-0.47
	c-0.441-0.17-0.838-0.384-1.186-0.644c-0.35-0.26-0.631-0.574-0.846-0.945s-0.321-0.834-0.321-1.388
	c0-0.474,0.103-0.929,0.308-1.368c0.206-0.438,0.499-0.821,0.879-1.152c0.38-0.33,0.842-0.594,1.388-0.791
	c0.545-0.196,1.157-0.295,1.837-0.295c0.812,0,1.535,0.118,2.165,0.354s1.208,0.596,1.736,1.081L49.198,25.185z"/>
<path fill="#4A4A4A" d="M62.993,25.306c-0.045,0.045-0.086,0.082-0.127,0.113c-0.039,0.031-0.096,0.047-0.168,0.047
	c-0.088,0-0.211-0.061-0.367-0.181c-0.158-0.12-0.365-0.253-0.625-0.396c-0.258-0.143-0.582-0.275-0.971-0.396
	s-0.861-0.181-1.414-0.181c-0.77,0-1.451,0.137-2.045,0.408c-0.596,0.273-1.096,0.664-1.502,1.174s-0.717,1.126-0.932,1.85
	c-0.215,0.725-0.322,1.537-0.322,2.44c0,0.938,0.109,1.77,0.328,2.493c0.219,0.725,0.529,1.334,0.932,1.83s0.891,0.875,1.463,1.133
	c0.57,0.26,1.205,0.39,1.902,0.39c0.645,0,1.182-0.076,1.615-0.228c0.434-0.152,0.791-0.318,1.074-0.496
	c0.281-0.18,0.504-0.345,0.67-0.496c0.164-0.152,0.297-0.229,0.395-0.229c0.117,0,0.207,0.045,0.27,0.135l0.348,0.428
	c-0.205,0.27-0.465,0.52-0.777,0.752s-0.666,0.434-1.059,0.604c-0.395,0.17-0.82,0.301-1.281,0.395s-0.941,0.141-1.441,0.141
	c-0.85,0-1.625-0.154-2.326-0.462c-0.701-0.309-1.305-0.755-1.809-1.341c-0.506-0.586-0.898-1.303-1.181-2.152
	c-0.281-0.849-0.423-1.814-0.423-2.896c0-1.019,0.135-1.948,0.402-2.788c0.269-0.841,0.66-1.564,1.174-2.172
	c0.514-0.608,1.145-1.08,1.891-1.415s1.602-0.503,2.566-0.503c0.867,0,1.639,0.139,2.312,0.416c0.676,0.277,1.264,0.652,1.764,1.126
	L62.993,25.306z"/>
<path fill="#4A4A4A" d="M67.243,36.863V17.355h1.275v8.447c0.615-0.76,1.32-1.365,2.111-1.816s1.678-0.678,2.66-0.678
	c0.732,0,1.379,0.116,1.938,0.349s1.021,0.567,1.389,1.005c0.365,0.438,0.643,0.966,0.83,1.582c0.188,0.617,0.281,1.314,0.281,2.092
	v8.527h-1.273v-8.527c0-1.251-0.285-2.232-0.857-2.942c-0.572-0.711-1.447-1.065-2.627-1.065c-0.877,0-1.689,0.225-2.441,0.676
	c-0.75,0.452-1.42,1.071-2.01,1.857v10.002H67.243z"/>
<path fill="#4A4A4A" d="M80.531,23.523h0.979c0.125,0,0.229,0.033,0.309,0.1c0.08,0.068,0.135,0.142,0.162,0.222l3.363,10.524
	c0.062,0.206,0.113,0.402,0.148,0.59s0.072,0.376,0.107,0.563c0.045-0.188,0.094-0.376,0.146-0.563
	c0.055-0.188,0.117-0.384,0.189-0.59l3.578-10.618c0.062-0.196,0.188-0.295,0.377-0.295h0.521c0.197,0,0.326,0.099,0.389,0.295
	l3.527,10.618c0.133,0.402,0.24,0.791,0.32,1.167c0.037-0.188,0.074-0.378,0.115-0.569c0.039-0.193,0.096-0.392,0.168-0.598
	l3.377-10.524c0.072-0.214,0.225-0.321,0.457-0.321h0.938l-4.465,13.34H94.3c-0.143,0-0.246-0.094-0.309-0.281l-3.66-10.834
	c-0.045-0.133-0.084-0.268-0.121-0.401c-0.035-0.134-0.066-0.269-0.094-0.402c-0.025,0.134-0.055,0.269-0.086,0.402
	s-0.07,0.269-0.115,0.401l-3.699,10.834c-0.055,0.188-0.162,0.281-0.322,0.281h-0.898L80.531,23.523z"/>
<path fill="#4A4A4A" d="M108.029,23.308c0.752,0,1.445,0.13,2.086,0.389c0.639,0.26,1.191,0.637,1.662,1.133
	c0.469,0.496,0.836,1.106,1.1,1.83c0.264,0.725,0.395,1.556,0.395,2.494c0,0.197-0.029,0.33-0.088,0.402
	c-0.057,0.071-0.148,0.107-0.273,0.107h-9.627v0.254c0,1.002,0.115,1.882,0.35,2.642c0.23,0.76,0.562,1.396,0.992,1.911
	c0.428,0.514,0.947,0.9,1.555,1.159s1.287,0.389,2.037,0.389c0.67,0,1.252-0.073,1.744-0.222c0.49-0.146,0.904-0.312,1.24-0.496
	c0.334-0.183,0.6-0.348,0.797-0.496c0.197-0.146,0.34-0.221,0.43-0.221c0.115,0,0.205,0.045,0.268,0.135l0.348,0.428
	c-0.213,0.27-0.498,0.52-0.85,0.752c-0.354,0.232-0.748,0.431-1.182,0.596c-0.434,0.166-0.896,0.298-1.393,0.396
	c-0.496,0.098-0.996,0.146-1.496,0.146c-0.912,0-1.742-0.158-2.494-0.476c-0.75-0.317-1.395-0.78-1.932-1.388
	c-0.539-0.607-0.953-1.352-1.248-2.232c-0.293-0.88-0.439-1.888-0.439-3.023c0-0.956,0.137-1.838,0.408-2.647
	c0.273-0.81,0.666-1.506,1.18-2.092c0.514-0.585,1.145-1.044,1.891-1.374S107.081,23.308,108.029,23.308z M108.048,24.26
	c-0.688,0-1.303,0.106-1.848,0.321c-0.543,0.215-1.014,0.523-1.412,0.926c-0.396,0.402-0.719,0.885-0.963,1.447
	c-0.246,0.563-0.408,1.193-0.488,1.891h8.781c0-0.715-0.1-1.355-0.295-1.924c-0.197-0.567-0.473-1.048-0.83-1.441
	c-0.357-0.393-0.785-0.695-1.285-0.904C109.208,24.365,108.656,24.26,108.048,24.26z"/>
<path fill="#4A4A4A" d="M121.931,23.295c0.582,0,1.121,0.072,1.617,0.215s0.939,0.344,1.334,0.604h3.418v0.442
	c0,0.224-0.125,0.345-0.375,0.362l-2.025,0.146c0.25,0.34,0.443,0.723,0.578,1.146c0.133,0.425,0.199,0.879,0.199,1.361
	c0,0.644-0.115,1.227-0.348,1.75c-0.232,0.522-0.557,0.969-0.973,1.34c-0.414,0.371-0.914,0.66-1.494,0.865
	c-0.582,0.205-1.225,0.309-1.932,0.309c-0.768,0-1.465-0.116-2.09-0.35c-0.377,0.215-0.672,0.47-0.885,0.765
	c-0.215,0.296-0.322,0.581-0.322,0.858c0,0.385,0.133,0.68,0.402,0.885c0.268,0.205,0.623,0.355,1.064,0.449
	c0.443,0.094,0.947,0.154,1.516,0.182c0.568,0.025,1.145,0.055,1.73,0.086c0.584,0.031,1.162,0.088,1.729,0.168
	c0.568,0.08,1.072,0.221,1.516,0.422c0.441,0.201,0.797,0.483,1.066,0.846c0.268,0.361,0.402,0.842,0.402,1.441
	c0,0.554-0.139,1.086-0.416,1.595c-0.277,0.51-0.678,0.961-1.201,1.354c-0.521,0.393-1.154,0.708-1.896,0.945
	c-0.742,0.236-1.572,0.355-2.494,0.355c-0.938,0-1.76-0.097-2.467-0.289c-0.705-0.191-1.299-0.451-1.775-0.777
	c-0.479-0.326-0.838-0.704-1.08-1.133c-0.242-0.43-0.361-0.885-0.361-1.367c0-0.707,0.232-1.314,0.697-1.824s1.104-0.902,1.916-1.18
	c-0.447-0.152-0.803-0.371-1.064-0.656c-0.264-0.287-0.396-0.684-0.396-1.193c0-0.188,0.035-0.385,0.107-0.59
	c0.072-0.206,0.178-0.409,0.322-0.61c0.143-0.201,0.314-0.392,0.516-0.569c0.201-0.18,0.436-0.34,0.703-0.483
	c-0.635-0.366-1.127-0.853-1.48-1.462c-0.354-0.607-0.529-1.317-0.529-2.131c0-0.644,0.113-1.227,0.342-1.75
	c0.227-0.522,0.549-0.972,0.965-1.348c0.416-0.375,0.918-0.666,1.508-0.871S121.216,23.295,121.931,23.295z M126.878,37.761
	c0-0.42-0.109-0.758-0.328-1.012c-0.219-0.256-0.512-0.454-0.877-0.598c-0.367-0.143-0.789-0.243-1.268-0.301
	c-0.479-0.059-0.979-0.102-1.502-0.128s-1.047-0.054-1.574-0.081c-0.529-0.026-1.02-0.08-1.477-0.16
	c-0.338,0.134-0.654,0.288-0.943,0.463c-0.291,0.174-0.539,0.371-0.744,0.59c-0.207,0.219-0.367,0.46-0.484,0.724
	c-0.115,0.264-0.174,0.552-0.174,0.864c0,0.394,0.102,0.758,0.303,1.094c0.201,0.334,0.496,0.625,0.885,0.871
	s0.863,0.439,1.428,0.583c0.562,0.144,1.211,0.214,1.943,0.214c0.68,0,1.312-0.075,1.896-0.227c0.586-0.152,1.096-0.367,1.529-0.645
	s0.773-0.607,1.02-0.992C126.755,38.636,126.878,38.217,126.878,37.761z M121.931,30.965c0.572,0,1.082-0.084,1.529-0.248
	c0.447-0.166,0.822-0.396,1.127-0.691c0.303-0.295,0.533-0.648,0.689-1.059c0.156-0.411,0.234-0.867,0.234-1.367
	c0-0.501-0.08-0.959-0.24-1.375c-0.162-0.416-0.396-0.771-0.705-1.066s-0.684-0.522-1.125-0.684c-0.443-0.16-0.945-0.24-1.51-0.24
	c-0.562,0-1.066,0.08-1.514,0.24c-0.447,0.161-0.824,0.389-1.133,0.684s-0.543,0.65-0.705,1.066c-0.16,0.416-0.24,0.874-0.24,1.375
	c0,0.5,0.08,0.956,0.24,1.367c0.162,0.41,0.396,0.764,0.705,1.059s0.686,0.525,1.133,0.691
	C120.865,30.881,121.368,30.965,121.931,30.965z"/>
<path fill="#4A4A4A" d="M133.542,17.355v19.508h-1.275V17.355H133.542z"/>
<path fill="#4A4A4A" d="M144.12,23.308c0.75,0,1.445,0.13,2.084,0.389c0.641,0.26,1.193,0.637,1.664,1.133
	c0.469,0.496,0.834,1.106,1.098,1.83c0.264,0.725,0.396,1.556,0.396,2.494c0,0.197-0.029,0.33-0.088,0.402
	c-0.057,0.071-0.148,0.107-0.273,0.107h-9.627v0.254c0,1.002,0.115,1.882,0.348,2.642s0.564,1.396,0.992,1.911
	c0.43,0.514,0.947,0.9,1.557,1.159c0.607,0.259,1.287,0.389,2.037,0.389c0.67,0,1.252-0.073,1.742-0.222
	c0.492-0.146,0.906-0.312,1.24-0.496c0.336-0.183,0.602-0.348,0.799-0.496c0.195-0.146,0.34-0.221,0.43-0.221
	c0.115,0,0.205,0.045,0.268,0.135l0.348,0.428c-0.215,0.27-0.498,0.52-0.852,0.752c-0.352,0.232-0.746,0.431-1.18,0.596
	c-0.434,0.166-0.898,0.298-1.395,0.396c-0.496,0.098-0.994,0.146-1.494,0.146c-0.912,0-1.742-0.158-2.494-0.476
	c-0.75-0.317-1.395-0.78-1.932-1.388c-0.539-0.607-0.953-1.352-1.248-2.232c-0.293-0.88-0.439-1.888-0.439-3.023
	c0-0.956,0.137-1.838,0.408-2.647c0.273-0.81,0.666-1.506,1.18-2.092c0.514-0.585,1.145-1.044,1.891-1.374
	S143.173,23.308,144.12,23.308z M144.14,24.26c-0.688,0-1.303,0.106-1.848,0.321s-1.016,0.523-1.412,0.926s-0.719,0.885-0.963,1.447
	c-0.246,0.563-0.41,1.193-0.49,1.891h8.783c0-0.715-0.1-1.355-0.295-1.924c-0.197-0.567-0.473-1.048-0.83-1.441
	c-0.357-0.393-0.785-0.695-1.285-0.904C145.3,24.365,144.747,24.26,144.14,24.26z"/>
<path fill="#4A4A4A" d="M153.626,36.863v-13.34h0.67c0.152,0,0.262,0.031,0.328,0.094c0.068,0.062,0.105,0.17,0.115,0.322
	l0.105,2.814c0.43-1.081,1.002-1.928,1.717-2.541c0.715-0.611,1.596-0.918,2.641-0.918c0.402,0,0.773,0.043,1.113,0.127
	c0.34,0.086,0.662,0.209,0.965,0.369l-0.174,0.885c-0.027,0.144-0.115,0.215-0.268,0.215c-0.055,0-0.131-0.018-0.229-0.054
	s-0.221-0.075-0.369-0.12c-0.146-0.045-0.328-0.086-0.543-0.121c-0.213-0.035-0.459-0.054-0.736-0.054
	c-1.01,0-1.84,0.313-2.488,0.938c-0.646,0.626-1.172,1.528-1.574,2.709v8.674H153.626z"/>
<rect x="179.575" y="34.066" fill="#72B632" stroke="#72B632" stroke-width="0.3" stroke-miterlimit="10" width="1.01" height="2.963"/>
<path fill="#72B632" stroke="#72B632" stroke-width="0.3" stroke-miterlimit="10" d="M186.156,17.373
	c-0.164,0-0.271,0.075-0.321,0.226l-2.373,7.394c-0.051,0.145-0.091,0.284-0.118,0.42c-0.029,0.135-0.055,0.268-0.082,0.4
	c-0.056-0.265-0.132-0.538-0.225-0.82l-2.478-7.46c-0.043-0.138-0.134-0.207-0.273-0.207h-0.366c-0.133,0-0.221,0.069-0.265,0.207
	l-2.514,7.46c-0.051,0.145-0.094,0.282-0.133,0.415c-0.037,0.131-0.071,0.264-0.103,0.396c-0.025-0.131-0.051-0.264-0.075-0.396
	c-0.025-0.132-0.061-0.27-0.104-0.415l-2.363-7.394c-0.019-0.056-0.058-0.108-0.114-0.155c-0.056-0.047-0.129-0.07-0.216-0.07
	h-0.583v10.586c0,0.943,0.154,1.803,0.46,2.576c0.303,0.775,0.744,1.442,1.316,1.997c0.579,0.556,1.276,0.986,2.093,1.293
	c0.814,0.304,1.736,0.46,2.764,0.46c1.017,0,1.936-0.155,2.754-0.46c0.817-0.307,1.515-0.737,2.091-1.293
	c0.571-0.555,1.014-1.224,1.319-1.997c0.305-0.773,0.46-1.632,0.46-2.576V17.373H186.156z M185.927,27.958
	c0,0.803-0.13,1.525-0.394,2.185c-0.262,0.655-0.644,1.214-1.144,1.681c-0.499,0.464-1.111,0.827-1.836,1.082
	c-0.722,0.258-1.545,0.386-2.469,0.386c-0.929,0-1.757-0.128-2.488-0.386c-0.722-0.256-1.336-0.615-1.833-1.082
	c-0.501-0.465-0.884-1.024-1.144-1.681c-0.264-0.659-0.393-1.382-0.393-2.185v-7.951l2.255,6.738h0.631
	c0.112,0,0.188-0.065,0.227-0.198l2.599-7.612c0.032-0.093,0.059-0.188,0.081-0.282c0.021-0.094,0.042-0.189,0.061-0.283
	c0.019,0.094,0.041,0.188,0.065,0.283c0.026,0.094,0.054,0.188,0.085,0.282l2.571,7.612c0.044,0.132,0.117,0.198,0.217,0.198h0.658
	l2.25-6.721V27.958z"/>
<path fill="#339966" stroke="#339966" stroke-width="0.3" stroke-miterlimit="10" d="M184.01,41.437l1.969-4.815h-0.727
	c-0.09,0-0.162,0.022-0.229,0.072c-0.061,0.05-0.105,0.111-0.129,0.179l-1.553,3.849h-6.514l-1.566-3.849
	c-0.027-0.072-0.07-0.135-0.129-0.183c-0.053-0.046-0.127-0.068-0.215-0.068h-0.738l1.969,4.815H184.01z"/>
</svg>
