<?xml version="1.0" encoding="utf-8"?>
<!-- Generator: Adobe Illustrator 15.0.0, SVG Export Plug-In . SVG Version: 6.00 Build 0)  -->
<!DOCTYPE svg PUBLIC "-//W3C//DTD SVG 1.1//EN" "http://www.w3.org/Graphics/SVG/1.1/DTD/svg11.dtd">
<svg version="1.1" id="Ebene_1" xmlns="http://www.w3.org/2000/svg" xmlns:xlink="http://www.w3.org/1999/xlink" x="0px" y="0px"
	 width="508.542px" height="40px" viewBox="0 0 508.542 40" enable-background="new 0 0 508.542 40" xml:space="preserve">
<title>Artboard</title>
<desc>Created with Sketch.</desc>
<path fill="#474746" d="M21.174,10.665v1.141h-6.514V29.21h-1.336V11.806H6.771v-1.141H21.174z"/>
<path fill="#474746" d="M25.918,11.675c0,0.157-0.033,0.304-0.098,0.438c-0.066,0.136-0.151,0.256-0.256,0.36
	c-0.105,0.105-0.227,0.188-0.367,0.249c-0.14,0.062-0.289,0.092-0.446,0.092s-0.306-0.03-0.446-0.092
	c-0.14-0.061-0.262-0.144-0.367-0.249c-0.105-0.104-0.188-0.225-0.249-0.36c-0.061-0.135-0.092-0.281-0.092-0.438
	s0.031-0.309,0.092-0.452c0.061-0.145,0.144-0.269,0.249-0.374c0.105-0.104,0.227-0.188,0.367-0.249
	c0.14-0.061,0.289-0.092,0.446-0.092s0.306,0.031,0.446,0.092c0.14,0.062,0.262,0.145,0.367,0.249
	c0.105,0.105,0.19,0.229,0.256,0.374C25.886,11.366,25.918,11.518,25.918,11.675z M25.368,16.17v13.04h-1.245V16.17H25.368z"/>
<path fill="#474746" d="M29.981,29.21V16.17h0.682c0.227,0,0.358,0.109,0.393,0.327l0.118,1.966
	c0.594-0.751,1.286-1.356,2.077-1.814c0.791-0.459,1.671-0.688,2.641-0.688c0.716,0,1.348,0.113,1.894,0.341
	c0.546,0.228,0.998,0.555,1.356,0.983c0.358,0.428,0.629,0.943,0.812,1.546s0.275,1.284,0.275,2.045v8.335h-1.245v-8.335
	c0-1.224-0.28-2.183-0.839-2.877s-1.416-1.042-2.569-1.042c-0.856,0-1.651,0.221-2.385,0.662s-1.389,1.046-1.966,1.814v9.777H29.981
	z"/>
<path fill="#474746" d="M52.483,29.21c-0.262,0-0.424-0.122-0.485-0.367l-0.184-1.664c-0.358,0.35-0.714,0.664-1.068,0.943
	c-0.354,0.28-0.723,0.516-1.107,0.708c-0.385,0.192-0.8,0.339-1.245,0.438c-0.446,0.101-0.935,0.151-1.468,0.151
	c-0.446,0-0.878-0.065-1.298-0.197c-0.419-0.131-0.791-0.331-1.114-0.603c-0.323-0.271-0.583-0.618-0.78-1.042
	c-0.197-0.424-0.295-0.933-0.295-1.526c0-0.551,0.157-1.062,0.472-1.533c0.314-0.473,0.806-0.883,1.475-1.232
	s1.529-0.629,2.582-0.839s2.318-0.332,3.794-0.367v-1.362c0-1.206-0.26-2.135-0.78-2.785c-0.52-0.651-1.291-0.977-2.313-0.977
	c-0.629,0-1.164,0.088-1.605,0.262c-0.441,0.176-0.814,0.367-1.121,0.577c-0.306,0.21-0.555,0.402-0.747,0.576
	c-0.192,0.175-0.354,0.263-0.485,0.263c-0.175,0-0.306-0.079-0.393-0.236l-0.223-0.38c0.682-0.682,1.398-1.197,2.149-1.547
	c0.751-0.349,1.603-0.523,2.556-0.523c0.699,0,1.311,0.111,1.834,0.334c0.524,0.223,0.959,0.542,1.304,0.957s0.605,0.917,0.78,1.507
	s0.262,1.247,0.262,1.973v8.492H52.483z M47.241,28.516c0.506,0,0.972-0.055,1.396-0.164s0.817-0.262,1.18-0.459
	c0.362-0.196,0.701-0.43,1.016-0.701c0.314-0.271,0.625-0.563,0.931-0.878v-3.395c-1.241,0.035-2.309,0.129-3.205,0.282
	c-0.896,0.152-1.634,0.36-2.215,0.622c-0.581,0.263-1.009,0.575-1.284,0.938c-0.275,0.362-0.413,0.775-0.413,1.238
	c0,0.438,0.072,0.814,0.216,1.134s0.334,0.581,0.57,0.786s0.511,0.356,0.826,0.452C46.572,28.468,46.9,28.516,47.241,28.516z"/>
<path fill="#474746" d="M71.853,24.597c0.052-0.14,0.107-0.277,0.164-0.413c0.057-0.135,0.12-0.264,0.19-0.387l7.287-12.883
	c0.07-0.113,0.14-0.184,0.209-0.209c0.07-0.026,0.166-0.04,0.289-0.04h0.931V29.21h-1.18V13.404c0-0.227,0.013-0.467,0.04-0.721
	l-7.3,12.962c-0.122,0.227-0.297,0.341-0.524,0.341h-0.21c-0.218,0-0.393-0.114-0.524-0.341l-7.497-12.975
	c0.026,0.253,0.039,0.498,0.039,0.733V29.21h-1.166V10.665h0.917c0.123,0,0.221,0.014,0.295,0.04
	c0.074,0.025,0.146,0.096,0.216,0.209l7.483,12.896C71.644,24.055,71.757,24.317,71.853,24.597z"/>
<path fill="#474746" d="M94.12,29.21c-0.262,0-0.424-0.122-0.485-0.367l-0.184-1.664c-0.358,0.35-0.714,0.664-1.068,0.943
	c-0.354,0.28-0.723,0.516-1.107,0.708c-0.385,0.192-0.8,0.339-1.245,0.438c-0.446,0.101-0.935,0.151-1.468,0.151
	c-0.446,0-0.878-0.065-1.298-0.197c-0.419-0.131-0.791-0.331-1.114-0.603c-0.323-0.271-0.583-0.618-0.78-1.042
	c-0.197-0.424-0.295-0.933-0.295-1.526c0-0.551,0.157-1.062,0.472-1.533c0.314-0.473,0.806-0.883,1.475-1.232
	s1.529-0.629,2.582-0.839s2.318-0.332,3.794-0.367v-1.362c0-1.206-0.26-2.135-0.78-2.785c-0.52-0.651-1.291-0.977-2.313-0.977
	c-0.629,0-1.164,0.088-1.605,0.262c-0.441,0.176-0.814,0.367-1.121,0.577c-0.306,0.21-0.555,0.402-0.747,0.576
	c-0.192,0.175-0.354,0.263-0.485,0.263c-0.175,0-0.306-0.079-0.393-0.236l-0.223-0.38c0.682-0.682,1.398-1.197,2.149-1.547
	c0.751-0.349,1.603-0.523,2.556-0.523c0.699,0,1.311,0.111,1.834,0.334c0.524,0.223,0.959,0.542,1.304,0.957s0.605,0.917,0.78,1.507
	s0.262,1.247,0.262,1.973v8.492H94.12z M88.877,28.516c0.506,0,0.972-0.055,1.396-0.164s0.817-0.262,1.18-0.459
	c0.362-0.196,0.701-0.43,1.016-0.701c0.314-0.271,0.625-0.563,0.931-0.878v-3.395c-1.241,0.035-2.309,0.129-3.205,0.282
	c-0.896,0.152-1.634,0.36-2.215,0.622c-0.581,0.263-1.009,0.575-1.284,0.938c-0.275,0.362-0.413,0.775-0.413,1.238
	c0,0.438,0.072,0.814,0.216,1.134s0.334,0.581,0.57,0.786s0.511,0.356,0.826,0.452C88.209,28.468,88.537,28.516,88.877,28.516z"/>
<path fill="#474746" d="M98.549,29.21V16.17h0.655c0.148,0,0.256,0.03,0.321,0.092c0.065,0.061,0.103,0.166,0.111,0.314l0.105,2.752
	c0.419-1.057,0.978-1.885,1.677-2.483s1.56-0.897,2.582-0.897c0.393,0,0.755,0.041,1.088,0.124c0.332,0.083,0.646,0.203,0.943,0.36
	l-0.17,0.865c-0.026,0.14-0.114,0.21-0.262,0.21c-0.052,0-0.126-0.018-0.223-0.053s-0.216-0.074-0.36-0.118
	c-0.144-0.043-0.321-0.083-0.531-0.118c-0.209-0.034-0.45-0.052-0.721-0.052c-0.988,0-1.798,0.306-2.431,0.917
	c-0.634,0.612-1.147,1.494-1.54,2.647v8.479H98.549z"/>
<path fill="#474746" d="M110.567,10.141V29.21h-1.245V10.141H110.567z"/>
<path fill="#474746" d="M120.094,15.96c0.734,0,1.414,0.127,2.038,0.38c0.625,0.254,1.167,0.623,1.625,1.107
	c0.459,0.485,0.817,1.081,1.075,1.789s0.387,1.521,0.387,2.438c0,0.192-0.028,0.323-0.085,0.394
	c-0.057,0.07-0.146,0.104-0.269,0.104h-9.41v0.249c0,0.979,0.113,1.84,0.341,2.582c0.227,0.743,0.55,1.365,0.97,1.867
	c0.419,0.503,0.926,0.881,1.52,1.134c0.594,0.254,1.258,0.381,1.992,0.381c0.655,0,1.223-0.072,1.704-0.217s0.885-0.306,1.212-0.484
	c0.328-0.18,0.587-0.341,0.78-0.485s0.332-0.216,0.419-0.216c0.113,0,0.201,0.043,0.262,0.131l0.341,0.419
	c-0.21,0.263-0.487,0.507-0.833,0.734c-0.345,0.227-0.729,0.421-1.153,0.583s-0.878,0.29-1.363,0.387
	c-0.485,0.096-0.972,0.144-1.461,0.144c-0.891,0-1.704-0.154-2.438-0.465c-0.734-0.31-1.364-0.762-1.889-1.356
	c-0.526-0.594-0.932-1.321-1.219-2.182c-0.287-0.861-0.431-1.846-0.431-2.956c0-0.935,0.133-1.797,0.4-2.588
	c0.266-0.791,0.65-1.473,1.153-2.045c0.502-0.572,1.118-1.02,1.848-1.343S119.168,15.96,120.094,15.96z M120.114,16.891
	c-0.672,0-1.274,0.104-1.806,0.314s-0.992,0.511-1.38,0.904s-0.702,0.865-0.942,1.415c-0.24,0.551-0.399,1.167-0.478,1.849h8.584
	c0-0.699-0.096-1.326-0.288-1.881s-0.462-1.024-0.811-1.409c-0.349-0.384-0.768-0.679-1.256-0.885
	C121.248,16.993,120.707,16.891,120.114,16.891z"/>
<path fill="#474746" d="M128.573,29.21V16.17h0.682c0.227,0,0.358,0.109,0.393,0.327l0.118,1.966
	c0.594-0.751,1.286-1.356,2.077-1.814c0.791-0.459,1.671-0.688,2.641-0.688c0.716,0,1.348,0.113,1.894,0.341
	c0.546,0.228,0.998,0.555,1.356,0.983c0.358,0.428,0.629,0.943,0.812,1.546s0.275,1.284,0.275,2.045v8.335h-1.245v-8.335
	c0-1.224-0.28-2.183-0.839-2.877s-1.416-1.042-2.569-1.042c-0.856,0-1.651,0.221-2.385,0.662s-1.389,1.046-1.966,1.814v9.777
	H128.573z"/>
<path fill="#474746" d="M144.917,11.675c0,0.157-0.033,0.304-0.1,0.438c-0.064,0.136-0.15,0.256-0.256,0.36
	c-0.104,0.105-0.227,0.188-0.365,0.249c-0.141,0.062-0.289,0.092-0.447,0.092c-0.156,0-0.305-0.03-0.445-0.092
	c-0.139-0.061-0.262-0.144-0.367-0.249c-0.104-0.104-0.188-0.225-0.248-0.36c-0.061-0.135-0.092-0.281-0.092-0.438
	s0.031-0.309,0.092-0.452c0.061-0.145,0.145-0.269,0.248-0.374c0.105-0.104,0.229-0.188,0.367-0.249
	c0.141-0.061,0.289-0.092,0.445-0.092c0.158,0,0.307,0.031,0.447,0.092c0.139,0.062,0.262,0.145,0.365,0.249
	c0.105,0.105,0.191,0.229,0.256,0.374C144.883,11.366,144.917,11.518,144.917,11.675z M144.366,16.17v13.04h-1.246V16.17H144.366z"
	/>
<path fill="#474746" d="M163.983,13.627c-0.096,0.192-0.207,0.327-0.334,0.406c-0.127,0.078-0.277,0.118-0.451,0.118
	c-0.176,0-0.373-0.068-0.59-0.203c-0.219-0.136-0.477-0.286-0.773-0.452s-0.645-0.317-1.043-0.452
	c-0.396-0.136-0.867-0.203-1.408-0.203c-0.49,0-0.916,0.059-1.277,0.177c-0.363,0.118-0.67,0.281-0.918,0.491
	c-0.25,0.21-0.436,0.461-0.557,0.754c-0.123,0.293-0.184,0.613-0.184,0.963c0,0.445,0.125,0.817,0.373,1.114
	c0.25,0.297,0.578,0.55,0.99,0.76c0.41,0.21,0.877,0.397,1.402,0.563c0.523,0.166,1.059,0.343,1.605,0.531
	c0.545,0.188,1.08,0.406,1.605,0.655c0.523,0.249,0.99,0.563,1.402,0.943c0.41,0.38,0.74,0.846,0.988,1.396
	c0.25,0.551,0.375,1.219,0.375,2.006c0,0.856-0.146,1.657-0.439,2.404s-0.721,1.398-1.285,1.953
	c-0.562,0.555-1.252,0.991-2.064,1.311c-0.812,0.318-1.742,0.479-2.791,0.479c-0.604,0-1.197-0.06-1.783-0.177
	c-0.584-0.118-1.146-0.286-1.684-0.505s-1.039-0.48-1.506-0.786c-0.469-0.306-0.885-0.646-1.252-1.022l1.021-1.69
	c0.096-0.123,0.211-0.226,0.348-0.309c0.135-0.083,0.285-0.124,0.451-0.124c0.219,0,0.455,0.09,0.709,0.269
	c0.252,0.179,0.553,0.378,0.896,0.597c0.346,0.218,0.752,0.417,1.219,0.596c0.469,0.18,1.029,0.269,1.686,0.269
	c1.004,0,1.781-0.237,2.332-0.714s0.826-1.16,0.826-2.051c0-0.498-0.125-0.904-0.373-1.22c-0.25-0.314-0.58-0.578-0.99-0.792
	c-0.41-0.215-0.879-0.396-1.402-0.544s-1.057-0.311-1.6-0.485c-0.541-0.175-1.074-0.385-1.598-0.629
	c-0.525-0.244-0.992-0.563-1.402-0.957c-0.412-0.393-0.74-0.885-0.99-1.475c-0.248-0.589-0.373-1.316-0.373-2.182
	c0-0.69,0.137-1.363,0.412-2.019s0.678-1.236,1.207-1.743c0.527-0.506,1.176-0.912,1.945-1.219c0.77-0.306,1.646-0.458,2.635-0.458
	c1.117,0,2.148,0.175,3.092,0.523c0.945,0.35,1.748,0.839,2.412,1.468L163.983,13.627z"/>
<path fill="#474746" d="M178.204,18.528c-0.098,0.122-0.191,0.219-0.283,0.288c-0.092,0.07-0.225,0.105-0.398,0.105
	c-0.166,0-0.328-0.051-0.486-0.151c-0.156-0.1-0.344-0.214-0.562-0.341c-0.219-0.126-0.479-0.24-0.779-0.341
	c-0.303-0.1-0.676-0.15-1.121-0.15c-0.568,0-1.066,0.103-1.494,0.308c-0.428,0.206-0.785,0.501-1.068,0.885
	c-0.283,0.385-0.496,0.851-0.635,1.396c-0.141,0.546-0.211,1.164-0.211,1.854c0,0.716,0.076,1.354,0.23,1.913
	c0.152,0.56,0.373,1.028,0.662,1.409c0.287,0.38,0.637,0.668,1.047,0.864c0.412,0.197,0.875,0.295,1.391,0.295
	s0.932-0.063,1.25-0.189c0.32-0.127,0.588-0.267,0.807-0.42c0.219-0.152,0.408-0.292,0.57-0.419s0.344-0.19,0.545-0.19
	c0.262,0,0.457,0.101,0.588,0.302l0.932,1.18c-0.359,0.419-0.748,0.771-1.166,1.055c-0.42,0.284-0.855,0.511-1.305,0.682
	c-0.449,0.17-0.916,0.29-1.396,0.36c-0.48,0.069-0.955,0.104-1.428,0.104c-0.83,0-1.611-0.155-2.346-0.465
	c-0.734-0.311-1.375-0.763-1.92-1.356c-0.547-0.594-0.979-1.321-1.297-2.183c-0.32-0.86-0.479-1.841-0.479-2.941
	c0-0.987,0.141-1.902,0.426-2.746c0.283-0.843,0.701-1.572,1.252-2.188c0.549-0.616,1.23-1.099,2.043-1.448s1.748-0.524,2.805-0.524
	c1.006,0,1.885,0.162,2.641,0.485s1.436,0.786,2.039,1.389L178.204,18.528z"/>
<path fill="#474746" d="M181.78,29.131V9.655h3.238v7.483c0.523-0.498,1.1-0.899,1.73-1.205c0.629-0.306,1.367-0.459,2.215-0.459
	c0.732,0,1.383,0.125,1.951,0.374s1.043,0.598,1.422,1.048c0.381,0.45,0.67,0.987,0.865,1.612c0.197,0.625,0.295,1.312,0.295,2.064
	v8.558h-3.236v-8.558c0-0.821-0.189-1.457-0.57-1.907s-0.951-0.675-1.711-0.675c-0.559,0-1.082,0.127-1.572,0.38
	c-0.49,0.254-0.953,0.599-1.389,1.035v9.725H181.78z"/>
<path fill="#474746" d="M195.333,15.685h2.568c0.244,0,0.449,0.057,0.615,0.17c0.166,0.114,0.271,0.258,0.314,0.433l1.928,7.182
	c0.104,0.394,0.189,0.778,0.254,1.153c0.066,0.376,0.129,0.752,0.191,1.128c0.096-0.376,0.197-0.752,0.307-1.128
	c0.109-0.375,0.227-0.76,0.348-1.153l2.229-7.208c0.053-0.175,0.156-0.318,0.314-0.433c0.158-0.113,0.34-0.17,0.551-0.17h1.428
	c0.236,0,0.434,0.057,0.59,0.17c0.158,0.114,0.262,0.258,0.314,0.433l2.203,7.34c0.113,0.375,0.215,0.74,0.307,1.094
	c0.092,0.354,0.182,0.71,0.27,1.068c0.061-0.376,0.129-0.751,0.203-1.127s0.168-0.765,0.281-1.167l1.992-7.182
	c0.043-0.175,0.148-0.318,0.314-0.433c0.166-0.113,0.357-0.17,0.576-0.17h2.451l-4.26,13.446h-2.607
	c-0.279,0-0.48-0.192-0.604-0.576l-2.424-7.772c-0.078-0.253-0.15-0.509-0.217-0.767c-0.064-0.258-0.119-0.513-0.164-0.767
	c-0.051,0.263-0.109,0.522-0.17,0.78s-0.131,0.518-0.209,0.779l-2.451,7.746c-0.123,0.384-0.359,0.576-0.707,0.576h-2.479
	L195.333,15.685z"/>
<path fill="#474746" d="M223.784,15.475c0.848,0,1.627,0.136,2.34,0.406c0.713,0.271,1.326,0.666,1.842,1.187
	c0.516,0.52,0.916,1.157,1.205,1.913s0.434,1.618,0.434,2.588c0,0.245-0.012,0.448-0.033,0.61c-0.021,0.161-0.062,0.288-0.119,0.38
	s-0.133,0.157-0.229,0.196s-0.219,0.059-0.367,0.059h-8.309c0.096,1.381,0.467,2.395,1.113,3.041s1.504,0.97,2.568,0.97
	c0.525,0,0.977-0.061,1.357-0.184c0.379-0.122,0.711-0.258,0.996-0.406c0.283-0.148,0.533-0.284,0.746-0.406
	c0.215-0.122,0.422-0.184,0.623-0.184c0.131,0,0.244,0.026,0.342,0.079c0.096,0.052,0.178,0.127,0.248,0.223l0.943,1.18
	c-0.357,0.419-0.76,0.771-1.205,1.055s-0.912,0.511-1.396,0.682c-0.484,0.17-0.979,0.29-1.48,0.36
	c-0.502,0.069-0.99,0.104-1.461,0.104c-0.936,0-1.805-0.155-2.609-0.465c-0.803-0.311-1.502-0.769-2.096-1.376
	s-1.062-1.358-1.402-2.255c-0.342-0.896-0.512-1.933-0.512-3.112c0-0.917,0.148-1.78,0.445-2.588
	c0.297-0.809,0.723-1.512,1.277-2.11c0.557-0.599,1.232-1.072,2.033-1.422C221.877,15.649,222.78,15.475,223.784,15.475z
	 M223.85,17.794c-0.943,0-1.682,0.267-2.215,0.8s-0.875,1.289-1.023,2.268h6.082c0-0.42-0.057-0.814-0.17-1.187
	c-0.115-0.371-0.289-0.696-0.525-0.977c-0.236-0.279-0.533-0.5-0.891-0.661C224.749,17.875,224.331,17.794,223.85,17.794z"/>
<path fill="#474746" d="M237.413,15.448c0.578,0,1.119,0.06,1.627,0.177c0.506,0.118,0.969,0.291,1.389,0.518h3.865v1.206
	c0,0.201-0.053,0.358-0.156,0.472c-0.105,0.114-0.285,0.192-0.537,0.236l-1.207,0.223c0.088,0.228,0.156,0.468,0.203,0.721
	c0.049,0.254,0.072,0.521,0.072,0.8c0,0.664-0.133,1.265-0.398,1.802c-0.268,0.537-0.635,0.994-1.102,1.369
	c-0.467,0.376-1.021,0.667-1.664,0.872s-1.34,0.308-2.092,0.308c-0.506,0-1-0.048-1.48-0.144c-0.42,0.255-0.629,0.541-0.629,0.857
	c0,0.273,0.125,0.474,0.373,0.602c0.25,0.127,0.578,0.217,0.984,0.271c0.406,0.053,0.867,0.079,1.383,0.079
	c0.514,0,1.043,0.021,1.584,0.065c0.543,0.044,1.07,0.12,1.586,0.23c0.516,0.109,0.977,0.282,1.383,0.519
	c0.406,0.237,0.734,0.56,0.984,0.967c0.248,0.407,0.373,0.932,0.373,1.571c0,0.596-0.146,1.175-0.439,1.735
	c-0.293,0.562-0.717,1.061-1.271,1.499s-1.234,0.791-2.037,1.059c-0.805,0.268-1.723,0.401-2.752,0.401
	c-1.023,0-1.91-0.099-2.662-0.295c-0.75-0.197-1.373-0.459-1.867-0.786c-0.494-0.328-0.863-0.706-1.107-1.134
	c-0.244-0.429-0.367-0.874-0.367-1.337c0-0.629,0.193-1.158,0.578-1.586c0.383-0.428,0.916-0.769,1.598-1.022
	c-0.332-0.184-0.598-0.428-0.799-0.733s-0.301-0.703-0.301-1.193c0-0.2,0.033-0.408,0.104-0.622s0.178-0.426,0.322-0.636
	c0.143-0.21,0.324-0.408,0.543-0.597c0.219-0.188,0.477-0.355,0.773-0.504c-0.682-0.367-1.217-0.856-1.605-1.468
	s-0.584-1.328-0.584-2.149c0-0.664,0.135-1.265,0.4-1.803c0.268-0.537,0.639-0.995,1.113-1.376c0.477-0.38,1.041-0.67,1.691-0.871
	S236.645,15.448,237.413,15.448z M240.965,29.695c0-0.268-0.078-0.486-0.236-0.655c-0.156-0.17-0.371-0.301-0.643-0.395
	c-0.27-0.094-0.588-0.163-0.949-0.208c-0.363-0.045-0.748-0.066-1.154-0.066s-0.824,0-1.258,0c-0.432,0-0.85-0.048-1.252-0.145
	c-0.367,0.201-0.66,0.439-0.885,0.714c-0.223,0.275-0.334,0.592-0.334,0.95c0,0.236,0.061,0.457,0.178,0.662
	s0.305,0.382,0.562,0.531c0.258,0.148,0.592,0.264,1.004,0.347c0.41,0.083,0.912,0.125,1.506,0.125c0.604,0,1.123-0.047,1.561-0.141
	s0.797-0.223,1.082-0.388c0.283-0.165,0.49-0.362,0.621-0.589C240.899,30.21,240.965,29.963,240.965,29.695z M237.413,22.08
	c0.402,0,0.752-0.055,1.049-0.164s0.545-0.26,0.74-0.452c0.197-0.192,0.346-0.424,0.447-0.694c0.1-0.271,0.15-0.568,0.15-0.892
	c0-0.664-0.199-1.19-0.598-1.579c-0.396-0.389-0.994-0.583-1.789-0.583s-1.391,0.194-1.787,0.583
	c-0.398,0.389-0.598,0.915-0.598,1.579c0,0.314,0.051,0.607,0.15,0.878c0.102,0.271,0.25,0.505,0.447,0.701
	c0.195,0.197,0.445,0.35,0.746,0.459S237.02,22.08,237.413,22.08z"/>
<path fill="#474746" d="M250.295,9.655v19.476h-3.236V9.655H250.295z"/>
<path fill="#474746" d="M259.508,15.475c0.848,0,1.629,0.136,2.34,0.406c0.713,0.271,1.326,0.666,1.842,1.187
	c0.516,0.52,0.918,1.157,1.205,1.913c0.289,0.756,0.434,1.618,0.434,2.588c0,0.245-0.012,0.448-0.033,0.61
	c-0.021,0.161-0.061,0.288-0.117,0.38c-0.059,0.092-0.135,0.157-0.23,0.196s-0.219,0.059-0.367,0.059h-8.309
	c0.096,1.381,0.467,2.395,1.113,3.041s1.504,0.97,2.57,0.97c0.523,0,0.977-0.061,1.355-0.184c0.381-0.122,0.713-0.258,0.996-0.406
	s0.533-0.284,0.748-0.406c0.213-0.122,0.42-0.184,0.621-0.184c0.131,0,0.244,0.026,0.342,0.079c0.096,0.052,0.178,0.127,0.248,0.223
	l0.943,1.18c-0.357,0.419-0.76,0.771-1.205,1.055s-0.91,0.511-1.396,0.682c-0.484,0.17-0.979,0.29-1.48,0.36
	c-0.502,0.069-0.988,0.104-1.461,0.104c-0.936,0-1.805-0.155-2.607-0.465c-0.805-0.311-1.504-0.769-2.098-1.376
	s-1.061-1.358-1.402-2.255c-0.34-0.896-0.512-1.933-0.512-3.112c0-0.917,0.148-1.78,0.447-2.588c0.297-0.809,0.723-1.512,1.277-2.11
	s1.232-1.072,2.031-1.422S258.504,15.475,259.508,15.475z M259.575,17.794c-0.943,0-1.682,0.267-2.215,0.8s-0.873,1.289-1.021,2.268
	h6.08c0-0.42-0.057-0.814-0.17-1.187c-0.113-0.371-0.289-0.696-0.525-0.977c-0.234-0.279-0.531-0.5-0.891-0.661
	C260.475,17.875,260.055,17.794,259.575,17.794z"/>
<path fill="#474746" d="M267.961,29.131V15.685h1.9c0.332,0,0.564,0.061,0.695,0.184c0.131,0.122,0.219,0.332,0.262,0.629
	l0.197,1.625c0.48-0.83,1.043-1.485,1.689-1.966s1.373-0.721,2.176-0.721c0.664,0,1.215,0.152,1.652,0.459l-0.42,2.424
	c-0.025,0.157-0.082,0.269-0.17,0.334c-0.088,0.066-0.205,0.099-0.354,0.099c-0.131,0-0.311-0.03-0.537-0.092
	c-0.229-0.061-0.529-0.092-0.904-0.092c-0.674,0-1.25,0.186-1.73,0.558c-0.48,0.371-0.887,0.915-1.219,1.631v8.375H267.961z"/>
<path fill="#474746" d="M295.991,23.311c0,0.928-0.139,1.762-0.416,2.502c-0.276,0.74-0.667,1.371-1.17,1.892
	c-0.502,0.52-1.104,0.918-1.806,1.194c-0.701,0.277-1.479,0.416-2.332,0.416h-4.376V17.315h4.376c0.854,0,1.631,0.139,2.332,0.416
	c0.701,0.276,1.304,0.675,1.806,1.195c0.503,0.52,0.894,1.151,1.17,1.891C295.852,21.559,295.991,22.39,295.991,23.311z
	 M295.092,23.311c0-0.836-0.116-1.583-0.348-2.238c-0.232-0.656-0.559-1.21-0.979-1.662c-0.422-0.453-0.928-0.798-1.522-1.035
	c-0.595-0.237-1.252-0.356-1.976-0.356h-3.502v10.592h3.502c0.724,0,1.381-0.119,1.976-0.357c0.595-0.236,1.101-0.581,1.522-1.034
	c0.421-0.452,0.747-1.006,0.979-1.661C294.976,24.902,295.092,24.152,295.092,23.311z"/>
<path fill="#474746" d="M306.311,17.315v0.72h-6.317v4.851h5.257v0.704h-5.257v5.003h6.317v0.721h-7.191V17.315H306.311z"/>
<path fill="#474746" d="M315.63,18.774c-0.051,0.096-0.125,0.144-0.221,0.144c-0.073,0-0.169-0.052-0.285-0.157
	c-0.115-0.104-0.274-0.221-0.473-0.348c-0.197-0.127-0.445-0.244-0.744-0.351c-0.298-0.107-0.665-0.162-1.101-0.162
	c-0.438,0-0.822,0.062-1.153,0.187c-0.332,0.125-0.61,0.294-0.834,0.509s-0.395,0.464-0.511,0.747
	c-0.116,0.282-0.173,0.58-0.173,0.89c0,0.406,0.085,0.743,0.258,1.01c0.174,0.266,0.4,0.491,0.685,0.679
	c0.282,0.186,0.604,0.343,0.963,0.47s0.729,0.254,1.108,0.378c0.379,0.124,0.749,0.262,1.108,0.41
	c0.358,0.15,0.68,0.338,0.963,0.564c0.284,0.227,0.512,0.505,0.685,0.835c0.173,0.331,0.259,0.742,0.259,1.234
	c0,0.504-0.086,0.977-0.259,1.42c-0.172,0.444-0.423,0.83-0.751,1.157c-0.327,0.329-0.729,0.587-1.203,0.777
	c-0.476,0.188-1.018,0.283-1.629,0.283c-0.792,0-1.472-0.14-2.043-0.419c-0.571-0.28-1.072-0.663-1.502-1.15l0.238-0.372
	c0.067-0.085,0.146-0.127,0.237-0.127c0.051,0,0.116,0.033,0.195,0.101c0.079,0.068,0.175,0.151,0.289,0.251
	c0.112,0.099,0.249,0.206,0.407,0.322c0.158,0.115,0.343,0.223,0.552,0.321c0.21,0.1,0.45,0.183,0.722,0.251
	c0.271,0.067,0.58,0.102,0.926,0.102c0.476,0,0.9-0.071,1.273-0.217c0.374-0.144,0.689-0.34,0.947-0.589
	c0.259-0.248,0.454-0.544,0.59-0.886c0.136-0.343,0.204-0.708,0.204-1.099c0-0.424-0.086-0.773-0.258-1.048
	c-0.174-0.273-0.401-0.502-0.685-0.686c-0.283-0.185-0.604-0.338-0.964-0.463c-0.36-0.124-0.729-0.246-1.108-0.364
	c-0.38-0.118-0.749-0.252-1.107-0.399c-0.36-0.146-0.682-0.334-0.965-0.563c-0.282-0.229-0.512-0.515-0.684-0.856
	s-0.259-0.771-0.259-1.284c0-0.401,0.076-0.79,0.229-1.163c0.154-0.373,0.378-0.702,0.672-0.987s0.658-0.515,1.091-0.687
	c0.433-0.172,0.928-0.259,1.482-0.259c0.623,0,1.182,0.099,1.676,0.297c0.496,0.197,0.947,0.5,1.354,0.907L315.63,18.774z"/>
<path fill="#474746" d="M320.209,29.314h-0.874V17.315h0.874V29.314z"/>
<path fill="#474746" d="M329.249,28.746c0.413,0,0.788-0.021,1.128-0.063s0.655-0.106,0.946-0.19
	c0.291-0.085,0.568-0.188,0.831-0.31c0.263-0.121,0.527-0.259,0.792-0.411v-3.23h-2.307c-0.062,0-0.114-0.021-0.156-0.06
	c-0.043-0.04-0.064-0.085-0.064-0.136V23.87h3.316v4.266c-0.299,0.209-0.61,0.396-0.933,0.56c-0.322,0.165-0.668,0.302-1.034,0.412
	c-0.367,0.109-0.764,0.194-1.188,0.254c-0.425,0.06-0.888,0.089-1.391,0.089c-0.865,0-1.655-0.145-2.37-0.437
	c-0.716-0.291-1.329-0.704-1.841-1.238s-0.908-1.18-1.191-1.938c-0.282-0.757-0.423-1.6-0.423-2.527
	c0-0.927,0.141-1.768,0.423-2.522c0.283-0.755,0.684-1.399,1.204-1.934c0.521-0.534,1.152-0.946,1.896-1.237
	s1.575-0.437,2.497-0.437c0.459,0,0.881,0.031,1.268,0.093c0.388,0.062,0.749,0.154,1.082,0.276
	c0.333,0.121,0.645,0.271,0.933,0.449c0.288,0.179,0.565,0.383,0.831,0.614l-0.229,0.373c-0.052,0.086-0.122,0.127-0.213,0.127
	c-0.05,0-0.099-0.01-0.144-0.033c-0.086-0.035-0.209-0.114-0.369-0.238c-0.161-0.124-0.379-0.254-0.652-0.39
	c-0.274-0.135-0.617-0.257-1.03-0.365s-0.914-0.161-1.502-0.161c-0.779,0-1.484,0.124-2.112,0.374
	c-0.626,0.248-1.162,0.604-1.605,1.067c-0.444,0.464-0.786,1.029-1.025,1.696c-0.242,0.667-0.361,1.416-0.361,2.247
	c0,0.849,0.121,1.608,0.365,2.281c0.242,0.673,0.583,1.242,1.021,1.709s0.964,0.824,1.576,1.072
	C327.831,28.622,328.508,28.746,329.249,28.746z"/>
<path fill="#474746" d="M337.398,17.346c0.046,0.02,0.094,0.063,0.145,0.131l7.768,10.396c-0.017-0.169-0.025-0.334-0.025-0.491
	V17.315h0.764v11.999h-0.416c-0.13,0-0.234-0.056-0.312-0.17l-7.804-10.413c0.019,0.17,0.026,0.331,0.026,0.483v10.1h-0.755V17.315
	h0.425C337.292,17.315,337.353,17.326,337.398,17.346z"/>
<path fill="#474746" d="M365.984,29.314h-0.67c-0.079,0-0.144-0.021-0.195-0.063c-0.05-0.043-0.09-0.098-0.118-0.166l-1.417-3.484
	h-5.893l-1.407,3.484c-0.023,0.062-0.062,0.117-0.119,0.162s-0.125,0.067-0.204,0.067h-0.661l4.91-11.999h0.864L365.984,29.314z
	 M357.954,24.955h5.376l-2.45-6.062c-0.04-0.096-0.079-0.205-0.119-0.326c-0.039-0.122-0.079-0.25-0.119-0.386
	c-0.039,0.136-0.079,0.264-0.118,0.386c-0.04,0.121-0.079,0.232-0.119,0.335L357.954,24.955z"/>
<path fill="#474746" d="M373.531,29.314V17.315h3.452c0.685,0,1.276,0.068,1.777,0.203c0.499,0.136,0.913,0.336,1.241,0.599
	s0.572,0.584,0.733,0.962s0.241,0.808,0.241,1.289c0,0.317-0.054,0.622-0.165,0.916c-0.11,0.294-0.271,0.565-0.479,0.813
	c-0.209,0.249-0.466,0.465-0.768,0.649c-0.303,0.184-0.648,0.323-1.039,0.419c0.943,0.143,1.671,0.456,2.18,0.942
	c0.509,0.485,0.763,1.128,0.763,1.924c0,0.509-0.091,0.968-0.271,1.374c-0.182,0.407-0.444,0.752-0.789,1.035
	c-0.346,0.282-0.77,0.499-1.271,0.648c-0.505,0.149-1.075,0.225-1.714,0.225H373.531z M374.395,22.929H377
	c0.554,0,1.027-0.07,1.42-0.212c0.394-0.141,0.716-0.327,0.967-0.56c0.251-0.231,0.437-0.494,0.556-0.788s0.179-0.597,0.179-0.907
	c0-0.809-0.256-1.421-0.769-1.836c-0.511-0.416-1.301-0.624-2.369-0.624h-2.588V22.929z M374.395,23.564v5.055h3.012
	c1.057,0,1.854-0.228,2.392-0.683c0.537-0.455,0.805-1.095,0.805-1.921c0-0.378-0.071-0.719-0.216-1.021s-0.352-0.56-0.623-0.771
	c-0.271-0.213-0.605-0.374-1-0.488c-0.396-0.112-0.847-0.17-1.35-0.17H374.395z"/>
<path fill="#474746" d="M391.593,17.315v0.72h-6.317v4.851h5.258v0.704h-5.258v5.003h6.317v0.721h-7.19V17.315H391.593z"/>
<path fill="#474746" d="M402.601,17.315v0.738h-4.216v11.261h-0.864V18.054h-4.241v-0.738H402.601z"/>
<path fill="#474746" d="M413.87,17.315v0.738h-4.215v11.261h-0.865V18.054h-4.239v-0.738H413.87z"/>
<path fill="#474746" d="M423.138,17.315v0.72h-6.317v4.851h5.258v0.704h-5.258v5.003h6.317v0.721h-7.19V17.315H423.138z"/>
<path fill="#474746" d="M426.413,23.888v5.427h-0.866V17.315h3.062c1.384,0,2.418,0.267,3.103,0.802
	c0.684,0.534,1.028,1.318,1.028,2.353c0,0.458-0.08,0.875-0.238,1.254s-0.386,0.711-0.684,0.997
	c-0.297,0.285-0.655,0.52-1.072,0.703c-0.419,0.185-0.891,0.305-1.416,0.361c0.136,0.084,0.257,0.197,0.365,0.339l4.129,5.189
	h-0.755c-0.09,0-0.169-0.017-0.233-0.051c-0.064-0.033-0.127-0.09-0.19-0.169l-3.841-4.868c-0.098-0.124-0.2-0.212-0.311-0.263
	s-0.281-0.076-0.513-0.076H426.413z M426.413,23.242h2.084c0.532,0,1.008-0.063,1.429-0.19s0.778-0.309,1.069-0.546
	c0.29-0.238,0.514-0.523,0.666-0.857s0.229-0.709,0.229-1.127c0-0.854-0.279-1.488-0.84-1.9c-0.559-0.413-1.374-0.619-2.441-0.619
	h-2.195V23.242z"/>
<path fill="#474746" d="M440.343,17.315h0.722c0.164,0,0.269,0.076,0.312,0.229l3.027,9.861c0.035,0.113,0.064,0.235,0.09,0.365
	c0.025,0.129,0.052,0.266,0.081,0.406c0.027-0.141,0.057-0.277,0.084-0.406c0.029-0.13,0.062-0.252,0.102-0.365l3.393-9.861
	c0.023-0.063,0.062-0.116,0.119-0.162c0.057-0.045,0.123-0.068,0.202-0.068h0.238c0.079,0,0.144,0.021,0.195,0.063
	c0.051,0.043,0.09,0.098,0.119,0.166l3.391,9.861c0.039,0.113,0.075,0.231,0.106,0.357c0.031,0.124,0.061,0.256,0.09,0.397
	c0.026-0.135,0.054-0.267,0.075-0.394c0.022-0.127,0.052-0.248,0.085-0.361l3.028-9.861c0.016-0.063,0.054-0.116,0.114-0.162
	c0.059-0.045,0.129-0.068,0.208-0.068h0.661l-3.774,11.999h-0.779l-3.545-10.413c-0.046-0.136-0.086-0.28-0.119-0.433
	c-0.033,0.153-0.072,0.297-0.118,0.433l-3.554,10.413h-0.771L440.343,17.315z"/>
<path fill="#474746" d="M469.421,23.311c0,0.928-0.138,1.768-0.415,2.522s-0.668,1.399-1.17,1.935
	c-0.505,0.533-1.105,0.946-1.808,1.237c-0.701,0.291-1.479,0.437-2.331,0.437c-0.843,0-1.614-0.146-2.315-0.437
	c-0.7-0.291-1.303-0.704-1.806-1.237c-0.504-0.535-0.895-1.18-1.176-1.935c-0.279-0.755-0.419-1.595-0.419-2.522
	c0-0.921,0.14-1.759,0.419-2.514c0.281-0.755,0.672-1.399,1.176-1.935c0.503-0.534,1.105-0.947,1.806-1.242
	c0.701-0.294,1.473-0.441,2.315-0.441c0.853,0,1.63,0.146,2.331,0.437c0.702,0.291,1.303,0.705,1.808,1.242
	c0.502,0.538,0.893,1.183,1.17,1.938C469.284,21.552,469.421,22.39,469.421,23.311z M468.522,23.311
	c0-0.837-0.116-1.588-0.348-2.256c-0.231-0.667-0.557-1.232-0.979-1.696c-0.421-0.463-0.93-0.818-1.521-1.064
	c-0.595-0.245-1.254-0.368-1.977-0.368c-0.714,0-1.364,0.123-1.954,0.368c-0.593,0.246-1.102,0.602-1.526,1.064
	c-0.428,0.464-0.76,1.029-0.993,1.696c-0.235,0.668-0.353,1.419-0.353,2.256c0,0.842,0.117,1.596,0.353,2.26
	c0.233,0.664,0.565,1.229,0.993,1.692c0.425,0.463,0.934,0.816,1.526,1.06c0.59,0.244,1.24,0.364,1.954,0.364
	c0.723,0,1.382-0.12,1.977-0.364c0.592-0.243,1.101-0.597,1.521-1.06c0.422-0.464,0.747-1.028,0.979-1.692
	S468.522,24.152,468.522,23.311z"/>
<path fill="#474746" d="M473.364,23.888v5.427h-0.865V17.315h3.063c1.385,0,2.419,0.267,3.103,0.802
	c0.685,0.534,1.026,1.318,1.026,2.353c0,0.458-0.079,0.875-0.238,1.254c-0.158,0.379-0.386,0.711-0.682,0.997
	c-0.298,0.285-0.654,0.52-1.073,0.703c-0.418,0.185-0.891,0.305-1.416,0.361c0.135,0.084,0.258,0.197,0.364,0.339l4.131,5.189
	h-0.755c-0.092,0-0.169-0.017-0.233-0.051c-0.064-0.033-0.129-0.09-0.191-0.169l-3.841-4.868c-0.097-0.124-0.2-0.212-0.309-0.263
	c-0.111-0.051-0.282-0.076-0.514-0.076H473.364z M473.364,23.242h2.088c0.529,0,1.007-0.063,1.428-0.19
	c0.422-0.127,0.778-0.309,1.068-0.546c0.292-0.238,0.513-0.523,0.667-0.857c0.152-0.334,0.228-0.709,0.228-1.127
	c0-0.854-0.279-1.488-0.839-1.9c-0.561-0.413-1.374-0.619-2.441-0.619h-2.198V23.242z"/>
<path fill="#474746" d="M484.151,28.576h5.69v0.738h-6.556V17.315h0.865V28.576z"/>
<path fill="#474746" d="M502.401,23.311c0,0.928-0.14,1.762-0.417,2.502c-0.275,0.74-0.667,1.371-1.17,1.892
	c-0.503,0.52-1.105,0.918-1.806,1.194c-0.701,0.277-1.479,0.416-2.332,0.416H492.3V17.315h4.376c0.854,0,1.631,0.139,2.332,0.416
	c0.7,0.276,1.303,0.675,1.806,1.195c0.503,0.52,0.895,1.151,1.17,1.891C502.261,21.559,502.401,22.39,502.401,23.311z
	 M501.502,23.311c0-0.837-0.117-1.583-0.349-2.238c-0.231-0.656-0.559-1.21-0.98-1.662c-0.421-0.453-0.928-0.798-1.521-1.035
	c-0.595-0.238-1.251-0.356-1.976-0.356h-3.503v10.592h3.503c0.725,0,1.381-0.119,1.976-0.357c0.594-0.236,1.101-0.581,1.521-1.034
	c0.422-0.452,0.749-1.006,0.98-1.661C501.385,24.902,501.502,24.152,501.502,23.311z"/>
</svg>
