<?xml version="1.0" encoding="utf-8"?>
<!-- Generator: Adobe Illustrator 15.0.0, SVG Export Plug-In . SVG Version: 6.00 Build 0)  -->
<!DOCTYPE svg PUBLIC "-//W3C//DTD SVG 1.1//EN" "http://www.w3.org/Graphics/SVG/1.1/DTD/svg11.dtd">
<svg version="1.1" id="Ebene_1" xmlns="http://www.w3.org/2000/svg" xmlns:xlink="http://www.w3.org/1999/xlink" x="0px" y="0px"
	 width="500.021px" height="67.152px" viewBox="0 0 500.021 67.152" enable-background="new 0 0 500.021 67.152"
	 xml:space="preserve">
<title>Artboard</title>
<desc>Created with Sketch.</desc>
<g>
	<g>
		<path fill="none" stroke="#474746" stroke-miterlimit="10" d="M134.696,33.858c0.647,0.324,1.408,0.673,2.27,1.043"/>
		<path fill="none" stroke="#474746" stroke-miterlimit="10" stroke-dasharray="5.0642,5.0642" d="M141.669,36.764
			c21.964,8.165,75.493,22.413,96.026,22.594c56.5,0.5,125-7.5,121.644-35.006c-3.143-25.756-39.188-21.455-32.851-5.98
			c5.394,13.169,27.901,30.598,45.982,23.097"/>
		<path fill="none" stroke="#474746" stroke-miterlimit="10" d="M374.762,40.368c0.721-0.395,1.432-0.832,2.132-1.314"/>
		<g>
			<path fill="#474746" d="M381.445,35.08c-1.482,2.643-3.003,6.293-3.436,9.158L376.24,39.5l-4.39-2.51
				C374.749,37.027,378.599,36.116,381.445,35.08z"/>
		</g>
	</g>
</g>
<path fill="#72B632" stroke="#72B632" stroke-width="0.3" stroke-miterlimit="10" d="M269.985,20.67c0,0.93-0.141,1.764-0.416,2.502
	c-0.277,0.739-0.668,1.37-1.171,1.893c-0.502,0.52-1.104,0.918-1.807,1.193c-0.701,0.276-1.479,0.416-2.332,0.416h-4.376v-12h4.376
	c0.854,0,1.631,0.14,2.332,0.416s1.305,0.676,1.807,1.194c0.503,0.521,0.894,1.152,1.171,1.892
	C269.845,18.917,269.985,19.749,269.985,20.67z M269.084,20.67c0-0.837-0.115-1.582-0.348-2.236
	c-0.231-0.656-0.56-1.211-0.979-1.662c-0.422-0.453-0.928-0.799-1.521-1.035c-0.597-0.238-1.252-0.356-1.978-0.356h-3.502v10.59
	h3.502c0.726,0,1.381-0.117,1.978-0.355c0.594-0.235,1.101-0.582,1.521-1.035c0.421-0.45,0.747-1.006,0.979-1.659
	C268.969,22.26,269.084,21.51,269.084,20.67z"/>
<path fill="#72B632" stroke="#72B632" stroke-width="0.3" stroke-miterlimit="10" d="M280.304,14.674v0.72h-6.316v4.852h5.258v0.703
	h-5.258v5.004h6.316v0.722h-7.189v-12H280.304z"/>
<path fill="#72B632" stroke="#72B632" stroke-width="0.3" stroke-miterlimit="10" d="M289.623,16.133
	c-0.051,0.098-0.125,0.145-0.221,0.145c-0.074,0-0.17-0.051-0.285-0.156c-0.115-0.104-0.274-0.221-0.474-0.348
	c-0.196-0.127-0.444-0.244-0.743-0.352c-0.299-0.108-0.666-0.162-1.103-0.162c-0.438,0-0.821,0.062-1.152,0.188
	c-0.332,0.125-0.61,0.293-0.834,0.508c-0.225,0.216-0.396,0.466-0.512,0.748c-0.115,0.281-0.174,0.58-0.174,0.89
	c0,0.405,0.086,0.744,0.259,1.012c0.175,0.266,0.399,0.49,0.686,0.678c0.282,0.187,0.604,0.345,0.963,0.472s0.729,0.254,1.108,0.377
	c0.379,0.125,0.749,0.264,1.107,0.409c0.357,0.15,0.68,0.339,0.963,0.564s0.513,0.506,0.687,0.836
	c0.172,0.33,0.258,0.74,0.258,1.232c0,0.504-0.086,0.979-0.258,1.42c-0.173,0.444-0.425,0.83-0.752,1.157
	c-0.326,0.328-0.729,0.587-1.203,0.777c-0.477,0.188-1.019,0.283-1.629,0.283c-0.791,0-1.473-0.141-2.043-0.42
	s-1.072-0.662-1.503-1.15l0.238-0.371c0.066-0.086,0.146-0.127,0.236-0.127c0.051,0,0.117,0.033,0.195,0.101
	s0.176,0.151,0.289,0.252c0.111,0.1,0.248,0.205,0.406,0.321c0.157,0.115,0.344,0.224,0.553,0.32
	c0.211,0.101,0.449,0.185,0.723,0.252c0.271,0.066,0.58,0.103,0.926,0.103c0.477,0,0.9-0.07,1.273-0.218
	c0.373-0.145,0.688-0.34,0.945-0.59c0.26-0.248,0.454-0.543,0.591-0.885c0.136-0.344,0.203-0.709,0.203-1.1
	c0-0.425-0.086-0.773-0.258-1.05c-0.174-0.271-0.399-0.502-0.686-0.686c-0.283-0.186-0.604-0.338-0.963-0.463
	c-0.361-0.123-0.729-0.246-1.109-0.363c-0.379-0.119-0.748-0.252-1.106-0.399c-0.359-0.146-0.683-0.334-0.965-0.562
	c-0.281-0.228-0.513-0.516-0.685-0.854c-0.172-0.343-0.258-0.771-0.258-1.285c0-0.4,0.075-0.789,0.229-1.162
	c0.154-0.373,0.378-0.701,0.672-0.986s0.658-0.515,1.091-0.687c0.434-0.172,0.93-0.261,1.481-0.261c0.623,0,1.183,0.101,1.677,0.298
	c0.496,0.196,0.946,0.5,1.354,0.907L289.623,16.133z"/>
<path fill="#72B632" stroke="#72B632" stroke-width="0.3" stroke-miterlimit="10" d="M294.201,26.674h-0.873v-12h0.873V26.674z"/>
<path fill="#72B632" stroke="#72B632" stroke-width="0.3" stroke-miterlimit="10" d="M303.242,26.104
	c0.412,0,0.787-0.021,1.127-0.062c0.34-0.043,0.656-0.104,0.947-0.188c0.291-0.086,0.566-0.189,0.83-0.312
	c0.264-0.12,0.526-0.26,0.792-0.411v-3.229h-2.308c-0.062,0-0.113-0.021-0.155-0.061c-0.043-0.041-0.063-0.086-0.063-0.138v-0.474
	h3.315v4.266c-0.3,0.209-0.61,0.396-0.934,0.56c-0.322,0.166-0.668,0.303-1.034,0.412c-0.366,0.108-0.765,0.194-1.188,0.254
	c-0.424,0.061-0.888,0.09-1.391,0.09c-0.865,0-1.654-0.146-2.37-0.438c-0.717-0.291-1.329-0.702-1.842-1.237
	c-0.512-0.533-0.907-1.181-1.19-1.938c-0.281-0.756-0.422-1.6-0.422-2.526s0.141-1.769,0.422-2.521
	c0.283-0.754,0.684-1.398,1.205-1.934c0.52-0.535,1.151-0.945,1.895-1.237c0.744-0.291,1.576-0.438,2.498-0.438
	c0.459,0,0.881,0.03,1.269,0.093c0.389,0.062,0.749,0.153,1.082,0.275s0.645,0.271,0.934,0.45c0.287,0.178,0.564,0.383,0.83,0.613
	l-0.229,0.373c-0.054,0.086-0.122,0.127-0.214,0.127c-0.051,0-0.1-0.01-0.145-0.033c-0.086-0.035-0.209-0.113-0.369-0.238
	c-0.16-0.123-0.379-0.254-0.651-0.389c-0.273-0.137-0.616-0.258-1.029-0.365c-0.412-0.108-0.914-0.162-1.502-0.162
	c-0.779,0-1.484,0.125-2.111,0.375c-0.627,0.248-1.162,0.604-1.605,1.066c-0.442,0.465-0.785,1.029-1.024,1.695
	c-0.242,0.668-0.361,1.416-0.361,2.248c0,0.85,0.121,1.606,0.365,2.28c0.242,0.672,0.584,1.242,1.021,1.709
	c0.438,0.467,0.965,0.824,1.576,1.072C301.824,25.981,302.5,26.104,303.242,26.104z"/>
<path fill="#72B632" stroke="#72B632" stroke-width="0.3" stroke-miterlimit="10" d="M311.39,14.704
	c0.047,0.021,0.095,0.063,0.146,0.132l7.769,10.396c-0.017-0.168-0.023-0.334-0.023-0.49V14.674h0.764v12h-0.416
	c-0.131,0-0.233-0.058-0.312-0.17l-7.806-10.414c0.02,0.17,0.026,0.332,0.026,0.483v10.101h-0.756v-12h0.426
	C311.285,14.674,311.346,14.685,311.39,14.704z"/>
<path fill="#72B632" stroke="#72B632" stroke-width="0.3" stroke-miterlimit="10" d="M353.382,26.674h-0.67
	c-0.079,0-0.145-0.021-0.194-0.062c-0.051-0.043-0.091-0.1-0.117-0.166l-1.418-3.483h-5.894l-1.406,3.483
	c-0.022,0.062-0.062,0.117-0.118,0.162c-0.059,0.045-0.125,0.066-0.205,0.066h-0.66l4.91-12h0.862L353.382,26.674z M345.353,22.313
	h5.375l-2.449-6.062c-0.041-0.097-0.08-0.205-0.119-0.326s-0.079-0.25-0.119-0.386c-0.039,0.136-0.079,0.265-0.118,0.386
	c-0.04,0.121-0.079,0.231-0.118,0.336L345.353,22.313z"/>
<path fill="#72B632" stroke="#72B632" stroke-width="0.3" stroke-miterlimit="10" d="M363.955,26.674v-12h3.452
	c0.685,0,1.276,0.067,1.776,0.203s0.913,0.335,1.241,0.599s0.572,0.584,0.732,0.963c0.161,0.377,0.241,0.807,0.241,1.289
	c0,0.316-0.055,0.621-0.165,0.916c-0.109,0.293-0.271,0.563-0.479,0.812c-0.209,0.248-0.467,0.466-0.769,0.648
	c-0.304,0.184-0.647,0.322-1.039,0.42c0.942,0.143,1.671,0.455,2.181,0.941c0.509,0.483,0.763,1.127,0.763,1.924
	c0,0.51-0.091,0.969-0.271,1.373c-0.182,0.408-0.443,0.754-0.788,1.035c-0.347,0.282-0.771,0.5-1.271,0.647
	c-0.506,0.148-1.075,0.226-1.715,0.226h-3.892v0.004H363.955z M364.82,20.288h2.604c0.556,0,1.027-0.069,1.42-0.213
	c0.396-0.141,0.718-0.326,0.969-0.559c0.251-0.233,0.437-0.494,0.556-0.789c0.119-0.293,0.18-0.598,0.18-0.906
	c0-0.811-0.256-1.422-0.77-1.836c-0.513-0.416-1.301-0.625-2.369-0.625h-2.588L364.82,20.288L364.82,20.288z M364.82,20.924v5.055
	h3.013c1.058,0,1.854-0.229,2.392-0.684c0.536-0.455,0.806-1.095,0.806-1.921c0-0.379-0.071-0.719-0.216-1.021
	c-0.146-0.302-0.353-0.562-0.623-0.771c-0.271-0.213-0.605-0.373-1-0.487c-0.396-0.111-0.849-0.17-1.351-0.17L364.82,20.924
	L364.82,20.924z"/>
<path fill="#72B632" stroke="#72B632" stroke-width="0.3" stroke-miterlimit="10" d="M382.018,14.674v0.72H375.7v4.852h5.259v0.703
	H375.7v5.004h6.317v0.722h-7.19v-12H382.018z"/>
<path fill="#72B632" stroke="#72B632" stroke-width="0.3" stroke-miterlimit="10" d="M393.026,14.674v0.737h-4.217v11.263h-0.863
	V15.413h-4.24v-0.737h9.32V14.674L393.026,14.674z"/>
<path fill="#72B632" stroke="#72B632" stroke-width="0.3" stroke-miterlimit="10" d="M404.295,14.674v0.737h-4.215v11.263h-0.865
	V15.413h-4.239v-0.737h9.319V14.674z"/>
<path fill="#72B632" stroke="#72B632" stroke-width="0.3" stroke-miterlimit="10" d="M413.563,14.674v0.72h-6.316v4.852h5.258v0.703
	h-5.258v5.004h6.316v0.722h-7.189v-12H413.563z"/>
<path fill="#72B632" stroke="#72B632" stroke-width="0.3" stroke-miterlimit="10" d="M416.838,21.247v5.427h-0.867v-12h3.062
	c1.385,0,2.418,0.268,3.104,0.802c0.685,0.533,1.027,1.318,1.027,2.354c0,0.457-0.08,0.875-0.238,1.254
	c-0.157,0.38-0.385,0.712-0.684,0.996c-0.297,0.285-0.654,0.521-1.072,0.703c-0.418,0.187-0.891,0.306-1.416,0.361
	c0.138,0.084,0.258,0.197,0.365,0.34l4.129,5.188h-0.754c-0.092,0-0.17-0.017-0.234-0.052c-0.062-0.032-0.127-0.09-0.188-0.168
	l-3.842-4.869c-0.099-0.122-0.199-0.211-0.312-0.262s-0.281-0.076-0.512-0.076h-1.568V21.247L416.838,21.247z M416.838,20.6h2.084
	c0.531,0,1.008-0.062,1.429-0.189c0.422-0.127,0.778-0.309,1.069-0.547c0.289-0.237,0.515-0.522,0.666-0.856
	c0.15-0.334,0.229-0.709,0.229-1.127c0-0.854-0.279-1.486-0.84-1.898c-0.56-0.414-1.375-0.619-2.441-0.619h-2.195L416.838,20.6
	L416.838,20.6z"/>
<path fill="#72B632" stroke="#72B632" stroke-width="0.3" stroke-miterlimit="10" d="M430.768,14.674h0.721
	c0.164,0,0.27,0.075,0.312,0.229l3.027,9.86c0.035,0.112,0.064,0.235,0.09,0.365c0.026,0.129,0.053,0.268,0.082,0.405
	c0.025-0.141,0.057-0.276,0.084-0.405c0.027-0.13,0.062-0.253,0.103-0.365l3.393-9.86c0.023-0.062,0.062-0.116,0.119-0.162
	c0.057-0.045,0.123-0.066,0.201-0.066h0.237c0.08,0,0.146,0.021,0.195,0.062c0.051,0.043,0.09,0.098,0.119,0.166l3.391,9.861
	c0.039,0.112,0.076,0.229,0.105,0.356c0.031,0.123,0.062,0.256,0.092,0.396c0.025-0.135,0.053-0.269,0.074-0.396
	c0.021-0.127,0.053-0.248,0.084-0.36l3.028-9.86c0.017-0.062,0.054-0.116,0.113-0.162c0.06-0.045,0.129-0.066,0.209-0.066h0.66
	l-3.773,11.998h-0.778l-3.545-10.412c-0.047-0.138-0.086-0.279-0.119-0.435c-0.033,0.154-0.072,0.297-0.117,0.435l-3.555,10.412
	h-0.771L430.768,14.674z"/>
<path fill="#72B632" stroke="#72B632" stroke-width="0.3" stroke-miterlimit="10" d="M459.846,20.67c0,0.93-0.139,1.77-0.416,2.522
	c-0.276,0.753-0.668,1.398-1.17,1.935c-0.504,0.532-1.104,0.946-1.807,1.237s-1.479,0.437-2.332,0.437
	c-0.844,0-1.613-0.146-2.313-0.437c-0.701-0.291-1.304-0.705-1.808-1.237c-0.504-0.535-0.895-1.181-1.176-1.935
	c-0.279-0.756-0.42-1.596-0.42-2.522c0-0.921,0.141-1.759,0.42-2.515c0.281-0.754,0.672-1.397,1.176-1.936
	c0.504-0.533,1.105-0.945,1.808-1.241c0.7-0.294,1.473-0.44,2.313-0.44c0.854,0,1.631,0.146,2.332,0.438
	c0.701,0.292,1.303,0.704,1.807,1.241c0.502,0.539,0.894,1.184,1.17,1.938C459.709,18.911,459.846,19.749,459.846,20.67z
	 M458.946,20.67c0-0.837-0.115-1.589-0.349-2.257c-0.229-0.666-0.557-1.229-0.979-1.694c-0.42-0.463-0.93-0.818-1.521-1.064
	c-0.594-0.244-1.254-0.367-1.977-0.367c-0.713,0-1.363,0.123-1.953,0.367c-0.594,0.246-1.104,0.603-1.527,1.064
	c-0.428,0.465-0.76,1.028-0.991,1.694c-0.234,0.668-0.354,1.42-0.354,2.257c0,0.842,0.117,1.598,0.354,2.26
	c0.231,0.664,0.563,1.229,0.991,1.692c0.427,0.464,0.937,0.816,1.527,1.062c0.59,0.242,1.24,0.363,1.953,0.363
	c0.723,0,1.383-0.121,1.977-0.363c0.593-0.244,1.103-0.598,1.521-1.062c0.422-0.465,0.748-1.028,0.979-1.692
	C458.83,22.266,458.946,21.51,458.946,20.67z"/>
<path fill="#72B632" stroke="#72B632" stroke-width="0.3" stroke-miterlimit="10" d="M463.789,21.247v5.427h-0.865v-12h3.062
	c1.385,0,2.42,0.268,3.104,0.802c0.685,0.533,1.025,1.318,1.025,2.354c0,0.457-0.078,0.875-0.238,1.254
	c-0.158,0.38-0.385,0.712-0.682,0.996c-0.299,0.285-0.654,0.521-1.072,0.703c-0.418,0.187-0.893,0.306-1.416,0.361
	c0.135,0.084,0.258,0.197,0.363,0.34l4.131,5.188h-0.754c-0.094,0-0.17-0.017-0.234-0.052c-0.063-0.032-0.129-0.09-0.19-0.168
	l-3.841-4.869c-0.098-0.122-0.2-0.211-0.309-0.262c-0.111-0.051-0.283-0.076-0.516-0.076h-1.568V21.247L463.789,21.247z
	 M463.789,20.6h2.088c0.529,0,1.006-0.062,1.428-0.189c0.423-0.127,0.777-0.309,1.068-0.547c0.291-0.237,0.512-0.522,0.666-0.856
	c0.152-0.334,0.229-0.709,0.229-1.127c0-0.854-0.279-1.486-0.841-1.898c-0.561-0.414-1.373-0.619-2.44-0.619h-2.197L463.789,20.6
	L463.789,20.6z"/>
<path fill="#72B632" stroke="#72B632" stroke-width="0.3" stroke-miterlimit="10" d="M474.576,25.934h5.689v0.738h-6.558v-12h0.865
	v11.261L474.576,25.934L474.576,25.934z"/>
<path fill="#72B632" stroke="#72B632" stroke-width="0.3" stroke-miterlimit="10" d="M492.826,20.67c0,0.93-0.141,1.764-0.418,2.502
	c-0.275,0.739-0.666,1.37-1.17,1.893c-0.504,0.52-1.105,0.918-1.808,1.193c-0.7,0.276-1.479,0.416-2.332,0.416h-4.375v-12h4.375
	c0.855,0,1.632,0.14,2.332,0.416c0.701,0.276,1.304,0.676,1.808,1.194c0.504,0.52,0.895,1.152,1.17,1.892
	C492.686,18.917,492.826,19.749,492.826,20.67z M491.926,20.67c0-0.837-0.116-1.582-0.348-2.236
	c-0.232-0.656-0.562-1.211-0.979-1.662c-0.423-0.453-0.929-0.799-1.521-1.035c-0.596-0.238-1.25-0.356-1.977-0.356h-3.503v10.59
	h3.503c0.727,0,1.381-0.117,1.977-0.355c0.594-0.235,1.102-0.582,1.521-1.035c0.422-0.45,0.748-1.006,0.979-1.659
	C491.808,22.26,491.926,21.51,491.926,20.67z"/>
<path fill="#474746" stroke="#474746" stroke-width="0.3" stroke-miterlimit="10" d="M12.405,26.479
	c-0.921,0-1.637-0.254-2.146-0.766c-0.511-0.511-0.766-1.3-0.766-2.365v-9.295H7.537c-0.101,0-0.183-0.027-0.246-0.082
	c-0.063-0.056-0.096-0.132-0.096-0.232v-0.506l2.324-0.164l0.323-4.867C9.854,8.12,9.886,8.049,9.946,7.983
	c0.059-0.062,0.138-0.096,0.235-0.096h0.609v5.194h4.279v0.972H10.79v9.227c0,0.375,0.047,0.695,0.144,0.965
	c0.096,0.271,0.229,0.49,0.396,0.662c0.169,0.174,0.367,0.301,0.596,0.383c0.228,0.082,0.474,0.123,0.738,0.123
	c0.328,0,0.609-0.047,0.848-0.143c0.236-0.096,0.441-0.201,0.615-0.314c0.172-0.112,0.314-0.219,0.424-0.313
	c0.11-0.095,0.195-0.146,0.261-0.146c0.071,0,0.145,0.048,0.219,0.138l0.354,0.573c-0.347,0.384-0.786,0.691-1.318,0.925
	C13.531,26.365,12.979,26.479,12.405,26.479z"/>
<path fill="#474746" stroke="#474746" stroke-width="0.3" stroke-miterlimit="10" d="M19.978,26.26V12.658h0.71
	c0.237,0,0.375,0.114,0.409,0.342l0.123,1.97c0.267-0.373,0.548-0.715,0.849-1.025c0.301-0.31,0.623-0.576,0.965-0.8
	s0.705-0.396,1.094-0.521c0.388-0.122,0.795-0.185,1.224-0.185c0.994,0,1.787,0.289,2.379,0.868s0.993,1.384,1.203,2.414
	c0.164-0.564,0.394-1.053,0.688-1.463s0.635-0.75,1.018-1.02c0.382-0.269,0.798-0.47,1.249-0.602
	c0.449-0.132,0.912-0.198,1.385-0.198c0.674,0,1.279,0.111,1.815,0.335c0.537,0.224,0.994,0.554,1.371,0.991
	c0.378,0.438,0.666,0.976,0.867,1.614c0.199,0.639,0.301,1.366,0.301,2.188v8.693h-1.299v-8.693c0-1.33-0.287-2.346-0.86-3.042
	c-0.574-0.697-1.396-1.046-2.462-1.046c-0.475,0-0.928,0.087-1.359,0.26c-0.434,0.174-0.815,0.432-1.148,0.772
	s-0.597,0.769-0.793,1.278c-0.196,0.511-0.294,1.103-0.294,1.777v8.693h-1.299v-8.693c0-1.322-0.264-2.334-0.793-3.036
	c-0.528-0.701-1.299-1.053-2.312-1.053c-0.737,0-1.422,0.221-2.051,0.663c-0.629,0.441-1.188,1.056-1.682,1.839V26.26L19.978,26.26
	L19.978,26.26z"/>
<path fill="#474746" d="M51.173,14.969c-0.091,0.146-0.187,0.249-0.287,0.307c-0.101,0.062-0.228,0.09-0.383,0.09
	c-0.164,0-0.339-0.045-0.525-0.137c-0.188-0.092-0.402-0.193-0.648-0.308s-0.527-0.217-0.842-0.309
	c-0.314-0.091-0.687-0.137-1.113-0.137c-0.666,0-1.188,0.142-1.572,0.424c-0.383,0.284-0.573,0.653-0.573,1.108
	c0,0.301,0.098,0.553,0.293,0.758s0.456,0.385,0.778,0.541c0.324,0.154,0.691,0.293,1.103,0.416s0.828,0.258,1.258,0.404
	c0.428,0.145,0.848,0.311,1.257,0.497c0.41,0.188,0.777,0.425,1.102,0.712c0.323,0.286,0.584,0.631,0.778,1.032
	c0.195,0.4,0.294,0.884,0.294,1.447c0,0.676-0.123,1.297-0.368,1.867c-0.246,0.57-0.606,1.062-1.08,1.477
	c-0.475,0.415-1.061,0.738-1.758,0.972c-0.696,0.232-1.495,0.348-2.397,0.348c-0.483,0-0.955-0.043-1.416-0.129
	c-0.459-0.088-0.902-0.207-1.325-0.363c-0.424-0.154-0.815-0.336-1.176-0.547c-0.36-0.209-0.677-0.438-0.95-0.684l0.779-1.285
	c0.1-0.154,0.219-0.273,0.354-0.355s0.311-0.123,0.521-0.123c0.209,0,0.408,0.062,0.595,0.179c0.187,0.118,0.403,0.245,0.649,0.383
	c0.245,0.137,0.534,0.266,0.866,0.383c0.333,0.119,0.754,0.178,1.267,0.178c0.399,0,0.744-0.047,1.03-0.143
	c0.287-0.096,0.524-0.221,0.712-0.377c0.188-0.154,0.323-0.334,0.409-0.539c0.087-0.205,0.131-0.418,0.131-0.637
	c0-0.328-0.099-0.597-0.295-0.808c-0.194-0.209-0.455-0.391-0.778-0.547c-0.323-0.154-0.692-0.293-1.107-0.416
	c-0.414-0.123-0.838-0.258-1.271-0.402c-0.434-0.146-0.855-0.317-1.271-0.514c-0.414-0.195-0.783-0.443-1.105-0.744
	c-0.323-0.301-0.583-0.67-0.779-1.106c-0.196-0.438-0.294-0.968-0.294-1.586c0-0.574,0.113-1.121,0.342-1.642
	c0.229-0.52,0.562-0.973,1.005-1.359c0.443-0.388,0.993-0.697,1.653-0.931c0.661-0.231,1.424-0.349,2.291-0.349
	c0.965,0,1.846,0.16,2.638,0.479c0.793,0.319,1.454,0.738,1.982,1.259L51.173,14.969z"/>
<path fill="#474746" d="M65.637,15.202c-0.101,0.127-0.197,0.229-0.294,0.302c-0.096,0.071-0.234,0.108-0.417,0.108
	c-0.174,0-0.342-0.053-0.506-0.158c-0.164-0.104-0.358-0.223-0.588-0.354c-0.228-0.131-0.499-0.25-0.812-0.355
	c-0.314-0.104-0.704-0.156-1.169-0.156c-0.593,0-1.111,0.106-1.56,0.32c-0.446,0.214-0.817,0.523-1.113,0.923
	c-0.297,0.4-0.518,0.888-0.663,1.455c-0.146,0.57-0.22,1.216-0.22,1.937c0,0.746,0.08,1.412,0.24,1.994
	c0.159,0.584,0.389,1.073,0.689,1.471c0.3,0.396,0.666,0.697,1.094,0.902c0.429,0.205,0.912,0.307,1.449,0.307
	c0.538,0,0.973-0.064,1.306-0.197s0.613-0.276,0.841-0.438c0.229-0.16,0.426-0.306,0.595-0.438s0.357-0.199,0.567-0.199
	c0.273,0,0.479,0.105,0.615,0.314l0.971,1.23c-0.374,0.438-0.779,0.805-1.217,1.102c-0.438,0.295-0.892,0.533-1.36,0.711
	s-0.954,0.303-1.456,0.375c-0.501,0.074-0.998,0.109-1.489,0.109c-0.865,0-1.683-0.162-2.447-0.484
	c-0.767-0.324-1.434-0.795-2.002-1.416c-0.57-0.619-1.021-1.377-1.354-2.275c-0.333-0.897-0.499-1.92-0.499-3.067
	c0-1.031,0.147-1.984,0.444-2.865c0.296-0.879,0.73-1.64,1.306-2.283c0.573-0.643,1.284-1.146,2.132-1.511
	c0.849-0.364,1.823-0.547,2.927-0.547c1.049,0,1.967,0.169,2.755,0.506c0.788,0.338,1.497,0.82,2.126,1.449L65.637,15.202z"/>
<path fill="#474746" d="M69.806,26.26V5.947h3.377v7.807c0.547-0.521,1.147-0.938,1.805-1.259c0.656-0.317,1.427-0.479,2.31-0.479
	c0.767,0,1.445,0.13,2.037,0.39c0.593,0.26,1.088,0.624,1.484,1.094c0.396,0.471,0.696,1.03,0.901,1.682s0.308,1.369,0.308,2.154
	v8.926h-3.377v-8.926c0-0.857-0.197-1.521-0.595-1.99c-0.396-0.469-0.991-0.704-1.783-0.704c-0.583,0-1.131,0.133-1.642,0.396
	c-0.511,0.265-0.993,0.625-1.448,1.08v10.144L69.806,26.26L69.806,26.26z"/>
<path fill="#474746" d="M84.379,12.235h2.681c0.255,0,0.469,0.061,0.643,0.178c0.173,0.119,0.282,0.271,0.328,0.451l2.01,7.493
	c0.109,0.408,0.197,0.812,0.266,1.201c0.068,0.393,0.136,0.785,0.199,1.176c0.101-0.391,0.207-0.783,0.32-1.176
	c0.114-0.392,0.234-0.793,0.363-1.201l2.322-7.52c0.056-0.183,0.164-0.332,0.328-0.451c0.164-0.118,0.355-0.179,0.574-0.179h1.49
	c0.246,0,0.451,0.061,0.615,0.179c0.163,0.119,0.272,0.27,0.327,0.451l2.296,7.654c0.119,0.394,0.228,0.773,0.322,1.144
	c0.096,0.37,0.189,0.739,0.279,1.112c0.064-0.391,0.135-0.782,0.213-1.176c0.077-0.391,0.175-0.797,0.293-1.215l2.078-7.493
	c0.046-0.182,0.155-0.332,0.328-0.451c0.174-0.117,0.374-0.178,0.602-0.178h2.558l-4.443,14.026h-2.72
	c-0.292,0-0.501-0.199-0.629-0.603l-2.529-8.104c-0.082-0.267-0.157-0.531-0.226-0.801c-0.068-0.269-0.125-0.535-0.172-0.8
	c-0.055,0.273-0.113,0.545-0.178,0.812c-0.062,0.27-0.137,0.541-0.219,0.813l-2.556,8.078c-0.13,0.402-0.375,0.603-0.738,0.603
	h-2.584L84.379,12.235z"/>
<path fill="#474746" d="M114.494,12.016c0.885,0,1.697,0.142,2.44,0.424c0.742,0.283,1.383,0.695,1.921,1.237
	c0.537,0.542,0.957,1.208,1.258,1.996c0.301,0.789,0.451,1.688,0.451,2.7c0,0.255-0.013,0.468-0.034,0.636
	c-0.022,0.168-0.063,0.301-0.123,0.396c-0.061,0.095-0.14,0.164-0.239,0.205c-0.101,0.041-0.229,0.062-0.383,0.062h-8.668
	c0.101,1.438,0.488,2.496,1.162,3.17c0.675,0.676,1.567,1.012,2.68,1.012c0.547,0,1.02-0.062,1.415-0.191
	c0.396-0.127,0.743-0.268,1.039-0.424c0.296-0.153,0.556-0.295,0.779-0.424c0.224-0.127,0.438-0.191,0.648-0.191
	c0.138,0,0.255,0.027,0.355,0.082c0.1,0.056,0.187,0.134,0.26,0.232l0.984,1.23c-0.374,0.438-0.793,0.805-1.259,1.102
	c-0.465,0.295-0.949,0.533-1.456,0.711c-0.506,0.178-1.021,0.303-1.545,0.375c-0.523,0.074-1.031,0.109-1.523,0.109
	c-0.975,0-1.882-0.162-2.721-0.484c-0.839-0.324-1.566-0.803-2.188-1.436c-0.621-0.634-1.107-1.418-1.463-2.353
	c-0.356-0.934-0.533-2.016-0.533-3.246c0-0.957,0.155-1.856,0.465-2.701c0.311-0.842,0.754-1.576,1.333-2.2
	c0.578-0.624,1.285-1.118,2.119-1.483C112.506,12.198,113.447,12.016,114.494,12.016z M114.563,14.436
	c-0.984,0-1.755,0.278-2.312,0.834c-0.556,0.557-0.911,1.344-1.065,2.365h6.344c0-0.438-0.06-0.851-0.178-1.238
	c-0.119-0.387-0.302-0.727-0.548-1.018c-0.245-0.291-0.556-0.522-0.93-0.691C115.502,14.52,115.065,14.436,114.563,14.436z"/>
<path fill="#474746" d="M129.15,11.989c0.602,0,1.167,0.062,1.694,0.186c0.528,0.123,1.012,0.304,1.448,0.54h4.033v1.258
	c0,0.21-0.055,0.374-0.164,0.492s-0.296,0.2-0.561,0.246l-1.259,0.231c0.093,0.237,0.162,0.489,0.214,0.752
	c0.049,0.264,0.073,0.543,0.073,0.834c0,0.691-0.139,1.318-0.416,1.879c-0.278,0.562-0.662,1.037-1.147,1.431
	c-0.488,0.391-1.066,0.692-1.736,0.907c-0.67,0.216-1.396,0.32-2.181,0.32c-0.528,0-1.044-0.049-1.545-0.15
	c-0.438,0.269-0.656,0.566-0.656,0.896c0,0.285,0.13,0.492,0.39,0.627c0.26,0.133,0.603,0.227,1.025,0.281
	c0.423,0.054,0.904,0.082,1.441,0.082c0.538,0,1.09,0.022,1.653,0.069c0.566,0.045,1.117,0.125,1.654,0.238
	c0.538,0.115,1.02,0.295,1.442,0.543c0.425,0.246,0.767,0.582,1.025,1.008c0.259,0.427,0.389,0.972,0.389,1.64
	c0,0.621-0.151,1.225-0.457,1.811c-0.307,0.586-0.747,1.105-1.325,1.564c-0.58,0.457-1.288,0.823-2.127,1.104
	c-0.839,0.279-1.795,0.418-2.87,0.418c-1.066,0-1.991-0.102-2.775-0.307s-1.433-0.479-1.948-0.82
	c-0.515-0.342-0.899-0.736-1.153-1.184c-0.256-0.447-0.383-0.912-0.383-1.396c0-0.656,0.198-1.207,0.602-1.653
	c0.4-0.445,0.957-0.802,1.668-1.066c-0.348-0.191-0.625-0.445-0.834-0.766c-0.211-0.318-0.314-0.732-0.314-1.244
	c0-0.209,0.035-0.427,0.109-0.648c0.072-0.223,0.184-0.445,0.334-0.664s0.34-0.426,0.568-0.621c0.227-0.194,0.496-0.371,0.806-0.524
	c-0.71-0.383-1.269-0.896-1.675-1.531c-0.405-0.639-0.607-1.387-0.607-2.242c0-0.692,0.14-1.32,0.416-1.88
	c0.278-0.561,0.666-1.039,1.162-1.436c0.497-0.396,1.085-0.699,1.764-0.909C127.607,12.094,128.349,11.989,129.15,11.989z
	 M132.854,26.85c0-0.279-0.082-0.508-0.246-0.685c-0.164-0.178-0.388-0.313-0.67-0.411c-0.281-0.099-0.612-0.171-0.99-0.218
	c-0.379-0.047-0.779-0.069-1.203-0.069s-0.861,0-1.312,0c-0.451,0-0.888-0.049-1.307-0.15c-0.383,0.211-0.689,0.459-0.923,0.746
	s-0.349,0.617-0.349,0.99c0,0.246,0.062,0.477,0.185,0.69c0.123,0.213,0.319,0.398,0.588,0.554c0.271,0.153,0.617,0.274,1.046,0.362
	c0.43,0.086,0.952,0.129,1.572,0.129c0.629,0,1.171-0.049,1.627-0.146s0.831-0.232,1.128-0.404c0.296-0.172,0.513-0.377,0.648-0.615
	C132.785,27.387,132.854,27.131,132.854,26.85z M129.15,18.907c0.419,0,0.784-0.059,1.094-0.172s0.567-0.271,0.771-0.471
	c0.205-0.201,0.359-0.443,0.466-0.726c0.104-0.282,0.155-0.594,0.155-0.93c0-0.693-0.207-1.242-0.62-1.647
	c-0.415-0.405-1.037-0.608-1.866-0.608s-1.452,0.203-1.866,0.608s-0.622,0.954-0.622,1.647c0,0.328,0.052,0.633,0.157,0.916
	c0.104,0.281,0.26,0.525,0.465,0.73s0.465,0.364,0.779,0.479C128.376,18.848,128.74,18.907,129.15,18.907z"/>
<path fill="#474746" d="M143.026,5.947v20.314h-3.377V5.947H143.026z"/>
<path fill="#474746" d="M153.073,12.016c0.885,0,1.697,0.142,2.439,0.424c0.743,0.283,1.384,0.695,1.922,1.237
	c0.536,0.542,0.956,1.208,1.258,1.996c0.301,0.789,0.451,1.688,0.451,2.7c0,0.255-0.013,0.468-0.034,0.636
	c-0.022,0.168-0.063,0.301-0.123,0.396c-0.061,0.095-0.141,0.164-0.239,0.205c-0.101,0.041-0.229,0.062-0.383,0.062h-8.668
	c0.101,1.438,0.487,2.496,1.162,3.17c0.675,0.676,1.567,1.012,2.68,1.012c0.547,0,1.019-0.062,1.415-0.191
	c0.396-0.127,0.743-0.268,1.039-0.424c0.296-0.153,0.556-0.295,0.779-0.424c0.224-0.127,0.438-0.191,0.648-0.191
	c0.137,0,0.255,0.027,0.355,0.082c0.1,0.056,0.187,0.134,0.26,0.232l0.984,1.23c-0.375,0.438-0.794,0.805-1.259,1.102
	c-0.465,0.295-0.95,0.533-1.456,0.711s-1.021,0.303-1.545,0.375c-0.523,0.074-1.031,0.109-1.523,0.109
	c-0.976,0-1.882-0.162-2.722-0.484c-0.838-0.324-1.565-0.803-2.187-1.436c-0.621-0.634-1.107-1.418-1.463-2.353
	c-0.356-0.934-0.533-2.016-0.533-3.246c0-0.957,0.155-1.856,0.465-2.701c0.311-0.842,0.754-1.576,1.333-2.2
	c0.578-0.624,1.285-1.118,2.119-1.483C151.084,12.198,152.025,12.016,153.073,12.016z M153.14,14.436
	c-0.983,0-1.754,0.278-2.311,0.834c-0.556,0.557-0.911,1.344-1.066,2.365h6.345c0-0.438-0.06-0.851-0.179-1.238
	c-0.118-0.387-0.301-0.727-0.547-1.018s-0.556-0.522-0.93-0.691C154.08,14.52,153.643,14.436,153.14,14.436z"/>
<path fill="#474746" d="M162.328,26.26V12.235h1.981c0.347,0,0.588,0.064,0.725,0.191c0.137,0.128,0.228,0.347,0.273,0.655
	l0.204,1.695c0.501-0.865,1.09-1.549,1.765-2.051c0.675-0.501,1.431-0.752,2.269-0.752c0.693,0,1.269,0.16,1.724,0.479l-0.438,2.529
	c-0.027,0.165-0.086,0.28-0.178,0.348c-0.091,0.068-0.214,0.104-0.369,0.104c-0.137,0-0.322-0.031-0.562-0.096
	c-0.235-0.064-0.551-0.097-0.941-0.097c-0.702,0-1.304,0.193-1.805,0.58c-0.501,0.39-0.926,0.955-1.271,1.703v8.734L162.328,26.26
	L162.328,26.26z"/>
<g>
	<path fill="none" d="M120.824,17.596"/>
</g>
<g>
	<path fill="#EABB25" d="M222.548,22.714c0,0,6.17-12.15,3.601-14.952c-2.323-2.535-5.352,1.316-6.83,4.616
		c-1.222,2.721-5.979,15.945-4.78,15.763C215.737,27.958,218.392,26.054,222.548,22.714z"/>
	<g>
		<path fill="#1B1B1B" d="M223.045,22.765c1.954-3.867,4.124-8.41,4.228-12.807c0.041-1.773-0.991-2.873-2.715-3.04
			c-2.939-0.285-4.836,3.353-5.827,5.61c-2.005,4.562-4.068,9.745-4.843,14.684c-0.15,0.967,0.249,0.945,1.078,0.981
			c0.823,0.035,1.84-0.794,2.482-1.206C219.411,25.729,221.228,24.22,223.045,22.765c-0.168,0.135-0.795-0.266-0.994-0.105
			c-2.245,1.797-5.085,4.771-8.011,5.428c0.21,0.016,0.421,0.031,0.631,0.049c0.219,0.024,0.443-1.988,0.546-2.402
			c0.471-1.896,1.103-3.757,1.728-5.605c1.255-3.716,2.438-7.73,4.783-10.924c1.331-1.812,3.965-3.054,4.501-0.093
			c0.314,1.742-0.332,3.727-0.825,5.371c-0.841,2.811-2.03,5.562-3.353,8.178C222.092,22.579,222.981,22.893,223.045,22.765z"/>
	</g>
</g>
<g>
	<path fill="#EABB25" d="M218.045,23.887c0,0,15.149-15.874,17.46-16.008c2.312-0.137,2.354,3.841-1.952,9.104
		c-4.308,5.264-16.201,17.174-17.122,13.983C215.509,27.775,218.045,23.887,218.045,23.887z"/>
	<g>
		<path fill="#1B1B1B" d="M218.313,24.309c2.812-2.945,5.686-5.839,8.606-8.677c2.007-1.95,4.044-3.884,6.207-5.661
			c1.013-0.833,3.807-3.125,3.646-0.216c-0.199,3.571-3.382,6.778-5.643,9.292c-2.354,2.618-4.854,5.117-7.463,7.482
			c-1.808,1.641-3.936,3.753-6.333,4.483c-0.256,0.078-0.507,0.077-0.762,0.012c0.257,0.784,0.23,0.439-0.075-1.035
			c-0.053-0.693,0.119-1.408,0.264-2.08C217.031,26.656,217.627,25.392,218.313,24.309c0.099-0.154-0.586-0.764-0.535-0.844
			c-1.298,2.049-2.748,5.533-1.236,7.8c1.083,1.622,3.352-0.401,4.417-1.187c3.361-2.475,6.339-5.539,9.203-8.56
			c2.896-3.054,6.512-6.586,7.146-10.92c0.188-1.295-0.613-3.104-2.069-3.144c-1.743-0.046-4.42,3.177-5.554,4.21
			c-4.123,3.765-8.052,7.762-11.906,11.799C217.691,23.556,218.334,24.287,218.313,24.309z"/>
	</g>
</g>
<g>
	<path fill="#EABB25" d="M213.281,32.966c0,0-22.219,10.622-22.346,8.104c-0.125-2.521,4.69-8.157,7.963-9.298
		c3.271-1.14,13.397-4.033,14.509-3.413C214.515,28.978,214.289,32.119,213.281,32.966z"/>
	<g>
		<path fill="#1B1B1B" d="M212.995,32.554c-3.08,1.472-6.194,2.875-9.326,4.229c-3.686,1.596-8.16,4.095-12.26,4.261
			c-0.192,0.008-0.375-0.021-0.553-0.09c0.303,0.656,0.429,0.716,0.377,0.178c0.031-0.268,0.091-0.527,0.178-0.782
			c0.395-1.405,1.417-2.678,2.312-3.794c2.027-2.525,4.392-4.065,7.437-5.019c2.91-0.91,5.86-1.721,8.837-2.379
			c1.036-0.229,2.096-0.446,3.16-0.479C214.676,28.637,213.539,31.933,212.995,32.554c-0.078,0.09,0.598,0.791,0.572,0.819
			c1.139-1.3,1.27-3.926-0.139-5.158c-1.53-1.343-6.249,0.643-7.916,1.084c-3.307,0.875-6.925,1.59-9.661,3.736
			c-1.369,1.074-6.35,5.699-5.117,7.862c0.541,0.949,1.011,1.052,2.104,0.869c2.677-0.448,5.307-1.645,7.806-2.653
			c4.367-1.766,8.674-3.71,12.925-5.74C213.556,33.381,213.08,32.514,212.995,32.554z"/>
	</g>
</g>
<g>
	<path fill="#EABB25" d="M206.914,21.679c0,0-13.565-8.657-16.876-7.326c-2.821,1.135,2.578,11.07,16.359,13.527
		C218.206,29.986,208.332,22.784,206.914,21.679z"/>
	<g>
		<path fill="#1B1B1B" d="M206.606,21.286c-4.466-2.841-9.374-5.938-14.538-7.26c-5.325-1.361-2.016,4.445-0.329,6.368
			c2.172,2.477,4.854,4.302,7.827,5.694c2.263,1.062,4.693,1.718,7.141,2.186c1.553,0.297,3.869,0.843,5.357,0.016
			c2.128-1.183-4.84-6.526-5.442-6.992c0.167,0.129,0.354,0.586,0.586,0.766c1.163,0.898,2.314,1.802,3.382,2.815
			c2.302,2.185,0.734,3.063-1.689,2.971c-6.557-0.251-16.07-3.793-18.91-10.248c-2.102-4.776,4.576-2.256,6.512-1.411
			c3.724,1.625,7.298,3.704,10.724,5.883C206.971,21.912,206.878,21.461,206.606,21.286z"/>
	</g>
</g>
<g>
	<path fill="#EABB25" d="M213.555,30.042c0,0-30.051,2.034-31.11-0.216c-1.061-2.247,17.23-6.656,22.479-6.933
		C210.17,22.618,215.681,28.828,213.555,30.042z"/>
	<g>
		<path fill="#1B1B1B" d="M213.089,29.92c-3.967,0.268-7.938,0.466-11.911,0.622c-3.297,0.132-6.596,0.22-9.895,0.221
			c-2.4,0.001-5.538,0.33-7.846-0.456c-1.985-0.677,2.008-2.438,2.457-2.624c3.206-1.342,6.648-2.191,10.021-2.995
			c3.099-0.739,6.284-1.468,9.472-1.67c2.74-0.174,5.388,1.814,7.072,3.786c0.652,0.762,1.667,2.303,0.608,3.12
			c0.133-0.104,0.78,0.385,0.971,0.237c2.793-2.151-4.873-6.451-6.263-6.885c-2.689-0.839-5.377-0.352-8.087,0.162
			c-4.271,0.811-8.52,1.841-12.645,3.219c-0.517,0.172-6.338,2.14-4.876,3.271c0.954,0.737,2.861,0.77,3.983,0.875
			c3.625,0.341,7.311,0.228,10.944,0.146c5.645-0.128,11.289-0.402,16.922-0.783C213.826,30.178,213.379,29.899,213.089,29.92z"/>
	</g>
</g>
<g>
	<path fill="#EABB25" d="M216.971,34.639c0,0-0.201-14.777-6.855-21.948c-6.653-7.171-7.349-7.738-9.017-6.621
		s-2.994,6.621,0.892,11.899c3.886,5.277,11.187,17.046,12.385,17.144C215.571,35.208,216.971,34.639,216.971,34.639z"/>
	<g>
		<path fill="#1B1B1B" d="M217.427,34.844c-0.104-6.265-1.404-12.938-4.382-18.476c-1.962-3.648-5.416-7.068-8.602-9.697
			c-0.705-0.583-1.898-1.331-2.861-1.235c-3.155,0.312-2.651,5.936-2.217,7.854c0.571,2.522,2.241,4.534,3.685,6.604
			c1.319,1.891,2.599,3.811,3.886,5.724c1.988,2.956,3.881,6.166,6.312,8.789C214.382,35.635,215.955,35.398,217.427,34.844
			c-0.205,0.077-0.677-0.499-0.912-0.41c-1.145,0.431-1.829,0.951-2.544,0.181c-0.862-0.933-1.59-2.009-2.325-3.04
			c-2.178-3.049-4.222-6.192-6.324-9.292c-2.157-3.179-4.684-6.072-5.315-9.983c-0.333-2.06-0.055-5.639,2.334-6.419
			c0.825-0.271,0.624-0.089,1.463,0.604c1.264,1.042,2.373,2.289,3.497,3.475c2.917,3.08,5.146,6.008,6.629,10.016
			c1.679,4.536,2.507,9.623,2.588,14.461C216.518,34.596,217.425,34.724,217.427,34.844z"/>
	</g>
</g>
<g>
	<path fill="#EABB25" d="M210.806,13.972c0,0-0.398-8.135,0.807-10.537s5.329,2.201,5.996,4.159
		c0.667,1.957,0.309,23.062-2.662,23.436C211.977,31.401,210.864,17.862,210.806,13.972z"/>
	<g>
		<path fill="#1B1B1B" d="M210.992,14.436c-0.107-2.306-0.093-4.623,0.076-6.924c0.189-2.58,0.761-5.596,3.729-3.336
			c2.108,1.604,2.771,3.024,2.87,5.458c0.109,2.744,0.021,5.5-0.118,8.24c-0.141,2.792-0.381,5.589-0.866,8.343
			c-0.195,1.106-0.512,4.014-1.923,4.348C211.654,31.301,211.035,16.591,210.992,14.436c-0.006-0.319-0.365-0.627-0.371-0.929
			c0.107,5.429,0.517,11.484,2.816,16.479c0.975,2.117,2.322,1.603,3.003-0.32c1.086-3.071,1.211-6.6,1.421-9.817
			c0.209-3.198,0.293-6.419,0.164-9.622c-0.049-1.227-0.166-2.308-0.727-3.411c-0.995-1.965-5.111-7.009-6.241-2.756
			c-0.789,2.974-0.58,6.396-0.438,9.448C210.636,13.829,210.979,14.133,210.992,14.436z"/>
	</g>
</g>
<g>
	<path fill="#68AC29" d="M205.732,32.76c1.185-3.646,7.408-8.271,14.91-7.636c5.133,0.437,5.231,2.98,3.354,5.104
		c-1.877,2.121-3.265,3.17-4.38,4.475c-1.116,1.306-0.542,4.318,2.798,11.076c3.34,6.762,6.426,11.729,6.426,11.729l-2.779,1.216
		c0,0-7.768-17.733-9.348-20.028c-1.262-1.832-6.646,0.453-8.241-1.442C206.877,35.357,205.325,34.01,205.732,32.76z"/>
	<g>
		<path fill="#1B1B1B" d="M206.232,32.769c2.191-5.893,11.604-9.457,17.088-6.857c4.66,2.209-3.991,7.563-4.626,9.627
			c-0.543,1.763,0.537,4.081,1.151,5.67c1.358,3.503,3.185,6.848,4.969,10.146c1.076,1.992,2.199,3.961,3.375,5.896
			c0.32,0.527-2.088,1.226-2.629,1.463c0.333,0.007,0.667,0.013,1,0.02c-2.385-5.438-4.795-10.874-7.363-16.229
			c-0.909-1.896-1.562-4.419-3.966-4.567c-0.982-0.061-1.963-0.017-2.944,0.042c-2.52,0.151-3.015-0.393-4.473-2.042
			C207.005,35.022,206.055,34.069,206.232,32.769c-0.001,0.007-0.99-0.088-1-0.021c-0.243,1.795,2.218,4.556,3.816,5.131
			c0.67,0.24,1.539,0.208,2.24,0.204c1.631-0.006,4.121-0.711,5.105,0.887c0.688,1.116,1.231,2.334,1.802,3.513
			c2.582,5.349,4.979,10.791,7.362,16.23c0.036,0.081,0.899,0.062,1,0.02c0.728-0.317,1.453-0.635,2.181-0.953
			c0.743-0.324,0.594-0.268,0.191-0.934c-1.677-2.779-3.23-5.632-4.729-8.51c-1.715-3.297-3.538-6.72-4.409-10.356
			c-0.63-2.633,0.651-3.688,2.474-5.433c1.436-1.376,4.604-3.898,2.761-6.098c-1.125-1.342-3.754-1.383-5.345-1.397
			c-5.388-0.054-12.379,2.132-14.449,7.696C205.259,32.676,206.184,32.899,206.232,32.769z"/>
	</g>
</g>
<g>
	<path fill="#72B632" d="M229.809,47.094c0,0,8.829-18.763,10.849-21.513c2.018-2.747,3.712,10.908,0.218,15.682
		c-2.109,2.883-8.139,13.646-11.542,17.675l-3.146-0.553C224.53,56.344,229.809,47.094,229.809,47.094z"/>
	<g>
		<path fill="#1B1B1B" d="M230.02,47.547c2.395-5.084,4.833-10.148,7.366-15.164c0.982-1.943,2.025-5.201,3.762-6.627
			c0.935-0.77,1.312,2.76,1.364,3.177c0.265,2.104,0.21,4.253-0.029,6.354c-0.416,3.65-2.31,6.148-4.181,9.168
			c-2.426,3.916-4.766,7.893-7.397,11.675c-0.48,0.689-0.985,1.362-1.509,2.021c-0.448,0.565-1.18,0.173-1.848,0.056
			c-0.251-0.044-1.489-0.355-1.443-0.14c-0.187-0.875,0.163-1.923,0.398-2.753C227.274,52.606,228.635,49.987,230.02,47.547
			c0.109-0.194-0.5-0.771-0.423-0.906c-1.602,2.821-3.188,5.893-3.842,9.089c-0.181,0.886-0.104,1.649,0.271,2.455
			c0.462,0.989,1.372,0.829,2.41,1.012c0.981,0.173,1.027,0.308,1.665-0.495c0.667-0.841,1.273-1.729,1.879-2.613
			c1.579-2.309,3.041-4.697,4.506-7.079c2.06-3.35,5.049-6.867,6.042-10.715c0.878-3.405,1.025-7.975-0.17-11.344
			c-0.43-1.208-1.117-3.09-2.246-1.322c-3.928,6.146-6.79,13.155-9.911,19.733c-0.202,0.427-0.404,0.854-0.604,1.279
			C229.494,46.858,230.096,47.385,230.02,47.547z"/>
	</g>
</g>
</svg>
