<?xml version="1.0" encoding="utf-8"?>
<!-- Generator: Adobe Illustrator 15.0.0, SVG Export Plug-In . SVG Version: 6.00 Build 0)  -->
<!DOCTYPE svg PUBLIC "-//W3C//DTD SVG 1.1//EN" "http://www.w3.org/Graphics/SVG/1.1/DTD/svg11.dtd">
<svg version="1.1" id="Ebene_1" xmlns="http://www.w3.org/2000/svg" xmlns:xlink="http://www.w3.org/1999/xlink" x="0px" y="0px"
	 width="279.083px" height="60.5px" viewBox="0 0 279.083 60.5" enable-background="new 0 0 279.083 60.5" xml:space="preserve">
<title>Artboard</title>
<desc>Created with Sketch.</desc>
<path fill="#474746" d="M21.07,11.767v1.141h-6.514v17.404H13.22V12.907H6.667v-1.141H21.07z"/>
<path fill="#474746" d="M25.814,12.776c0,0.157-0.033,0.304-0.098,0.438c-0.066,0.136-0.151,0.256-0.256,0.36
	c-0.105,0.105-0.227,0.188-0.367,0.249c-0.14,0.062-0.289,0.092-0.446,0.092s-0.306-0.03-0.446-0.092
	c-0.14-0.061-0.262-0.144-0.367-0.249c-0.105-0.104-0.188-0.225-0.249-0.36c-0.061-0.135-0.092-0.281-0.092-0.438
	s0.031-0.309,0.092-0.452c0.061-0.145,0.144-0.269,0.249-0.374c0.105-0.104,0.227-0.188,0.367-0.249
	c0.14-0.061,0.289-0.092,0.446-0.092s0.306,0.031,0.446,0.092c0.14,0.062,0.262,0.145,0.367,0.249
	c0.105,0.105,0.19,0.229,0.256,0.374C25.782,12.468,25.814,12.619,25.814,12.776z M25.264,17.271v13.04h-1.245v-13.04H25.264z"/>
<path fill="#474746" d="M29.877,30.312v-13.04h0.682c0.227,0,0.358,0.109,0.393,0.327l0.118,1.966
	c0.594-0.751,1.286-1.356,2.077-1.814c0.791-0.459,1.671-0.688,2.641-0.688c0.716,0,1.348,0.113,1.894,0.341
	c0.546,0.228,0.998,0.555,1.356,0.983c0.358,0.428,0.629,0.943,0.812,1.546s0.275,1.284,0.275,2.045v8.335h-1.245v-8.335
	c0-1.224-0.28-2.183-0.839-2.877s-1.416-1.042-2.569-1.042c-0.856,0-1.651,0.221-2.385,0.662s-1.389,1.046-1.966,1.814v9.777H29.877
	z"/>
<path fill="#474746" d="M52.379,30.312c-0.262,0-0.424-0.122-0.485-0.367L51.71,28.28c-0.358,0.35-0.714,0.664-1.068,0.943
	c-0.354,0.28-0.723,0.516-1.107,0.708c-0.385,0.192-0.8,0.339-1.245,0.438c-0.446,0.101-0.935,0.151-1.468,0.151
	c-0.446,0-0.878-0.065-1.298-0.197c-0.419-0.131-0.791-0.331-1.114-0.603c-0.323-0.271-0.583-0.618-0.78-1.042
	c-0.197-0.424-0.295-0.933-0.295-1.526c0-0.551,0.157-1.062,0.472-1.533c0.314-0.473,0.806-0.883,1.475-1.232
	s1.529-0.629,2.582-0.839s2.318-0.332,3.794-0.367v-1.362c0-1.206-0.26-2.135-0.78-2.785c-0.52-0.651-1.291-0.977-2.313-0.977
	c-0.629,0-1.164,0.088-1.605,0.262c-0.441,0.176-0.814,0.367-1.121,0.577c-0.306,0.21-0.555,0.402-0.747,0.576
	c-0.192,0.175-0.354,0.263-0.485,0.263c-0.175,0-0.306-0.079-0.393-0.236l-0.223-0.38c0.682-0.682,1.398-1.197,2.149-1.547
	c0.751-0.349,1.603-0.523,2.556-0.523c0.699,0,1.311,0.111,1.834,0.334c0.524,0.223,0.959,0.542,1.304,0.957s0.605,0.917,0.78,1.507
	s0.262,1.247,0.262,1.973v8.492H52.379z M47.137,29.617c0.506,0,0.972-0.055,1.396-0.164s0.817-0.262,1.18-0.459
	c0.362-0.196,0.701-0.43,1.016-0.701c0.314-0.271,0.625-0.563,0.931-0.878v-3.395c-1.241,0.035-2.309,0.129-3.205,0.282
	c-0.896,0.152-1.634,0.36-2.215,0.622c-0.581,0.263-1.009,0.575-1.284,0.938c-0.275,0.362-0.413,0.775-0.413,1.238
	c0,0.438,0.072,0.814,0.216,1.134s0.334,0.581,0.57,0.786s0.511,0.356,0.826,0.452C46.468,29.569,46.796,29.617,47.137,29.617z"/>
<path fill="#474746" d="M71.749,25.698c0.052-0.14,0.107-0.277,0.164-0.413c0.057-0.135,0.12-0.264,0.19-0.387l7.287-12.883
	c0.07-0.113,0.14-0.184,0.209-0.209c0.07-0.026,0.166-0.04,0.289-0.04h0.931v18.545h-1.18V14.506c0-0.227,0.013-0.467,0.04-0.721
	l-7.3,12.962c-0.122,0.227-0.297,0.341-0.524,0.341h-0.21c-0.218,0-0.393-0.114-0.524-0.341l-7.497-12.975
	c0.026,0.253,0.039,0.498,0.039,0.733v15.806h-1.166V11.767h0.917c0.123,0,0.221,0.014,0.295,0.04
	c0.074,0.025,0.146,0.096,0.216,0.209l7.483,12.896C71.54,25.156,71.653,25.419,71.749,25.698z"/>
<path fill="#474746" d="M94.016,30.312c-0.262,0-0.424-0.122-0.485-0.367l-0.184-1.664c-0.358,0.35-0.714,0.664-1.068,0.943
	c-0.354,0.28-0.723,0.516-1.107,0.708c-0.385,0.192-0.8,0.339-1.245,0.438c-0.446,0.101-0.935,0.151-1.468,0.151
	c-0.446,0-0.878-0.065-1.298-0.197c-0.419-0.131-0.791-0.331-1.114-0.603c-0.323-0.271-0.583-0.618-0.78-1.042
	c-0.197-0.424-0.295-0.933-0.295-1.526c0-0.551,0.157-1.062,0.472-1.533c0.314-0.473,0.806-0.883,1.475-1.232
	s1.529-0.629,2.582-0.839s2.318-0.332,3.794-0.367v-1.362c0-1.206-0.26-2.135-0.78-2.785c-0.52-0.651-1.291-0.977-2.313-0.977
	c-0.629,0-1.164,0.088-1.605,0.262c-0.441,0.176-0.814,0.367-1.121,0.577c-0.306,0.21-0.555,0.402-0.747,0.576
	c-0.192,0.175-0.354,0.263-0.485,0.263c-0.175,0-0.306-0.079-0.393-0.236l-0.223-0.38c0.682-0.682,1.398-1.197,2.149-1.547
	c0.751-0.349,1.603-0.523,2.556-0.523c0.699,0,1.311,0.111,1.834,0.334c0.524,0.223,0.959,0.542,1.304,0.957s0.605,0.917,0.78,1.507
	s0.262,1.247,0.262,1.973v8.492H94.016z M88.773,29.617c0.506,0,0.972-0.055,1.396-0.164s0.817-0.262,1.18-0.459
	c0.362-0.196,0.701-0.43,1.016-0.701c0.314-0.271,0.625-0.563,0.931-0.878v-3.395c-1.241,0.035-2.309,0.129-3.205,0.282
	c-0.896,0.152-1.634,0.36-2.215,0.622c-0.581,0.263-1.009,0.575-1.284,0.938c-0.275,0.362-0.413,0.775-0.413,1.238
	c0,0.438,0.072,0.814,0.216,1.134s0.334,0.581,0.57,0.786s0.511,0.356,0.826,0.452C88.105,29.569,88.433,29.617,88.773,29.617z"/>
<path fill="#474746" d="M98.445,30.312v-13.04h0.655c0.148,0,0.256,0.03,0.321,0.092c0.065,0.061,0.103,0.166,0.111,0.314
	l0.105,2.752c0.419-1.057,0.978-1.885,1.677-2.483s1.56-0.897,2.582-0.897c0.393,0,0.755,0.041,1.088,0.124
	c0.332,0.083,0.646,0.203,0.943,0.36l-0.17,0.865c-0.026,0.14-0.114,0.21-0.262,0.21c-0.052,0-0.126-0.018-0.223-0.053
	s-0.216-0.074-0.36-0.118c-0.144-0.043-0.321-0.083-0.531-0.118c-0.209-0.034-0.45-0.052-0.721-0.052
	c-0.988,0-1.798,0.306-2.431,0.917c-0.634,0.612-1.147,1.494-1.54,2.647v8.479H98.445z"/>
<path fill="#474746" d="M110.463,11.242v19.069h-1.245V11.242H110.463z"/>
<path fill="#474746" d="M119.99,17.062c0.734,0,1.414,0.127,2.038,0.38c0.625,0.254,1.167,0.623,1.625,1.107
	c0.459,0.485,0.817,1.081,1.075,1.789s0.387,1.521,0.387,2.438c0,0.192-0.028,0.323-0.085,0.394
	c-0.057,0.07-0.146,0.104-0.269,0.104h-9.41v0.249c0,0.979,0.113,1.84,0.341,2.582c0.227,0.743,0.55,1.365,0.97,1.867
	c0.419,0.503,0.926,0.881,1.52,1.134c0.594,0.254,1.258,0.381,1.992,0.381c0.655,0,1.223-0.072,1.704-0.217s0.885-0.306,1.212-0.484
	c0.328-0.18,0.587-0.341,0.78-0.485s0.332-0.216,0.419-0.216c0.113,0,0.201,0.043,0.262,0.131l0.341,0.419
	c-0.21,0.263-0.487,0.507-0.833,0.734c-0.345,0.227-0.729,0.421-1.153,0.583s-0.878,0.29-1.363,0.387
	c-0.485,0.096-0.972,0.144-1.461,0.144c-0.891,0-1.704-0.154-2.438-0.465c-0.734-0.31-1.364-0.762-1.889-1.356
	c-0.526-0.594-0.932-1.321-1.219-2.182c-0.287-0.861-0.431-1.846-0.431-2.956c0-0.935,0.133-1.797,0.4-2.588
	c0.266-0.791,0.65-1.473,1.153-2.045c0.502-0.572,1.118-1.02,1.848-1.343S119.064,17.062,119.99,17.062z M120.01,17.992
	c-0.672,0-1.274,0.104-1.806,0.314s-0.992,0.511-1.38,0.904s-0.702,0.865-0.942,1.415c-0.24,0.551-0.399,1.167-0.478,1.849h8.584
	c0-0.699-0.096-1.326-0.288-1.881s-0.462-1.024-0.811-1.409c-0.349-0.384-0.768-0.679-1.256-0.885
	C121.144,18.095,120.603,17.992,120.01,17.992z"/>
<path fill="#474746" d="M128.469,30.312v-13.04h0.682c0.227,0,0.358,0.109,0.393,0.327l0.118,1.966
	c0.594-0.751,1.286-1.356,2.077-1.814c0.791-0.459,1.671-0.688,2.641-0.688c0.716,0,1.348,0.113,1.894,0.341
	c0.546,0.228,0.998,0.555,1.356,0.983c0.358,0.428,0.629,0.943,0.812,1.546s0.275,1.284,0.275,2.045v8.335h-1.245v-8.335
	c0-1.224-0.28-2.183-0.839-2.877s-1.416-1.042-2.569-1.042c-0.856,0-1.651,0.221-2.385,0.662s-1.389,1.046-1.966,1.814v9.777
	H128.469z"/>
<path fill="#474746" d="M144.812,12.776c0,0.157-0.032,0.304-0.099,0.438c-0.065,0.136-0.15,0.256-0.256,0.36
	c-0.104,0.105-0.227,0.188-0.366,0.249c-0.14,0.062-0.288,0.092-0.446,0.092c-0.156,0-0.306-0.03-0.445-0.092
	c-0.14-0.061-0.262-0.144-0.367-0.249c-0.104-0.104-0.188-0.225-0.248-0.36c-0.062-0.135-0.092-0.281-0.092-0.438
	s0.03-0.309,0.092-0.452c0.061-0.145,0.144-0.269,0.248-0.374c0.105-0.104,0.228-0.188,0.367-0.249
	c0.14-0.061,0.289-0.092,0.445-0.092c0.158,0,0.307,0.031,0.446,0.092c0.14,0.062,0.262,0.145,0.366,0.249
	c0.105,0.105,0.19,0.229,0.256,0.374C144.78,12.468,144.812,12.619,144.812,12.776z M144.262,17.271v13.04h-1.246v-13.04H144.262z"
	/>
<path fill="#474746" d="M163.879,14.808c-0.096,0.192-0.207,0.327-0.334,0.406c-0.127,0.078-0.277,0.118-0.452,0.118
	s-0.372-0.068-0.59-0.203c-0.219-0.136-0.477-0.286-0.773-0.452s-0.644-0.317-1.042-0.452c-0.397-0.136-0.867-0.203-1.408-0.203
	c-0.49,0-0.916,0.059-1.278,0.177s-0.669,0.281-0.917,0.491c-0.25,0.21-0.436,0.461-0.557,0.754
	c-0.123,0.293-0.184,0.613-0.184,0.963c0,0.445,0.124,0.817,0.373,1.114s0.578,0.55,0.989,0.76s0.878,0.397,1.402,0.563
	s1.06,0.343,1.605,0.531c0.546,0.188,1.081,0.406,1.605,0.655s0.991,0.563,1.402,0.943s0.741,0.846,0.989,1.396
	c0.25,0.551,0.374,1.219,0.374,2.006c0,0.856-0.146,1.657-0.439,2.404c-0.292,0.747-0.721,1.398-1.284,1.953
	s-1.252,0.991-2.064,1.311c-0.812,0.318-1.742,0.479-2.791,0.479c-0.604,0-1.197-0.06-1.783-0.177
	c-0.585-0.118-1.146-0.286-1.684-0.505s-1.039-0.48-1.507-0.786s-0.885-0.646-1.252-1.022l1.022-1.69
	c0.096-0.123,0.211-0.226,0.348-0.309c0.135-0.083,0.285-0.124,0.451-0.124c0.219,0,0.455,0.09,0.708,0.269s0.553,0.378,0.897,0.597
	c0.346,0.218,0.752,0.417,1.219,0.596c0.468,0.18,1.029,0.269,1.685,0.269c1.005,0,1.782-0.237,2.333-0.714s0.826-1.16,0.826-2.051
	c0-0.498-0.125-0.904-0.374-1.22c-0.249-0.314-0.579-0.578-0.989-0.792c-0.411-0.215-0.879-0.396-1.402-0.544
	c-0.524-0.148-1.058-0.311-1.6-0.485c-0.541-0.175-1.074-0.385-1.599-0.629s-0.991-0.563-1.402-0.957
	c-0.411-0.393-0.74-0.885-0.989-1.475c-0.249-0.589-0.373-1.316-0.373-2.182c0-0.69,0.137-1.363,0.412-2.019
	s0.678-1.236,1.206-1.743c0.528-0.506,1.177-0.912,1.946-1.219c0.769-0.306,1.646-0.458,2.635-0.458
	c1.117,0,2.148,0.175,3.092,0.523c0.944,0.35,1.748,0.839,2.412,1.468L163.879,14.808z"/>
<path fill="#474746" d="M178.099,19.709c-0.097,0.122-0.19,0.219-0.282,0.288c-0.092,0.07-0.225,0.105-0.399,0.105
	c-0.166,0-0.327-0.051-0.485-0.151c-0.156-0.1-0.345-0.214-0.562-0.341c-0.219-0.126-0.479-0.24-0.78-0.341
	c-0.302-0.1-0.675-0.15-1.12-0.15c-0.568,0-1.066,0.103-1.494,0.308c-0.429,0.206-0.785,0.501-1.068,0.885
	c-0.284,0.385-0.496,0.851-0.636,1.396s-0.21,1.164-0.21,1.854c0,0.716,0.076,1.354,0.229,1.913s0.374,1.028,0.662,1.409
	c0.288,0.38,0.638,0.668,1.048,0.864c0.411,0.197,0.874,0.295,1.39,0.295s0.933-0.063,1.251-0.189
	c0.319-0.127,0.588-0.267,0.807-0.42c0.219-0.152,0.408-0.292,0.57-0.419s0.343-0.19,0.544-0.19c0.262,0,0.458,0.101,0.589,0.302
	l0.932,1.18c-0.359,0.419-0.748,0.771-1.167,1.055s-0.854,0.511-1.304,0.682c-0.45,0.17-0.916,0.29-1.396,0.36
	c-0.48,0.069-0.956,0.104-1.428,0.104c-0.83,0-1.612-0.155-2.346-0.465c-0.734-0.311-1.375-0.763-1.92-1.356
	c-0.547-0.594-0.979-1.321-1.298-2.183c-0.319-0.86-0.479-1.841-0.479-2.941c0-0.987,0.142-1.902,0.426-2.746
	c0.284-0.843,0.701-1.572,1.252-2.188c0.55-0.616,1.231-1.099,2.044-1.448s1.748-0.524,2.805-0.524c1.005,0,1.885,0.162,2.641,0.485
	s1.436,0.786,2.039,1.389L178.099,19.709z"/>
<path fill="#474746" d="M181.676,30.312V10.836h3.238v7.483c0.523-0.498,1.1-0.899,1.729-1.205c0.629-0.306,1.367-0.459,2.215-0.459
	c0.733,0,1.384,0.125,1.952,0.374s1.043,0.598,1.422,1.048c0.381,0.45,0.669,0.987,0.865,1.612c0.197,0.625,0.295,1.312,0.295,2.064
	v8.558h-3.236v-8.558c0-0.821-0.19-1.457-0.57-1.907c-0.381-0.45-0.951-0.675-1.711-0.675c-0.559,0-1.083,0.127-1.572,0.38
	c-0.49,0.254-0.953,0.599-1.389,1.035v9.725H181.676z"/>
<path fill="#474746" d="M195.228,16.865h2.569c0.244,0,0.449,0.057,0.615,0.17c0.166,0.114,0.271,0.258,0.314,0.433l1.927,7.182
	c0.104,0.394,0.19,0.778,0.255,1.153c0.066,0.376,0.129,0.752,0.19,1.128c0.097-0.376,0.198-0.752,0.308-1.128
	c0.109-0.375,0.226-0.76,0.348-1.153l2.229-7.208c0.053-0.175,0.156-0.318,0.314-0.433c0.157-0.113,0.34-0.17,0.551-0.17h1.428
	c0.236,0,0.433,0.057,0.59,0.17c0.157,0.114,0.262,0.258,0.314,0.433l2.202,7.34c0.113,0.375,0.216,0.74,0.308,1.094
	c0.092,0.354,0.182,0.71,0.27,1.068c0.061-0.376,0.128-0.751,0.203-1.127c0.074-0.376,0.168-0.765,0.281-1.167l1.992-7.182
	c0.043-0.175,0.148-0.318,0.314-0.433c0.166-0.113,0.357-0.17,0.576-0.17h2.451l-4.26,13.446h-2.607
	c-0.279,0-0.48-0.192-0.604-0.576l-2.424-7.772c-0.079-0.253-0.15-0.509-0.217-0.767c-0.065-0.258-0.12-0.513-0.164-0.767
	c-0.052,0.263-0.109,0.522-0.17,0.78s-0.131,0.518-0.209,0.779l-2.451,7.746c-0.123,0.384-0.359,0.576-0.708,0.576h-2.478
	L195.228,16.865z"/>
<path fill="#474746" d="M223.68,16.655c0.848,0,1.627,0.136,2.34,0.406c0.712,0.271,1.325,0.666,1.842,1.187
	c0.515,0.52,0.916,1.157,1.205,1.913c0.288,0.756,0.433,1.618,0.433,2.588c0,0.245-0.011,0.448-0.033,0.61
	c-0.021,0.161-0.062,0.288-0.118,0.38s-0.133,0.157-0.229,0.196c-0.097,0.039-0.219,0.059-0.367,0.059h-8.309
	c0.096,1.381,0.467,2.395,1.113,3.041s1.503,0.97,2.568,0.97c0.525,0,0.977-0.061,1.357-0.184c0.379-0.122,0.711-0.258,0.996-0.406
	c0.283-0.148,0.532-0.284,0.746-0.406c0.215-0.122,0.422-0.184,0.623-0.184c0.131,0,0.244,0.026,0.341,0.079
	c0.096,0.052,0.179,0.127,0.249,0.223l0.943,1.18c-0.358,0.419-0.76,0.771-1.205,1.055c-0.446,0.284-0.912,0.511-1.396,0.682
	c-0.484,0.17-0.979,0.29-1.48,0.36c-0.503,0.069-0.99,0.104-1.462,0.104c-0.935,0-1.804-0.155-2.608-0.465
	c-0.803-0.311-1.502-0.769-2.096-1.376c-0.595-0.607-1.062-1.358-1.402-2.255c-0.342-0.896-0.512-1.933-0.512-3.112
	c0-0.917,0.148-1.78,0.445-2.588c0.297-0.809,0.723-1.512,1.277-2.11c0.556-0.599,1.232-1.072,2.032-1.422
	S222.675,16.655,223.68,16.655z M223.747,18.975c-0.944,0-1.683,0.267-2.215,0.8c-0.533,0.533-0.875,1.289-1.023,2.268h6.082
	c0-0.42-0.058-0.814-0.171-1.187c-0.114-0.371-0.288-0.696-0.524-0.977c-0.236-0.279-0.533-0.5-0.891-0.661
	C224.645,19.056,224.226,18.975,223.747,18.975z"/>
<path fill="#474746" d="M237.309,16.629c0.577,0,1.119,0.06,1.626,0.177c0.507,0.118,0.97,0.291,1.39,0.518h3.865v1.206
	c0,0.201-0.053,0.358-0.156,0.472c-0.105,0.114-0.285,0.192-0.538,0.236l-1.206,0.223c0.088,0.228,0.155,0.468,0.203,0.721
	c0.049,0.254,0.072,0.521,0.072,0.8c0,0.664-0.133,1.265-0.399,1.802s-0.634,0.994-1.101,1.369
	c-0.468,0.376-1.022,0.667-1.665,0.872c-0.642,0.205-1.339,0.308-2.091,0.308c-0.506,0-1-0.048-1.48-0.144
	c-0.42,0.255-0.629,0.541-0.629,0.857c0,0.273,0.125,0.474,0.373,0.602c0.25,0.127,0.577,0.217,0.983,0.271
	c0.406,0.053,0.867,0.079,1.383,0.079c0.515,0,1.044,0.021,1.585,0.065c0.543,0.044,1.07,0.12,1.586,0.23
	c0.516,0.109,0.977,0.282,1.383,0.519c0.406,0.237,0.734,0.56,0.983,0.967s0.374,0.932,0.374,1.571c0,0.596-0.146,1.175-0.439,1.735
	c-0.293,0.562-0.717,1.061-1.271,1.499s-1.234,0.791-2.038,1.059s-1.722,0.401-2.752,0.401c-1.022,0-1.909-0.099-2.661-0.295
	c-0.751-0.197-1.373-0.459-1.867-0.786c-0.494-0.328-0.863-0.706-1.107-1.134c-0.244-0.429-0.367-0.874-0.367-1.337
	c0-0.629,0.192-1.158,0.577-1.586c0.384-0.428,0.917-0.769,1.599-1.022c-0.332-0.184-0.598-0.428-0.799-0.733
	s-0.302-0.703-0.302-1.193c0-0.2,0.034-0.408,0.104-0.622s0.178-0.426,0.321-0.636s0.325-0.408,0.544-0.597
	c0.219-0.188,0.477-0.355,0.773-0.504c-0.682-0.367-1.217-0.856-1.605-1.468s-0.584-1.328-0.584-2.149
	c0-0.664,0.134-1.265,0.4-1.803c0.267-0.537,0.638-0.995,1.113-1.376c0.477-0.38,1.041-0.67,1.691-0.871
	S236.542,16.629,237.309,16.629z M240.862,30.876c0-0.268-0.079-0.486-0.236-0.655c-0.157-0.17-0.371-0.301-0.643-0.395
	c-0.271-0.094-0.588-0.163-0.949-0.208c-0.363-0.045-0.748-0.066-1.154-0.066s-0.825,0-1.258,0s-0.85-0.048-1.252-0.145
	c-0.367,0.201-0.661,0.439-0.885,0.714c-0.223,0.275-0.334,0.592-0.334,0.95c0,0.236,0.06,0.457,0.178,0.662
	c0.117,0.205,0.305,0.382,0.562,0.531c0.258,0.148,0.592,0.264,1.004,0.347c0.41,0.083,0.912,0.125,1.506,0.125
	c0.604,0,1.123-0.047,1.561-0.141c0.437-0.094,0.797-0.223,1.081-0.388s0.491-0.362,0.622-0.589
	C240.795,31.391,240.862,31.144,240.862,30.876z M237.309,23.261c0.402,0,0.752-0.055,1.049-0.164s0.544-0.26,0.74-0.452
	c0.197-0.192,0.346-0.424,0.446-0.694s0.15-0.568,0.15-0.892c0-0.664-0.198-1.19-0.597-1.579c-0.396-0.389-0.994-0.583-1.789-0.583
	s-1.391,0.194-1.788,0.583s-0.597,0.915-0.597,1.579c0,0.314,0.051,0.607,0.15,0.878c0.102,0.271,0.25,0.505,0.446,0.701
	c0.196,0.197,0.445,0.35,0.747,0.459C236.569,23.206,236.917,23.261,237.309,23.261z"/>
<path fill="#474746" d="M250.192,10.836v19.476h-3.236V10.836H250.192z"/>
<path fill="#474746" d="M259.405,16.655c0.848,0,1.628,0.136,2.34,0.406c0.713,0.271,1.326,0.666,1.842,1.187
	c0.516,0.52,0.917,1.157,1.205,1.913c0.289,0.756,0.434,1.618,0.434,2.588c0,0.245-0.012,0.448-0.033,0.61
	c-0.021,0.161-0.062,0.288-0.118,0.38c-0.058,0.092-0.134,0.157-0.229,0.196s-0.219,0.059-0.367,0.059h-8.309
	c0.096,1.381,0.467,2.395,1.113,3.041s1.504,0.97,2.569,0.97c0.524,0,0.977-0.061,1.356-0.184c0.38-0.122,0.712-0.258,0.996-0.406
	c0.283-0.148,0.533-0.284,0.747-0.406s0.421-0.184,0.622-0.184c0.131,0,0.244,0.026,0.342,0.079
	c0.096,0.052,0.178,0.127,0.248,0.223l0.943,1.18c-0.357,0.419-0.76,0.771-1.205,1.055s-0.911,0.511-1.396,0.682
	c-0.484,0.17-0.979,0.29-1.48,0.36c-0.502,0.069-0.989,0.104-1.461,0.104c-0.936,0-1.805-0.155-2.608-0.465
	c-0.804-0.311-1.503-0.769-2.097-1.376s-1.062-1.358-1.402-2.255c-0.341-0.896-0.512-1.933-0.512-3.112
	c0-0.917,0.148-1.78,0.446-2.588c0.297-0.809,0.723-1.512,1.277-2.11c0.556-0.599,1.232-1.072,2.032-1.422
	C257.499,16.83,258.401,16.655,259.405,16.655z M259.471,18.975c-0.943,0-1.682,0.267-2.215,0.8s-0.874,1.289-1.022,2.268h6.081
	c0-0.42-0.057-0.814-0.17-1.187c-0.114-0.371-0.289-0.696-0.525-0.977c-0.235-0.279-0.532-0.5-0.891-0.661
	C260.371,19.056,259.952,18.975,259.471,18.975z"/>
<path fill="#474746" d="M267.858,30.312V16.865h1.9c0.332,0,0.564,0.061,0.695,0.184c0.131,0.122,0.218,0.332,0.262,0.629
	l0.197,1.625c0.48-0.83,1.043-1.485,1.689-1.966s1.372-0.721,2.176-0.721c0.664,0,1.215,0.152,1.652,0.459l-0.42,2.424
	c-0.026,0.157-0.083,0.269-0.17,0.334c-0.088,0.066-0.206,0.099-0.354,0.099c-0.131,0-0.31-0.03-0.537-0.092
	c-0.228-0.061-0.528-0.092-0.904-0.092c-0.673,0-1.249,0.186-1.729,0.558c-0.481,0.371-0.888,0.915-1.219,1.631v8.375H267.858z"/>
<path fill="#474746" d="M17.127,47.354c0,0.869-0.13,1.65-0.389,2.344s-0.625,1.284-1.096,1.771s-1.035,0.86-1.692,1.119
	c-0.657,0.26-1.385,0.39-2.184,0.39H7.667V41.739h4.099c0.799,0,1.527,0.13,2.184,0.39c0.657,0.259,1.221,0.633,1.692,1.119
	c0.471,0.487,0.837,1.078,1.096,1.771C16.997,45.714,17.127,46.492,17.127,47.354z M16.285,47.354c0-0.783-0.109-1.482-0.326-2.097
	c-0.217-0.614-0.523-1.133-0.917-1.557s-0.87-0.747-1.426-0.969c-0.556-0.223-1.173-0.334-1.851-0.334h-3.28v9.921h3.28
	c0.678,0,1.294-0.111,1.851-0.334c0.556-0.222,1.031-0.545,1.426-0.969s0.7-0.942,0.917-1.557
	C16.176,48.846,16.285,48.144,16.285,47.354z"/>
<path fill="#474746" d="M26.793,41.739v0.675h-5.917v4.544H25.8v0.659h-4.924v4.687h5.917v0.675h-6.736V41.739H26.793z"/>
<path fill="#474746" d="M35.522,43.105c-0.048,0.09-0.117,0.135-0.207,0.135c-0.069,0-0.158-0.049-0.267-0.146
	s-0.256-0.207-0.442-0.326c-0.186-0.119-0.418-0.229-0.697-0.329c-0.279-0.101-0.623-0.151-1.032-0.151
	c-0.409,0-0.769,0.059-1.08,0.175c-0.311,0.117-0.571,0.275-0.781,0.477c-0.21,0.201-0.37,0.435-0.479,0.699
	s-0.163,0.543-0.163,0.834c0,0.381,0.081,0.696,0.243,0.945c0.162,0.249,0.375,0.461,0.64,0.636c0.265,0.174,0.566,0.321,0.903,0.44
	s0.683,0.237,1.038,0.354c0.355,0.116,0.701,0.245,1.038,0.385c0.336,0.141,0.637,0.316,0.902,0.528s0.479,0.473,0.641,0.782
	c0.162,0.311,0.243,0.695,0.243,1.156c0,0.472-0.081,0.915-0.242,1.33c-0.162,0.416-0.396,0.777-0.703,1.084
	c-0.307,0.308-0.683,0.55-1.128,0.728c-0.445,0.177-0.953,0.266-1.525,0.266c-0.742,0-1.379-0.131-1.914-0.393
	c-0.535-0.263-1.004-0.621-1.406-1.077l0.223-0.349c0.063-0.08,0.138-0.119,0.222-0.119c0.048,0,0.109,0.031,0.183,0.095
	s0.164,0.142,0.271,0.234c0.106,0.093,0.233,0.193,0.382,0.302s0.321,0.209,0.517,0.302c0.196,0.093,0.422,0.171,0.676,0.234
	s0.543,0.096,0.867,0.096c0.445,0,0.843-0.067,1.193-0.203c0.35-0.135,0.646-0.318,0.887-0.552c0.242-0.232,0.426-0.51,0.553-0.83
	c0.127-0.32,0.19-0.663,0.19-1.028c0-0.397-0.081-0.725-0.242-0.981c-0.162-0.257-0.375-0.471-0.641-0.643
	c-0.265-0.173-0.566-0.316-0.903-0.434c-0.336-0.116-0.683-0.23-1.038-0.341c-0.355-0.111-0.702-0.236-1.038-0.374
	c-0.337-0.138-0.638-0.313-0.903-0.528c-0.265-0.214-0.479-0.481-0.641-0.802s-0.242-0.722-0.242-1.203
	c0-0.376,0.071-0.739,0.214-1.089c0.144-0.35,0.353-0.657,0.628-0.925s0.617-0.482,1.022-0.644c0.405-0.161,0.868-0.242,1.388-0.242
	c0.583,0,1.107,0.093,1.571,0.278c0.464,0.185,0.887,0.468,1.268,0.85L35.522,43.105z"/>
<path fill="#474746" d="M39.812,52.979h-0.818V41.739h0.818V52.979z"/>
<path fill="#474746" d="M48.278,52.446c0.387,0,0.739-0.02,1.057-0.06s0.613-0.1,0.886-0.179c0.272-0.079,0.532-0.176,0.778-0.29
	c0.246-0.113,0.494-0.242,0.743-0.385v-3.026h-2.161c-0.058,0-0.107-0.019-0.147-0.056c-0.04-0.037-0.06-0.079-0.06-0.127v-0.445
	h3.106v3.995c-0.281,0.196-0.572,0.371-0.874,0.524c-0.302,0.154-0.625,0.282-0.969,0.386c-0.344,0.103-0.715,0.183-1.112,0.238
	c-0.397,0.056-0.831,0.083-1.302,0.083c-0.811,0-1.55-0.136-2.22-0.409c-0.67-0.272-1.245-0.659-1.724-1.159
	c-0.479-0.501-0.851-1.105-1.116-1.815c-0.265-0.709-0.397-1.498-0.397-2.367c0-0.868,0.132-1.655,0.397-2.362
	c0.265-0.707,0.641-1.311,1.128-1.812c0.487-0.5,1.079-0.887,1.775-1.159s1.476-0.409,2.339-0.409c0.429,0,0.825,0.029,1.188,0.087
	c0.362,0.059,0.7,0.145,1.013,0.259c0.312,0.113,0.604,0.254,0.874,0.421s0.529,0.358,0.778,0.575l-0.214,0.35
	c-0.048,0.08-0.114,0.119-0.199,0.119c-0.047,0-0.093-0.01-0.135-0.031c-0.08-0.032-0.195-0.106-0.346-0.223
	s-0.354-0.238-0.611-0.365s-0.579-0.241-0.965-0.342s-0.855-0.15-1.406-0.15c-0.731,0-1.39,0.116-1.978,0.35
	c-0.587,0.232-1.089,0.566-1.505,1c-0.416,0.435-0.736,0.964-0.961,1.589c-0.226,0.625-0.338,1.326-0.338,2.104
	c0,0.795,0.114,1.507,0.342,2.137c0.228,0.631,0.546,1.164,0.957,1.601c0.41,0.438,0.903,0.772,1.477,1.005
	C46.951,52.33,47.585,52.446,48.278,52.446z"/>
<path fill="#474746" d="M55.912,41.768c0.042,0.019,0.087,0.06,0.135,0.123l7.275,9.737c-0.016-0.158-0.023-0.312-0.023-0.46v-9.429
	h0.715v11.239h-0.389c-0.122,0-0.22-0.053-0.294-0.159l-7.308-9.754c0.016,0.159,0.024,0.311,0.024,0.453v9.46H55.34V41.739h0.397
	C55.811,41.739,55.869,41.749,55.912,41.768z"/>
<path fill="#474746" d="M82.687,52.979h-0.627c-0.074,0-0.135-0.02-0.183-0.06c-0.047-0.04-0.084-0.092-0.111-0.155L80.439,49.5
	h-5.521L73.6,52.764c-0.021,0.059-0.058,0.109-0.111,0.151c-0.053,0.042-0.116,0.063-0.19,0.063h-0.62l4.599-11.239h0.81
	L82.687,52.979z M75.165,48.896h5.036l-2.295-5.679c-0.037-0.09-0.074-0.192-0.111-0.306c-0.037-0.114-0.074-0.234-0.111-0.361
	c-0.037,0.127-0.074,0.247-0.111,0.361c-0.037,0.113-0.074,0.218-0.111,0.313L75.165,48.896z"/>
<path fill="#474746" d="M89.756,52.979V41.739h3.233c0.641,0,1.195,0.063,1.664,0.19c0.468,0.127,0.856,0.314,1.164,0.561
	s0.536,0.547,0.687,0.901s0.227,0.757,0.227,1.207c0,0.297-0.052,0.583-0.155,0.858c-0.103,0.275-0.253,0.529-0.449,0.762
	c-0.196,0.233-0.436,0.436-0.719,0.608c-0.283,0.172-0.607,0.303-0.973,0.393c0.884,0.133,1.565,0.427,2.042,0.882
	s0.715,1.057,0.715,1.803c0,0.477-0.085,0.906-0.254,1.287c-0.17,0.381-0.416,0.704-0.739,0.969
	c-0.323,0.265-0.72,0.468-1.191,0.607c-0.472,0.141-1.006,0.211-1.604,0.211H89.756z M90.566,46.997h2.438
	c0.519,0,0.962-0.065,1.331-0.198c0.368-0.132,0.67-0.307,0.905-0.524c0.236-0.217,0.409-0.463,0.521-0.738s0.167-0.559,0.167-0.85
	c0-0.758-0.24-1.331-0.719-1.72c-0.479-0.39-1.219-0.584-2.22-0.584h-2.423V46.997z M90.566,47.593v4.734h2.82
	c0.99,0,1.737-0.213,2.24-0.64c0.503-0.426,0.755-1.025,0.755-1.799c0-0.354-0.067-0.674-0.203-0.957s-0.33-0.524-0.584-0.723
	c-0.254-0.199-0.566-0.351-0.937-0.457c-0.371-0.105-0.792-0.159-1.263-0.159H90.566z"/>
<path fill="#474746" d="M106.674,41.739v0.675h-5.917v4.544h4.925v0.659h-4.925v4.687h5.917v0.675h-6.735V41.739H106.674z"/>
<path fill="#474746" d="M116.984,41.739v0.691h-3.948v10.548h-0.81V42.431h-3.973v-0.691H116.984z"/>
<path fill="#474746" d="M127.539,41.739v0.691h-3.947v10.548h-0.811V42.431h-3.971v-0.691H127.539z"/>
<path fill="#474746" d="M136.221,41.739v0.675h-5.917v4.544h4.925v0.659h-4.925v4.687h5.917v0.675h-6.735V41.739H136.221z"/>
<path fill="#474746" d="M139.288,47.896v5.083h-0.811V41.739h2.868c1.297,0,2.266,0.25,2.906,0.751
	c0.641,0.5,0.963,1.234,0.963,2.204c0,0.429-0.074,0.82-0.223,1.175c-0.148,0.355-0.361,0.666-0.641,0.934
	c-0.277,0.268-0.613,0.487-1.004,0.659c-0.393,0.173-0.834,0.285-1.326,0.338c0.127,0.079,0.24,0.186,0.342,0.317l3.867,4.861
	h-0.707c-0.084,0-0.158-0.016-0.219-0.048c-0.061-0.031-0.119-0.084-0.178-0.158l-3.598-4.56c-0.092-0.116-0.188-0.198-0.291-0.246
	s-0.264-0.071-0.48-0.071H139.288z M139.288,47.291h1.953c0.498,0,0.943-0.06,1.338-0.179s0.729-0.289,1.002-0.512
	c0.271-0.223,0.48-0.49,0.623-0.803s0.215-0.664,0.215-1.056c0-0.8-0.262-1.394-0.787-1.779c-0.523-0.387-1.287-0.58-2.287-0.58
	h-2.057V47.291z"/>
<path fill="#474746" d="M152.336,41.739h0.676c0.154,0,0.252,0.071,0.293,0.215l2.836,9.237c0.033,0.105,0.061,0.22,0.084,0.342
	c0.023,0.121,0.049,0.249,0.076,0.381c0.025-0.132,0.053-0.26,0.078-0.381c0.027-0.122,0.059-0.236,0.096-0.342l3.178-9.237
	c0.021-0.059,0.059-0.108,0.111-0.151c0.053-0.042,0.115-0.063,0.189-0.063h0.223c0.074,0,0.135,0.02,0.184,0.06
	c0.047,0.04,0.084,0.092,0.111,0.155l3.176,9.237c0.037,0.105,0.07,0.217,0.1,0.334c0.029,0.116,0.057,0.24,0.084,0.373
	c0.025-0.127,0.051-0.25,0.07-0.369c0.021-0.119,0.049-0.232,0.08-0.338l2.836-9.237c0.016-0.059,0.051-0.108,0.107-0.151
	c0.055-0.042,0.121-0.063,0.195-0.063h0.619l-3.535,11.239h-0.73l-3.32-9.754c-0.043-0.127-0.08-0.262-0.111-0.405
	c-0.031,0.144-0.068,0.278-0.111,0.405l-3.328,9.754h-0.723L152.336,41.739z"/>
<path fill="#474746" d="M179.573,47.354c0,0.869-0.129,1.656-0.389,2.363s-0.625,1.311-1.096,1.812
	c-0.473,0.5-1.035,0.887-1.693,1.159c-0.656,0.272-1.385,0.409-2.184,0.409c-0.789,0-1.512-0.137-2.168-0.409
	s-1.221-0.659-1.691-1.159c-0.473-0.501-0.838-1.104-1.102-1.812c-0.262-0.707-0.393-1.494-0.393-2.363
	c0-0.862,0.131-1.647,0.393-2.354c0.264-0.707,0.629-1.311,1.102-1.812c0.471-0.5,1.035-0.888,1.691-1.163s1.379-0.413,2.168-0.413
	c0.799,0,1.527,0.137,2.184,0.409c0.658,0.272,1.221,0.66,1.693,1.163c0.471,0.504,0.836,1.108,1.096,1.815
	S179.573,46.492,179.573,47.354z M178.731,47.354c0-0.783-0.109-1.487-0.326-2.112s-0.521-1.154-0.916-1.589
	c-0.395-0.434-0.871-0.767-1.426-0.997c-0.557-0.229-1.174-0.345-1.852-0.345c-0.668,0-1.277,0.115-1.83,0.345
	c-0.555,0.23-1.031,0.563-1.43,0.997c-0.4,0.435-0.711,0.964-0.93,1.589c-0.221,0.625-0.33,1.329-0.33,2.112
	c0,0.789,0.109,1.495,0.33,2.117c0.219,0.622,0.529,1.15,0.93,1.585c0.398,0.434,0.875,0.765,1.43,0.992
	c0.553,0.229,1.162,0.342,1.83,0.342c0.678,0,1.295-0.113,1.852-0.342c0.555-0.228,1.031-0.559,1.426-0.992
	c0.395-0.435,0.699-0.963,0.916-1.585S178.731,48.144,178.731,47.354z"/>
<path fill="#474746" d="M183.266,47.896v5.083h-0.811V41.739h2.869c1.297,0,2.266,0.25,2.906,0.751
	c0.641,0.5,0.961,1.234,0.961,2.204c0,0.429-0.074,0.82-0.223,1.175c-0.148,0.355-0.361,0.666-0.639,0.934
	c-0.279,0.268-0.613,0.487-1.006,0.659c-0.391,0.173-0.834,0.285-1.326,0.338c0.127,0.079,0.242,0.186,0.342,0.317l3.869,4.861
	h-0.707c-0.086,0-0.158-0.016-0.219-0.048c-0.061-0.031-0.121-0.084-0.18-0.158l-3.598-4.56c-0.09-0.116-0.188-0.198-0.289-0.246
	c-0.104-0.048-0.264-0.071-0.48-0.071H183.266z M183.266,47.291h1.955c0.496,0,0.943-0.06,1.338-0.179s0.729-0.289,1-0.512
	c0.273-0.223,0.48-0.49,0.625-0.803c0.143-0.312,0.213-0.664,0.213-1.056c0-0.8-0.262-1.394-0.785-1.779
	c-0.525-0.387-1.287-0.58-2.287-0.58h-2.059V47.291z"/>
<path fill="#474746" d="M193.37,52.287h5.33v0.691h-6.141V41.739h0.811V52.287z"/>
<path fill="#474746" d="M210.463,47.354c0,0.869-0.131,1.65-0.391,2.344c-0.258,0.693-0.625,1.284-1.096,1.771
	s-1.035,0.86-1.691,1.119c-0.656,0.26-1.385,0.39-2.184,0.39h-4.1V41.739h4.1c0.799,0,1.527,0.13,2.184,0.39
	c0.656,0.259,1.221,0.633,1.691,1.119c0.471,0.487,0.838,1.078,1.096,1.771C210.333,45.714,210.463,46.492,210.463,47.354z
	 M209.622,47.354c0-0.783-0.109-1.482-0.326-2.097s-0.523-1.133-0.918-1.557s-0.869-0.747-1.426-0.969
	c-0.557-0.223-1.172-0.334-1.85-0.334h-3.281v9.921h3.281c0.678,0,1.293-0.111,1.85-0.334c0.557-0.222,1.031-0.545,1.426-0.969
	s0.701-0.942,0.918-1.557S209.622,48.144,209.622,47.354z"/>
</svg>
