<?xml version="1.0" encoding="utf-8"?>
<!-- Generator: Adobe Illustrator 15.0.0, SVG Export Plug-In . SVG Version: 6.00 Build 0)  -->
<!DOCTYPE svg PUBLIC "-//W3C//DTD SVG 1.1//EN" "http://www.w3.org/Graphics/SVG/1.1/DTD/svg11.dtd">
<svg version="1.1" id="Ebene_1" xmlns="http://www.w3.org/2000/svg" xmlns:xlink="http://www.w3.org/1999/xlink" x="0px" y="0px"
	 width="259.253px" height="82.271px" viewBox="0 0 259.253 82.271" enable-background="new 0 0 259.253 82.271"
	 xml:space="preserve">
<title>Artboard</title>
<desc>Created with Sketch.</desc>
<g>
	<g>
		<path fill="none" stroke="#4A4A4A" stroke-miterlimit="10" d="M118.518,58.016"/>
	</g>
	<path fill="#4A4A4A" d="M10.626,66.497c-0.903,0-1.604-0.25-2.105-0.75c-0.501-0.502-0.75-1.275-0.75-2.32v-9.117H5.854
		c-0.098,0-0.179-0.027-0.241-0.08c-0.062-0.055-0.094-0.129-0.094-0.229v-0.496l2.279-0.16l0.318-4.773
		c0.009-0.08,0.042-0.15,0.099-0.215c0.058-0.061,0.135-0.094,0.232-0.094h0.597v5.096h4.197v0.951H9.044v9.051
		c0,0.365,0.047,0.682,0.141,0.945c0.094,0.264,0.223,0.479,0.389,0.65c0.165,0.17,0.359,0.295,0.583,0.375
		c0.223,0.08,0.465,0.119,0.724,0.119c0.321,0,0.599-0.047,0.831-0.141s0.434-0.195,0.604-0.309s0.309-0.215,0.416-0.309
		s0.191-0.141,0.254-0.141c0.072,0,0.143,0.045,0.215,0.133l0.349,0.564c-0.34,0.375-0.771,0.676-1.294,0.904
		C11.733,66.384,11.189,66.497,10.626,66.497z"/>
	<path fill="#4A4A4A" d="M17.383,66.282v-13.34h0.697c0.232,0,0.366,0.111,0.402,0.336l0.12,1.932
		c0.26-0.367,0.537-0.701,0.832-1.008c0.295-0.303,0.609-0.562,0.945-0.783c0.334-0.219,0.691-0.389,1.072-0.51
		c0.379-0.119,0.779-0.182,1.199-0.182c0.975,0,1.752,0.283,2.334,0.854c0.58,0.566,0.974,1.355,1.18,2.365
		c0.16-0.555,0.385-1.031,0.676-1.436c0.289-0.402,0.622-0.734,0.997-0.998c0.374-0.264,0.782-0.461,1.225-0.59
		c0.443-0.131,0.895-0.195,1.358-0.195c0.66,0,1.254,0.109,1.781,0.328c0.525,0.221,0.975,0.543,1.345,0.973
		s0.653,0.957,0.851,1.582c0.195,0.625,0.294,1.34,0.294,2.146v8.525h-1.273v-8.525c0-1.307-0.282-2.299-0.845-2.982
		c-0.563-0.684-1.367-1.025-2.413-1.025c-0.465,0-0.909,0.084-1.335,0.254c-0.424,0.17-0.799,0.422-1.125,0.758
		c-0.326,0.336-0.586,0.754-0.778,1.254s-0.288,1.082-0.288,1.742v8.527h-1.273v-8.527c0-1.295-0.26-2.287-0.777-2.977
		c-0.52-0.688-1.273-1.031-2.266-1.031c-0.725,0-1.395,0.217-2.012,0.65c-0.617,0.434-1.166,1.033-1.648,1.803v10.082h-1.275V66.282
		z"/>
	<path fill="#4A4A4A" d="M46.892,54.604c-0.062,0.125-0.16,0.189-0.295,0.189c-0.098,0-0.225-0.057-0.382-0.168
		c-0.156-0.111-0.362-0.236-0.616-0.375c-0.255-0.141-0.568-0.266-0.939-0.375c-0.37-0.111-0.824-0.168-1.36-0.168
		c-0.482,0-0.923,0.068-1.32,0.207s-0.737,0.322-1.019,0.555c-0.282,0.23-0.501,0.502-0.657,0.809
		c-0.157,0.309-0.235,0.631-0.235,0.971c0,0.42,0.107,0.768,0.322,1.043c0.215,0.275,0.496,0.512,0.845,0.709
		c0.349,0.195,0.744,0.365,1.187,0.508c0.443,0.143,0.896,0.285,1.361,0.428c0.464,0.145,0.918,0.303,1.36,0.479
		c0.442,0.174,0.838,0.391,1.187,0.648c0.349,0.26,0.63,0.576,0.845,0.951c0.214,0.377,0.321,0.832,0.321,1.369
		c0,0.58-0.105,1.121-0.314,1.621c-0.211,0.502-0.514,0.934-0.912,1.301c-0.397,0.367-0.887,0.656-1.468,0.871
		c-0.581,0.215-1.243,0.322-1.984,0.322c-0.938,0-1.747-0.15-2.427-0.449c-0.68-0.299-1.287-0.691-1.823-1.174l0.308-0.455
		c0.045-0.072,0.094-0.125,0.148-0.16c0.053-0.037,0.129-0.055,0.228-0.055c0.116,0,0.259,0.072,0.429,0.215
		s0.391,0.297,0.664,0.463c0.272,0.166,0.612,0.318,1.02,0.463c0.406,0.143,0.908,0.213,1.508,0.213
		c0.562,0,1.059-0.078,1.488-0.234c0.429-0.154,0.786-0.367,1.072-0.637c0.286-0.268,0.503-0.582,0.65-0.945
		c0.147-0.359,0.221-0.742,0.221-1.145c0-0.447-0.107-0.818-0.321-1.113c-0.214-0.295-0.496-0.545-0.845-0.75
		c-0.349-0.205-0.744-0.379-1.187-0.521c-0.443-0.145-0.898-0.287-1.368-0.43c-0.469-0.145-0.924-0.301-1.367-0.471
		c-0.441-0.17-0.838-0.383-1.186-0.643c-0.35-0.262-0.631-0.574-0.846-0.945s-0.321-0.834-0.321-1.389
		c0-0.475,0.103-0.93,0.308-1.367c0.206-0.439,0.499-0.822,0.879-1.152c0.38-0.33,0.842-0.594,1.388-0.791
		c0.545-0.195,1.157-0.295,1.837-0.295c0.812,0,1.535,0.117,2.165,0.354s1.208,0.596,1.736,1.082L46.892,54.604z"/>
	<path fill="#4A4A4A" d="M60.687,54.725c-0.045,0.045-0.086,0.082-0.127,0.113c-0.039,0.031-0.096,0.047-0.168,0.047
		c-0.088,0-0.211-0.061-0.367-0.18c-0.158-0.121-0.365-0.254-0.625-0.396c-0.258-0.143-0.582-0.275-0.971-0.396
		c-0.389-0.121-0.861-0.182-1.414-0.182c-0.77,0-1.451,0.137-2.045,0.408c-0.596,0.273-1.096,0.664-1.502,1.174
		c-0.406,0.51-0.717,1.127-0.932,1.852c-0.215,0.725-0.322,1.535-0.322,2.439c0,0.938,0.109,1.77,0.328,2.492
		c0.219,0.725,0.529,1.334,0.932,1.83c0.403,0.496,0.891,0.875,1.463,1.133c0.57,0.26,1.205,0.391,1.902,0.391
		c0.645,0,1.182-0.076,1.615-0.229c0.434-0.152,0.791-0.318,1.074-0.496c0.281-0.18,0.504-0.344,0.67-0.496
		c0.164-0.152,0.297-0.229,0.395-0.229c0.117,0,0.207,0.045,0.27,0.135l0.347,0.428c-0.205,0.271-0.464,0.521-0.777,0.752
		c-0.313,0.232-0.666,0.436-1.059,0.605c-0.395,0.17-0.82,0.301-1.281,0.395c-0.461,0.094-0.941,0.141-1.441,0.141
		c-0.85,0-1.625-0.154-2.326-0.463c-0.701-0.309-1.305-0.754-1.809-1.34c-0.506-0.586-0.898-1.303-1.181-2.152
		c-0.281-0.85-0.423-1.814-0.423-2.896c0-1.018,0.135-1.947,0.402-2.787c0.269-0.842,0.66-1.564,1.174-2.172
		c0.514-0.609,1.145-1.08,1.891-1.416c0.746-0.334,1.602-0.502,2.566-0.502c0.867,0,1.639,0.139,2.312,0.416
		c0.676,0.277,1.264,0.652,1.764,1.125L60.687,54.725z"/>
	<path fill="#4A4A4A" d="M64.937,66.282V46.774h1.275v8.447c0.615-0.76,1.32-1.365,2.111-1.816c0.791-0.449,1.678-0.678,2.66-0.678
		c0.732,0,1.379,0.117,1.938,0.35s1.021,0.566,1.389,1.006c0.365,0.438,0.643,0.965,0.83,1.582c0.188,0.615,0.281,1.312,0.281,2.092
		v8.525h-1.273v-8.525c0-1.252-0.285-2.232-0.857-2.943s-1.447-1.064-2.627-1.064c-0.877,0-1.689,0.225-2.441,0.676
		c-0.75,0.453-1.42,1.072-2.01,1.857v10.002h-1.276V66.282z"/>
	<path fill="#4A4A4A" d="M78.224,52.942h0.979c0.125,0,0.229,0.033,0.309,0.102c0.08,0.066,0.135,0.141,0.162,0.221l3.363,10.525
		c0.062,0.205,0.113,0.4,0.148,0.59c0.035,0.188,0.072,0.375,0.107,0.562c0.045-0.188,0.094-0.377,0.146-0.562
		c0.055-0.189,0.117-0.385,0.189-0.59l3.578-10.619c0.062-0.195,0.188-0.295,0.377-0.295h0.521c0.197,0,0.326,0.1,0.389,0.295
		l3.527,10.619c0.133,0.4,0.24,0.791,0.32,1.166c0.037-0.188,0.074-0.379,0.115-0.568c0.039-0.193,0.096-0.393,0.168-0.598
		l3.377-10.525c0.072-0.213,0.225-0.32,0.457-0.32h0.938l-4.465,13.34h-0.938c-0.143,0-0.246-0.094-0.309-0.281l-3.66-10.834
		c-0.045-0.133-0.084-0.268-0.121-0.4c-0.035-0.135-0.066-0.27-0.094-0.402c-0.025,0.135-0.055,0.27-0.086,0.402
		c-0.031,0.133-0.07,0.268-0.115,0.4l-3.699,10.834c-0.055,0.188-0.162,0.281-0.322,0.281h-0.898L78.224,52.942z"/>
	<path fill="#4A4A4A" d="M105.722,52.727c0.752,0,1.445,0.131,2.086,0.389c0.639,0.262,1.191,0.639,1.662,1.135
		c0.469,0.496,0.836,1.105,1.1,1.83c0.264,0.725,0.395,1.555,0.395,2.492c0,0.197-0.029,0.33-0.088,0.402
		c-0.057,0.072-0.148,0.107-0.273,0.107h-9.627v0.254c0,1.002,0.115,1.883,0.35,2.643c0.23,0.76,0.562,1.396,0.992,1.91
		c0.428,0.514,0.947,0.9,1.555,1.16c0.608,0.258,1.287,0.389,2.037,0.389c0.67,0,1.252-0.074,1.744-0.223
		c0.49-0.146,0.904-0.312,1.24-0.496c0.334-0.184,0.6-0.348,0.797-0.496c0.197-0.146,0.34-0.221,0.43-0.221
		c0.115,0,0.205,0.045,0.268,0.135l0.348,0.428c-0.213,0.271-0.498,0.521-0.85,0.752c-0.354,0.232-0.748,0.432-1.182,0.598
		s-0.896,0.297-1.393,0.395c-0.496,0.098-0.996,0.146-1.496,0.146c-0.912,0-1.742-0.158-2.494-0.477
		c-0.75-0.316-1.395-0.779-1.932-1.387c-0.539-0.607-0.953-1.354-1.248-2.232c-0.293-0.881-0.439-1.889-0.439-3.023
		c0-0.955,0.137-1.838,0.408-2.646c0.273-0.811,0.666-1.506,1.18-2.092s1.145-1.045,1.891-1.375S104.774,52.727,105.722,52.727z
		 M105.741,53.68c-0.688,0-1.303,0.105-1.848,0.32c-0.543,0.215-1.014,0.523-1.412,0.926c-0.396,0.402-0.719,0.885-0.963,1.447
		c-0.246,0.562-0.408,1.193-0.488,1.891h8.781c0-0.715-0.1-1.355-0.295-1.924c-0.197-0.566-0.473-1.047-0.83-1.441
		c-0.357-0.393-0.785-0.693-1.285-0.902C106.901,53.784,106.349,53.68,105.741,53.68z"/>
	<path fill="#4A4A4A" d="M119.624,52.714c0.582,0,1.121,0.072,1.617,0.215c0.496,0.143,0.939,0.344,1.334,0.604h3.418v0.443
		c0,0.223-0.125,0.344-0.375,0.361l-2.025,0.146c0.25,0.34,0.443,0.723,0.578,1.146c0.133,0.424,0.199,0.879,0.199,1.359
		c0,0.645-0.115,1.229-0.348,1.75c-0.232,0.523-0.557,0.971-0.973,1.342c-0.414,0.369-0.914,0.658-1.494,0.863
		c-0.582,0.205-1.225,0.311-1.932,0.311c-0.768,0-1.465-0.117-2.09-0.352c-0.377,0.215-0.672,0.471-0.885,0.766
		c-0.215,0.297-0.322,0.582-0.322,0.857c0,0.385,0.133,0.682,0.402,0.885c0.268,0.205,0.623,0.355,1.064,0.449
		c0.443,0.096,0.947,0.154,1.516,0.184c0.568,0.023,1.145,0.055,1.73,0.086c0.584,0.029,1.162,0.088,1.729,0.168
		c0.568,0.08,1.072,0.221,1.516,0.422c0.441,0.201,0.797,0.482,1.066,0.846c0.268,0.361,0.402,0.842,0.402,1.441
		c0,0.553-0.139,1.086-0.416,1.594c-0.277,0.51-0.678,0.961-1.201,1.355c-0.521,0.393-1.154,0.707-1.896,0.943
		c-0.742,0.236-1.572,0.355-2.494,0.355c-0.938,0-1.76-0.098-2.467-0.289c-0.705-0.191-1.299-0.451-1.775-0.777
		c-0.479-0.326-0.838-0.703-1.08-1.133c-0.242-0.43-0.361-0.885-0.361-1.367c0-0.707,0.232-1.312,0.697-1.824
		c0.465-0.51,1.104-0.9,1.916-1.18c-0.447-0.152-0.803-0.371-1.064-0.656c-0.264-0.287-0.396-0.684-0.396-1.191
		c0-0.189,0.035-0.387,0.107-0.59c0.072-0.207,0.178-0.41,0.322-0.611c0.143-0.201,0.314-0.393,0.516-0.568
		c0.201-0.18,0.436-0.34,0.703-0.482c-0.635-0.367-1.127-0.854-1.48-1.463c-0.354-0.607-0.529-1.316-0.529-2.131
		c0-0.645,0.113-1.227,0.342-1.75c0.227-0.521,0.549-0.973,0.965-1.348s0.918-0.666,1.508-0.871S118.909,52.714,119.624,52.714z
		 M124.571,67.18c0-0.42-0.109-0.758-0.328-1.012c-0.219-0.256-0.512-0.453-0.877-0.598c-0.367-0.143-0.789-0.244-1.268-0.301
		c-0.479-0.059-0.979-0.102-1.502-0.129c-0.523-0.025-1.047-0.053-1.574-0.08c-0.529-0.027-1.02-0.08-1.477-0.16
		c-0.338,0.133-0.654,0.287-0.943,0.463c-0.291,0.174-0.539,0.371-0.744,0.59c-0.207,0.219-0.367,0.461-0.484,0.725
		c-0.115,0.264-0.174,0.551-0.174,0.863c0,0.395,0.102,0.758,0.303,1.094c0.201,0.334,0.496,0.625,0.885,0.871
		c0.389,0.246,0.863,0.439,1.428,0.584c0.562,0.143,1.211,0.213,1.943,0.213c0.68,0,1.312-0.074,1.896-0.227
		c0.586-0.152,1.096-0.367,1.529-0.645c0.433-0.279,0.773-0.607,1.02-0.992C124.448,68.055,124.571,67.635,124.571,67.18z
		 M119.624,60.384c0.572,0,1.082-0.084,1.529-0.248c0.447-0.166,0.822-0.396,1.127-0.691c0.303-0.295,0.533-0.646,0.689-1.059
		c0.156-0.41,0.234-0.867,0.234-1.367s-0.08-0.959-0.24-1.375c-0.162-0.416-0.396-0.77-0.705-1.066
		c-0.309-0.295-0.684-0.521-1.125-0.684c-0.443-0.16-0.945-0.24-1.51-0.24c-0.562,0-1.066,0.08-1.514,0.24
		c-0.447,0.162-0.824,0.389-1.133,0.684c-0.309,0.297-0.543,0.65-0.705,1.066c-0.16,0.416-0.24,0.875-0.24,1.375
		s0.08,0.957,0.24,1.367c0.162,0.41,0.396,0.764,0.705,1.059s0.686,0.525,1.133,0.691C118.558,60.3,119.062,60.384,119.624,60.384z"
		/>
	<path fill="#4A4A4A" d="M131.236,46.774v19.508h-1.276V46.774H131.236z"/>
	<path fill="#4A4A4A" d="M141.814,52.727c0.75,0,1.445,0.131,2.084,0.389c0.641,0.262,1.193,0.639,1.664,1.135
		c0.469,0.496,0.834,1.105,1.098,1.83s0.396,1.555,0.396,2.492c0,0.197-0.029,0.33-0.088,0.402
		c-0.057,0.072-0.148,0.107-0.273,0.107h-9.627v0.254c0,1.002,0.115,1.883,0.348,2.643c0.233,0.76,0.564,1.396,0.992,1.91
		c0.43,0.514,0.947,0.9,1.557,1.16c0.607,0.258,1.287,0.389,2.037,0.389c0.67,0,1.252-0.074,1.742-0.223
		c0.492-0.146,0.906-0.312,1.24-0.496c0.336-0.184,0.602-0.348,0.799-0.496c0.195-0.146,0.34-0.221,0.43-0.221
		c0.115,0,0.205,0.045,0.269,0.135l0.349,0.428c-0.215,0.271-0.498,0.521-0.853,0.752c-0.353,0.232-0.746,0.432-1.181,0.598
		c-0.434,0.166-0.897,0.297-1.395,0.395c-0.496,0.098-0.994,0.146-1.494,0.146c-0.912,0-1.742-0.158-2.494-0.477
		c-0.75-0.316-1.395-0.779-1.932-1.387c-0.539-0.607-0.953-1.354-1.248-2.232c-0.293-0.881-0.439-1.889-0.439-3.023
		c0-0.955,0.138-1.838,0.408-2.646c0.273-0.811,0.666-1.506,1.18-2.092c0.515-0.586,1.146-1.045,1.892-1.375
		S140.867,52.727,141.814,52.727z M141.833,53.68c-0.688,0-1.304,0.105-1.849,0.32s-1.017,0.523-1.412,0.926
		c-0.396,0.404-0.719,0.885-0.963,1.447c-0.246,0.562-0.409,1.193-0.489,1.891h8.782c0-0.715-0.1-1.355-0.295-1.924
		c-0.196-0.566-0.474-1.047-0.83-1.441c-0.356-0.393-0.784-0.693-1.284-0.902C142.994,53.784,142.441,53.68,141.833,53.68z"/>
	<path fill="#4A4A4A" d="M151.32,66.282v-13.34h0.67c0.152,0,0.262,0.031,0.328,0.094c0.068,0.062,0.105,0.172,0.115,0.322
		l0.105,2.814c0.43-1.08,1.002-1.928,1.717-2.541c0.715-0.611,1.596-0.918,2.641-0.918c0.402,0,0.773,0.043,1.113,0.127
		c0.34,0.086,0.662,0.209,0.965,0.369l-0.174,0.885c-0.027,0.145-0.115,0.215-0.268,0.215c-0.056,0-0.132-0.018-0.229-0.053
		c-0.099-0.037-0.222-0.076-0.369-0.121c-0.146-0.045-0.328-0.086-0.543-0.121c-0.213-0.035-0.459-0.053-0.736-0.053
		c-1.01,0-1.84,0.312-2.487,0.938c-0.646,0.625-1.172,1.527-1.574,2.709v8.674H151.32L151.32,66.282z"/>
	
		<rect x="177.269" y="63.485" fill="#72B632" stroke="#72B632" stroke-width="0.3" stroke-miterlimit="10" width="1.01" height="2.963"/>
	<path fill="#72B632" stroke="#72B632" stroke-width="0.3" stroke-miterlimit="10" d="M183.851,46.792
		c-0.164,0-0.271,0.074-0.322,0.227l-2.373,7.393c-0.051,0.146-0.09,0.285-0.117,0.422c-0.029,0.135-0.055,0.268-0.082,0.398
		c-0.055-0.264-0.131-0.537-0.225-0.82l-2.479-7.459c-0.043-0.139-0.133-0.207-0.271-0.207h-0.367c-0.133,0-0.221,0.068-0.264,0.207
		l-2.516,7.459c-0.051,0.146-0.095,0.283-0.133,0.416c-0.035,0.131-0.07,0.264-0.103,0.396c-0.024-0.131-0.052-0.264-0.076-0.396
		s-0.062-0.27-0.104-0.416l-2.362-7.393c-0.021-0.057-0.06-0.109-0.115-0.156s-0.129-0.068-0.215-0.068h-0.584V57.38
		c0,0.941,0.153,1.803,0.461,2.576c0.303,0.773,0.744,1.441,1.315,1.996c0.578,0.557,1.275,0.986,2.092,1.293
		c0.814,0.305,1.736,0.461,2.767,0.461c1.017,0,1.937-0.156,2.754-0.461c0.816-0.307,1.515-0.736,2.093-1.293
		c0.569-0.555,1.014-1.225,1.317-1.996c0.304-0.773,0.459-1.633,0.459-2.576V46.792H183.851z M183.621,57.378
		c0,0.803-0.129,1.523-0.393,2.184c-0.262,0.656-0.645,1.215-1.145,1.682c-0.498,0.465-1.111,0.826-1.836,1.082
		c-0.724,0.258-1.545,0.387-2.47,0.387c-0.93,0-1.758-0.129-2.487-0.387c-0.724-0.256-1.336-0.615-1.834-1.082
		c-0.5-0.465-0.884-1.023-1.144-1.682c-0.265-0.658-0.394-1.381-0.394-2.184v-7.951l2.256,6.738h0.632
		c0.11,0,0.188-0.066,0.228-0.199l2.598-7.611c0.033-0.094,0.059-0.188,0.082-0.283c0.021-0.094,0.041-0.188,0.061-0.281
		c0.018,0.094,0.041,0.188,0.064,0.281c0.027,0.096,0.055,0.189,0.086,0.283l2.57,7.611c0.045,0.133,0.116,0.199,0.219,0.199h0.658
		l2.248-6.723V57.378L183.621,57.378z"/>
	<path fill="#339966" stroke="#339966" stroke-width="0.3" stroke-miterlimit="10" d="M181.705,70.856l1.969-4.814h-0.727
		c-0.09,0-0.162,0.021-0.229,0.072c-0.062,0.051-0.105,0.111-0.129,0.18l-1.553,3.848h-6.515l-1.565-3.848
		c-0.027-0.072-0.07-0.137-0.129-0.184c-0.054-0.047-0.127-0.068-0.216-0.068h-0.737l1.969,4.814H181.705z"/>
</g>
<path fill="#339966" stroke="#339966" stroke-width="0.3" stroke-miterlimit="10" d="M16.901,18.753c0,1.029-0.156,1.95-0.46,2.765
	c-0.307,0.816-0.737,1.515-1.293,2.094c-0.555,0.571-1.222,1.014-1.997,1.315c-0.773,0.307-1.633,0.46-2.576,0.46H5.739V12.129
	h4.836c0.944,0,1.803,0.155,2.576,0.46s1.442,0.748,1.997,1.319c0.556,0.577,0.986,1.273,1.293,2.091
	C16.746,16.818,16.901,17.737,16.901,18.753z M15.907,18.753c0-0.924-0.128-1.747-0.386-2.469c-0.255-0.726-0.618-1.338-1.082-1.836
	c-0.467-0.5-1.025-0.882-1.681-1.145c-0.659-0.263-1.383-0.394-2.186-0.394H6.704v11.7h3.869c0.803,0,1.525-0.13,2.186-0.394
	c0.655-0.26,1.216-0.643,1.681-1.144c0.467-0.497,0.826-1.111,1.082-1.833C15.779,20.511,15.907,19.683,15.907,18.753z"/>
<path fill="#339966" stroke="#339966" stroke-width="0.3" stroke-miterlimit="10" d="M28.303,12.129v0.797h-6.979v5.359h5.81v0.776
	h-5.81v5.528h6.979v0.797h-7.941V12.13L28.303,12.129L28.303,12.129z"/>
<path fill="#339966" stroke="#339966" stroke-width="0.3" stroke-miterlimit="10" d="M38.598,13.741
	c-0.057,0.108-0.14,0.161-0.243,0.161c-0.083,0-0.188-0.057-0.316-0.174c-0.127-0.113-0.302-0.243-0.522-0.384
	c-0.217-0.14-0.489-0.269-0.82-0.389c-0.33-0.119-0.734-0.178-1.22-0.178c-0.482,0-0.905,0.067-1.271,0.207
	c-0.367,0.138-0.675,0.323-0.921,0.562c-0.25,0.238-0.438,0.515-0.566,0.826c-0.126,0.311-0.191,0.641-0.191,0.983
	c0,0.446,0.094,0.82,0.286,1.117c0.192,0.293,0.439,0.542,0.758,0.749c0.312,0.207,0.666,0.381,1.063,0.521
	c0.396,0.141,0.807,0.282,1.225,0.417c0.419,0.138,0.827,0.292,1.223,0.452c0.396,0.166,0.751,0.374,1.063,0.623
	c0.312,0.248,0.567,0.56,0.76,0.924c0.19,0.363,0.284,0.817,0.284,1.359c0,0.559-0.094,1.083-0.284,1.57
	c-0.189,0.489-0.469,0.915-0.831,1.277c-0.36,0.361-0.806,0.647-1.328,0.857c-0.528,0.207-1.128,0.312-1.801,0.312
	c-0.874,0-1.629-0.155-2.257-0.463c-0.631-0.31-1.186-0.732-1.661-1.271l0.263-0.41c0.074-0.095,0.161-0.141,0.262-0.141
	c0.057,0,0.13,0.037,0.217,0.112c0.085,0.074,0.192,0.166,0.318,0.277c0.121,0.11,0.273,0.228,0.448,0.354
	c0.172,0.128,0.38,0.249,0.611,0.354c0.231,0.111,0.495,0.204,0.798,0.278c0.3,0.073,0.64,0.113,1.023,0.113
	c0.525,0,0.994-0.076,1.405-0.24c0.411-0.16,0.761-0.375,1.044-0.652c0.287-0.272,0.501-0.6,0.653-0.977
	c0.149-0.381,0.225-0.783,0.225-1.217c0-0.47-0.095-0.854-0.285-1.159c-0.193-0.298-0.44-0.557-0.759-0.758
	c-0.312-0.206-0.668-0.372-1.062-0.512c-0.4-0.137-0.807-0.271-1.228-0.4c-0.417-0.132-0.824-0.278-1.221-0.44
	c-0.396-0.162-0.755-0.369-1.064-0.622c-0.312-0.252-0.568-0.568-0.759-0.942c-0.188-0.379-0.284-0.853-0.284-1.419
	c0-0.443,0.084-0.872,0.253-1.284c0.17-0.412,0.418-0.775,0.742-1.089c0.326-0.315,0.728-0.569,1.205-0.76
	c0.479-0.19,1.027-0.289,1.637-0.289c0.688,0,1.308,0.112,1.853,0.329c0.548,0.218,1.045,0.553,1.496,1.002L38.598,13.741z"/>
<path fill="#72B632" stroke="#72B632" stroke-width="0.3" stroke-miterlimit="10" d="M43.654,25.387H42.69V12.129h0.964V25.387z"/>
<path fill="#72B632" stroke="#72B632" stroke-width="0.3" stroke-miterlimit="10" d="M53.646,24.758
	c0.454,0,0.868-0.023,1.243-0.069c0.376-0.048,0.726-0.113,1.046-0.207c0.319-0.096,0.625-0.209,0.918-0.346
	c0.291-0.133,0.58-0.287,0.875-0.454v-3.566h-2.551c-0.067,0-0.123-0.023-0.17-0.066c-0.048-0.046-0.071-0.096-0.071-0.152v-0.522
	H58.6v4.712c-0.332,0.231-0.676,0.438-1.033,0.619c-0.354,0.184-0.736,0.335-1.141,0.455c-0.405,0.12-0.847,0.214-1.312,0.279
	c-0.47,0.068-0.981,0.101-1.537,0.101c-0.956,0-1.828-0.161-2.619-0.484c-0.791-0.319-1.468-0.774-2.033-1.364
	c-0.566-0.591-1.004-1.308-1.314-2.142c-0.312-0.836-0.467-1.769-0.467-2.793c0-1.021,0.154-1.953,0.467-2.784
	c0.312-0.833,0.755-1.545,1.331-2.137c0.573-0.591,1.271-1.043,2.093-1.366c0.821-0.321,1.741-0.483,2.761-0.483
	c0.508,0,0.973,0.033,1.401,0.104c0.43,0.067,0.827,0.168,1.194,0.302c0.369,0.137,0.713,0.301,1.03,0.498
	c0.318,0.196,0.625,0.423,0.921,0.679l-0.255,0.411c-0.061,0.096-0.135,0.142-0.237,0.142c-0.056,0-0.109-0.012-0.158-0.037
	c-0.096-0.039-0.23-0.126-0.408-0.264c-0.178-0.137-0.42-0.28-0.719-0.43c-0.303-0.15-0.682-0.285-1.136-0.403
	c-0.455-0.12-1.012-0.18-1.66-0.18c-0.861,0-1.641,0.139-2.333,0.415c-0.691,0.274-1.282,0.668-1.772,1.179
	c-0.487,0.513-0.866,1.136-1.133,1.871c-0.266,0.738-0.396,1.564-0.396,2.483c0,0.939,0.133,1.775,0.401,2.521
	c0.269,0.741,0.646,1.371,1.128,1.889c0.484,0.516,1.066,0.91,1.741,1.184C52.076,24.622,52.822,24.758,53.646,24.758z"/>
<path fill="#72B632" stroke="#72B632" stroke-width="0.3" stroke-miterlimit="10" d="M62.646,12.163
	c0.053,0.022,0.104,0.07,0.16,0.146l8.584,11.486c-0.021-0.186-0.025-0.369-0.025-0.542V12.129h0.844v13.258h-0.461
	c-0.145,0-0.256-0.062-0.344-0.188L62.78,13.694c0.021,0.188,0.027,0.366,0.027,0.533v11.159h-0.834V12.129h0.469
	C62.53,12.129,62.599,12.142,62.646,12.163z"/>
<path fill="#339966" stroke="#339966" stroke-width="0.3" stroke-miterlimit="10" d="M91.538,25.387h-0.737
	c-0.089,0-0.162-0.021-0.216-0.067c-0.059-0.049-0.102-0.11-0.129-0.184l-1.565-3.849h-6.515l-1.553,3.849
	c-0.022,0.067-0.068,0.129-0.129,0.179c-0.066,0.051-0.139,0.072-0.229,0.072h-0.728l5.422-13.258h0.955L91.538,25.387z
	 M82.669,20.57h5.938l-2.705-6.698c-0.045-0.107-0.09-0.228-0.133-0.36c-0.041-0.132-0.086-0.275-0.129-0.426
	c-0.045,0.15-0.088,0.294-0.133,0.426c-0.043,0.134-0.086,0.256-0.13,0.372L82.669,20.57z"/>
<path fill="#72B632" stroke="#72B632" stroke-width="0.3" stroke-miterlimit="10" d="M98.878,25.387V12.129h3.814
	c0.756,0,1.41,0.074,1.963,0.225c0.551,0.151,1.008,0.37,1.369,0.662c0.363,0.292,0.631,0.646,0.809,1.064
	c0.181,0.417,0.267,0.892,0.267,1.424c0,0.348-0.062,0.686-0.181,1.012c-0.123,0.324-0.301,0.621-0.53,0.896
	c-0.23,0.273-0.517,0.515-0.851,0.718c-0.336,0.201-0.715,0.355-1.146,0.463c1.039,0.158,1.846,0.503,2.408,1.039
	c0.562,0.534,0.844,1.244,0.844,2.127c0,0.562-0.103,1.07-0.299,1.517c-0.201,0.45-0.49,0.834-0.871,1.143
	c-0.386,0.312-0.853,0.553-1.404,0.717c-0.561,0.162-1.188,0.249-1.895,0.249h-4.302v0.004L98.878,25.387L98.878,25.387z
	 M99.835,18.331h2.875c0.615,0,1.136-0.074,1.57-0.234c0.438-0.155,0.791-0.359,1.068-0.617c0.276-0.258,0.483-0.546,0.617-0.871
	c0.129-0.323,0.196-0.661,0.196-1.002c0-0.896-0.283-1.57-0.85-2.027c-0.566-0.459-1.439-0.69-2.619-0.69h-2.857L99.835,18.331
	L99.835,18.331z M99.835,19.034v5.586h3.326c1.172,0,2.049-0.254,2.646-0.757c0.592-0.503,0.889-1.21,0.889-2.122
	c0-0.419-0.078-0.795-0.238-1.127c-0.162-0.334-0.389-0.623-0.688-0.854c-0.299-0.233-0.668-0.412-1.104-0.537
	c-0.438-0.123-0.938-0.188-1.496-0.188L99.835,19.034L99.835,19.034z"/>
<path fill="#72B632" stroke="#72B632" stroke-width="0.3" stroke-miterlimit="10" d="M118.833,12.129v0.797h-6.979v5.359h5.811
	v0.776h-5.811v5.528h6.979v0.797h-7.944V12.13L118.833,12.129L118.833,12.129z"/>
<path fill="#339966" stroke="#339966" stroke-width="0.3" stroke-miterlimit="10" d="M130.996,12.129v0.814h-4.659v12.442h-0.954
	v-12.44h-4.685v-0.813h10.297V12.129L130.996,12.129z"/>
<path fill="#339966" stroke="#339966" stroke-width="0.3" stroke-miterlimit="10" d="M143.445,12.129v0.814h-4.656v12.442h-0.957
	v-12.44h-4.682v-0.813h10.295V12.129z"/>
<path fill="#339966" stroke="#339966" stroke-width="0.3" stroke-miterlimit="10" d="M153.685,12.129v0.797h-6.98v5.359h5.811v0.776
	h-5.811v5.528h6.98v0.797h-7.943V12.13L153.685,12.129L153.685,12.129z"/>
<path fill="#339966" stroke="#339966" stroke-width="0.3" stroke-miterlimit="10" d="M157.302,19.392v5.995h-0.957V12.129h3.383
	c1.529,0,2.672,0.297,3.43,0.887c0.756,0.588,1.133,1.456,1.133,2.602c0,0.504-0.088,0.966-0.262,1.386
	c-0.174,0.419-0.424,0.786-0.756,1.101c-0.328,0.314-0.723,0.575-1.186,0.775c-0.463,0.208-0.984,0.338-1.562,0.4
	c0.152,0.093,0.285,0.217,0.402,0.375l4.561,5.73h-0.834c-0.102,0-0.188-0.019-0.258-0.058c-0.07-0.035-0.141-0.1-0.209-0.187
	l-4.244-5.38c-0.111-0.134-0.219-0.232-0.344-0.288c-0.127-0.057-0.312-0.086-0.566-0.086h-1.73V19.392L157.302,19.392z
	 M157.302,18.677h2.303c0.586,0,1.113-0.067,1.58-0.209c0.465-0.141,0.857-0.341,1.18-0.604c0.32-0.263,0.568-0.577,0.736-0.946
	c0.164-0.369,0.252-0.784,0.252-1.245c0-0.943-0.311-1.641-0.928-2.097c-0.619-0.457-1.521-0.685-2.697-0.685h-2.426V18.677
	L157.302,18.677z"/>
<path fill="#72B632" stroke="#72B632" stroke-width="0.3" stroke-miterlimit="10" d="M172.693,12.129h0.795
	c0.182,0,0.299,0.083,0.346,0.254l3.344,10.895c0.039,0.123,0.07,0.26,0.102,0.401c0.025,0.144,0.057,0.297,0.09,0.447
	c0.025-0.155,0.062-0.305,0.092-0.447c0.031-0.142,0.068-0.278,0.113-0.401l3.748-10.895c0.027-0.069,0.07-0.128,0.133-0.18
	c0.062-0.049,0.137-0.073,0.225-0.073h0.262c0.088,0,0.16,0.024,0.215,0.069c0.055,0.047,0.1,0.107,0.131,0.184l3.748,10.896
	c0.043,0.122,0.082,0.252,0.113,0.393c0.035,0.136,0.07,0.282,0.102,0.438c0.029-0.15,0.061-0.299,0.084-0.438
	c0.021-0.141,0.059-0.274,0.092-0.396l3.346-10.894c0.018-0.069,0.059-0.128,0.125-0.179c0.066-0.049,0.143-0.073,0.23-0.073h0.73
	l-4.168,13.256h-0.861l-3.916-11.504c-0.053-0.152-0.096-0.308-0.131-0.479c-0.037,0.17-0.08,0.327-0.129,0.479l-3.93,11.504h-0.854
	L172.693,12.129z"/>
<path fill="#339966" stroke="#339966" stroke-width="0.3" stroke-miterlimit="10" d="M204.818,18.753
	c0,1.029-0.154,1.957-0.459,2.787c-0.307,0.832-0.74,1.545-1.295,2.138c-0.555,0.588-1.219,1.046-1.996,1.366
	c-0.775,0.322-1.633,0.484-2.576,0.484c-0.932,0-1.781-0.162-2.555-0.484c-0.775-0.32-1.441-0.778-1.996-1.366
	c-0.559-0.591-0.99-1.304-1.301-2.138s-0.465-1.763-0.465-2.787c0-1.017,0.154-1.943,0.465-2.778
	c0.311-0.833,0.742-1.543,1.301-2.138c0.555-0.589,1.219-1.044,1.996-1.371c0.771-0.325,1.627-0.486,2.555-0.486
	c0.943,0,1.803,0.162,2.576,0.484c0.775,0.323,1.441,0.778,1.996,1.371c0.555,0.595,0.988,1.309,1.295,2.141
	C204.667,16.81,204.818,17.737,204.818,18.753z M203.822,18.753c0-0.924-0.127-1.754-0.385-2.493
	c-0.254-0.736-0.617-1.356-1.082-1.871c-0.463-0.512-1.027-0.903-1.68-1.175c-0.656-0.271-1.387-0.406-2.186-0.406
	c-0.789,0-1.506,0.136-2.158,0.406c-0.654,0.271-1.219,0.665-1.688,1.175c-0.471,0.515-0.838,1.135-1.094,1.871
	c-0.26,0.738-0.391,1.569-0.391,2.493c0,0.932,0.129,1.767,0.391,2.498c0.256,0.734,0.623,1.357,1.094,1.869
	c0.473,0.513,1.035,0.9,1.688,1.174c0.652,0.267,1.369,0.4,2.158,0.4c0.799,0,1.527-0.135,2.186-0.4
	c0.652-0.271,1.219-0.661,1.68-1.174c0.465-0.515,0.826-1.135,1.082-1.869C203.695,20.518,203.822,19.683,203.822,18.753z"/>
<path fill="#339966" stroke="#339966" stroke-width="0.3" stroke-miterlimit="10" d="M209.173,19.392v5.995h-0.955V12.129h3.383
	c1.525,0,2.674,0.297,3.428,0.887c0.758,0.588,1.133,1.456,1.133,2.602c0,0.504-0.086,0.966-0.262,1.386
	c-0.174,0.419-0.428,0.786-0.756,1.101c-0.33,0.314-0.721,0.575-1.186,0.775c-0.461,0.208-0.984,0.338-1.561,0.4
	c0.146,0.093,0.283,0.217,0.396,0.375l4.564,5.73h-0.832c-0.104,0-0.188-0.019-0.26-0.058c-0.068-0.035-0.141-0.1-0.209-0.187
	l-4.244-5.38c-0.107-0.134-0.221-0.232-0.34-0.288c-0.125-0.057-0.314-0.086-0.572-0.086h-1.729V19.392L209.173,19.392z
	 M209.173,18.677h2.307c0.584,0,1.113-0.067,1.578-0.209c0.467-0.141,0.857-0.341,1.178-0.604c0.324-0.263,0.566-0.577,0.736-0.946
	c0.168-0.369,0.254-0.784,0.254-1.245c0-0.943-0.309-1.641-0.932-2.097c-0.619-0.457-1.518-0.685-2.693-0.685h-2.428V18.677
	L209.173,18.677z"/>
<path fill="#72B632" stroke="#72B632" stroke-width="0.3" stroke-miterlimit="10" d="M221.089,24.571h6.287v0.813h-7.248V12.127
	h0.955V24.57L221.089,24.571L221.089,24.571z"/>
<path fill="#72B632" stroke="#72B632" stroke-width="0.3" stroke-miterlimit="10" d="M241.251,18.753
	c0,1.029-0.154,1.95-0.461,2.765c-0.303,0.816-0.736,1.515-1.293,2.094c-0.557,0.571-1.221,1.014-1.996,1.315
	c-0.775,0.307-1.635,0.46-2.576,0.46h-4.834V12.129h4.834c0.943,0,1.801,0.155,2.576,0.46c0.773,0.305,1.439,0.748,1.996,1.319
	c0.557,0.576,0.99,1.273,1.293,2.091C241.099,16.818,241.251,17.737,241.251,18.753z M240.257,18.753
	c0-0.924-0.127-1.747-0.383-2.469c-0.258-0.726-0.621-1.338-1.084-1.836c-0.467-0.5-1.023-0.882-1.682-1.145
	s-1.381-0.394-2.184-0.394h-3.869v11.7h3.869c0.803,0,1.525-0.13,2.184-0.394c0.658-0.26,1.221-0.643,1.682-1.144
	c0.469-0.497,0.826-1.111,1.084-1.833C240.128,20.511,240.257,19.683,240.257,18.753z"/>
</svg>
