<?xml version="1.0" encoding="utf-8"?>
<!-- Generator: Adobe Illustrator 15.0.0, SVG Export Plug-In . SVG Version: 6.00 Build 0)  -->
<!DOCTYPE svg PUBLIC "-//W3C//DTD SVG 1.1//EN" "http://www.w3.org/Graphics/SVG/1.1/DTD/svg11.dtd">
<svg version="1.1" id="Ebene_1" xmlns="http://www.w3.org/2000/svg" xmlns:xlink="http://www.w3.org/1999/xlink" x="0px" y="0px"
	 width="500.022px" height="67.152px" viewBox="538.503 -1.076 500.022 67.152"
	 enable-background="new 538.503 -1.076 500.022 67.152" xml:space="preserve">
<title>Artboard</title>
<desc>Created with Sketch.</desc>
<g>
	<g>
		<path fill="none" stroke="#474746" stroke-miterlimit="10" d="M673.722,35.369c0.648,0.324,1.408,0.673,2.27,1.043"/>
		<path fill="none" stroke="#474746" stroke-miterlimit="10" stroke-dasharray="5.0642,5.0642" d="M680.696,38.275
			c21.964,8.165,75.493,22.413,96.026,22.594c56.5,0.5,125-7.5,121.644-35.006c-3.143-25.756-39.189-21.455-32.851-5.98
			c5.394,13.169,27.902,30.597,45.983,23.096"/>
		<path fill="none" stroke="#474746" stroke-miterlimit="10" d="M913.789,41.879c0.72-0.395,1.431-0.832,2.131-1.315"/>
		<g>
			<path fill="#474746" d="M920.471,36.591c-1.482,2.642-3.003,6.293-3.435,9.158l-1.769-4.738l-4.39-2.51
				C913.776,38.538,917.625,37.627,920.471,36.591z"/>
		</g>
	</g>
</g>
<path fill="#72B632" stroke="#72B632" stroke-width="0.3" stroke-miterlimit="10" d="M809.011,22.18c0,0.93-0.14,1.764-0.416,2.502
	c-0.277,0.74-0.668,1.371-1.171,1.893c-0.502,0.52-1.104,0.918-1.806,1.193c-0.701,0.277-1.479,0.416-2.332,0.416h-4.376v-12h4.376
	c0.854,0,1.631,0.14,2.332,0.416c0.701,0.277,1.304,0.676,1.806,1.195c0.503,0.52,0.894,1.152,1.171,1.891
	C808.872,20.428,809.011,21.26,809.011,22.18z M808.111,22.18c0-0.836-0.115-1.582-0.348-2.236
	c-0.231-0.656-0.559-1.211-0.979-1.662c-0.422-0.453-0.928-0.799-1.521-1.035c-0.596-0.238-1.252-0.357-1.977-0.357h-3.502V27.48
	h3.502c0.725,0,1.381-0.117,1.977-0.355c0.594-0.236,1.101-0.582,1.521-1.035c0.421-0.451,0.747-1.006,0.979-1.66
	C807.996,23.771,808.111,23.021,808.111,22.18z"/>
<path fill="#72B632" stroke="#72B632" stroke-width="0.3" stroke-miterlimit="10" d="M819.331,16.184v0.72h-6.317v4.852h5.258v0.703
	h-5.258v5.004h6.317v0.721h-7.19v-12H819.331z"/>
<path fill="#72B632" stroke="#72B632" stroke-width="0.3" stroke-miterlimit="10" d="M828.65,17.643
	c-0.051,0.098-0.125,0.145-0.221,0.145c-0.074,0-0.17-0.051-0.285-0.156c-0.115-0.104-0.274-0.221-0.474-0.348
	c-0.196-0.127-0.444-0.244-0.743-0.352s-0.666-0.162-1.102-0.162c-0.438,0-0.822,0.062-1.153,0.188
	c-0.332,0.125-0.61,0.293-0.834,0.508s-0.396,0.465-0.511,0.748c-0.116,0.281-0.174,0.58-0.174,0.889
	c0,0.406,0.086,0.744,0.259,1.012c0.174,0.266,0.399,0.49,0.685,0.678c0.282,0.186,0.604,0.344,0.963,0.471
	c0.359,0.127,0.729,0.254,1.108,0.377c0.379,0.125,0.749,0.264,1.108,0.41c0.357,0.15,0.68,0.338,0.963,0.564
	s0.512,0.506,0.686,0.836c0.172,0.33,0.258,0.74,0.258,1.232c0,0.504-0.086,0.979-0.258,1.42c-0.173,0.445-0.424,0.83-0.752,1.158
	c-0.326,0.328-0.729,0.586-1.203,0.777c-0.476,0.188-1.018,0.283-1.629,0.283c-0.791,0-1.472-0.141-2.043-0.42
	c-0.57-0.279-1.072-0.662-1.502-1.15l0.238-0.371c0.066-0.086,0.146-0.127,0.236-0.127c0.051,0,0.117,0.033,0.195,0.1
	c0.079,0.068,0.176,0.152,0.289,0.252c0.112,0.1,0.249,0.205,0.407,0.322c0.157,0.115,0.343,0.223,0.552,0.32
	c0.211,0.1,0.45,0.184,0.723,0.252c0.271,0.066,0.58,0.102,0.926,0.102c0.476,0,0.9-0.07,1.273-0.217
	c0.373-0.145,0.688-0.34,0.946-0.59c0.259-0.248,0.454-0.543,0.59-0.885c0.136-0.344,0.204-0.709,0.204-1.1
	c0-0.424-0.086-0.773-0.258-1.049c-0.174-0.271-0.4-0.502-0.686-0.686c-0.283-0.186-0.604-0.338-0.963-0.463
	c-0.361-0.123-0.729-0.246-1.109-0.363c-0.379-0.119-0.748-0.252-1.106-0.4c-0.36-0.145-0.683-0.334-0.965-0.562
	s-0.513-0.516-0.685-0.855c-0.172-0.342-0.258-0.771-0.258-1.285c0-0.4,0.075-0.789,0.229-1.162
	c0.154-0.373,0.378-0.701,0.672-0.986s0.658-0.515,1.091-0.687s0.929-0.26,1.481-0.26c0.623,0,1.183,0.1,1.677,0.297
	c0.496,0.197,0.946,0.5,1.354,0.908L828.65,17.643z"/>
<path fill="#72B632" stroke="#72B632" stroke-width="0.3" stroke-miterlimit="10" d="M833.228,28.184h-0.873v-12h0.873V28.184z"/>
<path fill="#72B632" stroke="#72B632" stroke-width="0.3" stroke-miterlimit="10" d="M842.269,27.615
	c0.412,0,0.787-0.021,1.127-0.062c0.34-0.043,0.656-0.105,0.947-0.189c0.291-0.086,0.567-0.189,0.83-0.311
	c0.264-0.121,0.527-0.26,0.792-0.412v-3.229h-2.307c-0.062,0-0.114-0.021-0.156-0.061c-0.043-0.041-0.063-0.086-0.063-0.137V22.74
	h3.315v4.266c-0.299,0.209-0.61,0.396-0.933,0.559c-0.322,0.166-0.668,0.303-1.034,0.412c-0.367,0.109-0.765,0.195-1.188,0.254
	c-0.424,0.061-0.888,0.09-1.391,0.09c-0.865,0-1.654-0.145-2.37-0.438c-0.716-0.291-1.329-0.703-1.841-1.238
	c-0.512-0.533-0.908-1.18-1.191-1.938c-0.281-0.756-0.422-1.6-0.422-2.527c0-0.926,0.141-1.768,0.422-2.521
	c0.283-0.754,0.684-1.398,1.205-1.934c0.52-0.535,1.151-0.945,1.895-1.237c0.744-0.291,1.576-0.437,2.498-0.437
	c0.459,0,0.881,0.03,1.268,0.092c0.389,0.062,0.749,0.154,1.082,0.276c0.333,0.122,0.645,0.27,0.934,0.45
	c0.287,0.178,0.564,0.383,0.83,0.613l-0.229,0.373c-0.053,0.086-0.122,0.127-0.213,0.127c-0.051,0-0.1-0.01-0.145-0.033
	c-0.086-0.035-0.209-0.113-0.369-0.238c-0.16-0.123-0.379-0.254-0.651-0.389c-0.274-0.137-0.617-0.258-1.03-0.365
	c-0.412-0.109-0.914-0.162-1.502-0.162c-0.779,0-1.484,0.125-2.111,0.375c-0.627,0.248-1.162,0.604-1.605,1.066
	c-0.443,0.465-0.786,1.029-1.025,1.695c-0.242,0.668-0.361,1.416-0.361,2.248c0,0.85,0.121,1.607,0.365,2.281
	c0.242,0.672,0.584,1.242,1.021,1.709s0.964,0.824,1.576,1.072C840.851,27.492,841.527,27.615,842.269,27.615z"/>
<path fill="#72B632" stroke="#72B632" stroke-width="0.3" stroke-miterlimit="10" d="M850.417,16.215
	c0.046,0.021,0.094,0.063,0.145,0.131l7.769,10.396c-0.017-0.168-0.024-0.334-0.024-0.49V16.184h0.764v12h-0.416
	c-0.131,0-0.234-0.057-0.312-0.17L850.538,17.6c0.019,0.17,0.026,0.332,0.026,0.484v10.1h-0.756v-12h0.426
	C850.312,16.184,850.373,16.196,850.417,16.215z"/>
<path fill="#72B632" stroke="#72B632" stroke-width="0.3" stroke-miterlimit="10" d="M892.409,28.184h-0.67
	c-0.079,0-0.145-0.021-0.195-0.062c-0.05-0.043-0.09-0.1-0.117-0.166l-1.418-3.484h-5.893l-1.406,3.484
	c-0.023,0.061-0.062,0.117-0.119,0.162c-0.058,0.045-0.125,0.066-0.205,0.066h-0.66l4.91-12h0.863L892.409,28.184z M884.379,23.824
	h5.375l-2.449-6.062c-0.041-0.096-0.08-0.205-0.119-0.326s-0.079-0.25-0.119-0.385c-0.039,0.135-0.079,0.264-0.118,0.385
	c-0.04,0.121-0.079,0.232-0.118,0.336L884.379,23.824z"/>
<path fill="#72B632" stroke="#72B632" stroke-width="0.3" stroke-miterlimit="10" d="M902.982,28.184v-12h3.452
	c0.685,0,1.276,0.068,1.776,0.203c0.5,0.136,0.914,0.335,1.242,0.599s0.572,0.584,0.732,0.963c0.161,0.377,0.241,0.807,0.241,1.289
	c0,0.316-0.054,0.621-0.165,0.916c-0.109,0.293-0.271,0.564-0.479,0.812c-0.209,0.248-0.467,0.465-0.769,0.648
	c-0.304,0.184-0.647,0.322-1.039,0.42c0.942,0.143,1.671,0.455,2.181,0.941c0.508,0.484,0.762,1.127,0.762,1.924
	c0,0.51-0.09,0.969-0.271,1.373c-0.182,0.408-0.444,0.754-0.788,1.035c-0.347,0.283-0.771,0.5-1.271,0.648
	c-0.506,0.148-1.075,0.225-1.715,0.225h-3.891V28.184z M903.846,21.799h2.604c0.555,0,1.027-0.07,1.42-0.213
	c0.395-0.141,0.717-0.326,0.968-0.559s0.437-0.494,0.556-0.789c0.119-0.293,0.18-0.598,0.18-0.906c0-0.811-0.256-1.422-0.77-1.836
	c-0.512-0.416-1.301-0.625-2.369-0.625h-2.588L903.846,21.799L903.846,21.799z M903.846,22.434v5.055h3.013
	c1.057,0,1.854-0.229,2.391-0.684s0.806-1.094,0.806-1.92c0-0.379-0.071-0.719-0.216-1.021s-0.352-0.561-0.623-0.771
	c-0.271-0.213-0.605-0.373-1-0.488c-0.396-0.111-0.848-0.17-1.35-0.17H903.846L903.846,22.434z"/>
<path fill="#72B632" stroke="#72B632" stroke-width="0.3" stroke-miterlimit="10" d="M921.044,16.184v0.72h-6.317v4.852h5.259v0.703
	h-5.259v5.004h6.317v0.721h-7.19v-12H921.044z"/>
<path fill="#72B632" stroke="#72B632" stroke-width="0.3" stroke-miterlimit="10" d="M932.052,16.184v0.738h-4.217v11.262h-0.863
	v-11.26h-4.24v-0.738h9.32V16.184z"/>
<path fill="#72B632" stroke="#72B632" stroke-width="0.3" stroke-miterlimit="10" d="M943.322,16.184v0.738h-4.215v11.262h-0.865
	v-11.26h-4.24v-0.738h9.32V16.184z"/>
<path fill="#72B632" stroke="#72B632" stroke-width="0.3" stroke-miterlimit="10" d="M952.589,16.184v0.72h-6.316v4.852h5.258v0.703
	h-5.258v5.004h6.316v0.721H945.4v-12H952.589z"/>
<path fill="#72B632" stroke="#72B632" stroke-width="0.3" stroke-miterlimit="10" d="M955.865,22.758v5.426h-0.867v-12h3.062
	c1.385,0,2.418,0.268,3.104,0.802c0.684,0.533,1.027,1.318,1.027,2.354c0,0.457-0.08,0.875-0.238,1.254s-0.385,0.711-0.684,0.996
	c-0.297,0.285-0.654,0.521-1.072,0.703c-0.418,0.186-0.891,0.305-1.416,0.361c0.137,0.084,0.258,0.197,0.365,0.34l4.129,5.188
	h-0.754c-0.092,0-0.17-0.016-0.234-0.051c-0.062-0.033-0.127-0.09-0.189-0.168l-3.842-4.869c-0.098-0.123-0.199-0.211-0.311-0.262
	s-0.281-0.076-0.512-0.076h-1.568V22.758z M955.865,22.111h2.084c0.531,0,1.008-0.062,1.428-0.189
	c0.422-0.127,0.779-0.309,1.07-0.547c0.289-0.238,0.514-0.523,0.666-0.857c0.15-0.334,0.229-0.709,0.229-1.127
	c0-0.854-0.279-1.486-0.84-1.898c-0.559-0.414-1.375-0.619-2.441-0.619h-2.195V22.111L955.865,22.111z"/>
<path fill="#72B632" stroke="#72B632" stroke-width="0.3" stroke-miterlimit="10" d="M969.794,16.184h0.721
	c0.164,0,0.27,0.076,0.312,0.229l3.027,9.86c0.035,0.113,0.064,0.236,0.09,0.365s0.053,0.268,0.082,0.406
	c0.025-0.141,0.057-0.277,0.084-0.406s0.061-0.252,0.102-0.365l3.393-9.86c0.023-0.063,0.062-0.116,0.119-0.162
	c0.057-0.045,0.123-0.067,0.201-0.067h0.238c0.08,0,0.145,0.021,0.195,0.062c0.051,0.043,0.09,0.098,0.119,0.166l3.391,9.861
	c0.039,0.113,0.076,0.23,0.105,0.357c0.031,0.123,0.062,0.256,0.092,0.396c0.025-0.135,0.053-0.268,0.074-0.395
	s0.053-0.248,0.084-0.361l3.029-9.86c0.016-0.063,0.053-0.116,0.113-0.162c0.059-0.045,0.129-0.067,0.209-0.067h0.66l-3.773,11.998
	h-0.779l-3.545-10.412c-0.047-0.137-0.086-0.279-0.119-0.434c-0.033,0.154-0.072,0.297-0.117,0.434l-3.555,10.412h-0.771
	L969.794,16.184z"/>
<path fill="#72B632" stroke="#72B632" stroke-width="0.3" stroke-miterlimit="10" d="M998.873,22.18c0,0.93-0.139,1.77-0.416,2.523
	s-0.668,1.398-1.17,1.934c-0.504,0.533-1.105,0.947-1.807,1.238s-1.48,0.436-2.332,0.436c-0.844,0-1.613-0.145-2.314-0.436
	s-1.303-0.705-1.807-1.238c-0.504-0.535-0.895-1.18-1.176-1.934c-0.279-0.756-0.42-1.596-0.42-2.523c0-0.92,0.141-1.758,0.42-2.514
	c0.281-0.754,0.672-1.398,1.176-1.936c0.504-0.533,1.105-0.945,1.807-1.241c0.701-0.294,1.473-0.44,2.314-0.44
	c0.854,0,1.631,0.146,2.332,0.437c0.701,0.292,1.303,0.704,1.807,1.241c0.502,0.539,0.893,1.184,1.17,1.939
	C998.736,20.422,998.873,21.26,998.873,22.18z M997.972,22.18c0-0.836-0.115-1.588-0.348-2.256c-0.23-0.666-0.557-1.23-0.979-1.695
	c-0.42-0.463-0.93-0.818-1.521-1.064c-0.594-0.244-1.254-0.367-1.977-0.367c-0.713,0-1.363,0.123-1.953,0.367
	c-0.594,0.246-1.104,0.602-1.527,1.064c-0.428,0.465-0.76,1.029-0.992,1.695c-0.234,0.668-0.354,1.42-0.354,2.256
	c0,0.842,0.117,1.598,0.354,2.26c0.232,0.664,0.564,1.23,0.992,1.693c0.426,0.463,0.936,0.816,1.527,1.061
	c0.59,0.242,1.24,0.363,1.953,0.363c0.723,0,1.383-0.121,1.977-0.363c0.592-0.244,1.102-0.598,1.521-1.061
	c0.422-0.465,0.748-1.029,0.979-1.693C997.857,23.777,997.972,23.021,997.972,22.18z"/>
<path fill="#72B632" stroke="#72B632" stroke-width="0.3" stroke-miterlimit="10" d="M1002.816,22.758v5.426h-0.865v-12h3.062
	c1.385,0,2.42,0.268,3.104,0.802c0.684,0.533,1.025,1.318,1.025,2.354c0,0.457-0.078,0.875-0.238,1.254
	c-0.158,0.379-0.385,0.711-0.682,0.996c-0.299,0.285-0.654,0.521-1.072,0.703c-0.418,0.186-0.893,0.305-1.416,0.361
	c0.135,0.084,0.258,0.197,0.363,0.34l4.131,5.188h-0.754c-0.094,0-0.17-0.016-0.234-0.051c-0.064-0.033-0.129-0.09-0.191-0.168
	l-3.84-4.869c-0.098-0.123-0.201-0.211-0.309-0.262c-0.111-0.051-0.283-0.076-0.516-0.076h-1.568V22.758z M1002.816,22.111h2.088
	c0.529,0,1.006-0.062,1.428-0.189s0.777-0.309,1.068-0.547s0.512-0.523,0.666-0.857c0.152-0.334,0.229-0.709,0.229-1.127
	c0-0.854-0.279-1.486-0.84-1.898c-0.561-0.414-1.373-0.619-2.441-0.619h-2.197V22.111L1002.816,22.111z"/>
<path fill="#72B632" stroke="#72B632" stroke-width="0.3" stroke-miterlimit="10" d="M1013.603,27.445h5.689v0.738h-6.557v-12h0.865
	v11.261H1013.603z"/>
<path fill="#72B632" stroke="#72B632" stroke-width="0.3" stroke-miterlimit="10" d="M1031.853,22.18
	c0,0.93-0.141,1.764-0.418,2.502c-0.275,0.74-0.666,1.371-1.17,1.893c-0.504,0.52-1.105,0.918-1.807,1.193
	c-0.701,0.277-1.479,0.416-2.332,0.416h-4.375v-12h4.375c0.855,0,1.631,0.14,2.332,0.416c0.701,0.277,1.303,0.676,1.807,1.195
	s0.895,1.152,1.17,1.891C1031.712,20.428,1031.853,21.26,1031.853,22.18z M1030.953,22.18c0-0.836-0.117-1.582-0.348-2.236
	c-0.232-0.656-0.561-1.211-0.98-1.662c-0.422-0.453-0.928-0.799-1.521-1.035c-0.596-0.238-1.25-0.357-1.977-0.357h-3.502V27.48
	h3.502c0.727,0,1.381-0.117,1.977-0.355c0.594-0.236,1.102-0.582,1.521-1.035c0.422-0.451,0.748-1.006,0.98-1.66
	C1030.835,23.771,1030.953,23.021,1030.953,22.18z"/>
<path fill="#474746" stroke="#474746" stroke-width="0.3" stroke-miterlimit="10" d="M551.431,27.99
	c-0.921,0-1.637-0.254-2.146-0.766c-0.511-0.51-0.766-1.299-0.766-2.365v-9.295h-1.955c-0.101,0-0.183-0.027-0.246-0.082
	c-0.064-0.055-0.096-0.132-0.096-0.232v-0.506l2.324-0.164l0.324-4.867c0.01-0.082,0.043-0.154,0.102-0.219
	c0.059-0.062,0.138-0.096,0.236-0.096h0.609v5.195h4.279v0.971h-4.279v9.227c0,0.375,0.047,0.695,0.143,0.965
	s0.229,0.49,0.396,0.662c0.169,0.174,0.367,0.301,0.596,0.383c0.227,0.082,0.473,0.123,0.738,0.123c0.328,0,0.609-0.047,0.848-0.143
	c0.236-0.096,0.441-0.201,0.615-0.314c0.172-0.113,0.314-0.219,0.424-0.314s0.195-0.145,0.26-0.145c0.072,0,0.145,0.047,0.219,0.137
	l0.354,0.574c-0.347,0.383-0.786,0.691-1.319,0.924S552.005,27.99,551.431,27.99z"/>
<path fill="#474746" stroke="#474746" stroke-width="0.3" stroke-miterlimit="10" d="M559.004,27.771V14.169h0.71
	c0.238,0,0.375,0.114,0.41,0.342l0.123,1.969c0.266-0.373,0.547-0.715,0.848-1.025c0.301-0.31,0.623-0.576,0.965-0.8
	s0.705-0.396,1.094-0.52c0.387-0.123,0.795-0.185,1.223-0.185c0.994,0,1.787,0.289,2.379,0.868s0.993,1.384,1.203,2.414
	c0.164-0.564,0.394-1.053,0.689-1.463c0.295-0.41,0.635-0.75,1.017-1.019s0.798-0.47,1.249-0.602
	c0.45-0.132,0.912-0.198,1.385-0.198c0.674,0,1.279,0.111,1.816,0.335s0.994,0.554,1.371,0.991c0.378,0.438,0.666,0.976,0.867,1.614
	c0.199,0.639,0.301,1.367,0.301,2.188v8.693h-1.299v-8.693c0-1.33-0.287-2.346-0.861-3.042c-0.574-0.697-1.395-1.046-2.461-1.046
	c-0.475,0-0.928,0.087-1.36,0.26c-0.433,0.174-0.815,0.431-1.148,0.772s-0.597,0.769-0.793,1.279s-0.294,1.102-0.294,1.777v8.693
	h-1.299v-8.693c0-1.322-0.264-2.334-0.793-3.036c-0.528-0.701-1.299-1.053-2.311-1.053c-0.738,0-1.422,0.221-2.051,0.663
	s-1.189,1.056-1.682,1.839v10.279H559.004z"/>
<path fill="#474746" d="M590.2,16.48c-0.091,0.147-0.187,0.249-0.287,0.307c-0.101,0.061-0.228,0.09-0.383,0.09
	c-0.164,0-0.339-0.045-0.526-0.137c-0.187-0.092-0.402-0.193-0.648-0.308c-0.246-0.114-0.527-0.216-0.842-0.308
	c-0.314-0.091-0.686-0.137-1.113-0.137c-0.666,0-1.189,0.142-1.572,0.424c-0.383,0.284-0.574,0.653-0.574,1.108
	c0,0.301,0.098,0.553,0.293,0.758c0.196,0.205,0.456,0.385,0.779,0.541c0.324,0.154,0.691,0.293,1.102,0.416
	s0.828,0.258,1.258,0.404c0.428,0.145,0.848,0.311,1.257,0.498c0.41,0.188,0.777,0.424,1.101,0.711
	c0.324,0.287,0.584,0.631,0.779,1.033c0.195,0.4,0.294,0.883,0.294,1.447c0,0.676-0.123,1.297-0.369,1.867s-0.606,1.062-1.08,1.477
	s-1.06,0.738-1.757,0.971s-1.496,0.348-2.398,0.348c-0.483,0-0.955-0.043-1.416-0.129c-0.459-0.088-0.902-0.207-1.325-0.363
	c-0.424-0.154-0.815-0.336-1.176-0.547c-0.36-0.209-0.677-0.438-0.95-0.684l0.779-1.285c0.1-0.154,0.219-0.273,0.355-0.355
	s0.31-0.123,0.52-0.123c0.209,0,0.408,0.061,0.595,0.178c0.187,0.119,0.403,0.246,0.649,0.383s0.535,0.266,0.867,0.383
	c0.333,0.119,0.754,0.178,1.266,0.178c0.4,0,0.744-0.047,1.031-0.143s0.524-0.221,0.711-0.377c0.188-0.154,0.324-0.334,0.41-0.539
	c0.087-0.205,0.131-0.418,0.131-0.637c0-0.328-0.099-0.596-0.295-0.807c-0.195-0.209-0.455-0.391-0.779-0.547
	c-0.323-0.154-0.692-0.293-1.107-0.416c-0.414-0.123-0.838-0.258-1.271-0.402c-0.433-0.146-0.855-0.318-1.271-0.514
	c-0.414-0.195-0.783-0.443-1.106-0.744s-0.583-0.67-0.779-1.107s-0.294-0.967-0.294-1.586c0-0.574,0.113-1.121,0.342-1.641
	c0.228-0.52,0.562-0.973,1.005-1.36s0.993-0.697,1.653-0.93c0.661-0.232,1.424-0.349,2.291-0.349c0.965,0,1.846,0.16,2.638,0.479
	c0.793,0.319,1.454,0.738,1.982,1.258L590.2,16.48z"/>
<path fill="#474746" d="M604.664,16.713c-0.101,0.127-0.198,0.229-0.294,0.301s-0.235,0.109-0.417,0.109
	c-0.174,0-0.342-0.053-0.506-0.158c-0.164-0.104-0.359-0.223-0.588-0.355c-0.228-0.131-0.499-0.25-0.813-0.355
	s-0.704-0.157-1.169-0.157c-0.592,0-1.111,0.107-1.559,0.321c-0.446,0.214-0.818,0.523-1.113,0.923
	c-0.297,0.4-0.518,0.887-0.664,1.455c-0.146,0.57-0.219,1.215-0.219,1.936c0,0.746,0.08,1.412,0.24,1.994
	c0.159,0.584,0.389,1.074,0.689,1.471s0.666,0.697,1.094,0.902c0.429,0.205,0.912,0.307,1.449,0.307
	c0.538,0,0.973-0.064,1.306-0.197s0.613-0.277,0.841-0.438c0.229-0.16,0.426-0.305,0.595-0.438s0.357-0.199,0.567-0.199
	c0.273,0,0.479,0.105,0.615,0.314l0.971,1.23c-0.374,0.438-0.779,0.805-1.217,1.102c-0.438,0.295-0.891,0.533-1.36,0.711
	s-0.954,0.303-1.456,0.375c-0.501,0.074-0.998,0.109-1.49,0.109c-0.865,0-1.682-0.162-2.447-0.484
	c-0.766-0.324-1.433-0.795-2.002-1.416c-0.57-0.619-1.021-1.377-1.354-2.275c-0.333-0.898-0.499-1.92-0.499-3.068
	c0-1.031,0.147-1.984,0.444-2.865c0.296-0.879,0.731-1.64,1.306-2.283c0.573-0.643,1.284-1.146,2.132-1.511
	c0.848-0.364,1.823-0.547,2.926-0.547c1.049,0,1.967,0.169,2.755,0.506c0.788,0.338,1.497,0.82,2.126,1.449L604.664,16.713z"/>
<path fill="#474746" d="M608.833,27.771V7.458h3.376v7.806c0.547-0.52,1.148-0.938,1.805-1.258c0.656-0.318,1.427-0.479,2.31-0.479
	c0.766,0,1.445,0.13,2.037,0.39c0.593,0.26,1.088,0.624,1.484,1.094s0.697,1.03,0.902,1.681c0.205,0.652,0.307,1.369,0.307,2.154
	v8.926h-3.377v-8.926c0-0.857-0.197-1.52-0.594-1.99c-0.396-0.469-0.992-0.704-1.784-0.704c-0.583,0-1.13,0.133-1.641,0.397
	c-0.511,0.264-0.993,0.625-1.449,1.08v10.143H608.833z"/>
<path fill="#474746" d="M623.406,13.746h2.68c0.255,0,0.469,0.06,0.643,0.178c0.173,0.119,0.282,0.27,0.328,0.451l2.01,7.493
	c0.109,0.408,0.197,0.811,0.266,1.201c0.068,0.393,0.135,0.785,0.199,1.176c0.1-0.391,0.207-0.783,0.32-1.176
	c0.114-0.391,0.234-0.793,0.363-1.201l2.323-7.52c0.055-0.182,0.164-0.332,0.328-0.451c0.164-0.118,0.355-0.178,0.574-0.178h1.49
	c0.246,0,0.451,0.06,0.615,0.178c0.164,0.119,0.273,0.27,0.328,0.451l2.296,7.655c0.119,0.393,0.227,0.773,0.322,1.143
	s0.189,0.74,0.279,1.113c0.064-0.391,0.135-0.783,0.213-1.176c0.077-0.391,0.175-0.797,0.293-1.215l2.078-7.493
	c0.046-0.182,0.155-0.332,0.328-0.451c0.174-0.118,0.374-0.178,0.602-0.178h2.557l-4.443,14.026h-2.72
	c-0.292,0-0.501-0.199-0.629-0.602l-2.529-8.105c-0.082-0.266-0.157-0.531-0.226-0.801c-0.068-0.268-0.125-0.535-0.171-0.799
	c-0.055,0.273-0.114,0.545-0.178,0.812c-0.063,0.27-0.137,0.541-0.219,0.814l-2.556,8.078c-0.129,0.402-0.375,0.602-0.738,0.602
	h-2.584L623.406,13.746z"/>
<path fill="#474746" d="M653.521,13.527c0.885,0,1.697,0.142,2.44,0.424c0.743,0.283,1.383,0.695,1.921,1.237
	c0.537,0.542,0.957,1.208,1.258,1.996c0.301,0.789,0.451,1.689,0.451,2.701c0,0.254-0.012,0.467-0.034,0.635
	s-0.063,0.301-0.123,0.396s-0.14,0.164-0.239,0.205c-0.101,0.041-0.229,0.062-0.383,0.062h-8.668
	c0.101,1.439,0.488,2.496,1.162,3.17c0.675,0.676,1.568,1.012,2.68,1.012c0.547,0,1.019-0.062,1.415-0.191
	c0.396-0.127,0.743-0.268,1.039-0.424c0.296-0.154,0.556-0.295,0.779-0.424c0.224-0.127,0.439-0.191,0.649-0.191
	c0.137,0,0.255,0.027,0.355,0.082c0.1,0.055,0.187,0.133,0.26,0.232l0.984,1.23c-0.374,0.438-0.793,0.805-1.258,1.102
	c-0.465,0.295-0.95,0.533-1.456,0.711s-1.021,0.303-1.545,0.375c-0.524,0.074-1.032,0.109-1.524,0.109
	c-0.975,0-1.882-0.162-2.721-0.484c-0.838-0.324-1.566-0.803-2.187-1.436s-1.107-1.418-1.463-2.352s-0.533-2.016-0.533-3.246
	c0-0.957,0.155-1.857,0.465-2.701c0.31-0.842,0.754-1.577,1.333-2.201c0.578-0.624,1.285-1.118,2.119-1.483
	C651.533,13.709,652.473,13.527,653.521,13.527z M653.589,15.947c-0.984,0-1.754,0.278-2.311,0.834
	c-0.556,0.557-0.911,1.344-1.066,2.365h6.344c0-0.438-0.059-0.85-0.178-1.238c-0.119-0.387-0.301-0.727-0.547-1.018
	s-0.556-0.522-0.93-0.691C654.529,16.031,654.091,15.947,653.589,15.947z"/>
<path fill="#474746" d="M668.176,13.5c0.602,0,1.167,0.062,1.695,0.185s1.011,0.304,1.448,0.54h4.033v1.258
	c0,0.21-0.055,0.374-0.164,0.492c-0.109,0.119-0.296,0.201-0.561,0.246l-1.258,0.232c0.092,0.237,0.162,0.489,0.213,0.752
	c0.049,0.264,0.074,0.543,0.074,0.834c0,0.691-0.139,1.318-0.416,1.879c-0.279,0.561-0.662,1.037-1.148,1.43
	c-0.488,0.391-1.066,0.693-1.736,0.908s-1.396,0.32-2.181,0.32c-0.528,0-1.044-0.049-1.545-0.15
	c-0.438,0.268-0.656,0.566-0.656,0.896c0,0.285,0.13,0.492,0.39,0.627c0.26,0.133,0.602,0.227,1.025,0.281s0.904,0.082,1.442,0.082
	s1.089,0.023,1.653,0.07c0.566,0.045,1.117,0.125,1.654,0.238c0.538,0.115,1.02,0.295,1.443,0.543
	c0.424,0.246,0.766,0.582,1.025,1.008s0.389,0.971,0.389,1.639c0,0.621-0.152,1.225-0.457,1.811
	c-0.307,0.586-0.748,1.105-1.326,1.564c-0.58,0.457-1.288,0.824-2.127,1.104c-0.838,0.279-1.795,0.418-2.87,0.418
	c-1.066,0-1.991-0.102-2.775-0.307s-1.433-0.479-1.948-0.82c-0.515-0.342-0.9-0.736-1.154-1.184
	c-0.256-0.447-0.383-0.912-0.383-1.395c0-0.656,0.199-1.207,0.602-1.654c0.4-0.445,0.957-0.801,1.668-1.066
	c-0.348-0.191-0.625-0.445-0.834-0.766c-0.211-0.318-0.314-0.732-0.314-1.244c0-0.209,0.035-0.426,0.109-0.648
	c0.072-0.223,0.184-0.445,0.334-0.664s0.34-0.426,0.568-0.621c0.227-0.195,0.496-0.371,0.806-0.525
	c-0.71-0.383-1.269-0.895-1.675-1.531c-0.405-0.639-0.607-1.387-0.607-2.242c0-0.693,0.139-1.32,0.416-1.88
	c0.278-0.561,0.666-1.039,1.162-1.436c0.497-0.396,1.085-0.699,1.764-0.909C666.633,13.605,667.375,13.5,668.176,13.5z
	 M671.88,28.361c0-0.279-0.082-0.508-0.246-0.684c-0.164-0.178-0.387-0.314-0.67-0.412c-0.281-0.098-0.612-0.17-0.99-0.217
	c-0.379-0.047-0.779-0.07-1.203-0.07s-0.861,0-1.312,0s-0.887-0.049-1.306-0.15c-0.383,0.211-0.69,0.459-0.923,0.746
	s-0.349,0.617-0.349,0.99c0,0.246,0.062,0.477,0.185,0.691c0.123,0.213,0.319,0.398,0.588,0.553c0.27,0.154,0.617,0.275,1.046,0.363
	c0.429,0.086,0.952,0.129,1.572,0.129c0.629,0,1.171-0.049,1.627-0.146s0.831-0.232,1.128-0.404
	c0.296-0.172,0.512-0.377,0.648-0.615C671.812,28.898,671.88,28.641,671.88,28.361z M668.176,20.418
	c0.419,0,0.784-0.059,1.094-0.172s0.567-0.271,0.772-0.471c0.205-0.201,0.359-0.443,0.465-0.725c0.104-0.283,0.156-0.594,0.156-0.93
	c0-0.693-0.207-1.242-0.621-1.648c-0.415-0.405-1.037-0.608-1.866-0.608s-1.452,0.203-1.866,0.608
	c-0.414,0.406-0.622,0.955-0.622,1.648c0,0.328,0.052,0.633,0.157,0.916c0.105,0.281,0.26,0.525,0.465,0.73s0.465,0.365,0.779,0.479
	S667.766,20.418,668.176,20.418z"/>
<path fill="#474746" d="M682.052,7.458v20.314h-3.377V7.458H682.052z"/>
<path fill="#474746" d="M692.099,13.527c0.885,0,1.697,0.142,2.44,0.424c0.743,0.283,1.383,0.695,1.921,1.237
	c0.537,0.542,0.957,1.208,1.258,1.996c0.301,0.789,0.451,1.689,0.451,2.701c0,0.254-0.012,0.467-0.034,0.635
	s-0.063,0.301-0.123,0.396s-0.14,0.164-0.239,0.205c-0.101,0.041-0.229,0.062-0.383,0.062h-8.668
	c0.101,1.439,0.488,2.496,1.162,3.17c0.675,0.676,1.568,1.012,2.68,1.012c0.547,0,1.019-0.062,1.415-0.191
	c0.396-0.127,0.743-0.268,1.039-0.424c0.296-0.154,0.556-0.295,0.779-0.424c0.224-0.127,0.439-0.191,0.649-0.191
	c0.137,0,0.255,0.027,0.355,0.082c0.1,0.055,0.187,0.133,0.26,0.232l0.984,1.23c-0.374,0.438-0.793,0.805-1.258,1.102
	c-0.465,0.295-0.95,0.533-1.456,0.711s-1.021,0.303-1.545,0.375c-0.524,0.074-1.032,0.109-1.524,0.109
	c-0.975,0-1.882-0.162-2.721-0.484c-0.838-0.324-1.566-0.803-2.187-1.436s-1.107-1.418-1.463-2.352s-0.533-2.016-0.533-3.246
	c0-0.957,0.155-1.857,0.465-2.701c0.31-0.842,0.754-1.577,1.333-2.201c0.578-0.624,1.285-1.118,2.119-1.483
	C690.111,13.709,691.051,13.527,692.099,13.527z M692.167,15.947c-0.984,0-1.754,0.278-2.311,0.834
	c-0.556,0.557-0.911,1.344-1.066,2.365h6.344c0-0.438-0.059-0.85-0.178-1.238c-0.119-0.387-0.301-0.727-0.547-1.018
	s-0.556-0.522-0.93-0.691C693.107,16.031,692.669,15.947,692.167,15.947z"/>
<path fill="#474746" d="M701.355,27.771V13.746h1.981c0.347,0,0.588,0.064,0.725,0.191c0.137,0.128,0.228,0.347,0.273,0.656
	l0.205,1.695c0.501-0.865,1.089-1.549,1.764-2.051c0.675-0.501,1.431-0.752,2.269-0.752c0.693,0,1.268,0.16,1.723,0.479
	l-0.438,2.529c-0.027,0.165-0.086,0.28-0.178,0.348c-0.091,0.068-0.214,0.104-0.369,0.104c-0.137,0-0.322-0.031-0.561-0.096
	c-0.236-0.064-0.551-0.096-0.942-0.096c-0.702,0-1.304,0.193-1.805,0.58c-0.501,0.389-0.925,0.955-1.271,1.703v8.734H701.355z"/>
<g>
	<path fill="none" d="M659.851,19.107"/>
</g>
<g>
	<path fill="#EABB25" d="M761.575,24.224c0,0,6.17-12.15,3.6-14.952c-2.323-2.535-5.351,1.317-6.83,4.616
		c-1.221,2.721-5.979,15.946-4.78,15.763C754.763,29.469,757.418,27.565,761.575,24.224z"/>
	<g>
		<path fill="#1B1B1B" d="M762.072,24.276c1.954-3.867,4.124-8.41,4.227-12.806c0.041-1.774-0.991-2.874-2.715-3.041
			c-2.939-0.285-4.835,3.353-5.827,5.611c-2.005,4.562-4.068,9.745-4.842,14.683c-0.151,0.967,0.249,0.946,1.078,0.982
			c0.823,0.035,1.84-0.794,2.482-1.206C758.438,27.24,760.254,25.731,762.072,24.276c-0.168,0.135-0.795-0.265-0.994-0.105
			c-2.246,1.797-5.085,4.771-8.011,5.427c0.21,0.016,0.421,0.032,0.631,0.049c0.219,0.025,0.443-1.988,0.546-2.402
			c0.47-1.896,1.102-3.757,1.727-5.606c1.255-3.715,2.439-7.73,4.783-10.923c1.331-1.813,3.965-3.054,4.501-0.093
			c0.315,1.742-0.332,3.726-0.825,5.371c-0.841,2.81-2.03,5.561-3.352,8.178C761.119,24.09,762.007,24.404,762.072,24.276z"/>
	</g>
</g>
<g>
	<path fill="#EABB25" d="M757.072,25.398c0,0,15.149-15.874,17.46-16.008c2.312-0.136,2.354,3.841-1.952,9.104
		c-4.308,5.264-16.202,17.174-17.123,13.983S757.072,25.398,757.072,25.398z"/>
	<g>
		<path fill="#1B1B1B" d="M757.339,25.82c2.813-2.945,5.686-5.839,8.607-8.677c2.007-1.95,4.044-3.883,6.207-5.661
			c1.013-0.833,3.807-3.125,3.645-0.216c-0.199,3.572-3.381,6.779-5.642,9.292c-2.355,2.619-4.854,5.118-7.463,7.483
			c-1.808,1.64-3.936,3.753-6.333,4.483c-0.256,0.078-0.507,0.077-0.762,0.012c0.257,0.784,0.231,0.439-0.075-1.035
			c-0.053-0.694,0.119-1.408,0.264-2.08C756.057,28.167,756.654,26.903,757.339,25.82c0.099-0.154-0.586-0.764-0.535-0.844
			c-1.298,2.049-2.748,5.534-1.236,7.8c1.083,1.622,3.351-0.401,4.417-1.186c3.361-2.475,6.339-5.539,9.203-8.56
			c2.896-3.054,6.512-6.586,7.146-10.92c0.189-1.295-0.613-3.104-2.069-3.143c-1.743-0.046-4.42,3.176-5.554,4.21
			c-4.123,3.764-8.051,7.761-11.906,11.798C756.717,25.067,757.361,25.798,757.339,25.82z"/>
	</g>
</g>
<g>
	<path fill="#EABB25" d="M752.308,34.476c0,0-22.219,10.622-22.346,8.104c-0.125-2.521,4.691-8.157,7.963-9.298
		c3.272-1.14,13.398-4.033,14.509-3.413C753.542,30.489,753.316,33.63,752.308,34.476z"/>
	<g>
		<path fill="#1B1B1B" d="M752.022,34.065c-3.08,1.472-6.194,2.875-9.326,4.23c-3.686,1.595-8.16,4.094-12.26,4.26
			c-0.192,0.008-0.375-0.021-0.553-0.089c0.303,0.656,0.429,0.715,0.377,0.177c0.031-0.267,0.091-0.527,0.178-0.782
			c0.395-1.405,1.417-2.678,2.312-3.794c2.028-2.525,4.392-4.065,7.437-5.018c2.91-0.911,5.86-1.721,8.837-2.379
			c1.036-0.229,2.096-0.447,3.16-0.479C753.703,30.148,752.566,33.444,752.022,34.065c-0.078,0.09,0.598,0.791,0.572,0.82
			c1.139-1.3,1.27-3.926-0.138-5.159c-1.531-1.342-6.249,0.643-7.916,1.084c-3.307,0.875-6.925,1.59-9.662,3.737
			c-1.369,1.074-6.349,5.699-5.117,7.862c0.541,0.949,1.011,1.052,2.104,0.869c2.677-0.448,5.306-1.644,7.805-2.653
			c4.368-1.766,8.674-3.71,12.925-5.74C752.583,34.891,752.107,34.025,752.022,34.065z"/>
	</g>
</g>
<g>
	<path fill="#EABB25" d="M745.941,23.19c0,0-13.566-8.657-16.876-7.326c-2.821,1.135,2.578,11.07,16.359,13.527
		C757.233,31.497,747.359,24.295,745.941,23.19z"/>
	<g>
		<path fill="#1B1B1B" d="M745.632,22.797c-4.465-2.841-9.374-5.939-14.538-7.26c-5.325-1.361-2.015,4.445-0.329,6.368
			c2.172,2.477,4.854,4.302,7.827,5.694c2.263,1.062,4.694,1.718,7.141,2.186c1.553,0.297,3.869,0.843,5.357,0.016
			c2.128-1.183-4.84-6.527-5.442-6.993c0.167,0.129,0.353,0.586,0.586,0.766c1.163,0.898,2.314,1.802,3.382,2.815
			c2.301,2.185,0.734,3.064-1.69,2.971c-6.556-0.251-16.07-3.793-18.91-10.248c-2.101-4.776,4.576-2.256,6.512-1.411
			c3.723,1.625,7.298,3.704,10.723,5.883C745.998,23.423,745.905,22.971,745.632,22.797z"/>
	</g>
</g>
<g>
	<path fill="#EABB25" d="M752.582,31.553c0,0-30.051,2.034-31.111-0.216c-1.06-2.247,17.231-6.657,22.479-6.933
		C749.197,24.129,754.708,30.339,752.582,31.553z"/>
	<g>
		<path fill="#1B1B1B" d="M752.116,31.43c-3.967,0.268-7.939,0.466-11.911,0.623c-3.297,0.131-6.596,0.219-9.895,0.22
			c-2.4,0.001-5.538,0.33-7.846-0.456c-1.985-0.677,2.008-2.437,2.457-2.624c3.207-1.342,6.649-2.191,10.022-2.995
			c3.099-0.739,6.284-1.468,9.472-1.67c2.74-0.174,5.387,1.815,7.072,3.786c0.652,0.762,1.667,2.303,0.608,3.12
			c0.133-0.103,0.781,0.385,0.971,0.238c2.793-2.152-4.873-6.452-6.263-6.885c-2.689-0.839-5.377-0.352-8.087,0.162
			c-4.271,0.811-8.519,1.841-12.644,3.219c-0.517,0.172-6.338,2.139-4.876,3.271c0.954,0.738,2.861,0.77,3.983,0.875
			c3.625,0.341,7.311,0.228,10.945,0.146c5.644-0.128,11.289-0.403,16.921-0.783C752.853,31.689,752.406,31.41,752.116,31.43z"/>
	</g>
</g>
<g>
	<path fill="#EABB25" d="M755.998,36.15c0,0-0.202-14.777-6.856-21.948c-6.653-7.171-7.349-7.738-9.016-6.621
		c-1.668,1.117-2.995,6.621,0.891,11.899c3.886,5.278,11.187,17.046,12.385,17.144C754.597,36.719,755.998,36.15,755.998,36.15z"/>
	<g>
		<path fill="#1B1B1B" d="M756.454,36.355c-0.104-6.264-1.405-12.938-4.382-18.475c-1.962-3.649-5.416-7.069-8.602-9.698
			c-0.705-0.583-1.898-1.331-2.861-1.235c-3.155,0.312-2.651,5.936-2.217,7.855c0.571,2.522,2.241,4.534,3.685,6.603
			c1.319,1.891,2.598,3.811,3.885,5.724c1.989,2.956,3.881,6.166,6.312,8.789C753.409,37.145,754.982,36.909,756.454,36.355
			c-0.205,0.077-0.677-0.499-0.912-0.41c-1.145,0.431-1.83,0.951-2.544,0.181c-0.863-0.933-1.59-2.009-2.326-3.04
			c-2.177-3.049-4.221-6.193-6.324-9.292c-2.157-3.179-4.683-6.073-5.315-9.984c-0.333-2.059-0.055-5.638,2.334-6.419
			c0.825-0.27,0.624-0.088,1.463,0.604c1.263,1.042,2.373,2.289,3.497,3.475c2.917,3.08,5.146,6.007,6.629,10.015
			c1.678,4.536,2.506,9.623,2.587,14.461C755.544,36.107,756.452,36.235,756.454,36.355z"/>
	</g>
</g>
<g>
	<path fill="#EABB25" d="M749.833,15.483c0,0-0.399-8.135,0.806-10.537c1.205-2.402,5.329,2.201,5.996,4.159
		c0.667,1.957,0.309,23.062-2.662,23.436C751.003,32.912,749.89,19.373,749.833,15.483z"/>
	<g>
		<path fill="#1B1B1B" d="M750.019,15.947c-0.107-2.306-0.093-4.623,0.076-6.924c0.19-2.58,0.761-5.595,3.729-3.336
			c2.108,1.604,2.771,3.025,2.87,5.458c0.109,2.744,0.021,5.5-0.118,8.241c-0.141,2.792-0.381,5.588-0.867,8.342
			c-0.195,1.107-0.511,4.014-1.922,4.348C750.68,32.811,750.062,18.101,750.019,15.947c-0.006-0.319-0.365-0.627-0.371-0.929
			c0.107,5.429,0.517,11.485,2.816,16.479c0.975,2.117,2.323,1.602,3.003-0.32c1.086-3.072,1.211-6.6,1.421-9.818
			c0.209-3.198,0.293-6.419,0.164-9.622c-0.049-1.226-0.166-2.308-0.726-3.411c-0.995-1.965-5.112-7.009-6.241-2.756
			c-0.79,2.974-0.581,6.397-0.438,9.448C749.663,15.34,750.005,15.643,750.019,15.947z"/>
	</g>
</g>
<g>
	<path fill="#68AC29" d="M744.758,34.271c1.185-3.646,7.408-8.271,14.91-7.635c5.133,0.436,5.232,2.98,3.354,5.104
		c-1.877,2.121-3.265,3.17-4.38,4.475c-1.116,1.305-0.542,4.318,2.798,11.076c3.34,6.762,6.426,11.729,6.426,11.729l-2.78,1.216
		c0,0-7.767-17.733-9.347-20.028c-1.262-1.832-6.646,0.453-8.241-1.443C745.904,36.868,744.352,35.521,744.758,34.271z"/>
	<g>
		<path fill="#1B1B1B" d="M745.258,34.28c2.192-5.893,11.604-9.457,17.088-6.857c4.66,2.209-3.991,7.563-4.626,9.627
			c-0.543,1.762,0.537,4.081,1.152,5.67c1.358,3.502,3.184,6.847,4.968,10.146c1.076,1.992,2.2,3.961,3.375,5.896
			c0.321,0.528-2.088,1.226-2.629,1.463c0.333,0.007,0.667,0.013,1,0.02c-2.384-5.439-4.795-10.874-7.363-16.229
			c-0.909-1.896-1.562-4.419-3.966-4.567c-0.982-0.061-1.963-0.017-2.944,0.042c-2.52,0.151-3.015-0.393-4.473-2.042
			C746.032,36.533,745.082,35.58,745.258,34.28c-0.001,0.007-0.99-0.088-1-0.02c-0.243,1.794,2.218,4.555,3.817,5.13
			c0.67,0.241,1.539,0.208,2.24,0.205c1.631-0.006,4.121-0.711,5.105,0.886c0.688,1.116,1.232,2.334,1.802,3.513
			c2.582,5.349,4.98,10.791,7.363,16.23c0.036,0.081,0.899,0.063,1,0.02c0.727-0.317,1.453-0.635,2.18-0.953
			c0.743-0.324,0.594-0.268,0.192-0.934c-1.677-2.779-3.231-5.632-4.73-8.51c-1.715-3.296-3.538-6.719-4.409-10.356
			c-0.63-2.633,0.651-3.688,2.473-5.433c1.436-1.376,4.604-3.898,2.761-6.097c-1.125-1.342-3.754-1.383-5.345-1.398
			c-5.387-0.053-12.378,2.132-14.449,7.697C744.286,34.186,745.21,34.41,745.258,34.28z"/>
	</g>
</g>
<g>
	<path fill="#72B632" d="M768.835,48.604c0,0,8.83-18.762,10.849-21.512c2.018-2.747,3.712,10.908,0.218,15.681
		c-2.11,2.883-8.139,13.646-11.542,17.675l-3.146-0.553C763.556,57.854,768.835,48.604,768.835,48.604z"/>
	<g>
		<path fill="#1B1B1B" d="M769.046,49.057c2.395-5.084,4.833-10.148,7.367-15.164c0.982-1.943,2.025-5.201,3.761-6.627
			c0.935-0.769,1.312,2.76,1.365,3.177c0.264,2.104,0.21,4.253-0.03,6.355c-0.416,3.65-2.309,6.148-4.18,9.168
			c-2.426,3.916-4.766,7.892-7.398,11.674c-0.48,0.69-0.985,1.363-1.509,2.022c-0.448,0.565-1.179,0.173-1.847,0.056
			c-0.251-0.044-1.49-0.356-1.444-0.14c-0.186-0.875,0.163-1.923,0.399-2.753C766.3,54.117,767.662,51.498,769.046,49.057
			c0.11-0.194-0.5-0.77-0.422-0.906c-1.602,2.821-3.189,5.893-3.842,9.089c-0.181,0.886-0.104,1.649,0.271,2.455
			c0.462,0.989,1.372,0.829,2.41,1.012c0.982,0.173,1.028,0.307,1.665-0.495c0.667-0.841,1.274-1.729,1.879-2.614
			c1.579-2.308,3.041-4.697,4.506-7.079c2.06-3.349,5.049-6.867,6.042-10.715c0.878-3.405,1.026-7.974-0.17-11.343
			c-0.429-1.208-1.117-3.09-2.246-1.323c-3.928,6.146-6.79,13.156-9.911,19.734c-0.202,0.427-0.404,0.853-0.604,1.279
			C768.521,48.369,769.123,48.895,769.046,49.057z"/>
	</g>
</g>
</svg>
