<?xml version="1.0" encoding="utf-8"?>
<!-- Generator: Adobe Illustrator 15.0.0, SVG Export Plug-In . SVG Version: 6.00 Build 0)  -->
<!DOCTYPE svg PUBLIC "-//W3C//DTD SVG 1.1//EN" "http://www.w3.org/Graphics/SVG/1.1/DTD/svg11.dtd">
<svg version="1.1" id="Ebene_1" xmlns="http://www.w3.org/2000/svg" xmlns:xlink="http://www.w3.org/1999/xlink" x="0px" y="0px"
	 width="279.083px" height="99.736px" viewBox="0 0 279.083 99.736" enable-background="new 0 0 279.083 99.736"
	 xml:space="preserve">
<g>
	<g>
		<path fill="none" stroke="#474746" stroke-miterlimit="10" d="M241.802,64.902c-0.521,0.65-1.058,1.287-1.612,1.91"/>
		<path fill="none" stroke="#474746" stroke-miterlimit="10" stroke-dasharray="4.9755,4.9755" d="M236.705,70.361
			c-41.391,38.253-152.294,17.77-165.997-12.944C61.042,35.75,92.042,28.083,96.375,49.75c2.931,14.652-14.546,32.661-40.655,21.586
			"/>
		<path fill="none" stroke="#474746" stroke-miterlimit="10" d="M53.455,70.312c-0.737-0.354-1.48-0.731-2.229-1.132"/>
		<g>
			<path fill="#474746" d="M46.042,66.084c2.981,0.537,6.929,0.782,9.778,0.253l-3.9,3.22l-0.938,4.969
				C50.07,71.775,47.951,68.435,46.042,66.084z"/>
		</g>
	</g>
</g>
<title>Artboard</title>
<desc>Created with Sketch.</desc>
<path fill="#72B632" stroke="#72B632" stroke-width="0.3" stroke-miterlimit="10" d="M17.127,47.354c0,0.869-0.13,1.65-0.389,2.345
	c-0.259,0.694-0.625,1.284-1.096,1.771c-0.471,0.487-1.035,0.86-1.692,1.119c-0.657,0.26-1.385,0.391-2.184,0.391H7.667V41.739
	h4.099c0.799,0,1.527,0.13,2.184,0.39c0.657,0.26,1.221,0.633,1.692,1.119c0.471,0.486,0.837,1.078,1.096,1.771
	C16.997,45.714,17.127,46.492,17.127,47.354z M16.285,47.354c0-0.783-0.109-1.481-0.326-2.097c-0.217-0.614-0.523-1.133-0.917-1.557
	c-0.394-0.425-0.87-0.747-1.426-0.97c-0.556-0.223-1.173-0.334-1.851-0.334h-3.28v9.922h3.28c0.678,0,1.294-0.111,1.851-0.334
	c0.556-0.223,1.031-0.545,1.426-0.969c0.395-0.425,0.7-0.942,0.917-1.558C16.176,48.846,16.285,48.145,16.285,47.354z"/>
<path fill="#72B632" stroke="#72B632" stroke-width="0.3" stroke-miterlimit="10" d="M26.793,41.739v0.675h-5.917v4.544H25.8v0.659
	h-4.924v4.688h5.917v0.674h-6.736V41.739H26.793z"/>
<path fill="#72B632" stroke="#72B632" stroke-width="0.3" stroke-miterlimit="10" d="M35.522,43.105
	c-0.048,0.09-0.117,0.135-0.207,0.135c-0.069,0-0.158-0.049-0.267-0.146c-0.109-0.097-0.256-0.207-0.442-0.326
	s-0.418-0.229-0.697-0.328c-0.279-0.102-0.623-0.151-1.032-0.151s-0.769,0.06-1.08,0.175c-0.311,0.117-0.571,0.275-0.781,0.477
	s-0.37,0.436-0.479,0.699s-0.163,0.543-0.163,0.834c0,0.381,0.081,0.696,0.243,0.945c0.162,0.249,0.375,0.461,0.64,0.637
	c0.265,0.174,0.566,0.32,0.903,0.439s0.683,0.236,1.038,0.354c0.355,0.116,0.701,0.245,1.038,0.385
	c0.336,0.142,0.637,0.316,0.902,0.528c0.265,0.212,0.479,0.474,0.641,0.782c0.162,0.311,0.243,0.695,0.243,1.156
	c0,0.472-0.081,0.915-0.242,1.33c-0.162,0.416-0.396,0.777-0.703,1.084c-0.307,0.308-0.683,0.55-1.128,0.728
	c-0.445,0.177-0.953,0.267-1.525,0.267c-0.742,0-1.379-0.131-1.914-0.394c-0.535-0.263-1.004-0.621-1.406-1.077l0.223-0.349
	c0.063-0.08,0.138-0.119,0.222-0.119c0.048,0,0.109,0.031,0.183,0.095c0.074,0.064,0.164,0.143,0.271,0.234
	c0.106,0.093,0.233,0.193,0.382,0.302c0.149,0.109,0.321,0.209,0.517,0.302c0.196,0.094,0.422,0.172,0.676,0.234
	s0.543,0.096,0.867,0.096c0.445,0,0.843-0.066,1.193-0.203c0.35-0.135,0.646-0.317,0.887-0.552c0.242-0.231,0.426-0.51,0.553-0.829
	c0.127-0.32,0.19-0.664,0.19-1.029c0-0.396-0.081-0.725-0.242-0.98c-0.162-0.257-0.375-0.471-0.641-0.643
	c-0.265-0.174-0.566-0.316-0.903-0.435c-0.336-0.116-0.683-0.229-1.038-0.341s-0.702-0.236-1.038-0.374
	c-0.337-0.138-0.638-0.313-0.903-0.528c-0.265-0.213-0.479-0.48-0.641-0.802c-0.162-0.321-0.242-0.722-0.242-1.202
	c0-0.377,0.071-0.74,0.214-1.09c0.144-0.35,0.353-0.656,0.628-0.925s0.617-0.481,1.022-0.644c0.405-0.162,0.868-0.242,1.388-0.242
	c0.583,0,1.107,0.093,1.571,0.277c0.464,0.186,0.887,0.469,1.268,0.851L35.522,43.105z"/>
<path fill="#72B632" stroke="#72B632" stroke-width="0.3" stroke-miterlimit="10" d="M39.812,52.979h-0.818V41.739h0.818V52.979z"/>
<path fill="#72B632" stroke="#72B632" stroke-width="0.3" stroke-miterlimit="10" d="M48.278,52.445c0.387,0,0.739-0.02,1.057-0.059
	c0.318-0.041,0.613-0.101,0.886-0.18c0.272-0.079,0.532-0.176,0.778-0.29c0.246-0.112,0.494-0.242,0.743-0.385v-3.026h-2.161
	c-0.058,0-0.107-0.02-0.147-0.056c-0.04-0.037-0.06-0.079-0.06-0.127v-0.445h3.106v3.995c-0.281,0.195-0.572,0.371-0.874,0.523
	c-0.302,0.154-0.625,0.283-0.969,0.387c-0.344,0.104-0.715,0.183-1.112,0.238s-0.831,0.082-1.302,0.082
	c-0.811,0-1.55-0.136-2.22-0.408s-1.245-0.659-1.724-1.159c-0.479-0.501-0.851-1.104-1.116-1.815
	c-0.265-0.709-0.397-1.498-0.397-2.367c0-0.867,0.132-1.654,0.397-2.361s0.641-1.311,1.128-1.812c0.487-0.5,1.079-0.887,1.775-1.158
	c0.696-0.272,1.476-0.41,2.339-0.41c0.429,0,0.825,0.029,1.188,0.088c0.362,0.059,0.7,0.145,1.013,0.259
	c0.312,0.112,0.604,0.254,0.874,0.421s0.529,0.357,0.778,0.575l-0.214,0.351c-0.048,0.079-0.114,0.118-0.199,0.118
	c-0.047,0-0.093-0.01-0.135-0.03c-0.08-0.033-0.195-0.106-0.346-0.224c-0.151-0.117-0.354-0.237-0.611-0.364
	c-0.257-0.128-0.579-0.242-0.965-0.343c-0.386-0.101-0.855-0.149-1.406-0.149c-0.731,0-1.39,0.115-1.978,0.35
	c-0.587,0.232-1.089,0.566-1.505,1c-0.416,0.436-0.736,0.964-0.961,1.589c-0.226,0.625-0.338,1.326-0.338,2.104
	c0,0.795,0.114,1.506,0.342,2.137s0.546,1.164,0.957,1.601c0.41,0.438,0.903,0.772,1.477,1.005
	C46.951,52.33,47.585,52.445,48.278,52.445z"/>
<path fill="#72B632" stroke="#72B632" stroke-width="0.3" stroke-miterlimit="10" d="M55.912,41.768
	c0.042,0.02,0.087,0.061,0.135,0.123l7.275,9.737c-0.016-0.157-0.023-0.312-0.023-0.46v-9.429h0.715v11.239h-0.389
	c-0.122,0-0.22-0.054-0.294-0.16l-7.308-9.754c0.016,0.16,0.024,0.312,0.024,0.453v9.461H55.34V41.739h0.397
	C55.811,41.739,55.869,41.749,55.912,41.768z"/>
<path fill="#72B632" stroke="#72B632" stroke-width="0.3" stroke-miterlimit="10" d="M82.687,52.979H82.06
	c-0.074,0-0.135-0.02-0.183-0.06c-0.047-0.04-0.084-0.092-0.111-0.155L80.439,49.5h-5.521L73.6,52.764
	c-0.021,0.06-0.058,0.109-0.111,0.151c-0.053,0.042-0.116,0.063-0.19,0.063h-0.62l4.599-11.239h0.81L82.687,52.979z M75.165,48.896
	h5.036l-2.295-5.68c-0.037-0.09-0.074-0.191-0.111-0.306s-0.074-0.234-0.111-0.361c-0.037,0.127-0.074,0.247-0.111,0.361
	c-0.037,0.112-0.074,0.218-0.111,0.313L75.165,48.896z"/>
<path fill="#72B632" stroke="#72B632" stroke-width="0.3" stroke-miterlimit="10" d="M101.437,52.979V41.739h3.233
	c0.641,0,1.195,0.062,1.664,0.19c0.468,0.127,0.856,0.313,1.164,0.561c0.308,0.246,0.536,0.547,0.687,0.9
	c0.151,0.354,0.227,0.758,0.227,1.207c0,0.297-0.052,0.584-0.155,0.858s-0.253,0.528-0.449,0.762
	c-0.196,0.233-0.436,0.437-0.719,0.608c-0.283,0.172-0.607,0.303-0.973,0.393c0.884,0.133,1.565,0.428,2.042,0.883
	s0.715,1.057,0.715,1.803c0,0.477-0.085,0.906-0.254,1.287c-0.17,0.381-0.416,0.703-0.739,0.969
	c-0.323,0.265-0.72,0.468-1.191,0.607c-0.472,0.141-1.006,0.211-1.604,0.211H101.437L101.437,52.979z M102.247,46.997h2.438
	c0.519,0,0.962-0.065,1.331-0.198c0.368-0.132,0.67-0.307,0.905-0.523c0.236-0.217,0.409-0.463,0.521-0.738
	c0.112-0.275,0.167-0.559,0.167-0.85c0-0.758-0.24-1.332-0.719-1.721c-0.479-0.39-1.219-0.584-2.22-0.584h-2.423V46.997z
	 M102.247,47.593v4.734h2.82c0.99,0,1.737-0.214,2.24-0.64c0.503-0.427,0.755-1.025,0.755-1.799c0-0.354-0.067-0.675-0.203-0.957
	c-0.136-0.283-0.33-0.524-0.584-0.724c-0.254-0.199-0.566-0.351-0.937-0.457c-0.371-0.104-0.792-0.159-1.263-0.159L102.247,47.593
	L102.247,47.593z"/>
<path fill="#72B632" stroke="#72B632" stroke-width="0.3" stroke-miterlimit="10" d="M118.354,41.739v0.675h-5.917v4.544h4.925
	v0.659h-4.925v4.688h5.917v0.674h-6.735V41.739H118.354z"/>
<path fill="#72B632" stroke="#72B632" stroke-width="0.3" stroke-miterlimit="10" d="M128.665,41.739v0.69h-3.948v10.549h-0.81
	V42.432h-3.973V41.74L128.665,41.739L128.665,41.739z"/>
<path fill="#72B632" stroke="#72B632" stroke-width="0.3" stroke-miterlimit="10" d="M139.22,41.739v0.69h-3.947v10.549h-0.811
	V42.432h-3.972V41.74L139.22,41.739L139.22,41.739z"/>
<path fill="#72B632" stroke="#72B632" stroke-width="0.3" stroke-miterlimit="10" d="M147.902,41.739v0.675h-5.917v4.544h4.925
	v0.659h-4.925v4.688h5.917v0.674h-6.735V41.739H147.902z"/>
<path fill="#72B632" stroke="#72B632" stroke-width="0.3" stroke-miterlimit="10" d="M150.968,47.896v5.082h-0.811V41.739h2.867
	c1.298,0,2.267,0.25,2.906,0.751c0.642,0.5,0.963,1.234,0.963,2.203c0,0.43-0.073,0.82-0.223,1.176
	c-0.148,0.355-0.361,0.666-0.641,0.934c-0.277,0.268-0.613,0.487-1.004,0.659c-0.393,0.173-0.834,0.285-1.326,0.338
	c0.127,0.079,0.24,0.187,0.342,0.317l3.867,4.861h-0.707c-0.084,0-0.158-0.017-0.219-0.049c-0.061-0.031-0.119-0.084-0.178-0.158
	l-3.599-4.56c-0.092-0.116-0.188-0.198-0.291-0.246s-0.264-0.071-0.479-0.071h-1.469V47.896z M150.968,47.291h1.953
	c0.498,0,0.943-0.061,1.338-0.18c0.396-0.118,0.729-0.288,1.002-0.512c0.271-0.223,0.48-0.49,0.623-0.803
	c0.144-0.312,0.215-0.664,0.215-1.056c0-0.8-0.262-1.394-0.787-1.779c-0.522-0.387-1.287-0.58-2.287-0.58h-2.057V47.291
	L150.968,47.291z"/>
<path fill="#72B632" stroke="#72B632" stroke-width="0.3" stroke-miterlimit="10" d="M163.848,41.772h0.676
	c0.154,0,0.252,0.071,0.293,0.215l2.836,9.237c0.033,0.104,0.061,0.22,0.084,0.342c0.023,0.121,0.049,0.249,0.076,0.381
	c0.025-0.132,0.053-0.26,0.078-0.381c0.027-0.122,0.059-0.236,0.096-0.342l3.178-9.237c0.021-0.06,0.059-0.108,0.111-0.151
	c0.053-0.042,0.115-0.062,0.189-0.062h0.223c0.074,0,0.135,0.02,0.184,0.06c0.047,0.04,0.084,0.093,0.111,0.155l3.176,9.236
	c0.037,0.105,0.07,0.218,0.1,0.334c0.029,0.117,0.058,0.24,0.084,0.373c0.025-0.127,0.051-0.25,0.07-0.369
	c0.021-0.118,0.049-0.231,0.08-0.338l2.836-9.236c0.016-0.059,0.051-0.107,0.107-0.15c0.055-0.043,0.121-0.063,0.195-0.063h0.618
	l-3.534,11.239h-0.73l-3.32-9.754c-0.043-0.127-0.08-0.263-0.111-0.406c-0.031,0.145-0.067,0.279-0.11,0.406l-3.328,9.754h-0.724
	L163.848,41.772z"/>
<path fill="#72B632" stroke="#72B632" stroke-width="0.3" stroke-miterlimit="10" d="M191.084,47.387
	c0,0.869-0.129,1.656-0.389,2.363s-0.625,1.311-1.096,1.812c-0.473,0.5-1.035,0.887-1.693,1.158c-0.656,0.272-1.385,0.41-2.184,0.41
	c-0.789,0-1.512-0.138-2.168-0.41c-0.656-0.271-1.221-0.658-1.691-1.158c-0.473-0.502-0.838-1.104-1.102-1.812
	c-0.263-0.707-0.394-1.494-0.394-2.363c0-0.861,0.131-1.646,0.394-2.354c0.264-0.707,0.629-1.311,1.102-1.812
	c0.471-0.5,1.035-0.888,1.691-1.162c0.656-0.275,1.379-0.414,2.168-0.414c0.799,0,1.526,0.138,2.184,0.41
	c0.658,0.271,1.221,0.66,1.693,1.162c0.471,0.504,0.836,1.108,1.096,1.815S191.084,46.525,191.084,47.387z M190.243,47.387
	c0-0.783-0.109-1.486-0.326-2.111s-0.521-1.154-0.916-1.59c-0.395-0.434-0.871-0.767-1.426-0.996
	c-0.557-0.229-1.174-0.346-1.852-0.346c-0.668,0-1.277,0.115-1.83,0.346c-0.555,0.229-1.031,0.562-1.43,0.996
	c-0.4,0.436-0.711,0.965-0.931,1.59c-0.222,0.625-0.33,1.328-0.33,2.111c0,0.789,0.108,1.496,0.33,2.117
	c0.22,0.622,0.528,1.15,0.931,1.586c0.397,0.434,0.875,0.764,1.43,0.991c0.553,0.229,1.162,0.343,1.83,0.343
	c0.678,0,1.295-0.113,1.852-0.343c0.555-0.228,1.031-0.56,1.426-0.991c0.395-0.436,0.699-0.964,0.916-1.586
	C190.133,48.883,190.243,48.178,190.243,47.387z"/>
<path fill="#72B632" stroke="#72B632" stroke-width="0.3" stroke-miterlimit="10" d="M194.778,47.93v5.082h-0.811V41.772h2.869
	c1.297,0,2.266,0.25,2.905,0.751c0.642,0.5,0.961,1.234,0.961,2.203c0,0.43-0.073,0.82-0.224,1.176
	c-0.147,0.355-0.36,0.666-0.639,0.934c-0.279,0.268-0.613,0.487-1.006,0.659c-0.391,0.173-0.834,0.285-1.326,0.338
	c0.127,0.079,0.242,0.187,0.342,0.317l3.869,4.861h-0.707c-0.086,0-0.158-0.017-0.219-0.049c-0.061-0.031-0.121-0.084-0.18-0.158
	l-3.598-4.56c-0.09-0.116-0.188-0.198-0.289-0.246c-0.104-0.048-0.264-0.071-0.48-0.071h-1.469V47.93z M194.778,47.324h1.955
	c0.496,0,0.943-0.061,1.338-0.18c0.395-0.118,0.729-0.288,1-0.512c0.273-0.223,0.48-0.49,0.625-0.803
	c0.143-0.312,0.213-0.664,0.213-1.056c0-0.8-0.262-1.394-0.785-1.779c-0.525-0.387-1.287-0.58-2.287-0.58h-2.059V47.324z"/>
<path fill="#72B632" stroke="#72B632" stroke-width="0.3" stroke-miterlimit="10" d="M204.881,52.32h5.33v0.691h-6.141V41.772h0.811
	V52.32z"/>
<path fill="#72B632" stroke="#72B632" stroke-width="0.3" stroke-miterlimit="10" d="M221.975,47.387
	c0,0.869-0.131,1.65-0.392,2.345c-0.258,0.692-0.625,1.284-1.096,1.771c-0.472,0.487-1.035,0.86-1.69,1.119
	c-0.656,0.26-1.386,0.391-2.185,0.391h-4.101V41.772h4.101c0.799,0,1.526,0.13,2.185,0.39c0.655,0.26,1.221,0.633,1.69,1.119
	c0.471,0.486,0.838,1.078,1.096,1.771C221.844,45.747,221.975,46.525,221.975,47.387z M221.133,47.387
	c0-0.783-0.108-1.481-0.326-2.097c-0.217-0.614-0.522-1.133-0.918-1.557c-0.395-0.425-0.869-0.747-1.426-0.97
	s-1.172-0.334-1.85-0.334h-3.281v9.922h3.281c0.678,0,1.293-0.111,1.85-0.334s1.031-0.545,1.426-0.969
	c0.396-0.425,0.701-0.942,0.918-1.558C221.025,48.876,221.133,48.178,221.133,47.387z"/>
<g>
	<path fill="#EABB25" d="M251.727,34.133c0,0,12.074-6.318,11.605-10.091c-0.423-3.412-5.122-2.032-8.242-0.201
		c-2.572,1.508-14.119,9.521-13.038,10.065C243.134,34.455,246.405,34.443,251.727,34.133z"/>
	<g>
		<path fill="#1B1B1B" d="M252.224,34.186c3.878-2.039,8.611-4.57,11.083-8.298c1.213-1.831,0.109-3.672-1.93-3.911
			c-2.438-0.286-4.686,0.631-6.784,1.812c-4.336,2.44-8.884,5.625-12.47,9.076c-1.288,1.24,0.183,1.255,1.313,1.392
			c2.896,0.352,5.871,0.097,8.769-0.065c-0.223,0.012-0.659-0.13-0.957-0.113c-0.968,0.055-8.531,0.862-8.771-0.24
			c-0.167-0.77,2.535-2.503,2.997-2.867c3.21-2.531,6.599-4.979,10.112-7.075c1.997-1.191,6.521-3.408,7.248,0.094
			c0.349,1.681-1.864,3.471-2.927,4.403c-2.581,2.261-5.648,4.094-8.679,5.689C251.459,33.959,251.967,34.321,252.224,34.186z"/>
	</g>
</g>
<g>
	<path fill="#EABB25" d="M247.377,32.479c0,0,21.55-4.142,23.509-2.912c1.964,1.23-0.311,4.494-6.872,6.285
		c-6.562,1.787-23.16,4.59-22.058,1.455C243.057,34.174,247.377,32.479,247.377,32.479z"/>
	<g>
		<path fill="#1B1B1B" d="M247.645,32.9c4.171-0.8,8.359-1.519,12.559-2.153c2.714-0.41,5.444-0.793,8.187-0.954
			c2.203-0.129,3.981,0.025,1.989,2.283c-2.332,2.644-6.552,3.397-9.83,4.129c-3.623,0.808-7.3,1.422-10.989,1.828
			c-2.241,0.247-5.246,0.77-7.396-0.176c-0.442-0.194,2.197-2.978,2.531-3.249C245.566,33.901,246.606,33.321,247.645,32.9
			c-0.01,0.004-0.437-0.884-0.535-0.844c-1.383,0.56-6.429,3.393-5.415,5.387c0.806,1.586,2.152,1.657,3.862,1.697
			c4.069,0.097,8.226-0.681,12.21-1.417c4.335-0.803,9.342-1.563,12.81-4.476c1.474-1.237,1.52-2.602,0.3-3.913
			c-1.179-1.269-5.34-0.205-6.753-0.04c-5.701,0.667-11.378,1.679-17.014,2.761C247.182,32.042,247.483,32.932,247.645,32.9z"/>
	</g>
</g>
<g>
	<path fill="#EABB25" d="M235.281,38.148c0,0-23.327-7.896-21.66-9.788c1.669-1.894,9.052-2.57,12.191-1.104
		c3.139,1.468,12.411,6.46,12.773,7.679C238.947,36.154,236.593,38.246,235.281,38.148z"/>
	<g>
		<path fill="#1B1B1B" d="M234.995,37.738c-3.08-1.043-6.139-2.154-9.18-3.305c-3.876-1.468-9.04-2.836-12.19-5.666
			c0.504,0.453,0.053,0.342,0.282,0.002c0.285-0.422,0.9-0.666,1.337-0.873c1.384-0.654,3.024-0.829,4.527-0.966
			c3.01-0.274,5.54,0.309,8.19,1.652c2.72,1.378,5.397,2.857,7.989,4.462c0.637,0.395,1.256,0.812,1.86,1.253
			c0.445,0.324,0.512,0.526,0.519,0.614C238.442,36.33,236.141,37.648,234.995,37.738c0.13-0.01,0.371,0.836,0.572,0.82
			c2.05-0.162,4.1-2.275,2.725-4.114c-1.417-1.896-4.394-3.136-6.384-4.258c-2.979-1.681-6.069-3.694-9.529-4.065
			c-0.973-0.104-9.619,0.06-9.123,2.108c0.206,0.851,1.133,1.567,1.81,2.009c2.216,1.447,4.801,2.417,7.238,3.414
			c4.361,1.783,8.802,3.395,13.264,4.907C235.34,38.481,235.268,37.831,234.995,37.738z"/>
	</g>
</g>
<g>
	<path fill="#EABB25" d="M238.81,23.932c0,0-5.211-15.226-8.628-16.249c-2.916-0.872-4.887,10.262,4.356,20.776
		C242.457,37.467,239.229,25.681,238.81,23.932z"/>
	<g>
		<path fill="#1B1B1B" d="M239.119,24.326c-1.624-4.726-3.471-9.582-6.168-13.807c-0.726-1.137-1.648-2.504-2.866-3.149
			c-2.118-1.122-2.588,3.458-2.633,4.49c-0.312,7.15,4.278,14.248,9.312,18.98c1.556,1.464,3.312,2.004,3.358-0.664
			C240.157,28.21,239.581,26.221,239.119,24.326c-0.074-0.306-0.55-0.509-0.617-0.787c0.417,1.712,2.146,6.452,0.399,7.777
			c-0.566,0.43-1.558-0.32-1.954-0.6c-2.859-2.013-4.881-5.239-6.458-8.302c-1.543-2.996-2.448-6.39-2.42-9.767
			c0.012-1.447,0.235-3.467,1.479-4.42c1.846-1.416,3.849,3.278,4.476,4.5c1.776,3.46,3.214,7.136,4.478,10.812
			C238.606,23.844,239.021,24.042,239.119,24.326z"/>
	</g>
</g>
<g>
	<path fill="#EABB25" d="M237.336,39.016c0,0-20.512-22.057-19.433-24.297c1.078-2.239,16.028,9.188,19.547,13.091
		C240.969,31.709,239.619,39.904,237.336,39.016z"/>
	<g>
		<path fill="#1B1B1B" d="M237.822,39.135c-2.931-3.153-5.806-6.361-8.641-9.602c-3.63-4.15-8.255-8.608-10.604-13.672
			c-1.122-2.419,2.432-0.41,3.231,0.051c3.403,1.961,6.569,4.392,9.63,6.841c2.432,1.946,5.393,4.044,6.783,6.91
			c0.842,1.735,0.981,3.802,0.839,5.693c-0.041,0.546-0.58,3.913-1.717,3.631c-0.55-0.137-0.563-0.078-0.014,0.059
			c3.04,0.756,2.852-4.429,2.647-6.28c-0.458-4.159-3.735-6.618-6.732-9.094c-3.201-2.645-6.558-5.153-10.105-7.313
			c-1.52-0.925-3.282-1.946-5.114-2.05c-1.729-0.099,0.706,3.248,0.962,3.623c1.99,2.919,4.312,5.627,6.596,8.317
			c3.654,4.302,7.426,8.513,11.269,12.648C237.054,39.115,237.653,38.953,237.822,39.135z"/>
	</g>
</g>
<g>
	<path fill="#EABB25" d="M240.265,40.615c0,0,8.407-12.156,7.147-21.858c-1.26-9.7-1.496-10.564-3.503-10.623
		c-2.006-0.057-6.28,3.655-6.178,10.21c0.105,6.553-0.774,20.375,0.144,21.15C238.795,40.264,240.265,40.615,240.265,40.615z"/>
	<g>
		<path fill="#1B1B1B" d="M240.721,40.82c3.93-5.723,7.182-12.871,7.275-19.889c0.033-2.46-0.51-4.991-0.878-7.417
			c-0.213-1.401-0.397-2.911-1.016-4.203c-0.341-0.713-1.332-1.221-2.098-1.332c-3.077-0.443-5.233,3.413-6.09,5.792
			c-0.744,2.068-0.623,4.264-0.634,6.421c-0.012,2.275-0.083,4.55-0.143,6.825c-0.099,3.706-0.377,7.502-0.011,11.201
			c0.162,1.638,2.161,2.223,3.575,2.6c-0.218-0.058-0.588-0.326-0.877-0.402c-2.656-0.709-1.924-3.984-1.915-6.158
			c0.014-3.564,0.155-7.129,0.235-10.692c0.081-3.588-0.28-7.205,1.151-10.587c0.852-2.013,2.962-4.828,5.446-4.612
			c0.623,0.054-0.361-0.507,0.229,0.189c0.193,0.228,0.306,0.527,0.416,0.8c0.476,1.171,0.619,2.513,0.816,3.75
			c0.655,4.105,1.178,8.006,0.356,12.12c-1.069,5.35-3.672,10.699-6.754,15.187C239.83,40.38,240.674,40.888,240.721,40.82z"/>
	</g>
</g>
<g>
	<path fill="#EABB25" d="M247.233,20.203c0,0,4.394-6.857,6.769-8.115c2.374-1.259,3.064,4.885,2.473,6.867
		c-0.593,1.98-13.127,18.963-15.765,17.545C238.076,35.078,245.023,23.404,247.233,20.203z"/>
	<g>
		<path fill="#1B1B1B" d="M247.418,20.667c1.25-1.94,2.605-3.819,4.079-5.596c0.83-1.001,1.793-2.167,3.033-2.654
			c1.754-0.688,1.916,3.083,1.955,3.987c0.08,1.899-0.637,3.042-1.646,4.562c-1.55,2.335-3.259,4.569-5.007,6.758
			c-1.113,1.394-7.118,9.833-9.484,8.19c-1.114-0.773,2.232-6.929,2.632-7.716C244.295,25.605,245.78,23.069,247.418,20.667
			c0.116-0.17-0.464-0.793-0.371-0.929c-1.963,2.876-3.69,5.936-5.2,9.071c-0.968,2.01-2.517,4.834-1.632,7.104
			c1.543,3.96,8.931-5.949,9.988-7.26c3.28-4.064,8.146-8.744,6.185-14.424c-0.632-1.831-1.438-3.645-3.504-1.932
			c-2.368,1.964-4.184,4.874-5.837,7.441C246.932,19.917,247.511,20.523,247.418,20.667z"/>
	</g>
</g>
<g>
	<path fill="#68AC29" d="M232.201,32.562c3.08-2.283,10.832-2.44,16.573,2.432c3.93,3.33,2.535,5.463-0.226,6.102
		s-4.5,0.688-6.165,1.104c-1.667,0.416-2.946,3.203-4.145,10.645c-1.203,7.447-1.571,13.281-1.571,13.281l-2.969-0.621
		c0,0,3.96-18.951,4.004-21.736c0.036-2.223-5.676-3.486-5.876-5.957C231.627,35.342,231.144,33.348,232.201,32.562z"/>
	<g>
		<path fill="#1B1B1B" d="M232.701,32.572c5.242-3.564,12.831-0.552,16.805,3.604c4.771,4.988-5.037,5.198-7.622,6.014
			c-3.311,1.044-3.707,8.011-4.145,10.645c-0.729,4.389-1.282,8.839-1.571,13.281c0.327,0.005,0.655,0.009,0.982,0.014
			c-0.418-0.087-2.984-0.457-2.922-0.757c0.205-0.985,0.407-1.971,0.609-2.956c0.789-3.86,1.559-7.727,2.277-11.601
			c0.386-2.079,2.038-6.517,0.451-8.334c-1.311-1.502-3.442-2.054-4.776-3.572C231.741,37.717,231.567,33.736,232.701,32.572
			c-0.142,0.146-0.826-0.198-1-0.02c-1.239,1.271-0.607,4.076-0.298,5.628c0.312,1.57,2.884,2.628,4.062,3.402
			c2.582,1.696,1.526,4.247,1.074,6.856c-0.99,5.706-2.157,11.386-3.341,17.055c0.006,0.002,0.012,0.004,0.018,0.006
			c0.99,0.207,1.979,0.414,2.969,0.621c0.093,0.019,0.979,0.057,0.982,0.014c0.364-5.605,1.092-11.249,2.205-16.753
			c0.441-2.179,0.943-4.824,2.476-6.541c0.678-0.76,1.805-0.805,2.742-0.955c1.656-0.268,3.318-0.468,4.94-0.912
			c2.665-0.73,2.428-2.966,0.975-4.777c-2.043-2.548-5.442-4.046-8.542-4.787c-3.213-0.769-7.465-0.76-10.263,1.144
			C231.909,32.411,232.463,32.734,232.701,32.572z"/>
	</g>
</g>
<g>
	<path fill="#72B632" d="M241.296,58.228c0,0,15.62-13.637,18.572-15.345c2.951-1.706-0.441,9.521-5.715,13.84
		c-2.82,2.31-12.142,11.063-17.345,11.909c-1.855,0.303-3.947-1.07-3.947-1.07C232.163,65.027,241.296,58.228,241.296,58.228z"/>
	<g>
		<path fill="#1B1B1B" d="M241.507,58.681c3.315-2.893,6.656-5.757,10.023-8.588c2.168-1.823,4.347-3.64,6.591-5.369
			c0.633-0.487,1.273-0.976,1.958-1.388c1.052-0.633,0.724,0.044,0.558,1.09c-1.032,6.502-5.66,10.973-10.395,15.014
			c-2.856,2.439-5.799,4.81-9.009,6.771c-2.774,1.695-5.583,2.772-8.583,0.898c0.141,0.296,0.28,0.592,0.421,0.887
			c-0.341-2.134,2.802-4.536,4.145-5.77C238.581,60.973,240.024,59.79,241.507,58.681c0.086-0.064-0.444-0.89-0.422-0.906
			c-1.855,1.387-11.729,8.346-7.253,10.659c4.457,2.303,9.709-2.396,13.01-4.953c3.362-2.605,7.219-5.423,9.862-8.789
			c2.112-2.688,4.829-7.321,4.437-10.918c-0.213-1.949-1.468-1.41-2.647-0.554c-5.906,4.293-11.362,9.298-16.869,14.085
			c-0.18,0.156-0.359,0.312-0.539,0.47C240.987,57.86,241.547,58.646,241.507,58.681z"/>
	</g>
</g>
<g>
	<path fill="#474746" stroke="#474746" stroke-width="0.3" stroke-miterlimit="10" d="M12.876,30.821
		c-0.921,0-1.637-0.254-2.146-0.766c-0.511-0.51-0.766-1.299-0.766-2.365v-9.295H8.009c-0.101,0-0.183-0.027-0.246-0.082
		c-0.064-0.055-0.096-0.133-0.096-0.232v-0.506l2.324-0.164l0.324-4.867c0.01-0.082,0.043-0.154,0.102-0.219
		c0.059-0.062,0.138-0.096,0.236-0.096h0.609v5.195h4.279v0.971h-4.279v9.227c0,0.375,0.047,0.695,0.143,0.965
		s0.229,0.49,0.396,0.662c0.169,0.174,0.367,0.301,0.596,0.383c0.227,0.082,0.473,0.123,0.738,0.123
		c0.328,0,0.609-0.047,0.848-0.143c0.236-0.096,0.441-0.201,0.615-0.314c0.172-0.113,0.314-0.219,0.424-0.314
		s0.195-0.145,0.26-0.145c0.072,0,0.145,0.047,0.219,0.137l0.354,0.574c-0.347,0.383-0.786,0.691-1.319,0.924
		S13.45,30.821,12.876,30.821z"/>
	<path fill="#474746" stroke="#474746" stroke-width="0.3" stroke-miterlimit="10" d="M20.449,30.603V17.001h0.71
		c0.238,0,0.375,0.113,0.41,0.342l0.123,1.969c0.266-0.373,0.547-0.715,0.848-1.025s0.623-0.576,0.965-0.801
		c0.342-0.223,0.705-0.396,1.094-0.52c0.387-0.123,0.795-0.184,1.223-0.184c0.994,0,1.787,0.289,2.379,0.867
		c0.592,0.58,0.993,1.385,1.203,2.414c0.164-0.564,0.394-1.053,0.689-1.463c0.295-0.41,0.635-0.75,1.017-1.02
		c0.382-0.268,0.798-0.469,1.249-0.602c0.45-0.131,0.912-0.197,1.385-0.197c0.674,0,1.279,0.111,1.816,0.334
		c0.537,0.225,0.994,0.555,1.371,0.992c0.378,0.438,0.666,0.975,0.867,1.613c0.199,0.639,0.301,1.367,0.301,2.188v8.693H36.8v-8.693
		c0-1.33-0.287-2.346-0.861-3.043s-1.395-1.045-2.461-1.045c-0.475,0-0.928,0.086-1.36,0.26s-0.815,0.43-1.148,0.771
		s-0.597,0.77-0.793,1.279s-0.294,1.102-0.294,1.777v8.693h-1.299v-8.693c0-1.322-0.264-2.334-0.793-3.035
		c-0.528-0.701-1.299-1.053-2.311-1.053c-0.738,0-1.422,0.221-2.051,0.662c-0.629,0.443-1.189,1.057-1.682,1.84v10.279H20.449z"/>
	<path fill="#474746" d="M51.645,19.312c-0.091,0.146-0.187,0.248-0.287,0.307c-0.101,0.061-0.228,0.09-0.383,0.09
		c-0.164,0-0.339-0.045-0.526-0.137c-0.187-0.092-0.402-0.193-0.648-0.309c-0.246-0.113-0.527-0.215-0.842-0.307
		s-0.686-0.137-1.113-0.137c-0.666,0-1.189,0.141-1.572,0.424s-0.574,0.652-0.574,1.107c0,0.301,0.098,0.553,0.293,0.758
		c0.196,0.205,0.456,0.385,0.779,0.541c0.324,0.154,0.691,0.293,1.102,0.416s0.828,0.258,1.258,0.404
		c0.428,0.145,0.848,0.311,1.257,0.498c0.41,0.188,0.777,0.424,1.101,0.711c0.324,0.287,0.584,0.631,0.779,1.033
		c0.195,0.4,0.294,0.883,0.294,1.447c0,0.676-0.123,1.297-0.369,1.867s-0.606,1.062-1.08,1.477s-1.06,0.738-1.757,0.971
		s-1.496,0.348-2.398,0.348c-0.483,0-0.955-0.043-1.416-0.129c-0.459-0.088-0.902-0.207-1.325-0.363
		c-0.424-0.154-0.815-0.336-1.176-0.547c-0.36-0.209-0.677-0.438-0.95-0.684l0.779-1.285c0.1-0.154,0.219-0.273,0.355-0.355
		s0.31-0.123,0.52-0.123c0.209,0,0.408,0.061,0.595,0.178c0.187,0.119,0.403,0.246,0.649,0.383s0.535,0.266,0.867,0.383
		c0.333,0.119,0.754,0.178,1.266,0.178c0.4,0,0.744-0.047,1.031-0.143s0.524-0.221,0.711-0.377c0.188-0.154,0.324-0.334,0.41-0.539
		c0.087-0.205,0.131-0.418,0.131-0.637c0-0.328-0.099-0.596-0.295-0.807c-0.195-0.209-0.455-0.391-0.779-0.547
		c-0.323-0.154-0.692-0.293-1.107-0.416c-0.414-0.123-0.838-0.258-1.271-0.402c-0.433-0.146-0.855-0.318-1.271-0.514
		c-0.414-0.195-0.783-0.443-1.106-0.744s-0.583-0.67-0.779-1.107s-0.294-0.967-0.294-1.586c0-0.574,0.113-1.121,0.342-1.641
		c0.228-0.52,0.562-0.973,1.005-1.361c0.442-0.387,0.993-0.697,1.653-0.93c0.661-0.232,1.424-0.348,2.291-0.348
		c0.965,0,1.846,0.16,2.638,0.479c0.793,0.318,1.454,0.738,1.982,1.258L51.645,19.312z"/>
	<path fill="#474746" d="M66.108,19.544c-0.101,0.127-0.198,0.229-0.294,0.301s-0.235,0.109-0.417,0.109
		c-0.174,0-0.342-0.053-0.506-0.158c-0.164-0.104-0.359-0.223-0.588-0.355c-0.228-0.131-0.499-0.25-0.813-0.355
		c-0.314-0.104-0.704-0.156-1.169-0.156c-0.592,0-1.111,0.107-1.559,0.32c-0.446,0.215-0.818,0.523-1.113,0.924
		c-0.297,0.4-0.518,0.887-0.664,1.455c-0.146,0.57-0.219,1.215-0.219,1.936c0,0.746,0.08,1.412,0.24,1.994
		c0.159,0.584,0.389,1.074,0.689,1.471s0.666,0.697,1.094,0.902c0.429,0.205,0.912,0.307,1.449,0.307
		c0.538,0,0.973-0.064,1.306-0.197s0.613-0.277,0.841-0.438c0.229-0.16,0.426-0.305,0.595-0.438s0.357-0.199,0.567-0.199
		c0.273,0,0.479,0.105,0.615,0.314l0.971,1.23c-0.374,0.438-0.779,0.805-1.217,1.102c-0.438,0.295-0.891,0.533-1.36,0.711
		s-0.954,0.303-1.456,0.375c-0.501,0.074-0.998,0.109-1.49,0.109c-0.865,0-1.682-0.162-2.447-0.484
		c-0.766-0.324-1.433-0.795-2.002-1.416c-0.57-0.619-1.021-1.377-1.354-2.275c-0.333-0.898-0.499-1.92-0.499-3.068
		c0-1.031,0.147-1.984,0.444-2.865c0.296-0.879,0.731-1.641,1.306-2.283c0.573-0.643,1.284-1.145,2.132-1.51
		s1.823-0.547,2.926-0.547c1.049,0,1.967,0.168,2.755,0.506s1.497,0.82,2.126,1.449L66.108,19.544z"/>
	<path fill="#474746" d="M70.278,30.603V10.288h3.376v7.807c0.547-0.52,1.148-0.939,1.805-1.258s1.427-0.479,2.31-0.479
		c0.766,0,1.445,0.129,2.037,0.389c0.593,0.26,1.088,0.625,1.484,1.094c0.396,0.471,0.697,1.031,0.902,1.682
		c0.205,0.652,0.307,1.369,0.307,2.154v8.926h-3.377v-8.926c0-0.857-0.197-1.52-0.594-1.99c-0.396-0.469-0.992-0.703-1.784-0.703
		c-0.583,0-1.13,0.133-1.641,0.396s-0.993,0.625-1.449,1.08v10.143H70.278z"/>
	<path fill="#474746" d="M84.851,16.577h2.68c0.255,0,0.469,0.059,0.643,0.178c0.173,0.119,0.282,0.27,0.328,0.451l2.01,7.492
		c0.109,0.408,0.197,0.811,0.266,1.201c0.068,0.393,0.135,0.785,0.199,1.176c0.1-0.391,0.207-0.783,0.32-1.176
		c0.114-0.391,0.234-0.793,0.363-1.201l2.323-7.52c0.055-0.182,0.164-0.332,0.328-0.451s0.355-0.178,0.574-0.178h1.49
		c0.246,0,0.451,0.059,0.615,0.178s0.273,0.27,0.328,0.451l2.296,7.654c0.119,0.393,0.227,0.773,0.322,1.143s0.189,0.74,0.279,1.113
		c0.064-0.391,0.135-0.783,0.213-1.176c0.077-0.391,0.175-0.797,0.293-1.215l2.078-7.492c0.046-0.182,0.155-0.332,0.328-0.451
		c0.174-0.119,0.374-0.178,0.602-0.178h2.557l-4.443,14.025h-2.72c-0.292,0-0.501-0.199-0.629-0.602l-2.529-8.105
		c-0.082-0.266-0.157-0.531-0.226-0.801c-0.068-0.268-0.125-0.535-0.171-0.799c-0.055,0.273-0.114,0.545-0.178,0.812
		c-0.063,0.27-0.137,0.541-0.219,0.814l-2.556,8.078c-0.129,0.402-0.375,0.602-0.738,0.602h-2.584L84.851,16.577z"/>
	<path fill="#474746" d="M114.966,16.358c0.885,0,1.697,0.141,2.44,0.424s1.383,0.695,1.921,1.236
		c0.537,0.543,0.957,1.209,1.258,1.996c0.301,0.789,0.451,1.689,0.451,2.701c0,0.254-0.012,0.467-0.034,0.635
		s-0.063,0.301-0.123,0.396s-0.14,0.164-0.239,0.205c-0.101,0.041-0.229,0.062-0.383,0.062h-8.668
		c0.101,1.439,0.488,2.496,1.162,3.17c0.675,0.676,1.568,1.012,2.68,1.012c0.547,0,1.019-0.062,1.415-0.191
		c0.396-0.127,0.743-0.268,1.039-0.424c0.296-0.154,0.556-0.295,0.779-0.424c0.224-0.127,0.439-0.191,0.649-0.191
		c0.137,0,0.255,0.027,0.355,0.082c0.1,0.055,0.187,0.133,0.26,0.232l0.984,1.23c-0.374,0.438-0.793,0.805-1.258,1.102
		c-0.465,0.295-0.95,0.533-1.456,0.711s-1.021,0.303-1.545,0.375c-0.524,0.074-1.032,0.109-1.524,0.109
		c-0.975,0-1.882-0.162-2.721-0.484c-0.838-0.324-1.566-0.803-2.187-1.436s-1.107-1.418-1.463-2.352s-0.533-2.016-0.533-3.246
		c0-0.957,0.155-1.857,0.465-2.701c0.31-0.842,0.754-1.576,1.333-2.201c0.578-0.623,1.285-1.117,2.119-1.482
		S113.918,16.358,114.966,16.358z M115.034,18.778c-0.984,0-1.754,0.277-2.311,0.834c-0.556,0.557-0.911,1.344-1.066,2.365h6.344
		c0-0.438-0.059-0.85-0.178-1.238c-0.119-0.387-0.301-0.727-0.547-1.018s-0.556-0.521-0.93-0.691
		C115.974,18.862,115.536,18.778,115.034,18.778z"/>
	<path fill="#474746" d="M129.621,16.331c0.602,0,1.167,0.061,1.695,0.184s1.011,0.305,1.448,0.541h4.033v1.258
		c0,0.209-0.055,0.373-0.164,0.492s-0.296,0.201-0.561,0.246l-1.258,0.232c0.092,0.236,0.162,0.488,0.213,0.752
		c0.049,0.264,0.074,0.543,0.074,0.834c0,0.691-0.139,1.318-0.416,1.879c-0.279,0.561-0.662,1.037-1.148,1.43
		c-0.488,0.391-1.066,0.693-1.736,0.908s-1.396,0.32-2.181,0.32c-0.528,0-1.044-0.049-1.545-0.15
		c-0.438,0.268-0.656,0.566-0.656,0.896c0,0.285,0.13,0.492,0.39,0.627c0.26,0.133,0.602,0.227,1.025,0.281s0.904,0.082,1.442,0.082
		s1.089,0.023,1.653,0.07c0.566,0.045,1.117,0.125,1.654,0.238c0.538,0.115,1.02,0.295,1.443,0.543
		c0.424,0.246,0.766,0.582,1.025,1.008s0.389,0.971,0.389,1.639c0,0.621-0.152,1.225-0.457,1.811
		c-0.307,0.586-0.748,1.105-1.326,1.564c-0.58,0.457-1.288,0.824-2.127,1.104c-0.838,0.279-1.795,0.418-2.87,0.418
		c-1.066,0-1.991-0.102-2.775-0.307s-1.433-0.479-1.948-0.82c-0.515-0.342-0.9-0.736-1.154-1.184
		c-0.256-0.447-0.383-0.912-0.383-1.395c0-0.656,0.199-1.207,0.602-1.654c0.4-0.445,0.957-0.801,1.668-1.066
		c-0.348-0.191-0.625-0.445-0.834-0.766c-0.211-0.318-0.314-0.732-0.314-1.244c0-0.209,0.035-0.426,0.109-0.648
		c0.072-0.223,0.184-0.445,0.334-0.664s0.34-0.426,0.568-0.621c0.227-0.195,0.496-0.371,0.806-0.525
		c-0.71-0.383-1.269-0.895-1.675-1.531c-0.405-0.639-0.607-1.387-0.607-2.242c0-0.693,0.139-1.32,0.416-1.881
		c0.278-0.561,0.666-1.039,1.162-1.436c0.497-0.396,1.085-0.699,1.764-0.908S128.819,16.331,129.621,16.331z M133.325,31.192
		c0-0.279-0.082-0.508-0.246-0.684c-0.164-0.178-0.387-0.314-0.67-0.412c-0.281-0.098-0.612-0.17-0.99-0.217
		c-0.379-0.047-0.779-0.07-1.203-0.07s-0.861,0-1.312,0s-0.887-0.049-1.306-0.15c-0.383,0.211-0.69,0.459-0.923,0.746
		s-0.349,0.617-0.349,0.99c0,0.246,0.062,0.477,0.185,0.691c0.123,0.213,0.319,0.398,0.588,0.553
		c0.27,0.154,0.617,0.275,1.046,0.363c0.429,0.086,0.952,0.129,1.572,0.129c0.629,0,1.171-0.049,1.627-0.146
		s0.831-0.232,1.128-0.404c0.296-0.172,0.512-0.377,0.648-0.615C133.257,31.729,133.325,31.472,133.325,31.192z M129.621,23.249
		c0.419,0,0.784-0.059,1.094-0.172s0.567-0.271,0.772-0.471c0.205-0.201,0.359-0.443,0.465-0.725
		c0.104-0.283,0.156-0.594,0.156-0.93c0-0.693-0.207-1.242-0.621-1.648c-0.415-0.404-1.037-0.607-1.866-0.607
		s-1.452,0.203-1.866,0.607c-0.414,0.406-0.622,0.955-0.622,1.648c0,0.328,0.052,0.633,0.157,0.916
		c0.105,0.281,0.26,0.525,0.465,0.73s0.465,0.365,0.779,0.479S129.211,23.249,129.621,23.249z"/>
	<path fill="#474746" d="M143.497,10.288v20.314h-3.377V10.288H143.497z"/>
	<path fill="#474746" d="M153.543,16.358c0.885,0,1.697,0.141,2.441,0.424c0.742,0.283,1.383,0.695,1.92,1.236
		c0.537,0.543,0.957,1.209,1.258,1.996c0.301,0.789,0.451,1.689,0.451,2.701c0,0.254-0.012,0.467-0.033,0.635
		c-0.023,0.168-0.064,0.301-0.123,0.396c-0.061,0.096-0.141,0.164-0.24,0.205s-0.229,0.062-0.383,0.062h-8.668
		c0.102,1.439,0.488,2.496,1.162,3.17c0.676,0.676,1.568,1.012,2.68,1.012c0.547,0,1.02-0.062,1.416-0.191
		c0.396-0.127,0.742-0.268,1.039-0.424c0.295-0.154,0.555-0.295,0.779-0.424c0.223-0.127,0.439-0.191,0.648-0.191
		c0.137,0,0.256,0.027,0.355,0.082s0.188,0.133,0.26,0.232l0.984,1.23c-0.373,0.438-0.793,0.805-1.258,1.102
		c-0.465,0.295-0.949,0.533-1.455,0.711s-1.021,0.303-1.545,0.375c-0.525,0.074-1.033,0.109-1.525,0.109
		c-0.975,0-1.881-0.162-2.721-0.484c-0.838-0.324-1.566-0.803-2.186-1.436c-0.621-0.633-1.107-1.418-1.463-2.352
		s-0.533-2.016-0.533-3.246c0-0.957,0.154-1.857,0.465-2.701c0.309-0.842,0.754-1.576,1.332-2.201
		c0.578-0.623,1.285-1.117,2.119-1.482S152.497,16.358,153.543,16.358z M153.612,18.778c-0.984,0-1.754,0.277-2.311,0.834
		c-0.555,0.557-0.91,1.344-1.066,2.365h6.344c0-0.438-0.059-0.85-0.178-1.238c-0.119-0.387-0.301-0.727-0.547-1.018
		s-0.555-0.521-0.93-0.691C154.551,18.862,154.114,18.778,153.612,18.778z"/>
	<path fill="#474746" d="M162.799,30.603V16.577h1.982c0.346,0,0.588,0.064,0.725,0.191s0.227,0.346,0.273,0.656l0.205,1.695
		c0.5-0.865,1.088-1.549,1.764-2.051c0.674-0.502,1.43-0.752,2.268-0.752c0.693,0,1.268,0.16,1.723,0.479l-0.438,2.529
		c-0.027,0.164-0.086,0.279-0.178,0.348c-0.09,0.068-0.213,0.104-0.369,0.104c-0.137,0-0.322-0.031-0.561-0.096
		c-0.236-0.064-0.551-0.096-0.941-0.096c-0.703,0-1.305,0.193-1.805,0.58c-0.502,0.389-0.926,0.955-1.271,1.703v8.734H162.799z"/>
	<g>
		<path fill="none" d="M121.296,21.938"/>
	</g>
</g>
</svg>
